<svg xmlns="http://www.w3.org/2000/svg" xmlns:xlink="http://www.w3.org/1999/xlink" contentStyleType="text/css" data-diagram-type="CLASS" height="948px" preserveAspectRatio="none" style="width:1044px;height:948px;background:#FFFFFF;" version="1.1" viewBox="0 0 1044 948" width="1044px" zoomAndPan="magnify"><?plantuml 1.2026.7beta1?><defs/><g><!--cluster Domain Model--><g class="cluster" data-qualified-name="Domain Model" data-source-line="9" id="ent0001"><path d="M8.5,6 L106.168,6 A3.75,3.75 0 0 1 108.668,8.5 L115.668,25.9688 L1003.5,25.9688 A2.5,2.5 0 0 1 1006,28.4688 L1006,930.69 A2.5,2.5 0 0 1 1003.5,933.19 L8.5,933.19 A2.5,2.5 0 0 1 6,930.69 L6,8.5 A2.5,2.5 0 0 1 8.5,6" fill="#FEFEFE" style="stroke:#000000;stroke-width:1.5;"/><line style="stroke:#000000;stroke-width:1.5;" x1="6" x2="115.668" y1="25.9688" y2="25.9688"/><text fill="#000000" font-family="Helvetica" font-size="12" font-weight="700" lengthAdjust="spacing" textLength="96.668" x="10" y="19.1387">Domain Model</text></g><!--class Permission--><g class="entity" data-qualified-name="Domain Model.Permission" data-source-line="14" id="ent0002"><rect fill="#F0F8FF" height="87.9063" rx="2.5" ry="2.5" style="stroke:#181818;stroke-width:0.5;" width="95.3613" x="739.32" y="673.36"/><ellipse cx="753.32" cy="688.36" fill="#EB937F" rx="10" ry="10" style="stroke:#181818;stroke-width:1;"/><path d="M755.7575,692.86 L750.3044,692.86 L750.3044,684.11 L755.7575,684.11 L755.7575,685.6413 L752.0388,685.6413 L752.0388,687.5163 L755.3981,687.5163 L755.3981,689.0475 L752.0388,689.0475 L752.0388,691.3288 L755.7575,691.3288 L755.7575,692.86 Z " fill="#000000"/><text fill="#000000" font-family="Helvetica" font-size="12" lengthAdjust="spacing" textLength="65.3613" x="766.32" y="692.5143">Permission</text><line style="stroke:#181818;stroke-width:0.5;" x1="740.32" x2="833.6813" y1="703.36" y2="703.36"/><text fill="#000000" font-family="Helvetica" font-size="12" lengthAdjust="spacing" textLength="38.4551" x="745.32" y="718.4987">Admin</text><text fill="#000000" font-family="Helvetica" font-size="12" lengthAdjust="spacing" textLength="32.2207" x="745.32" y="732.4674">Write</text><text fill="#000000" font-family="Helvetica" font-size="12" lengthAdjust="spacing" textLength="30.6914" x="745.32" y="746.4362">Read</text><line style="stroke:#181818;stroke-width:0.5;" x1="740.32" x2="833.6813" y1="753.2663" y2="753.2663"/></g><!--class Bool--><g class="entity" data-qualified-name="Domain Model.Bool" data-source-line="20" id="ent0003"><rect fill="#F0F8FF" height="73.9375" rx="2.5" ry="2.5" style="stroke:#181818;stroke-width:0.5;" width="56.25" x="139.88" y="38"/><ellipse cx="153.88" cy="53" fill="#EB937F" rx="10" ry="10" style="stroke:#181818;stroke-width:1;"/><path d="M156.3175,57.5 L150.8644,57.5 L150.8644,48.75 L156.3175,48.75 L156.3175,50.2813 L152.5988,50.2813 L152.5988,52.1563 L155.9581,52.1563 L155.9581,53.6875 L152.5988,53.6875 L152.5988,55.9688 L156.3175,55.9688 L156.3175,57.5 Z " fill="#000000"/><text fill="#000000" font-family="Helvetica" font-size="12" lengthAdjust="spacing" textLength="26.25" x="166.88" y="57.1543">Bool</text><line style="stroke:#181818;stroke-width:0.5;" x1="140.88" x2="195.13" y1="68" y2="68"/><text fill="#000000" font-family="Helvetica" font-size="12" lengthAdjust="spacing" textLength="27.252" x="145.88" y="83.1387">True</text><text fill="#000000" font-family="Helvetica" font-size="12" lengthAdjust="spacing" textLength="31.2246" x="145.88" y="97.1074">False</text><line style="stroke:#181818;stroke-width:0.5;" x1="140.88" x2="195.13" y1="103.9375" y2="103.9375"/></g><!--class IfaceKind--><g class="entity" data-qualified-name="Domain Model.IfaceKind" data-source-line="25" id="ent0004"><rect fill="#F0F8FF" height="73.9375" rx="2.5" ry="2.5" style="stroke:#181818;stroke-width:0.5;" width="85.5234" x="466.24" y="38"/><ellipse cx="480.24" cy="53" fill="#EB937F" rx="10" ry="10" style="stroke:#181818;stroke-width:1;"/><path d="M482.6775,57.5 L477.2244,57.5 L477.2244,48.75 L482.6775,48.75 L482.6775,50.2813 L478.9588,50.2813 L478.9588,52.1563 L482.3181,52.1563 L482.3181,53.6875 L478.9588,53.6875 L478.9588,55.9688 L482.6775,55.9688 L482.6775,57.5 Z " fill="#000000"/><text fill="#000000" font-family="Helvetica" font-size="12" lengthAdjust="spacing" textLength="55.5234" x="493.24" y="57.1543">IfaceKind</text><line style="stroke:#181818;stroke-width:0.5;" x1="467.24" x2="550.7634" y1="68" y2="68"/><text fill="#000000" font-family="Helvetica" font-size="12" lengthAdjust="spacing" textLength="57.2578" x="472.24" y="83.1387">Database</text><text fill="#000000" font-family="Helvetica" font-size="12" lengthAdjust="spacing" textLength="18.9844" x="472.24" y="97.1074">API</text><line style="stroke:#181818;stroke-width:0.5;" x1="467.24" x2="550.7634" y1="103.9375" y2="103.9375"/></g><!--class Actor--><g class="entity" data-qualified-name="Domain Model.Actor" data-source-line="33" id="ent0005"><rect fill="#F0F8FF" height="59.9688" rx="2.5" ry="2.5" style="stroke:#181818;stroke-width:0.5;" width="215.7344" x="684.13" y="857.22"/><ellipse cx="772.1036" cy="872.22" fill="#ADD1B2" rx="10" ry="10" style="stroke:#181818;stroke-width:1;"/><path d="M773.9318,876.47 Q773.5255,876.6731 773.0724,876.7825 Q772.6193,876.8919 772.1349,876.8919 Q770.3536,876.8919 769.4161,875.7356 Q768.4943,874.5638 768.4943,872.3606 Q768.4943,870.1419 769.4161,868.9856 Q770.3536,867.8138 772.1349,867.8138 Q772.6193,867.8138 773.0724,867.9231 Q773.5411,868.0169 773.9318,868.2356 L773.9318,870.1575 Q773.4943,869.7513 773.0724,869.5638 Q772.6505,869.3606 772.213,869.3606 Q771.2599,869.3606 770.7755,870.1263 Q770.2911,870.8763 770.2911,872.3606 Q770.2911,873.8294 770.7755,874.5794 Q771.2599,875.3294 772.213,875.3294 Q772.6505,875.3294 773.0724,875.1419 Q773.4943,874.9544 773.9318,874.5481 L773.9318,876.47 Z " fill="#000000"/><text fill="#000000" font-family="Helvetica" font-size="12" lengthAdjust="spacing" textLength="31.7871" x="791.1036" y="876.3743">Actor</text><line style="stroke:#181818;stroke-width:0.5;" x1="685.13" x2="898.8644" y1="887.22" y2="887.22"/><g data-visibility-modifier="PUBLIC_FIELD"><ellipse cx="695.13" cy="899.7044" fill="none" rx="3" ry="3" style="stroke:#038048;stroke-width:1;"/></g><text fill="#000000" font-family="Helvetica" font-size="12" lengthAdjust="spacing" textLength="190.7344" x="703.13" y="902.3587">mayPerform : Set&lt;Permission&gt;</text><line style="stroke:#181818;stroke-width:0.5;" x1="685.13" x2="898.8644" y1="909.1888" y2="909.1888"/></g><!--class Resource--><g class="entity" data-qualified-name="Domain Model.Resource" data-source-line="37" id="ent0006"><rect fill="#F0F8FF" height="115.8438" rx="2.5" ry="2.5" style="stroke:#181818;stroke-width:0.5;" width="226.3984" x="21.8" y="659.39"/><ellipse cx="103.0822" cy="674.39" fill="#ADD1B2" rx="10" ry="10" style="stroke:#181818;stroke-width:1;"/><path d="M104.9104,678.64 Q104.5041,678.8431 104.051,678.9525 Q103.5979,679.0619 103.1135,679.0619 Q101.3322,679.0619 100.3947,677.9056 Q99.4729,676.7338 99.4729,674.5306 Q99.4729,672.3119 100.3947,671.1556 Q101.3322,669.9838 103.1135,669.9838 Q103.5979,669.9838 104.051,670.0931 Q104.5197,670.1869 104.9104,670.4056 L104.9104,672.3275 Q104.4729,671.9213 104.051,671.7338 Q103.6291,671.5306 103.1916,671.5306 Q102.2385,671.5306 101.7541,672.2963 Q101.2697,673.0463 101.2697,674.5306 Q101.2697,675.9994 101.7541,676.7494 Q102.2385,677.4994 103.1916,677.4994 Q103.6291,677.4994 104.051,677.3119 Q104.4729,677.1244 104.9104,676.7181 L104.9104,678.64 Z " fill="#000000"/><text fill="#000000" font-family="Helvetica" font-size="12" lengthAdjust="spacing" textLength="55.834" x="122.0822" y="678.5443">Resource</text><line style="stroke:#181818;stroke-width:0.5;" x1="22.8" x2="247.1984" y1="689.39" y2="689.39"/><g data-visibility-modifier="PUBLIC_FIELD"><ellipse cx="32.8" cy="701.8744" fill="none" rx="3" ry="3" style="stroke:#038048;stroke-width:1;"/></g><text fill="#000000" font-family="Helvetica" font-size="12" lengthAdjust="spacing" textLength="80.5371" x="40.8" y="704.5287">owner : Actor</text><g data-visibility-modifier="PUBLIC_FIELD"><ellipse cx="32.8" cy="715.8431" fill="none" rx="3" ry="3" style="stroke:#038048;stroke-width:1;"/></g><text fill="#000000" font-family="Helvetica" font-size="12" lengthAdjust="spacing" textLength="145.377" x="40.8" y="718.4974">accessible : Set&lt;Actor&gt;</text><line style="stroke:#181818;stroke-width:0.5;" x1="22.8" x2="247.1984" y1="725.3275" y2="725.3275"/><g data-visibility-modifier="PUBLIC_METHOD"><ellipse cx="32.8" cy="737.8119" fill="#84BE84" rx="3" ry="3" style="stroke:#038048;stroke-width:1;"/></g><text fill="#000000" font-family="Helvetica" font-size="12" lengthAdjust="spacing" textLength="170.4141" x="40.8" y="740.4662">getAccessibleAccounts(FDT)</text><g data-visibility-modifier="PUBLIC_METHOD"><ellipse cx="32.8" cy="751.7806" fill="#84BE84" rx="3" ry="3" style="stroke:#038048;stroke-width:1;"/></g><text fill="#000000" font-family="Helvetica" font-size="12" lengthAdjust="spacing" textLength="201.3984" x="40.8" y="754.4349">checkAccessible(User, accountId)</text><g data-visibility-modifier="PUBLIC_METHOD"><ellipse cx="32.8" cy="765.7494" fill="#84BE84" rx="3" ry="3" style="stroke:#038048;stroke-width:1;"/></g><text fill="#000000" font-family="Helvetica" font-size="12" lengthAdjust="spacing" textLength="91.1543" x="40.8" y="768.4037">getResources()</text></g><g class="entity" data-qualified-name="Domain Model.GMN7" data-source-line="44" id="ent0008"><path d="M46.53,458.61 L46.53,482.5788 A0,0 0 0 0 46.53,482.5788 L131,482.5788 L135,659.07 L139,482.5788 L223.4655,482.5788 A0,0 0 0 0 223.4655,482.5788 L223.4655,468.61 L213.4655,458.61 L46.53,458.61 A0,0 0 0 0 46.53,458.61" fill="#FFFFE0" style="stroke:#181818;stroke-width:0.5;"/><path d="M213.4655,458.61 L213.4655,468.61 L223.4655,468.61 L213.4655,458.61" fill="#FFFFE0" style="stroke:#181818;stroke-width:0.5;"/><text fill="#000000" font-family="Helvetica" font-size="12" lengthAdjust="spacing" textLength="155.9355" x="52.53" y="474.7487">invar: owner in accessible</text></g><!--class Interface--><g class="entity" data-qualified-name="Domain Model.Interface" data-source-line="46" id="ent0010"><rect fill="#F0F8FF" height="129.8125" rx="2.5" ry="2.5" style="stroke:#181818;stroke-width:0.5;" width="221.6582" x="283.17" y="652.41"/><ellipse cx="363.1368" cy="667.41" fill="#ADD1B2" rx="10" ry="10" style="stroke:#181818;stroke-width:1;"/><path d="M364.9649,671.66 Q364.5587,671.8631 364.1055,671.9725 Q363.6524,672.0819 363.168,672.0819 Q361.3868,672.0819 360.4493,670.9256 Q359.5274,669.7538 359.5274,667.5506 Q359.5274,665.3319 360.4493,664.1756 Q361.3868,663.0038 363.168,663.0038 Q363.6524,663.0038 364.1055,663.1131 Q364.5743,663.2069 364.9649,663.4256 L364.9649,665.3475 Q364.5274,664.9413 364.1055,664.7538 Q363.6837,664.5506 363.2462,664.5506 Q362.293,664.5506 361.8087,665.3163 Q361.3243,666.0663 361.3243,667.5506 Q361.3243,669.0194 361.8087,669.7694 Q362.293,670.5194 363.2462,670.5194 Q363.6837,670.5194 364.1055,670.3319 Q364.5274,670.1444 364.9649,669.7381 L364.9649,671.66 Z " fill="#000000"/><text fill="#000000" font-family="Helvetica" font-size="12" lengthAdjust="spacing" textLength="53.7246" x="382.1368" y="671.5643">Interface</text><line style="stroke:#181818;stroke-width:0.5;" x1="284.17" x2="503.8282" y1="682.41" y2="682.41"/><g data-visibility-modifier="PUBLIC_FIELD"><ellipse cx="294.17" cy="694.8944" fill="none" rx="3" ry="3" style="stroke:#038048;stroke-width:1;"/></g><text fill="#000000" font-family="Helvetica" font-size="12" lengthAdjust="spacing" textLength="92.7012" x="302.17" y="697.5487">kind : IfaceKind</text><g data-visibility-modifier="PUBLIC_FIELD"><ellipse cx="294.17" cy="708.8631" fill="none" rx="3" ry="3" style="stroke:#038048;stroke-width:1;"/></g><text fill="#000000" font-family="Helvetica" font-size="12" lengthAdjust="spacing" textLength="98.8652" x="302.17" y="711.5174">encrypted : Bool</text><g data-visibility-modifier="PUBLIC_FIELD"><ellipse cx="294.17" cy="722.8319" fill="none" rx="3" ry="3" style="stroke:#038048;stroke-width:1;"/></g><text fill="#000000" font-family="Helvetica" font-size="12" lengthAdjust="spacing" textLength="121.875" x="302.17" y="725.4862">authenticated : Bool</text><line style="stroke:#181818;stroke-width:0.5;" x1="284.17" x2="503.8282" y1="732.3163" y2="732.3163"/><g data-visibility-modifier="PUBLIC_METHOD"><ellipse cx="294.17" cy="744.8006" fill="#84BE84" rx="3" ry="3" style="stroke:#038048;stroke-width:1;"/></g><text fill="#000000" font-family="Helvetica" font-size="12" lengthAdjust="spacing" textLength="171.2344" x="302.17" y="747.4549">getChannel(Withdrawal_API)</text><g data-visibility-modifier="PUBLIC_METHOD"><ellipse cx="294.17" cy="758.7694" fill="#84BE84" rx="3" ry="3" style="stroke:#038048;stroke-width:1;"/></g><text fill="#000000" font-family="Helvetica" font-size="12" lengthAdjust="spacing" textLength="196.6582" x="302.17" y="761.4237">isAuthenticated(Withdrawal_API)</text><g data-visibility-modifier="PUBLIC_METHOD"><ellipse cx="294.17" cy="772.7381" fill="#84BE84" rx="3" ry="3" style="stroke:#038048;stroke-width:1;"/></g><text fill="#000000" font-family="Helvetica" font-size="12" lengthAdjust="spacing" textLength="84.5859" x="302.17" y="775.3924">getChannels()</text></g><!--class State--><g class="entity" data-qualified-name="Domain Model.State" data-source-line="55" id="ent0011"><rect fill="#F0F8FF" height="87.9063" rx="2.5" ry="2.5" style="stroke:#181818;stroke-width:0.5;" width="164.5234" x="539.74" y="673.36"/><ellipse cx="602.1199" cy="688.36" fill="#ADD1B2" rx="10" ry="10" style="stroke:#181818;stroke-width:1;"/><path d="M603.948,692.61 Q603.5418,692.8131 603.0886,692.9225 Q602.6355,693.0319 602.1511,693.0319 Q600.3699,693.0319 599.4324,691.8756 Q598.5105,690.7038 598.5105,688.5006 Q598.5105,686.2819 599.4324,685.1256 Q600.3699,683.9538 602.1511,683.9538 Q602.6355,683.9538 603.0886,684.0631 Q603.5574,684.1569 603.948,684.3756 L603.948,686.2975 Q603.5105,685.8913 603.0886,685.7038 Q602.6668,685.5006 602.2293,685.5006 Q601.2761,685.5006 600.7918,686.2663 Q600.3074,687.0163 600.3074,688.5006 Q600.3074,689.9694 600.7918,690.7194 Q601.2761,691.4694 602.2293,691.4694 Q602.6668,691.4694 603.0886,691.2819 Q603.5105,691.0944 603.948,690.6881 L603.948,692.61 Z " fill="#000000"/><text fill="#000000" font-family="Helvetica" font-size="12" lengthAdjust="spacing" textLength="31.7637" x="621.1199" y="692.5143">State</text><line style="stroke:#181818;stroke-width:0.5;" x1="540.74" x2="703.2634" y1="703.36" y2="703.36"/><line style="stroke:#181818;stroke-width:0.5;" x1="540.74" x2="703.2634" y1="711.36" y2="711.36"/><g data-visibility-modifier="PUBLIC_METHOD"><ellipse cx="550.74" cy="723.8444" fill="#84BE84" rx="3" ry="3" style="stroke:#038048;stroke-width:1;"/></g><text fill="#000000" font-family="Helvetica" font-size="12" lengthAdjust="spacing" textLength="123" x="558.74" y="726.4987">checkPreState(Pre1)</text><g data-visibility-modifier="PUBLIC_METHOD"><ellipse cx="550.74" cy="737.8131" fill="#84BE84" rx="3" ry="3" style="stroke:#038048;stroke-width:1;"/></g><text fill="#000000" font-family="Helvetica" font-size="12" lengthAdjust="spacing" textLength="124.3125" x="558.74" y="740.4674">lockState(accountId)</text><g data-visibility-modifier="PUBLIC_METHOD"><ellipse cx="550.74" cy="751.7819" fill="#84BE84" rx="3" ry="3" style="stroke:#038048;stroke-width:1;"/></g><text fill="#000000" font-family="Helvetica" font-size="12" lengthAdjust="spacing" textLength="139.5234" x="558.74" y="754.4362">unlockState(accountId)</text></g><!--class REQ_FRAUD_01--><g class="entity" data-qualified-name="Domain Model.REQ_FRAUD_01" data-source-line="62" id="ent0012"><rect fill="#F0F8FF" height="213.625" rx="2.5" ry="2.5" style="stroke:#181818;stroke-width:0.5;" width="271.8906" x="514.05" y="363.78"/><ellipse cx="598.9416" cy="378.78" fill="#ADD1B2" rx="10" ry="10" style="stroke:#181818;stroke-width:1;"/><path d="M600.7697,383.03 Q600.3635,383.2331 599.9104,383.3425 Q599.4572,383.4519 598.9729,383.4519 Q597.1916,383.4519 596.2541,382.2956 Q595.3322,381.1238 595.3322,378.9206 Q595.3322,376.7019 596.2541,375.5456 Q597.1916,374.3738 598.9729,374.3738 Q599.4572,374.3738 599.9104,374.4831 Q600.3791,374.5769 600.7697,374.7956 L600.7697,376.7175 Q600.3322,376.3113 599.9104,376.1238 Q599.4885,375.9206 599.051,375.9206 Q598.0979,375.9206 597.6135,376.6863 Q597.1291,377.4363 597.1291,378.9206 Q597.1291,380.3894 597.6135,381.1394 Q598.0979,381.8894 599.051,381.8894 Q599.4885,381.8894 599.9104,381.7019 Q600.3322,381.5144 600.7697,381.1081 L600.7697,383.03 Z " fill="#000000"/><text fill="#000000" font-family="Helvetica" font-size="12" lengthAdjust="spacing" textLength="94.1074" x="617.9416" y="382.9343">REQ_FRAUD_01</text><line style="stroke:#181818;stroke-width:0.5;" x1="515.05" x2="784.9406" y1="393.78" y2="393.78"/><g data-visibility-modifier="PUBLIC_FIELD"><ellipse cx="525.05" cy="406.2644" fill="none" rx="3" ry="3" style="stroke:#038048;stroke-width:1;"/></g><text fill="#000000" font-family="Helvetica" font-size="12" lengthAdjust="spacing" textLength="90.1055" x="533.05" y="408.9187">initiator : Actor</text><g data-visibility-modifier="PUBLIC_FIELD"><ellipse cx="525.05" cy="420.2331" fill="none" rx="3" ry="3" style="stroke:#038048;stroke-width:1;"/></g><text fill="#000000" font-family="Helvetica" font-size="12" lengthAdjust="spacing" textLength="205.3535" x="533.05" y="422.8874">target : Resource[*]  ' at least one</text><g data-visibility-modifier="PUBLIC_FIELD"><ellipse cx="525.05" cy="434.2019" fill="none" rx="3" ry="3" style="stroke:#038048;stroke-width:1;"/></g><text fill="#000000" font-family="Helvetica" font-size="12" lengthAdjust="spacing" textLength="210.2168" x="533.05" y="436.8562">channel : Interface[*] ' at least one</text><g data-visibility-modifier="PUBLIC_FIELD"><ellipse cx="525.05" cy="448.1706" fill="none" rx="3" ry="3" style="stroke:#038048;stroke-width:1;"/></g><text fill="#000000" font-family="Helvetica" font-size="12" lengthAdjust="spacing" textLength="109.248" x="533.05" y="450.8249">grant : Permission</text><g data-visibility-modifier="PUBLIC_FIELD"><ellipse cx="525.05" cy="462.1394" fill="none" rx="3" ry="3" style="stroke:#038048;stroke-width:1;"/></g><text fill="#000000" font-family="Helvetica" font-size="12" lengthAdjust="spacing" textLength="63.3691" x="533.05" y="464.7937">pre : State</text><g data-visibility-modifier="PUBLIC_FIELD"><ellipse cx="525.05" cy="476.1081" fill="none" rx="3" ry="3" style="stroke:#038048;stroke-width:1;"/></g><text fill="#000000" font-family="Helvetica" font-size="12" lengthAdjust="spacing" textLength="69.3516" x="533.05" y="478.7624">post : State</text><line style="stroke:#181818;stroke-width:0.5;" x1="515.05" x2="784.9406" y1="485.5925" y2="485.5925"/><g data-visibility-modifier="PUBLIC_METHOD"><ellipse cx="525.05" cy="498.0769" fill="#84BE84" rx="3" ry="3" style="stroke:#038048;stroke-width:1;"/></g><text fill="#000000" font-family="Helvetica" font-size="12" lengthAdjust="spacing" textLength="210.0117" x="533.05" y="500.7312">create(initiator=FDT, grant=Write)</text><g data-visibility-modifier="PUBLIC_METHOD"><ellipse cx="525.05" cy="512.0456" fill="#84BE84" rx="3" ry="3" style="stroke:#038048;stroke-width:1;"/></g><text fill="#000000" font-family="Helvetica" font-size="12" lengthAdjust="spacing" textLength="134.3613" x="533.05" y="514.6999">validatePreCondition()</text><g data-visibility-modifier="PUBLIC_METHOD"><ellipse cx="525.05" cy="526.0144" fill="#84BE84" rx="3" ry="3" style="stroke:#038048;stroke-width:1;"/></g><text fill="#000000" font-family="Helvetica" font-size="12" lengthAdjust="spacing" textLength="118.1719" x="533.05" y="528.6687">setPostState(Post1)</text><g data-visibility-modifier="PUBLIC_METHOD"><ellipse cx="525.05" cy="539.9831" fill="#84BE84" rx="3" ry="3" style="stroke:#038048;stroke-width:1;"/></g><text fill="#000000" font-family="Helvetica" font-size="12" lengthAdjust="spacing" textLength="242.2324" x="533.05" y="542.6374">transitionState(pre: Pre1 -&gt; post: Post1)</text><g data-visibility-modifier="PUBLIC_METHOD"><ellipse cx="525.05" cy="553.9519" fill="#84BE84" rx="3" ry="3" style="stroke:#038048;stroke-width:1;"/></g><text fill="#000000" font-family="Helvetica" font-size="12" lengthAdjust="spacing" textLength="212.3613" x="533.05" y="556.6062">create(initiator=User, grant=Read)</text><g data-visibility-modifier="PUBLIC_METHOD"><ellipse cx="525.05" cy="567.9206" fill="#84BE84" rx="3" ry="3" style="stroke:#038048;stroke-width:1;"/></g><text fill="#000000" font-family="Helvetica" font-size="12" lengthAdjust="spacing" textLength="246.8906" x="533.05" y="570.5749">validateTransition(pre: Pre1, post: Post1)</text></g><g class="entity" data-qualified-name="Domain Model.GMN13" data-source-line="77" id="ent0014"><path d="M452.8,183.96 L452.8,277.7725 A0,0 0 0 0 452.8,277.7725 L604.15,277.7725 L626.85,363.76 L612.15,277.7725 L743.1906,277.7725 A0,0 0 0 0 743.1906,277.7725 L743.1906,193.96 L733.1906,183.96 L452.8,183.96 A0,0 0 0 0 452.8,183.96" fill="#FFFFE0" style="stroke:#181818;stroke-width:0.5;"/><path d="M733.1906,183.96 L733.1906,193.96 L743.1906,193.96 L733.1906,183.96" fill="#FFFFE0" style="stroke:#181818;stroke-width:0.5;"/><text fill="#000000" font-family="Helvetica" font-size="12" lengthAdjust="spacing" textLength="106.5293" x="458.8" y="200.0987">invar: pre != post</text><text fill="#000000" font-family="Helvetica" font-size="12" lengthAdjust="spacing" textLength="232.7461" x="458.8" y="214.0674">invar: some channel &#8594; #channel &gt;= 1</text><text fill="#000000" font-family="Helvetica" font-size="12" lengthAdjust="spacing" textLength="211.1719" x="458.8" y="228.0362">invar: some target &#8594; #target &gt;= 1</text><text fill="#000000" font-family="Helvetica" font-size="12" lengthAdjust="spacing" textLength="213.3164" x="458.8" y="242.0049">invar: grant in initiator.mayPerform</text><text fill="#000000" font-family="Helvetica" font-size="12" lengthAdjust="spacing" textLength="206.0156" x="458.8" y="255.9737">invar: initiator in target.accessible</text><text fill="#000000" font-family="Helvetica" font-size="12" lengthAdjust="spacing" textLength="269.3906" x="458.8" y="269.9424">invar: &#8707;c in channel : c.authenticated = True</text></g><!--class AuditEntry--><g class="entity" data-qualified-name="Domain Model.AuditEntry" data-source-line="85" id="ent0016"><rect fill="#F0F8FF" height="115.8438" rx="2.5" ry="2.5" style="stroke:#181818;stroke-width:0.5;" width="188.3945" x="777.8" y="172.94"/><ellipse cx="836.298" cy="187.94" fill="#ADD1B2" rx="10" ry="10" style="stroke:#181818;stroke-width:1;"/><path d="M838.1262,192.19 Q837.7199,192.3931 837.2668,192.5025 Q836.8137,192.6119 836.3293,192.6119 Q834.548,192.6119 833.6105,191.4556 Q832.6887,190.2838 832.6887,188.0806 Q832.6887,185.8619 833.6105,184.7056 Q834.548,183.5338 836.3293,183.5338 Q836.8137,183.5338 837.2668,183.6431 Q837.7355,183.7369 838.1262,183.9556 L838.1262,185.8775 Q837.6887,185.4713 837.2668,185.2838 Q836.8449,185.0806 836.4074,185.0806 Q835.4543,185.0806 834.9699,185.8463 Q834.4855,186.5963 834.4855,188.0806 Q834.4855,189.5494 834.9699,190.2994 Q835.4543,191.0494 836.4074,191.0494 Q836.8449,191.0494 837.2668,190.8619 Q837.6887,190.6744 838.1262,190.2681 L838.1262,192.19 Z " fill="#000000"/><text fill="#000000" font-family="Helvetica" font-size="12" lengthAdjust="spacing" textLength="63.3984" x="855.298" y="192.0943">AuditEntry</text><line style="stroke:#181818;stroke-width:0.5;" x1="778.8" x2="965.1945" y1="202.94" y2="202.94"/><g data-visibility-modifier="PUBLIC_FIELD"><ellipse cx="788.8" cy="215.4244" fill="none" rx="3" ry="3" style="stroke:#038048;stroke-width:1;"/></g><text fill="#000000" font-family="Helvetica" font-size="12" lengthAdjust="spacing" textLength="163.3945" x="796.8" y="218.0787">operation : REQ_FRAUD_01</text><g data-visibility-modifier="PUBLIC_FIELD"><ellipse cx="788.8" cy="229.3931" fill="none" rx="3" ry="3" style="stroke:#038048;stroke-width:1;"/></g><text fill="#000000" font-family="Helvetica" font-size="12" lengthAdjust="spacing" textLength="112.5996" x="796.8" y="232.0474">recordedBy : Actor</text><line style="stroke:#181818;stroke-width:0.5;" x1="778.8" x2="965.1945" y1="238.8775" y2="238.8775"/><g data-visibility-modifier="PUBLIC_METHOD"><ellipse cx="788.8" cy="251.3619" fill="#84BE84" rx="3" ry="3" style="stroke:#038048;stroke-width:1;"/></g><text fill="#000000" font-family="Helvetica" font-size="12" lengthAdjust="spacing" textLength="122.8828" x="796.8" y="254.0162">new(operation, FDT)</text><g data-visibility-modifier="PUBLIC_METHOD"><ellipse cx="788.8" cy="265.3306" fill="#84BE84" rx="3" ry="3" style="stroke:#038048;stroke-width:1;"/></g><text fill="#000000" font-family="Helvetica" font-size="12" lengthAdjust="spacing" textLength="82.3301" x="796.8" y="267.9849">new(Op, FDT)</text><g data-visibility-modifier="PUBLIC_METHOD"><ellipse cx="788.8" cy="279.2994" fill="#84BE84" rx="3" ry="3" style="stroke:#038048;stroke-width:1;"/></g><text fill="#000000" font-family="Helvetica" font-size="12" lengthAdjust="spacing" textLength="153.5625" x="796.8" y="281.9537">validateRecordedBy(FDT)</text></g><g class="entity" data-qualified-name="Domain Model.GMN17" data-source-line="92" id="ent0018"><path d="M704.32,62.99 L704.32,86.9588 A0,0 0 0 0 704.32,86.9588 L844.8,86.9588 L862.73,172.78 L852.8,86.9588 L989.6774,86.9588 A0,0 0 0 0 989.6774,86.9588 L989.6774,72.99 L979.6774,62.99 L704.32,62.99 A0,0 0 0 0 704.32,62.99" fill="#FFFFE0" style="stroke:#181818;stroke-width:0.5;"/><path d="M979.6774,62.99 L979.6774,72.99 L989.6774,72.99 L979.6774,62.99" fill="#FFFFE0" style="stroke:#181818;stroke-width:0.5;"/><text fill="#000000" font-family="Helvetica" font-size="12" lengthAdjust="spacing" textLength="264.3574" x="710.32" y="79.1287">invar: recordedBy in Fraud_Detection_Team</text></g><!--link Resource to Actor--><g class="link" data-entity-1="ent0006" data-entity-2="ent0005" data-link-type="association" data-source-line="97" id="lnk20"><path codeLine="97" d="M248.21,775.73 C254.17,778.06 260.12,780.24 266,782.22 C406.61,829.53 576.01,858.23 683.86,873.16" fill="none" id="Resource-Actor" style="stroke:#181818;stroke-width:1;"/><text fill="#000000" font-family="Helvetica" font-size="12" lengthAdjust="spacing" textLength="37.0781" x="422" y="824.3587">owner</text><text fill="#000000" font-family="Helvetica" font-size="12" lengthAdjust="spacing" textLength="7.6348" x="253.932" y="794.4308">1</text><text fill="#000000" font-family="Helvetica" font-size="12" lengthAdjust="spacing" textLength="7.6348" x="668.3371" y="869.7628">1</text></g><!--link Resource to Actor--><g class="link" data-entity-1="ent0006" data-entity-2="ent0005" data-link-type="association" data-source-line="98" id="lnk21"><path codeLine="98" d="M247,775.66 C253.36,778.06 259.72,780.27 266,782.22 C352.69,809.1 378.8,795.44 468,812.22 C540.3,825.82 620.95,844.23 683.7,859.28" fill="none" id="Resource-Actor-1" style="stroke:#181818;stroke-width:1;"/><text fill="#000000" font-family="Helvetica" font-size="12" lengthAdjust="spacing" textLength="62.1035" x="540" y="824.3587">accessible</text><text fill="#000000" font-family="Helvetica" font-size="12" lengthAdjust="spacing" textLength="6" x="256.1641" y="777.9689">*</text><text fill="#000000" font-family="Helvetica" font-size="12" lengthAdjust="spacing" textLength="6" x="670.2222" y="855.1383">*</text></g><!--link REQ_FRAUD_01 to Actor--><g class="link" data-entity-1="ent0012" data-entity-2="ent0005" data-link-type="association" data-source-line="100" id="lnk22"><path codeLine="100" d="M786.22,564.4 C812.89,589.59 837.16,619.21 852,652.41 C875.54,705.08 866.93,726.49 852,782.22 C844.67,809.6 828.19,837.24 814.36,857.13" fill="none" id="REQ_FRAUD_01-Actor" style="stroke:#181818;stroke-width:1;"/><text fill="#000000" font-family="Helvetica" font-size="12" lengthAdjust="spacing" textLength="46.6465" x="867" y="721.9587">initiator</text><text fill="#000000" font-family="Helvetica" font-size="12" lengthAdjust="spacing" textLength="7.6348" x="793.8786" y="567.3398">1</text><text fill="#000000" font-family="Helvetica" font-size="12" lengthAdjust="spacing" textLength="7.6348" x="812.0352" y="846.4717">1</text></g><!--link REQ_FRAUD_01 to Resource--><g class="link" data-entity-1="ent0012" data-entity-2="ent0006" data-link-type="association" data-source-line="101" id="lnk23"><path codeLine="101" d="M513.83,535.16 C440.32,569.61 348.06,613.07 266,652.41 C260.3,655.14 254.46,657.95 248.56,660.8" fill="none" id="REQ_FRAUD_01-Resource" style="stroke:#181818;stroke-width:1;"/><text fill="#000000" font-family="Helvetica" font-size="12" lengthAdjust="spacing" textLength="36.6973" x="350" y="619.5487">target</text><text fill="#000000" font-family="Helvetica" font-size="12" lengthAdjust="spacing" textLength="7.6348" x="498.3385" y="536.8667">1</text><text fill="#000000" font-family="Helvetica" font-size="12" lengthAdjust="spacing" textLength="6" x="256.0272" y="654.933">*</text></g><!--link REQ_FRAUD_01 to Interface--><g class="link" data-entity-1="ent0012" data-entity-2="ent0010" data-link-type="association" data-source-line="102" id="lnk24"><path codeLine="102" d="M538.83,577.87 C512.38,603.15 484.96,629.36 461.19,652.09" fill="none" id="REQ_FRAUD_01-Interface" style="stroke:#181818;stroke-width:1;"/><text fill="#000000" font-family="Helvetica" font-size="12" lengthAdjust="spacing" textLength="47.4844" x="507" y="619.5487">channel</text><text fill="#000000" font-family="Helvetica" font-size="12" lengthAdjust="spacing" textLength="7.6348" x="524.1472" y="596.6856">1</text><text fill="#000000" font-family="Helvetica" font-size="12" lengthAdjust="spacing" textLength="6" x="463.0133" y="641.5461">*</text></g><!--link REQ_FRAUD_01 to Permission--><g class="link" data-entity-1="ent0012" data-entity-2="ent0002" data-link-type="association" data-source-line="103" id="lnk25"><path codeLine="103" d="M709.49,577.87 C728.27,611.4 747.96,646.58 762.8,673.09" fill="none" id="REQ_FRAUD_01-Permission" style="stroke:#181818;stroke-width:1;"/><text fill="#000000" font-family="Helvetica" font-size="12" lengthAdjust="spacing" textLength="32.2148" x="731" y="619.5487">grant</text><text fill="#000000" font-family="Helvetica" font-size="12" lengthAdjust="spacing" textLength="7.6348" x="706.2735" y="596.6856">1</text><text fill="#000000" font-family="Helvetica" font-size="12" lengthAdjust="spacing" textLength="7.6348" x="751.0935" y="662.5939">1</text></g><!--link REQ_FRAUD_01 to State--><g class="link" data-entity-1="ent0012" data-entity-2="ent0011" data-link-type="association" data-source-line="104" id="lnk26"><path codeLine="104" d="M610.79,577.77 C608.16,592.6 606.91,607.77 608,622.41 C609.23,639.01 611.67,657.13 614.17,672.99" fill="none" id="REQ_FRAUD_01-State" style="stroke:#181818;stroke-width:1;"/><text fill="#000000" font-family="Helvetica" font-size="12" lengthAdjust="spacing" textLength="19.9336" x="609" y="619.5487">pre</text><text fill="#000000" font-family="Helvetica" font-size="12" lengthAdjust="spacing" textLength="7.6348" x="600.9421" y="596.5789">1</text><text fill="#000000" font-family="Helvetica" font-size="12" lengthAdjust="spacing" textLength="7.6348" x="605.2769" y="662.4767">1</text></g><!--link REQ_FRAUD_01 to State--><g class="link" data-entity-1="ent0012" data-entity-2="ent0011" data-link-type="association" data-source-line="105" id="lnk27"><path codeLine="105" d="M638.08,577.89 C636.38,592.84 634.65,608.01 633,622.41 C631.09,639.04 628.95,657.33 627.08,673.31" fill="none" id="REQ_FRAUD_01-State-1" style="stroke:#181818;stroke-width:1;"/><text fill="#000000" font-family="Helvetica" font-size="12" lengthAdjust="spacing" textLength="25.916" x="635" y="619.5487">post</text><text fill="#000000" font-family="Helvetica" font-size="12" lengthAdjust="spacing" textLength="7.6348" x="630.0656" y="596.707">1</text><text fill="#000000" font-family="Helvetica" font-size="12" lengthAdjust="spacing" textLength="7.6348" x="620.4177" y="662.5391">1</text></g><!--link AuditEntry to REQ_FRAUD_01--><g class="link" data-entity-1="ent0016" data-entity-2="ent0012" data-link-type="association" data-source-line="107" id="lnk28"><path codeLine="107" d="M818.54,289.11 C797.63,311.5 772.95,337.93 749.02,363.56" fill="none" id="AuditEntry-REQ_FRAUD_01" style="stroke:#181818;stroke-width:1;"/><text fill="#000000" font-family="Helvetica" font-size="12" lengthAdjust="spacing" textLength="57.6152" x="788" y="330.9187">operation</text><text fill="#000000" font-family="Helvetica" font-size="12" lengthAdjust="spacing" textLength="7.6348" x="804.991" y="307.7912">1</text><text fill="#000000" font-family="Helvetica" font-size="12" lengthAdjust="spacing" textLength="7.6348" x="749.3579" y="353.0434">1</text></g><!--link AuditEntry to Actor--><g class="link" data-entity-1="ent0016" data-entity-2="ent0005" data-link-type="association" data-source-line="108" id="lnk29"><path codeLine="108" d="M895.69,289.16 C934.83,393.17 1001.18,617.49 922,782.22 C906.66,814.13 876.24,839.31 848.67,856.9" fill="none" id="AuditEntry-Actor" style="stroke:#181818;stroke-width:1;"/><text fill="#000000" font-family="Helvetica" font-size="12" lengthAdjust="spacing" textLength="69.1406" x="959" y="619.5487">recordedBy</text><text fill="#000000" font-family="Helvetica" font-size="12" lengthAdjust="spacing" textLength="7.6348" x="891.0615" y="307.847">1</text><text fill="#000000" font-family="Helvetica" font-size="12" lengthAdjust="spacing" textLength="7.6348" x="854.7082" y="846.1857">1</text></g><?plantuml-src hLPDR-Cs4BtxLx3PGvp46yGzB0gZ3g3O5cfqDqbZ1tie2eEH9Z5XYJH8Ae5RxAd0Oi_zYVjBEYH5aRATe41j7qoHRnxduyt8QiNucafQaXmUQLNeL71zJKiWlq3n39fbjAFsOMRiJo3z7wF3DSrMz0ckyET9Yehd8r48ITwb4_EDW5b1bTg5NQG_fMa4Oro3VAJPBkFam-H3caHGu5MvIvYcoMWSeRZGi0-LJYuwdTfxSZGM9MMSV18v54Vahqw7a6Fo_lzzBCVa-lxJx41i9c1o2x9aIZ71qKs2doGl6RUhpv9fiAixe3akldIyrPKGHOsVoyg1KbeeQA6c9l6_CfxNq37Lz84g1qzkfnvycDICFYQpsUHGoR7w8acciRxE-pDIqWscwr78aWp83FJF8NcNFXPdTmTAL3A3nbIyS91ePGdhFPfbWCOF1THqzj0mdP4dq4bpZ2iKcrRTT3m_iSVP4h9L07Jl5SYU8JIuQNxYERmVgdjY7IHMlqIBDH6FmSi1ziapbOFQJLHky2q4DVMzr4IrChKTX3hNsy0pkLbhC6T6AJxUIY-1csdGEhAEZfQKSoYwdvbUvfA-q6A10d5nC9N4bdinWSA7shWzqsXLktnyZ0aWL6l97YeDYgWbXjmZ-41ORgxG6xoFh60JydmhmN9qST5trnKYMxczhPnN_9MZM1oJtnRfNN8_NbpqcrGopZIZHcrjaMWgCJRSzCNw_VGFet2gIG5KQI8urD3C9S0Kn5VAWFTYdoJbXZKek3vOIwj64u3V4Kf7MtYF11DUu_4GPTbpZ4CxCrmgdcd1SWHYraQ2vmWMlEkE5EXRPAspYgiwhHevb0Mw8tG6NSIia_UNrWzy2kWTFrmNE4VCo6hxCM_80szlctMdHQ9QsNpKZMBIzCFGMiVRIk1BpzVX-zT_o3l_S3aa_HraNLmBhDVRE5SexCWcpFCmXc9W41227TbvrCKHylktlpC32dh9pjkzEVHJ7R2_JJg2U9CAApdXMcx2R5k3f2QlHgNR-JeZ4Z8XSyYlDf6qpmY7bsvZsIFDQ3FxD-jemzVlhk7nSt2xM95lpKIBRiUGKqchV3463PcvTZ47MXxk3OJldvlHD9bFRwvdfFk2OugK-4-7hGkMON50dHpegcPm7_MFaCx-k5TLFS9Rc5E7EGsOzdHlpQCzZ8soNiCYS_GgSTfx0nlU8mElmJUyYFwWrDtm1jZDUjkU_mLbkXTnaMuYLCjw45J-ge7FLv1Svyk_?></g></svg>