<svg xmlns="http://www.w3.org/2000/svg" xmlns:xlink="http://www.w3.org/1999/xlink" contentStyleType="text/css" data-diagram-type="CLASS" height="692px" preserveAspectRatio="none" style="width:4107px;height:692px;background:#FEFEFE;" version="1.1" viewBox="0 0 4107 692" width="4107px" zoomAndPan="magnify"><?plantuml 1.2026.7beta1?><defs/><g><rect fill="#FEFEFE" height="692" style="stroke:none;stroke-width:1;" width="4107" x="0" y="0"/><!--cluster Domain Model--><g class="cluster" data-qualified-name="Domain Model" data-source-line="7" id="ent0001"><rect fill="none" height="392.91" rx="2.5" ry="2.5" style="stroke:#000000;stroke-width:1.5;" width="3406" x="7" y="285.37"/><text fill="#000000" font-family="Arial" font-size="14" font-weight="700" lengthAdjust="spacing" textLength="112.7793" x="1653.6104" y="300.3651">Domain Model</text></g><!--cluster Infrastructure ? Ports--><g class="cluster" data-qualified-name="Infrastructure . Ports" data-source-line="62" id="ent0010"><rect fill="none" height="229.37" rx="2.5" ry="2.5" style="stroke:#000000;stroke-width:1.5;" width="1147" x="2727" y="7"/><text fill="#000000" font-family="Arial" font-size="14" font-weight="700" lengthAdjust="spacing" textLength="176.4287" x="3212.2856" y="21.9951">Infrastructure &#8212; Ports</text></g><!--cluster Exceptions--><g class="cluster" data-qualified-name="Exceptions" data-source-line="85" id="ent0014"><rect fill="none" height="121.24" rx="2.5" ry="2.5" style="stroke:#000000;stroke-width:1.5;" width="656" x="3437" y="339.44"/><text fill="#000000" font-family="Arial" font-size="14" font-weight="700" lengthAdjust="spacing" textLength="85.8184" x="3722.0908" y="354.4351">Exceptions</text></g><!--class Actor--><g class="entity" data-qualified-name="Domain Model.Actor" data-source-line="8" id="ent0002"><rect fill="#F1F1F1" height="80.5938" rx="2.5" ry="2.5" style="stroke:#181818;stroke-width:0.5;" width="554.377" x="22.81" y="369.26"/><ellipse cx="279.8549" cy="385.26" fill="#ADD1B2" rx="11" ry="11" style="stroke:#181818;stroke-width:1;"/><path d="M282.8237,390.9006 Q282.2455,391.1975 281.6049,391.3381 Q280.9643,391.4944 280.2612,391.4944 Q277.7612,391.4944 276.433,389.8538 Q275.1205,388.1975 275.1205,385.0725 Q275.1205,381.9475 276.433,380.2913 Q277.7612,378.635 280.2612,378.635 Q280.9643,378.635 281.6049,378.7913 Q282.2612,378.9475 282.8237,379.2444 L282.8237,381.9631 Q282.1987,381.385 281.6049,381.1194 Q281.0112,380.8381 280.3862,380.8381 Q279.0424,380.8381 278.3549,381.9163 Q277.6674,382.9788 277.6674,385.0725 Q277.6674,387.1663 278.3549,388.2444 Q279.0424,389.3069 280.3862,389.3069 Q281.0112,389.3069 281.6049,389.0413 Q282.1987,388.76 282.8237,388.1819 L282.8237,390.9006 Z " fill="#000000"/><text fill="#000000" font-family="Arial" font-size="12" lengthAdjust="spacing" textLength="31.7871" x="300.3549" y="389.4143">Actor</text><line style="stroke:#181818;stroke-width:0.5;" x1="23.81" x2="576.187" y1="401.26" y2="401.26"/><g data-visibility-modifier="PRIVATE_FIELD"><rect fill="none" height="6" style="stroke:#C82930;stroke-width:1;" width="6" x="30.81" y="411.9084"/></g><text fill="#000000" font-family="Arial" font-size="14" lengthAdjust="spacing" textLength="218.0732" x="42.81" y="418.2551">mayPerform: Set&lt;Permission&gt;</text><line style="stroke:#181818;stroke-width:0.5;" x1="23.81" x2="576.187" y1="425.5569" y2="425.5569"/><g data-visibility-modifier="PUBLIC_METHOD"><ellipse cx="33.81" cy="439.2053" fill="#84BE84" rx="3" ry="3" style="stroke:#038048;stroke-width:1;"/></g><text fill="#000000" font-family="Arial" font-size="14" lengthAdjust="spacing" textLength="528.377" x="42.81" y="442.552">checkPermission(actorId: String, requiredPermission: Permission) : Boolean</text></g><!--class Permission--><g class="entity" data-qualified-name="Domain Model.Permission" data-source-line="13" id="ent0003"><rect fill="#F1F1F1" height="129.4844" rx="2.5" ry="2.5" style="stroke:#181818;stroke-width:0.5;" width="256.3232" x="611.84" y="344.82"/><ellipse cx="703.071" cy="360.82" fill="#EB937F" rx="11" ry="11" style="stroke:#181818;stroke-width:1;"/><path d="M707.1803,366.82 L699.4616,366.82 L699.4616,354.4294 L707.1803,354.4294 L707.1803,356.5856 L701.9147,356.5856 L701.9147,359.2575 L706.6803,359.2575 L706.6803,361.4138 L701.9147,361.4138 L701.9147,364.6638 L707.1803,364.6638 L707.1803,366.82 Z " fill="#000000"/><text fill="#000000" font-family="Arial" font-size="12" lengthAdjust="spacing" textLength="65.3613" x="723.571" y="364.9743">Permission</text><line style="stroke:#181818;stroke-width:0.5;" x1="612.84" x2="867.1632" y1="376.82" y2="376.82"/><text fill="#000000" font-family="Arial" font-size="14" lengthAdjust="spacing" textLength="35.8066" x="617.84" y="393.8151">Read</text><text fill="#000000" font-family="Arial" font-size="14" lengthAdjust="spacing" textLength="37.5908" x="617.84" y="410.112">Write</text><text fill="#000000" font-family="Arial" font-size="14" lengthAdjust="spacing" textLength="56.417" x="617.84" y="426.4089">Execute</text><text fill="#000000" font-family="Arial" font-size="14" lengthAdjust="spacing" textLength="44.8643" x="617.84" y="442.7057">Admin</text><line style="stroke:#181818;stroke-width:0.5;" x1="612.84" x2="867.1632" y1="450.0075" y2="450.0075"/><g data-visibility-modifier="PUBLIC_METHOD"><ellipse cx="622.84" cy="463.6559" fill="#84BE84" rx="3" ry="3" style="stroke:#038048;stroke-width:1;"/></g><text fill="#000000" font-family="Arial" font-size="14" lengthAdjust="spacing" textLength="230.3232" x="631.84" y="467.0026">stronger(p: Permission): Boolean</text></g><!--class State--><g class="entity" data-qualified-name="Domain Model.State" data-source-line="21" id="ent0004"><rect fill="#F1F1F1" height="178.375" rx="2.5" ry="2.5" style="stroke:#181818;stroke-width:0.5;" width="476.8301" x="903.58" y="320.37"/><ellipse cx="1121.8632" cy="336.37" fill="#EB937F" rx="11" ry="11" style="stroke:#181818;stroke-width:1;"/><path d="M1125.9726,342.37 L1118.2538,342.37 L1118.2538,329.9794 L1125.9726,329.9794 L1125.9726,332.1356 L1120.707,332.1356 L1120.707,334.8075 L1125.4726,334.8075 L1125.4726,336.9637 L1120.707,336.9637 L1120.707,340.2137 L1125.9726,340.2137 L1125.9726,342.37 Z " fill="#000000"/><text fill="#000000" font-family="Arial" font-size="12" lengthAdjust="spacing" textLength="31.7637" x="1142.3632" y="340.5243">State</text><line style="stroke:#181818;stroke-width:0.5;" x1="904.58" x2="1379.4101" y1="352.37" y2="352.37"/><text fill="#000000" font-family="Arial" font-size="14" lengthAdjust="spacing" textLength="31.7188" x="909.58" y="369.3651">Pre1</text><text fill="#000000" font-family="Arial" font-size="14" lengthAdjust="spacing" textLength="31.7188" x="909.58" y="385.662">Pre2</text><text fill="#000000" font-family="Arial" font-size="14" lengthAdjust="spacing" textLength="38.6982" x="909.58" y="401.9589">Post1</text><text fill="#000000" font-family="Arial" font-size="14" lengthAdjust="spacing" textLength="38.6982" x="909.58" y="418.2557">Post2</text><line style="stroke:#181818;stroke-width:0.5;" x1="904.58" x2="1379.4101" y1="425.5575" y2="425.5575"/><g data-visibility-modifier="PUBLIC_METHOD"><ellipse cx="914.58" cy="439.2059" fill="#84BE84" rx="3" ry="3" style="stroke:#038048;stroke-width:1;"/></g><text fill="#000000" font-family="Arial" font-size="14" lengthAdjust="spacing" textLength="371.0957" x="923.58" y="442.5526">verifyPrecondition(Pre1: "nurse logged in") : Boolean</text><g data-visibility-modifier="PUBLIC_METHOD"><ellipse cx="914.58" cy="455.5028" fill="#84BE84" rx="3" ry="3" style="stroke:#038048;stroke-width:1;"/></g><text fill="#000000" font-family="Arial" font-size="14" lengthAdjust="spacing" textLength="410.7783" x="923.58" y="458.8495">verifyPrecondition(Pre2: "available queue slots") : Boolean</text><g data-visibility-modifier="PUBLIC_METHOD"><ellipse cx="914.58" cy="471.7997" fill="#84BE84" rx="3" ry="3" style="stroke:#038048;stroke-width:1;"/></g><text fill="#000000" font-family="Arial" font-size="14" lengthAdjust="spacing" textLength="399.0752" x="923.58" y="475.1464">transitionTo(Post1: "symptom information stored") : void</text><g data-visibility-modifier="PUBLIC_METHOD"><ellipse cx="914.58" cy="488.0966" fill="#84BE84" rx="3" ry="3" style="stroke:#038048;stroke-width:1;"/></g><text fill="#000000" font-family="Arial" font-size="14" lengthAdjust="spacing" textLength="450.8301" x="923.58" y="491.4432">transitionTo(Post2: "patient listed as pending evaluation") : void</text></g><!--class PatientRecord--><g class="entity" data-qualified-name="Domain Model.PatientRecord" data-source-line="32" id="ent0005"><rect fill="#F1F1F1" height="96.8906" rx="2.5" ry="2.5" style="stroke:#181818;stroke-width:0.5;" width="464.6758" x="1415.66" y="361.12"/><ellipse cx="1601.4813" cy="377.12" fill="#ADD1B2" rx="11" ry="11" style="stroke:#181818;stroke-width:1;"/><path d="M1604.45,382.7606 Q1603.8719,383.0575 1603.2313,383.1981 Q1602.5907,383.3544 1601.8875,383.3544 Q1599.3875,383.3544 1598.0594,381.7137 Q1596.7469,380.0575 1596.7469,376.9325 Q1596.7469,373.8075 1598.0594,372.1512 Q1599.3875,370.495 1601.8875,370.495 Q1602.5907,370.495 1603.2313,370.6512 Q1603.8875,370.8075 1604.45,371.1044 L1604.45,373.8231 Q1603.825,373.245 1603.2313,372.9794 Q1602.6375,372.6981 1602.0125,372.6981 Q1600.6688,372.6981 1599.9813,373.7762 Q1599.2938,374.8387 1599.2938,376.9325 Q1599.2938,379.0262 1599.9813,380.1044 Q1600.6688,381.1669 1602.0125,381.1669 Q1602.6375,381.1669 1603.2313,380.9012 Q1603.825,380.62 1604.45,380.0419 L1604.45,382.7606 Z " fill="#000000"/><text fill="#000000" font-family="Arial" font-size="12" lengthAdjust="spacing" textLength="84.5332" x="1621.9813" y="381.2743">PatientRecord</text><line style="stroke:#181818;stroke-width:0.5;" x1="1416.66" x2="1879.3358" y1="393.12" y2="393.12"/><g data-visibility-modifier="PUBLIC_FIELD"><ellipse cx="1426.66" cy="406.7684" fill="none" rx="3" ry="3" style="stroke:#038048;stroke-width:1;"/></g><text fill="#000000" font-family="Arial" font-size="14" lengthAdjust="spacing" textLength="89.5098" x="1435.66" y="410.1151">owner: Actor</text><g data-visibility-modifier="PUBLIC_FIELD"><ellipse cx="1426.66" cy="423.0653" fill="none" rx="3" ry="3" style="stroke:#038048;stroke-width:1;"/></g><text fill="#000000" font-family="Arial" font-size="14" lengthAdjust="spacing" textLength="165.1563" x="1435.66" y="426.412">accessible: Set&lt;Actor&gt;</text><line style="stroke:#181818;stroke-width:0.5;" x1="1416.66" x2="1879.3358" y1="433.7137" y2="433.7137"/><g data-visibility-modifier="PUBLIC_METHOD"><ellipse cx="1426.66" cy="447.3622" fill="#84BE84" rx="3" ry="3" style="stroke:#038048;stroke-width:1;"/></g><text fill="#000000" font-family="Arial" font-size="14" lengthAdjust="spacing" textLength="438.6758" x="1435.66" y="450.7089">createPatientRecord(patientData: PatientDTO) : PatientRecord</text></g><!--class SymptomData--><g class="entity" data-qualified-name="Domain Model.SymptomData" data-source-line="38" id="ent0006"><rect fill="#F1F1F1" height="96.8906" rx="2.5" ry="2.5" style="stroke:#181818;stroke-width:0.5;" width="599.6035" x="1915.2" y="361.12"/><ellipse cx="2167.5447" cy="377.12" fill="#ADD1B2" rx="11" ry="11" style="stroke:#181818;stroke-width:1;"/><path d="M2170.5135,382.7606 Q2169.9354,383.0575 2169.2947,383.1981 Q2168.6541,383.3544 2167.951,383.3544 Q2165.451,383.3544 2164.1229,381.7137 Q2162.8104,380.0575 2162.8104,376.9325 Q2162.8104,373.8075 2164.1229,372.1512 Q2165.451,370.495 2167.951,370.495 Q2168.6541,370.495 2169.2947,370.6512 Q2169.951,370.8075 2170.5135,371.1044 L2170.5135,373.8231 Q2169.8885,373.245 2169.2947,372.9794 Q2168.701,372.6981 2168.076,372.6981 Q2166.7322,372.6981 2166.0447,373.7762 Q2165.3572,374.8387 2165.3572,376.9325 Q2165.3572,379.0262 2166.0447,380.1044 Q2166.7322,381.1669 2168.076,381.1669 Q2168.701,381.1669 2169.2947,380.9012 Q2169.8885,380.62 2170.5135,380.0419 L2170.5135,382.7606 Z " fill="#000000"/><text fill="#000000" font-family="Arial" font-size="12" lengthAdjust="spacing" textLength="86.4141" x="2188.0447" y="381.2743">SymptomData</text><line style="stroke:#181818;stroke-width:0.5;" x1="1916.2" x2="2513.8035" y1="393.12" y2="393.12"/><g data-visibility-modifier="PUBLIC_FIELD"><ellipse cx="1926.2" cy="406.7684" fill="none" rx="3" ry="3" style="stroke:#038048;stroke-width:1;"/></g><text fill="#000000" font-family="Arial" font-size="14" lengthAdjust="spacing" textLength="89.5098" x="1935.2" y="410.1151">owner: Actor</text><g data-visibility-modifier="PUBLIC_FIELD"><ellipse cx="1926.2" cy="423.0653" fill="none" rx="3" ry="3" style="stroke:#038048;stroke-width:1;"/></g><text fill="#000000" font-family="Arial" font-size="14" lengthAdjust="spacing" textLength="165.1563" x="1935.2" y="426.412">accessible: Set&lt;Actor&gt;</text><line style="stroke:#181818;stroke-width:0.5;" x1="1916.2" x2="2513.8035" y1="433.7137" y2="433.7137"/><g data-visibility-modifier="PUBLIC_METHOD"><ellipse cx="1926.2" cy="447.3622" fill="#84BE84" rx="3" ry="3" style="stroke:#038048;stroke-width:1;"/></g><text fill="#000000" font-family="Arial" font-size="14" lengthAdjust="spacing" textLength="573.6035" x="1935.2" y="450.7089">createSymptomData(symptoms: SymptomDTO, patientId: String) : SymptomData</text></g><!--class QueueEntry--><g class="entity" data-qualified-name="Domain Model.QueueEntry" data-source-line="44" id="ent0007"><rect fill="#F1F1F1" height="96.8906" rx="2.5" ry="2.5" style="stroke:#181818;stroke-width:0.5;" width="478.4229" x="2549.79" y="361.12"/><ellipse cx="2749.0766" cy="377.12" fill="#ADD1B2" rx="11" ry="11" style="stroke:#181818;stroke-width:1;"/><path d="M2752.0454,382.7606 Q2751.4672,383.0575 2750.8266,383.1981 Q2750.186,383.3544 2749.4829,383.3544 Q2746.9829,383.3544 2745.6547,381.7137 Q2744.3422,380.0575 2744.3422,376.9325 Q2744.3422,373.8075 2745.6547,372.1512 Q2746.9829,370.495 2749.4829,370.495 Q2750.186,370.495 2750.8266,370.6512 Q2751.4829,370.8075 2752.0454,371.1044 L2752.0454,373.8231 Q2751.4204,373.245 2750.8266,372.9794 Q2750.2329,372.6981 2749.6079,372.6981 Q2748.2641,372.6981 2747.5766,373.7762 Q2746.8891,374.8387 2746.8891,376.9325 Q2746.8891,379.0262 2747.5766,380.1044 Q2748.2641,381.1669 2749.6079,381.1669 Q2750.2329,381.1669 2750.8266,380.9012 Q2751.4204,380.62 2752.0454,380.0419 L2752.0454,382.7606 Z " fill="#000000"/><text fill="#000000" font-family="Arial" font-size="12" lengthAdjust="spacing" textLength="71.3496" x="2769.5766" y="381.2743">QueueEntry</text><line style="stroke:#181818;stroke-width:0.5;" x1="2550.79" x2="3027.2129" y1="393.12" y2="393.12"/><g data-visibility-modifier="PUBLIC_FIELD"><ellipse cx="2560.79" cy="406.7684" fill="none" rx="3" ry="3" style="stroke:#038048;stroke-width:1;"/></g><text fill="#000000" font-family="Arial" font-size="14" lengthAdjust="spacing" textLength="89.5098" x="2569.79" y="410.1151">owner: Actor</text><g data-visibility-modifier="PUBLIC_FIELD"><ellipse cx="2560.79" cy="423.0653" fill="none" rx="3" ry="3" style="stroke:#038048;stroke-width:1;"/></g><text fill="#000000" font-family="Arial" font-size="14" lengthAdjust="spacing" textLength="165.1563" x="2569.79" y="426.412">accessible: Set&lt;Actor&gt;</text><line style="stroke:#181818;stroke-width:0.5;" x1="2550.79" x2="3027.2129" y1="433.7137" y2="433.7137"/><g data-visibility-modifier="PUBLIC_METHOD"><ellipse cx="2560.79" cy="447.3622" fill="#84BE84" rx="3" ry="3" style="stroke:#038048;stroke-width:1;"/></g><text fill="#000000" font-family="Arial" font-size="14" lengthAdjust="spacing" textLength="452.4229" x="2569.79" y="450.7089">createQueueEntry(patientId: String, status: String) : QueueEntry</text></g><!--class DataAtRestEncryption--><g class="entity" data-qualified-name="Domain Model.DataAtRestEncryption" data-source-line="50" id="ent0008"><rect fill="#F1F1F1" height="96.8906" rx="2.5" ry="2.5" style="stroke:#181818;stroke-width:0.5;" width="334.3828" x="3062.81" y="361.12"/><ellipse cx="3159.4174" cy="377.12" fill="#ADD1B2" rx="11" ry="11" style="stroke:#181818;stroke-width:1;"/><path d="M3162.3862,382.7606 Q3161.808,383.0575 3161.1674,383.1981 Q3160.5268,383.3544 3159.8237,383.3544 Q3157.3237,383.3544 3155.9955,381.7137 Q3154.683,380.0575 3154.683,376.9325 Q3154.683,373.8075 3155.9955,372.1512 Q3157.3237,370.495 3159.8237,370.495 Q3160.5268,370.495 3161.1674,370.6512 Q3161.8237,370.8075 3162.3862,371.1044 L3162.3862,373.8231 Q3161.7612,373.245 3161.1674,372.9794 Q3160.5737,372.6981 3159.9487,372.6981 Q3158.6049,372.6981 3157.9174,373.7762 Q3157.2299,374.8387 3157.2299,376.9325 Q3157.2299,379.0262 3157.9174,380.1044 Q3158.6049,381.1669 3159.9487,381.1669 Q3160.5737,381.1669 3161.1674,380.9012 Q3161.7612,380.62 3162.3862,380.0419 L3162.3862,382.7606 Z " fill="#000000"/><text fill="#000000" font-family="Arial" font-size="12" lengthAdjust="spacing" textLength="132.668" x="3179.9174" y="381.2743">DataAtRestEncryption</text><line style="stroke:#181818;stroke-width:0.5;" x1="3063.81" x2="3396.1928" y1="393.12" y2="393.12"/><g data-visibility-modifier="PUBLIC_FIELD"><ellipse cx="3073.81" cy="406.7684" fill="none" rx="3" ry="3" style="stroke:#038048;stroke-width:1;"/></g><text fill="#000000" font-family="Arial" font-size="14" lengthAdjust="spacing" textLength="135.4746" x="3082.81" y="410.1151">resource: Resource</text><g data-visibility-modifier="PUBLIC_FIELD"><ellipse cx="3073.81" cy="423.0653" fill="none" rx="3" ry="3" style="stroke:#038048;stroke-width:1;"/></g><text fill="#000000" font-family="Arial" font-size="14" lengthAdjust="spacing" textLength="136.958" x="3082.81" y="426.412">encrypted: Boolean</text><line style="stroke:#181818;stroke-width:0.5;" x1="3063.81" x2="3396.1928" y1="433.7137" y2="433.7137"/><g data-visibility-modifier="PUBLIC_METHOD"><ellipse cx="3073.81" cy="447.3622" fill="#84BE84" rx="3" ry="3" style="stroke:#038048;stroke-width:1;"/></g><text fill="#000000" font-family="Arial" font-size="14" lengthAdjust="spacing" textLength="308.3828" x="3082.81" y="450.7089">encryptResource(resource: Resource) : void</text></g><!--class Resource--><g class="entity" data-qualified-name="Domain Model.Resource" data-source-line="56" id="ent0009"><rect fill="#F1F1F1" height="86.5313" rx="2.5" ry="2.5" style="stroke:#181818;stroke-width:0.5;" width="191.1563" x="1835.42" y="575.75"/><ellipse cx="1896.6475" cy="594.7188" fill="#ADD1B2" rx="11" ry="11" style="stroke:#181818;stroke-width:1;"/><path d="M1899.6163,600.3594 Q1899.0382,600.6563 1898.3975,600.7969 Q1897.7569,600.9531 1897.0538,600.9531 Q1894.5538,600.9531 1893.2257,599.3125 Q1891.9132,597.6563 1891.9132,594.5313 Q1891.9132,591.4063 1893.2257,589.75 Q1894.5538,588.0938 1897.0538,588.0938 Q1897.7569,588.0938 1898.3975,588.25 Q1899.0538,588.4063 1899.6163,588.7031 L1899.6163,591.4219 Q1898.9913,590.8438 1898.3975,590.5781 Q1897.8038,590.2969 1897.1788,590.2969 Q1895.835,590.2969 1895.1475,591.375 Q1894.46,592.4375 1894.46,594.5313 Q1894.46,596.625 1895.1475,597.7031 Q1895.835,598.7656 1897.1788,598.7656 Q1897.8038,598.7656 1898.3975,598.5 Q1898.9913,598.2188 1899.6163,597.6406 L1899.6163,600.3594 Z " fill="#000000"/><text fill="#000000" font-family="Arial" font-size="12" font-style="italic" lengthAdjust="spacing" textLength="64.2012" x="1915.1475" y="591.8887">&#171;abstract&#187;</text><text fill="#000000" font-family="Arial" font-size="12" lengthAdjust="spacing" textLength="55.834" x="1919.3311" y="605.8574">Resource</text><line style="stroke:#181818;stroke-width:0.5;" x1="1836.42" x2="2025.5763" y1="613.6875" y2="613.6875"/><g data-visibility-modifier="PUBLIC_FIELD"><ellipse cx="1846.42" cy="627.3359" fill="none" rx="3" ry="3" style="stroke:#038048;stroke-width:1;"/></g><text fill="#000000" font-family="Arial" font-size="14" lengthAdjust="spacing" textLength="89.5098" x="1855.42" y="630.6826">owner: Actor</text><g data-visibility-modifier="PUBLIC_FIELD"><ellipse cx="1846.42" cy="643.6328" fill="none" rx="3" ry="3" style="stroke:#038048;stroke-width:1;"/></g><text fill="#000000" font-family="Arial" font-size="14" lengthAdjust="spacing" textLength="165.1563" x="1855.42" y="646.9795">accessible: Set&lt;Actor&gt;</text><line style="stroke:#181818;stroke-width:0.5;" x1="1836.42" x2="2025.5763" y1="654.2813" y2="654.2813"/></g><!--class Symptom_Validation_API--><g class="entity" data-qualified-name="Infrastructure . Ports.Symptom_Validation_API" data-source-line="63" id="ent0011"><rect fill="#F1F1F1" height="64.2969" rx="2.5" ry="2.5" style="stroke:#181818;stroke-width:0.5;" width="304.9883" x="3553.51" y="99.04"/><ellipse cx="3627.2873" cy="115.04" fill="#B4A7E5" rx="11" ry="11" style="stroke:#181818;stroke-width:1;"/><path d="M3623.2092,110.8056 L3623.2092,108.6494 L3630.5998,108.6494 L3630.5998,110.8056 L3628.1311,110.8056 L3628.1311,118.8837 L3630.5998,118.8837 L3630.5998,121.04 L3623.2092,121.04 L3623.2092,118.8837 L3625.678,118.8837 L3625.678,110.8056 L3623.2092,110.8056 Z " fill="#000000"/><text fill="#000000" font-family="Arial" font-size="12" font-style="italic" lengthAdjust="spacing" textLength="148.9336" x="3647.7873" y="119.1943">Symptom_Validation_API</text><line style="stroke:#181818;stroke-width:0.5;" x1="3554.51" x2="3857.4983" y1="131.04" y2="131.04"/><line style="stroke:#181818;stroke-width:0.5;" x1="3554.51" x2="3857.4983" y1="139.04" y2="139.04"/><g data-visibility-modifier="PUBLIC_METHOD"><ellipse cx="3564.51" cy="152.6884" fill="#84BE84" rx="3" ry="3" style="stroke:#038048;stroke-width:1;"/></g><text fill="#000000" font-family="Arial" font-size="14" font-style="italic" lengthAdjust="spacing" textLength="278.9883" x="3573.51" y="156.0351">validate(input: SymptomData): Boolean</text></g><!--class Patient_Database--><g class="entity" data-qualified-name="Infrastructure . Ports.Patient_Database" data-source-line="67" id="ent0012"><rect fill="#F1F1F1" height="178.375" rx="2.5" ry="2.5" style="stroke:#181818;stroke-width:0.5;" width="367.5713" x="2743.21" y="42"/><ellipse cx="2869.9556" cy="58" fill="#B4A7E5" rx="11" ry="11" style="stroke:#181818;stroke-width:1;"/><path d="M2865.8775,53.7656 L2865.8775,51.6094 L2873.2681,51.6094 L2873.2681,53.7656 L2870.7994,53.7656 L2870.7994,61.8438 L2873.2681,61.8438 L2873.2681,64 L2865.8775,64 L2865.8775,61.8438 L2868.3462,61.8438 L2868.3462,53.7656 L2865.8775,53.7656 Z " fill="#000000"/><text fill="#000000" font-family="Arial" font-size="12" font-style="italic" lengthAdjust="spacing" textLength="105.5801" x="2890.4556" y="62.1543">Patient_Database</text><line style="stroke:#181818;stroke-width:0.5;" x1="2744.21" x2="3109.7813" y1="74" y2="74"/><line style="stroke:#181818;stroke-width:0.5;" x1="2744.21" x2="3109.7813" y1="82" y2="82"/><g data-visibility-modifier="PUBLIC_METHOD"><ellipse cx="2754.21" cy="95.6484" fill="#84BE84" rx="3" ry="3" style="stroke:#038048;stroke-width:1;"/></g><text fill="#000000" font-family="Arial" font-size="14" font-style="italic" lengthAdjust="spacing" textLength="238.499" x="2763.21" y="98.9951">store(record: PatientRecord): void</text><g data-visibility-modifier="PUBLIC_METHOD"><ellipse cx="2754.21" cy="111.9453" fill="#84BE84" rx="3" ry="3" style="stroke:#038048;stroke-width:1;"/></g><text fill="#000000" font-family="Arial" font-size="14" font-style="italic" lengthAdjust="spacing" textLength="261.2148" x="2763.21" y="115.292">store(symptom: SymptomData): void</text><g data-visibility-modifier="PUBLIC_METHOD"><ellipse cx="2754.21" cy="128.2422" fill="#84BE84" rx="3" ry="3" style="stroke:#038048;stroke-width:1;"/></g><text fill="#000000" font-family="Arial" font-size="14" lengthAdjust="spacing" textLength="341.5713" x="2763.21" y="131.5889">storePatientRecord(record: PatientRecord) : void</text><g data-visibility-modifier="PUBLIC_METHOD"><ellipse cx="2754.21" cy="144.5391" fill="#84BE84" rx="3" ry="3" style="stroke:#038048;stroke-width:1;"/></g><text fill="#000000" font-family="Arial" font-size="14" lengthAdjust="spacing" textLength="332.2197" x="2763.21" y="147.8857">storeSymptomData(data: SymptomData) : void</text><g data-visibility-modifier="PUBLIC_METHOD"><ellipse cx="2754.21" cy="160.8359" fill="#84BE84" rx="3" ry="3" style="stroke:#038048;stroke-width:1;"/></g><text fill="#000000" font-family="Arial" font-size="14" lengthAdjust="spacing" textLength="341.2637" x="2763.21" y="164.1826">lockPatientRecord(patientId: String) : LockResult</text><g data-visibility-modifier="PUBLIC_METHOD"><ellipse cx="2754.21" cy="177.1328" fill="#84BE84" rx="3" ry="3" style="stroke:#038048;stroke-width:1;"/></g><text fill="#000000" font-family="Arial" font-size="14" lengthAdjust="spacing" textLength="312.5801" x="2763.21" y="180.4795">unlockPatientRecord(patientId: String) : void</text><g data-visibility-modifier="PUBLIC_METHOD"><ellipse cx="2754.21" cy="193.4297" fill="#84BE84" rx="3" ry="3" style="stroke:#038048;stroke-width:1;"/></g><text fill="#000000" font-family="Arial" font-size="14" lengthAdjust="spacing" textLength="321.9453" x="2763.21" y="196.7764">rollbackPatientRecord(patientId: String) : void</text><g data-visibility-modifier="PUBLIC_METHOD"><ellipse cx="2754.21" cy="209.7266" fill="#84BE84" rx="3" ry="3" style="stroke:#038048;stroke-width:1;"/></g><text fill="#000000" font-family="Arial" font-size="14" lengthAdjust="spacing" textLength="324.1396" x="2763.21" y="213.0732">rollbackSymptomData(patientId: String) : void</text></g><!--class Evaluation_Queue_System--><g class="entity" data-qualified-name="Infrastructure . Ports.Evaluation_Queue_System" data-source-line="78" id="ent0013"><rect fill="#F1F1F1" height="96.8906" rx="2.5" ry="2.5" style="stroke:#181818;stroke-width:0.5;" width="372.9238" x="3145.54" y="82.74"/><ellipse cx="3248.0088" cy="98.74" fill="#B4A7E5" rx="11" ry="11" style="stroke:#181818;stroke-width:1;"/><path d="M3243.9306,94.5056 L3243.9306,92.3494 L3251.3213,92.3494 L3251.3213,94.5056 L3248.8525,94.5056 L3248.8525,102.5838 L3251.3213,102.5838 L3251.3213,104.74 L3243.9306,104.74 L3243.9306,102.5838 L3246.3994,102.5838 L3246.3994,94.5056 L3243.9306,94.5056 Z " fill="#000000"/><text fill="#000000" font-family="Arial" font-size="12" font-style="italic" lengthAdjust="spacing" textLength="159.4863" x="3268.5088" y="102.8943">Evaluation_Queue_System</text><line style="stroke:#181818;stroke-width:0.5;" x1="3146.54" x2="3517.4638" y1="114.74" y2="114.74"/><line style="stroke:#181818;stroke-width:0.5;" x1="3146.54" x2="3517.4638" y1="122.74" y2="122.74"/><g data-visibility-modifier="PUBLIC_METHOD"><ellipse cx="3156.54" cy="136.3884" fill="#84BE84" rx="3" ry="3" style="stroke:#038048;stroke-width:1;"/></g><text fill="#000000" font-family="Arial" font-size="14" font-style="italic" lengthAdjust="spacing" textLength="242.7441" x="3165.54" y="139.7351">addEntry(entry: QueueEntry): void</text><g data-visibility-modifier="PUBLIC_METHOD"><ellipse cx="3156.54" cy="152.6853" fill="#84BE84" rx="3" ry="3" style="stroke:#038048;stroke-width:1;"/></g><text fill="#000000" font-family="Arial" font-size="14" lengthAdjust="spacing" textLength="346.9238" x="3165.54" y="156.032">addToEvaluationQueue(entry: QueueEntry) : void</text><g data-visibility-modifier="PUBLIC_METHOD"><ellipse cx="3156.54" cy="168.9822" fill="#84BE84" rx="3" ry="3" style="stroke:#038048;stroke-width:1;"/></g><text fill="#000000" font-family="Arial" font-size="14" lengthAdjust="spacing" textLength="279.2549" x="3165.54" y="172.3289">checkQueueAvailability() : QueueStatus</text></g><!--class InvalidSymptomException--><g class="entity" data-qualified-name="Exceptions.InvalidSymptomException" data-source-line="86" id="ent0015"><rect fill="#F1F1F1" height="70.2344" rx="2.5" ry="2.5" style="stroke:#181818;stroke-width:0.5;" width="188.9141" x="3639.54" y="374.44"/><ellipse cx="3654.54" cy="393.4088" fill="#ADD1B2" rx="11" ry="11" style="stroke:#181818;stroke-width:1;"/><path d="M3657.5088,399.0494 Q3656.9306,399.3463 3656.29,399.4869 Q3655.6494,399.6431 3654.9463,399.6431 Q3652.4463,399.6431 3651.1181,398.0025 Q3649.8056,396.3463 3649.8056,393.2213 Q3649.8056,390.0963 3651.1181,388.44 Q3652.4463,386.7838 3654.9463,386.7838 Q3655.6494,386.7838 3656.29,386.94 Q3656.9463,387.0963 3657.5088,387.3931 L3657.5088,390.1119 Q3656.8838,389.5338 3656.29,389.2681 Q3655.6963,388.9869 3655.0713,388.9869 Q3653.7275,388.9869 3653.04,390.065 Q3652.3525,391.1275 3652.3525,393.2213 Q3652.3525,395.315 3653.04,396.3931 Q3653.7275,397.4556 3655.0713,397.4556 Q3655.6963,397.4556 3656.29,397.19 Q3656.8838,396.9088 3657.5088,396.3306 L3657.5088,399.0494 Z " fill="#000000"/><text fill="#000000" font-family="Arial" font-size="12" font-style="italic" lengthAdjust="spacing" textLength="73.752" x="3710.1211" y="390.5787">&#171;exception&#187;</text><text fill="#000000" font-family="Arial" font-size="12" lengthAdjust="spacing" textLength="156.9141" x="3668.54" y="404.5474">InvalidSymptomException</text><line style="stroke:#181818;stroke-width:0.5;" x1="3640.54" x2="3827.4541" y1="412.3775" y2="412.3775"/><g data-visibility-modifier="PUBLIC_FIELD"><ellipse cx="3650.54" cy="426.0259" fill="none" rx="3" ry="3" style="stroke:#038048;stroke-width:1;"/></g><text fill="#000000" font-family="Arial" font-size="14" lengthAdjust="spacing" textLength="113.8662" x="3659.54" y="429.3726">message: String</text><line style="stroke:#181818;stroke-width:0.5;" x1="3640.54" x2="3827.4541" y1="436.6744" y2="436.6744"/></g><!--class QueueFullException--><g class="entity" data-qualified-name="Exceptions.QueueFullException" data-source-line="90" id="ent0016"><rect fill="#F1F1F1" height="70.2344" rx="2.5" ry="2.5" style="stroke:#181818;stroke-width:0.5;" width="151.8652" x="3453.07" y="374.44"/><ellipse cx="3468.07" cy="393.4088" fill="#ADD1B2" rx="11" ry="11" style="stroke:#181818;stroke-width:1;"/><path d="M3471.0388,399.0494 Q3470.4606,399.3463 3469.82,399.4869 Q3469.1794,399.6431 3468.4763,399.6431 Q3465.9763,399.6431 3464.6481,398.0025 Q3463.3356,396.3463 3463.3356,393.2213 Q3463.3356,390.0963 3464.6481,388.44 Q3465.9763,386.7838 3468.4763,386.7838 Q3469.1794,386.7838 3469.82,386.94 Q3470.4763,387.0963 3471.0388,387.3931 L3471.0388,390.1119 Q3470.4138,389.5338 3469.82,389.2681 Q3469.2263,388.9869 3468.6013,388.9869 Q3467.2575,388.9869 3466.57,390.065 Q3465.8825,391.1275 3465.8825,393.2213 Q3465.8825,395.315 3466.57,396.3931 Q3467.2575,397.4556 3468.6013,397.4556 Q3469.2263,397.4556 3469.82,397.19 Q3470.4138,396.9088 3471.0388,396.3306 L3471.0388,399.0494 Z " fill="#000000"/><text fill="#000000" font-family="Arial" font-size="12" font-style="italic" lengthAdjust="spacing" textLength="73.752" x="3505.1266" y="390.5787">&#171;exception&#187;</text><text fill="#000000" font-family="Arial" font-size="12" lengthAdjust="spacing" textLength="119.8652" x="3482.07" y="404.5474">QueueFullException</text><line style="stroke:#181818;stroke-width:0.5;" x1="3454.07" x2="3603.9352" y1="412.3775" y2="412.3775"/><g data-visibility-modifier="PUBLIC_FIELD"><ellipse cx="3464.07" cy="426.0259" fill="none" rx="3" ry="3" style="stroke:#038048;stroke-width:1;"/></g><text fill="#000000" font-family="Arial" font-size="14" lengthAdjust="spacing" textLength="113.8662" x="3473.07" y="429.3726">message: String</text><line style="stroke:#181818;stroke-width:0.5;" x1="3454.07" x2="3603.9352" y1="436.6744" y2="436.6744"/></g><!--class UnauthorizedAccessException--><g class="entity" data-qualified-name="Exceptions.UnauthorizedAccessException" data-source-line="94" id="ent0017"><rect fill="#F1F1F1" height="70.2344" rx="2.5" ry="2.5" style="stroke:#181818;stroke-width:0.5;" width="213.125" x="3863.44" y="374.44"/><ellipse cx="3878.44" cy="393.4088" fill="#ADD1B2" rx="11" ry="11" style="stroke:#181818;stroke-width:1;"/><path d="M3881.4088,399.0494 Q3880.8306,399.3463 3880.19,399.4869 Q3879.5494,399.6431 3878.8463,399.6431 Q3876.3463,399.6431 3875.0181,398.0025 Q3873.7056,396.3463 3873.7056,393.2213 Q3873.7056,390.0963 3875.0181,388.44 Q3876.3463,386.7838 3878.8463,386.7838 Q3879.5494,386.7838 3880.19,386.94 Q3880.8463,387.0963 3881.4088,387.3931 L3881.4088,390.1119 Q3880.7838,389.5338 3880.19,389.2681 Q3879.5963,388.9869 3878.9713,388.9869 Q3877.6275,388.9869 3876.94,390.065 Q3876.2525,391.1275 3876.2525,393.2213 Q3876.2525,395.315 3876.94,396.3931 Q3877.6275,397.4556 3878.9713,397.4556 Q3879.5963,397.4556 3880.19,397.19 Q3880.7838,396.9088 3881.4088,396.3306 L3881.4088,399.0494 Z " fill="#000000"/><text fill="#000000" font-family="Arial" font-size="12" font-style="italic" lengthAdjust="spacing" textLength="73.752" x="3946.1265" y="390.5787">&#171;exception&#187;</text><text fill="#000000" font-family="Arial" font-size="12" lengthAdjust="spacing" textLength="181.125" x="3892.44" y="404.5474">UnauthorizedAccessException</text><line style="stroke:#181818;stroke-width:0.5;" x1="3864.44" x2="4075.565" y1="412.3775" y2="412.3775"/><g data-visibility-modifier="PUBLIC_FIELD"><ellipse cx="3874.44" cy="426.0259" fill="none" rx="3" ry="3" style="stroke:#038048;stroke-width:1;"/></g><text fill="#000000" font-family="Arial" font-size="14" lengthAdjust="spacing" textLength="113.8662" x="3883.44" y="429.3726">message: String</text><line style="stroke:#181818;stroke-width:0.5;" x1="3864.44" x2="4075.565" y1="436.6744" y2="436.6744"/></g><g class="entity" data-qualified-name="GMN29" data-source-line="119" id="ent0030"><path d="M1504.39,111.05 L1504.39,151.3156 A0,0 0 0 0 1504.39,151.3156 L1644,151.3156 L1648,360.85 L1652,151.3156 L1791.6107,151.3156 A0,0 0 0 0 1791.6107,151.3156 L1791.6107,121.05 L1781.6107,111.05 L1504.39,111.05 A0,0 0 0 0 1504.39,111.05" fill="#FEFFDD" style="stroke:#181818;stroke-width:0.5;"/><path d="M1781.6107,111.05 L1781.6107,121.05 L1791.6107,121.05 L1781.6107,111.05" fill="#FEFFDD" style="stroke:#181818;stroke-width:0.5;"/><text fill="#000000" font-family="Arial" font-size="13" lengthAdjust="spacing" textLength="222.8662" x="1510.39" y="128.1169">Invariant: owner must be an Actor</text><text fill="#000000" font-family="Arial" font-size="13" lengthAdjust="spacing" textLength="266.2207" x="1510.39" y="143.2497">Invariant: accessible must include owner</text></g><g class="entity" data-qualified-name="GMN32" data-source-line="124" id="ent0033"><path d="M2071.39,111.05 L2071.39,151.3156 A0,0 0 0 0 2071.39,151.3156 L2211,151.3156 L2215,360.85 L2219,151.3156 L2358.6107,151.3156 A0,0 0 0 0 2358.6107,151.3156 L2358.6107,121.05 L2348.6107,111.05 L2071.39,111.05 A0,0 0 0 0 2071.39,111.05" fill="#FEFFDD" style="stroke:#181818;stroke-width:0.5;"/><path d="M2348.6107,111.05 L2348.6107,121.05 L2358.6107,121.05 L2348.6107,111.05" fill="#FEFFDD" style="stroke:#181818;stroke-width:0.5;"/><text fill="#000000" font-family="Arial" font-size="13" lengthAdjust="spacing" textLength="222.8662" x="2077.39" y="128.1169">Invariant: owner must be an Actor</text><text fill="#000000" font-family="Arial" font-size="13" lengthAdjust="spacing" textLength="266.2207" x="2077.39" y="143.2497">Invariant: accessible must include owner</text></g><g class="entity" data-qualified-name="GMN35" data-source-line="129" id="ent0036"><path d="M2421.39,111.05 L2421.39,151.3156 L2708.6107,151.3156 L2708.6107,121.05 L2698.6107,111.05 L2421.39,111.05" fill="#FEFFDD" style="stroke:#181818;stroke-width:0.5;"/><path d="M2698.6107,111.05 L2698.6107,121.05 L2708.6107,121.05 L2698.6107,111.05" fill="#FEFFDD" style="stroke:#181818;stroke-width:1;"/><text fill="#000000" font-family="Arial" font-size="13" lengthAdjust="spacing" textLength="222.8662" x="2427.39" y="128.1169">Invariant: owner must be an Actor</text><text fill="#000000" font-family="Arial" font-size="13" lengthAdjust="spacing" textLength="266.2207" x="2427.39" y="143.2497">Invariant: accessible must include owner</text></g><g class="entity" data-qualified-name="GMN38" data-source-line="134" id="ent0039"><path d="M550.26,111.05 L550.26,151.3156 A0,0 0 0 0 550.26,151.3156 L736,151.3156 L740,344.43 L744,151.3156 L929.7312,151.3156 A0,0 0 0 0 929.7312,151.3156 L929.7312,121.05 L919.7312,111.05 L550.26,111.05 A0,0 0 0 0 550.26,111.05" fill="#FEFFDD" style="stroke:#181818;stroke-width:0.5;"/><path d="M919.7312,111.05 L919.7312,121.05 L929.7312,121.05 L919.7312,111.05" fill="#FEFFDD" style="stroke:#181818;stroke-width:0.5;"/><text fill="#000000" font-family="Arial" font-size="13" lengthAdjust="spacing" textLength="358.4712" x="556.26" y="128.1169">Read, Write, Execute, Admin are singleton permissions</text><text fill="#000000" font-family="Arial" font-size="13" lengthAdjust="spacing" textLength="266.0493" x="556.26" y="143.2497">stronger(p) defines permission hierarchy</text></g><g class="entity" data-qualified-name="GMN41" data-source-line="139" id="ent0042"><path d="M983.88,95.92 L983.88,166.4512 A0,0 0 0 0 983.88,166.4512 L1138,166.4512 L1142,320.04 L1146,166.4512 L1300.1158,166.4512 A0,0 0 0 0 1300.1158,166.4512 L1300.1158,105.92 L1290.1158,95.92 L983.88,95.92 A0,0 0 0 0 983.88,95.92" fill="#FEFFDD" style="stroke:#181818;stroke-width:0.5;"/><path d="M1290.1158,95.92 L1290.1158,105.92 L1300.1158,105.92 L1290.1158,95.92" fill="#FEFFDD" style="stroke:#181818;stroke-width:0.5;"/><text fill="#000000" font-family="Arial" font-size="13" lengthAdjust="spacing" textLength="295.2358" x="989.88" y="112.9869">Pre1: triage nurse logged in with permissions</text><text fill="#000000" font-family="Arial" font-size="13" lengthAdjust="spacing" textLength="264.3354" x="989.88" y="128.1197">Pre2: available slots in evaluation queue</text><text fill="#000000" font-family="Arial" font-size="13" lengthAdjust="spacing" textLength="230.4834" x="989.88" y="143.2525">Post1: symptom information stored</text><text fill="#000000" font-family="Arial" font-size="13" lengthAdjust="spacing" textLength="278.5415" x="989.88" y="158.3853">Post2: patient listed as pending evaluation</text></g><!--link PatientRecord to Resource--><g class="link" data-entity-1="ent0005" data-entity-2="ent0009" data-link-type="extension" data-source-line="100" id="lnk18"><path codeLine="100" d="M1713.28,458.42 C1761.44,493.72 1811.8633,530.6774 1858.2533,564.6874" fill="none" id="PatientRecord-to-Resource" style="stroke:#181818;stroke-width:1;"/><polygon fill="none" points="1872.77,575.33,1861.8009,559.8485,1854.7058,569.5262,1872.77,575.33" style="stroke:#181818;stroke-width:1;stroke-linejoin:miter;stroke-miterlimit:10;"/></g><!--link SymptomData to Resource--><g class="link" data-entity-1="ent0006" data-entity-2="ent0009" data-link-type="extension" data-source-line="101" id="lnk19"><path codeLine="101" d="M2149.49,458.42 C2101.16,493.72 2050.5252,530.7027 2003.9652,564.7127" fill="none" id="SymptomData-to-Resource" style="stroke:#181818;stroke-width:1;"/><polygon fill="none" points="1989.43,575.33,2007.5043,569.5577,2000.4261,559.8676,1989.43,575.33" style="stroke:#181818;stroke-width:1;stroke-linejoin:miter;stroke-miterlimit:10;"/></g><!--link QueueEntry to Resource--><g class="link" data-entity-1="ent0007" data-entity-2="ent0009" data-link-type="extension" data-source-line="102" id="lnk20"><path codeLine="102" d="M2660.63,458.41 C2619.86,472.57 2574.36,487.33 2532,498.75 C2355.98,546.18 2164.0541,580.6556 2044.6641,600.1756" fill="none" id="QueueEntry-to-Resource" style="stroke:#181818;stroke-width:1;"/><polygon fill="none" points="2026.9,603.08,2045.6323,606.097,2043.696,594.2542,2026.9,603.08" style="stroke:#181818;stroke-width:1;stroke-linejoin:miter;stroke-miterlimit:10;"/></g><!--link Actor to Resource--><g class="link" data-entity-1="ent0002" data-entity-2="ent0009" data-link-type="association" data-source-line="104" id="lnk21"><path codeLine="104" d="M414.64,450.34 C468.49,467.63 533.92,486.65 594,498.75 C1052.62,591.09 1614.13,611.95 1835.14,616.65" fill="none" id="Actor-Resource" style="stroke:#181818;stroke-width:1;"/><text fill="#000000" font-family="Arial" font-size="13" lengthAdjust="spacing" textLength="33.5981" x="847" y="541.8169">owns</text><text fill="#000000" font-family="Arial" font-size="13" lengthAdjust="spacing" textLength="8.271" x="432.8277" y="469.8104">1</text><text fill="#000000" font-family="Arial" font-size="13" lengthAdjust="spacing" textLength="23.0356" x="1804.2572" y="612.9973">1..*</text></g><!--link Actor to Resource--><g class="link" data-entity-1="ent0002" data-entity-2="ent0009" data-link-type="association" data-source-line="105" id="lnk22"><path codeLine="105" d="M413.15,450.35 C467.24,467.86 533.3,487.06 594,498.75 C654.89,510.47 1539,585.17 1835.14,610" fill="none" id="Actor-Resource-1" style="stroke:#181818;stroke-width:1;"/><text fill="#000000" font-family="Arial" font-size="13" lengthAdjust="spacing" textLength="67.2788" x="1059" y="541.8169">accessible</text><text fill="#000000" font-family="Arial" font-size="13" lengthAdjust="spacing" textLength="8.271" x="421.8846" y="469.8219">1</text><text fill="#000000" font-family="Arial" font-size="13" lengthAdjust="spacing" textLength="23.0356" x="1804.2572" y="621.9605">0..*</text></g><!--link DataAtRestEncryption to Resource--><g class="link" data-entity-1="ent0008" data-entity-2="ent0009" data-link-type="association" data-source-line="107" id="lnk23"><path codeLine="107" d="M3145.8,458.34 C3115.25,473.65 3079.91,489.12 3046,498.75 C2679.88,602.74 2222.69,617.46 2027.04,618.6" fill="none" id="DataAtRestEncryption-Resource" style="stroke:#181818;stroke-width:1;"/><text fill="#000000" font-family="Arial" font-size="13" lengthAdjust="spacing" textLength="56.5449" x="2899" y="541.8169">encrypts</text><text fill="#000000" font-family="Arial" font-size="13" lengthAdjust="spacing" textLength="8.271" x="3125.9661" y="477.9777">1</text><text fill="#000000" font-family="Arial" font-size="13" lengthAdjust="spacing" textLength="8.271" x="2034.7098" y="615.0659">1</text></g><!--link Patient_Database to PatientRecord--><g class="link" data-entity-1="ent0012" data-entity-2="ent0005" data-link-type="dependency" data-source-line="110" id="lnk24"><path codeLine="110" d="M2787.3,220.87 C2767.34,230.33 2746.58,238.59 2726,244.37 C2703.84,250.6 2542,251.47 2519,252.37 C2381,257.82 2031.41,241.64 1898,277.37 C1833.49,294.66 1771.0783,328.0633 1722.8383,358.0033" fill="none" id="Patient_Database-to-PatientRecord" style="stroke:#181818;stroke-width:1;stroke-dasharray:7,7;"/><polygon fill="#181818" points="1718.59,360.64,1728.3463,359.2926,1722.8383,358.0033,1724.1276,352.4953,1718.59,360.64" style="stroke:#181818;stroke-width:1;stroke-linejoin:miter;stroke-miterlimit:10;"/><text fill="#000000" font-family="Arial" font-size="13" lengthAdjust="spacing" textLength="39.9395" x="2520" y="265.4369">stores</text></g><!--link Patient_Database to SymptomData--><g class="link" data-entity-1="ent0012" data-entity-2="ent0006" data-link-type="dependency" data-source-line="111" id="lnk25"><path codeLine="111" d="M2781.5,220.85 C2763.23,229.74 2744.47,237.87 2726,244.37 C2643.51,273.44 2616.04,253.17 2532,277.37 C2457.02,298.97 2380.323,330.7535 2318.853,358.6535" fill="none" id="Patient_Database-to-SymptomData" style="stroke:#181818;stroke-width:1;stroke-dasharray:7,7;"/><polygon fill="#181818" points="2314.3,360.72,2324.1486,360.6427,2318.853,358.6535,2320.8421,353.3579,2314.3,360.72" style="stroke:#181818;stroke-width:1;stroke-linejoin:miter;stroke-miterlimit:10;"/><text fill="#000000" font-family="Arial" font-size="13" lengthAdjust="spacing" textLength="39.9395" x="2699" y="265.4369">stores</text></g><!--link Evaluation_Queue_System to QueueEntry--><g class="link" data-entity-1="ent0013" data-entity-2="ent0007" data-link-type="dependency" data-source-line="112" id="lnk26"><path codeLine="112" d="M3250.82,179.86 C3213.9,200.75 3169.31,224.89 3128,244.37 C3092.09,261.3 3081.15,260.97 3045,277.37 C2988.27,303.12 2930.4604,332.5833 2881.5604,358.4333" fill="none" id="Evaluation_Queue_System-to-QueueEntry" style="stroke:#181818;stroke-width:1;stroke-dasharray:7,7;"/><polygon fill="#181818" points="2877.14,360.77,2886.9661,360.1002,2881.5604,358.4333,2883.2273,353.0276,2877.14,360.77" style="stroke:#181818;stroke-width:1;stroke-linejoin:miter;stroke-miterlimit:10;"/><text fill="#000000" font-family="Arial" font-size="13" lengthAdjust="spacing" textLength="59.8584" x="3110" y="265.4369">manages</text></g><!--link Symptom_Validation_API to InvalidSymptomException--><g class="link" data-entity-1="ent0011" data-entity-2="ent0015" data-link-type="dependency" data-source-line="115" id="lnk27"><path codeLine="115" d="M3709.18,163.62 C3714.47,215.83 3724.5263,315.0354 3730.0063,369.1554" fill="none" id="Symptom_Validation_API-to-InvalidSymptomException" style="stroke:#181818;stroke-width:1;stroke-dasharray:7,7;"/><polygon fill="#181818" points="3730.51,374.13,3733.583,364.7728,3730.0063,369.1554,3725.6237,365.5788,3730.51,374.13" style="stroke:#181818;stroke-width:1;stroke-linejoin:miter;stroke-miterlimit:10;"/><text fill="#000000" font-family="Arial" font-size="13" lengthAdjust="spacing" textLength="44.04" x="3720" y="265.4369">throws</text></g><!--link Evaluation_Queue_System to QueueFullException--><g class="link" data-entity-1="ent0013" data-entity-2="ent0016" data-link-type="dependency" data-source-line="116" id="lnk28"><path codeLine="116" d="M3366.09,180.01 C3405.51,235.32 3466.5477,320.9485 3501.4477,369.9085" fill="none" id="Evaluation_Queue_System-to-QueueFullException" style="stroke:#181818;stroke-width:1;stroke-dasharray:7,7;"/><polygon fill="#181818" points="3504.35,373.98,3502.3831,364.3295,3501.4477,369.9085,3495.8688,368.9732,3504.35,373.98" style="stroke:#181818;stroke-width:1;stroke-linejoin:miter;stroke-miterlimit:10;"/><text fill="#000000" font-family="Arial" font-size="13" lengthAdjust="spacing" textLength="44.04" x="3425" y="265.4369">throws</text></g><!--link GMN35 to QueueEntry--><g class="link" data-entity-1="ent0036" data-entity-2="ent0007" data-link-type="association" data-source-line="129" id="lnk37"><path d="M2569.81,151.4 C2577.47,179.36 2594.47,232 2622,269.37 C2647.97,304.62 2684.69,336.51 2717.09,360.84" fill="none" id="GMN35-QueueEntry" style="stroke:#181818;stroke-width:1;stroke-dasharray:7,7;"/></g><?plantuml-src lLVTJYCt5BwVfpXABpgKW0gN8nGfBK52QhkKiErbP6OEYON7dhKziEaMgG_H9-oJxB4zcV5C9XK2QOK49lxE__cEJymZbnNJh8IAvOziZKkx5GWQSylaMc1YMi0z0TPQrRBuMGcbuRkhXVk94BbWnbmfQPVyBuIpyx6htrY9CDUSYUYsm0TM2pkuJngNO7AfIiOb_AeA51Fuaa3G1_FSaYFkVu0JADds1lM3qcK6IxGNz4_9ZU5ApWXn3Fa6yyVkmvGvwUk2m5PpkPvIr9zghh7eC1bqvoF8u2Ub1399wbuI-eMoBYD4uyajii8V_jJSeZyjFcDUD-TvKNBfJyTWh5PoZJgjUfR63IqjizZOkD5ujZkSXuCozgmzdVk8dr3pXor1SYKBRbtGJZ23YQorGH1glSO2k9pqWpiaUKwIx8bnmUwfIJxLM2COeQpPaxUQIUFbxbJgNIDHioqhgqgovuh4t2rbG576lVoJuiMuiBDR4Hwb1S6D9P-PWGh9DRa6V6AYzjfYDJvleKrkWkWj1QEB9e77e9ubwYpqKFCHotEa2b1meOFyNTCy6YdxFKrfuz8biopR6Rcy--2Sw07xtYn35fpKkto9zAHDPatMQh_xC8N6lwx5dMUHMD-ltrqv5zBgxRlSwjIaU_QdL6vcQnFxq-7xxZW7vvH0OnSorzlATWGx9gOQLUkSVBXjJiq51YmM_NPiFjw1qttvySxPtSB51RidijB8cCtUb9wNv2KQQDVoGJFIL-UsrWZ__VCliLOJZxnkBYtDCKPccsAj_c225xx5L_ERwzQ1BpkdNk0f832bcLhRNfdtnqbdeEdJbSFTCuDZgZr5K-rRUT3PHstIHcMQjXnwqnBTe_gS6ZS3Gw6u-GlFlzX431UAXluORVkq-8LWL6rwXRnKBLyfrzhHIWZtHBv59exc_oG6nLkqWs_bMRHQRcasbcCrP4KHE8dkTyowk1w4kbETLWyQaOX3y8-glvk7Xu4BRhTfo-ob9_mU0HQVS_IKDl5xVYrz6pVfQ374FjoT8_gLn3HIjilJo3IxgeLubvQFajLsepJjCyNSK_ijwaZXzpHAX4-gsV3A9FqdwUJaxratoU87edyJZUZ-HH8seSdPX2xep-df3vDkU6LkKfa1viSXfXjTIJ8wV5ljFR5cj1eNutNRchoi19OKOOWPqigDjwDaRzwSdiu6xtCM66x6iN5oMkGX8ZY1A6SPhOYIYkDzxJeGQbUnvC2iTJeEzMK6TgFLyoiSw7TYAvT8HIkTLHMeXxsTmLcbHLZQBBmqKDR6mZq2a-sR4s6w-WKWbxce2moo2UrAu8prJVQNWMzWiFVQVmDxtLATXCLy6hRowMubduPz71WzmuQxhpoM2bIrOcvqTLlwaVkgmYMQ204RZfhfVBCzb6ItjoTXPwVAKpGq0GSBE3npkncO3Gjtjs_xJTjXkuKtxE19i_qJ7mvks0s65BvcaMuZ-Ge0?></g></svg>