<svg xmlns="http://www.w3.org/2000/svg" xmlns:xlink="http://www.w3.org/1999/xlink" version="1.1" data-diagram-type="CLASS" style="width:1955px;height:1142px;background:#FFFFFF;" width="1955px" height="1142px" viewBox="0 0 1955 1142" zoomAndPan="magnify" preserveAspectRatio="none" contentStyleType="text/css"><?plantuml 1.2026.7beta3?><defs/><g><!--cluster Domain Model--><g class="cluster" data-qualified-name="Domain Model" id="ent0001" data-source-line="10"><path d="M8.5,345.56 L122.2793,345.56 A3.75,3.75 0 0 1 124.7793,348.06 L131.7793,367.8569 L1191.5,367.8569 A2.5,2.5 0 0 1 1194,370.3569 L1194,1125 A2.5,2.5 0 0 1 1191.5,1127.5 L8.5,1127.5 A2.5,2.5 0 0 1 6,1125 L6,348.06 A2.5,2.5 0 0 1 8.5,345.56" style="stroke:#000000;stroke-width:1.5;" fill="none"/><line x1="6" y1="367.8569" x2="131.7793" y2="367.8569" style="stroke:#000000;stroke-width:1.5;"/><text x="10" y="360.5551" fill="#000000" font-size="14" lengthAdjust="spacing" textLength="112.7793" font-weight="700" font-family="Arial">Domain Model</text></g><!--cluster Application--><g class="cluster" data-qualified-name="Application" id="ent0011" data-source-line="77"><path d="M537.5,6 L627.7979,6 A3.75,3.75 0 0 1 630.2979,8.5 L637.2979,28.2969 L874.5,28.2969 A2.5,2.5 0 0 1 877,30.7969 L877,294.06 A2.5,2.5 0 0 1 874.5,296.56 L537.5,296.56 A2.5,2.5 0 0 1 535,294.06 L535,8.5 A2.5,2.5 0 0 1 537.5,6" style="stroke:#000000;stroke-width:1.5;" fill="none"/><line x1="535" y1="28.2969" x2="637.2979" y2="28.2969" style="stroke:#000000;stroke-width:1.5;"/><text x="539" y="20.9951" fill="#000000" font-size="14" lengthAdjust="spacing" textLength="89.2979" font-weight="700" font-family="Arial">Application</text></g><!--cluster Infrastructure — Ports--><g class="cluster" data-qualified-name="Infrastructure . Ports" id="ent0013" data-source-line="90"><path d="M1307.5,414.75 L1484.9287,414.75 A3.75,3.75 0 0 1 1487.4287,417.25 L1494.4287,437.0469 L1937.5,437.0469 A2.5,2.5 0 0 1 1940,439.5469 L1940,811.52 A2.5,2.5 0 0 1 1937.5,814.02 L1307.5,814.02 A2.5,2.5 0 0 1 1305,811.52 L1305,417.25 A2.5,2.5 0 0 1 1307.5,414.75" style="stroke:#000000;stroke-width:1.5;" fill="none"/><line x1="1305" y1="437.0469" x2="1494.4287" y2="437.0469" style="stroke:#000000;stroke-width:1.5;"/><text x="1309" y="429.7451" fill="#000000" font-size="14" lengthAdjust="spacing" textLength="176.4287" font-weight="700" font-family="Arial">Infrastructure — Ports</text></g><!--class Actor--><g class="entity" data-qualified-name="Domain Model.Actor" id="ent0002" data-source-line="11"><rect x="391.18" y="398.86" width="361.6377" height="190.6719" fill="#FEFEFE" style="stroke:#333333;stroke-width:0.5;" rx="2.5" ry="2.5"/><ellipse cx="549.2064" cy="414.86" rx="11" ry="11" fill="#ADD1B2" style="stroke:#181818;stroke-width:1;"/><path d="M552.1751,420.5006 Q551.597,420.7975 550.9564,420.9381 Q550.3157,421.0944 549.6126,421.0944 Q547.1126,421.0944 545.7845,419.4538 Q544.472,417.7975 544.472,414.6725 Q544.472,411.5475 545.7845,409.8913 Q547.1126,408.235 549.6126,408.235 Q550.3157,408.235 550.9564,408.3913 Q551.6126,408.5475 552.1751,408.8444 L552.1751,411.5631 Q551.5501,410.985 550.9564,410.7194 Q550.3626,410.4381 549.7376,410.4381 Q548.3939,410.4381 547.7064,411.5163 Q547.0189,412.5788 547.0189,414.6725 Q547.0189,416.7663 547.7064,417.8444 Q548.3939,418.9069 549.7376,418.9069 Q550.3626,418.9069 550.9564,418.6413 Q551.5501,418.36 552.1751,417.7819 L552.1751,420.5006 Z " fill="#000000"/><text x="569.7064" y="419.7067" fill="#000000" font-size="14" lengthAdjust="spacing" textLength="37.085" font-family="Arial">Actor</text><line x1="392.18" y1="430.86" x2="751.8177" y2="430.86" style="stroke:#333333;stroke-width:0.5;"/><g data-visibility-modifier="PRIVATE_FIELD"><rect x="399.18" y="441.5084" width="6" height="6" fill="none" style="stroke:#C82930;stroke-width:1;"/></g><text x="411.18" y="447.8551" fill="#000000" font-size="14" lengthAdjust="spacing" textLength="222.5234" font-family="Arial">mayPerform : Set&lt;Permission></text><text x="411.18" y="484.4489" fill="#000000" font-size="14" lengthAdjust="spacing" textLength="219.2285" font-family="Arial">note "mayPerform assignment:</text><text x="411.18" y="500.7457" fill="#000000" font-size="14" lengthAdjust="spacing" textLength="174.4189" font-family="Arial">Security_Team -> Admin</text><text x="411.18" y="517.0426" fill="#000000" font-size="14" lengthAdjust="spacing" textLength="335.6377" font-family="Arial">System_Administrators -> Write,Execute,Admin</text><text x="411.18" y="533.3395" fill="#000000" font-size="14" lengthAdjust="spacing" textLength="201.6055" font-family="Arial">End_Users -> Read,Execute"</text><g data-visibility-modifier="PUBLIC_METHOD"><ellipse cx="402.18" cy="546.2897" rx="3" ry="3" fill="#84BE84" style="stroke:#038048;stroke-width:1;"/></g><text x="411.18" y="549.6364" fill="#000000" font-size="14" lengthAdjust="spacing" textLength="287.8818" font-family="Arial">getActorByCard(cardData: String) : Actor</text><g data-visibility-modifier="PUBLIC_METHOD"><ellipse cx="402.18" cy="562.5866" rx="3" ry="3" fill="#84BE84" style="stroke:#038048;stroke-width:1;"/></g><text x="411.18" y="565.9332" fill="#000000" font-size="14" lengthAdjust="spacing" textLength="186.2314" font-family="Arial">getActorByCard(cardData)</text><g data-visibility-modifier="PUBLIC_METHOD"><ellipse cx="402.18" cy="578.8834" rx="3" ry="3" fill="#84BE84" style="stroke:#038048;stroke-width:1;"/></g><text x="411.18" y="582.2301" fill="#000000" font-size="14" lengthAdjust="spacing" textLength="234.8281" font-family="Arial">mayPerform(grant=Admin) : bool</text><line x1="392.18" y1="463.3053" x2="537.2449" y2="463.3053" style="stroke:#333333;stroke-width:1;stroke-dasharray:1,2;"/><text x="537.2449" y="467.652" fill="#000000" font-size="14" lengthAdjust="spacing" textLength="69.5078" font-family="Arial">invariants</text><line x1="606.7528" y1="463.3053" x2="751.8177" y2="463.3053" style="stroke:#333333;stroke-width:1;stroke-dasharray:1,2;"/></g><!--class Permission--><g class="entity" data-qualified-name="Domain Model.Permission" id="ent0003" data-source-line="20"><rect x="787.87" y="441.6" width="108.2549" height="105.1875" fill="#FEFEFE" style="stroke:#333333;stroke-width:0.5;" rx="2.5" ry="2.5"/><ellipse cx="802.87" cy="457.6" rx="11" ry="11" fill="#EB937F" style="stroke:#181818;stroke-width:1;"/><path d="M806.9794,463.6 L799.2606,463.6 L799.2606,451.2094 L806.9794,451.2094 L806.9794,453.3656 L801.7138,453.3656 L801.7138,456.0375 L806.4794,456.0375 L806.4794,458.1938 L801.7138,458.1938 L801.7138,461.4438 L806.9794,461.4438 L806.9794,463.6 Z " fill="#000000"/><text x="816.87" y="462.4467" fill="#000000" font-size="14" lengthAdjust="spacing" textLength="76.2549" font-family="Arial">Permission</text><line x1="788.87" y1="473.6" x2="895.1249" y2="473.6" style="stroke:#333333;stroke-width:0.5;"/><text x="793.87" y="490.5951" fill="#000000" font-size="14" lengthAdjust="spacing" textLength="35.8066" font-family="Arial">Read</text><text x="793.87" y="506.892" fill="#000000" font-size="14" lengthAdjust="spacing" textLength="37.5908" font-family="Arial">Write</text><text x="793.87" y="523.1889" fill="#000000" font-size="14" lengthAdjust="spacing" textLength="56.417" font-family="Arial">Execute</text><text x="793.87" y="539.4857" fill="#000000" font-size="14" lengthAdjust="spacing" textLength="44.8643" font-family="Arial">Admin</text></g><!--class Resource--><g class="entity" data-qualified-name="Domain Model.Resource" id="ent0004" data-source-line="27"><rect x="472.16" y="686.83" width="197.6777" height="109.1875" fill="#FEFEFE" style="stroke:#333333;stroke-width:0.5;" rx="2.5" ry="2.5"/><ellipse cx="534.179" cy="702.83" rx="11" ry="11" fill="#ADD1B2" style="stroke:#181818;stroke-width:1;"/><path d="M537.1478,708.4706 Q536.5697,708.7675 535.929,708.9081 Q535.2884,709.0644 534.5853,709.0644 Q532.0853,709.0644 530.7572,707.4237 Q529.4447,705.7675 529.4447,702.6425 Q529.4447,699.5175 530.7572,697.8612 Q532.0853,696.205 534.5853,696.205 Q535.2884,696.205 535.929,696.3612 Q536.5853,696.5175 537.1478,696.8144 L537.1478,699.5331 Q536.5228,698.955 535.929,698.6894 Q535.3353,698.4081 534.7103,698.4081 Q533.3665,698.4081 532.679,699.4862 Q531.9915,700.5487 531.9915,702.6425 Q531.9915,704.7362 532.679,705.8144 Q533.3665,706.8769 534.7103,706.8769 Q535.3353,706.8769 535.929,706.6112 Q536.5228,706.33 537.1478,705.7519 L537.1478,708.4706 Z " fill="#000000"/><text x="554.679" y="707.6767" fill="#000000" font-size="14" lengthAdjust="spacing" textLength="65.1396" font-family="Arial">Resource</text><line x1="473.16" y1="718.83" x2="668.8377" y2="718.83" style="stroke:#333333;stroke-width:0.5;"/><g data-visibility-modifier="PRIVATE_FIELD"><rect x="480.16" y="729.4784" width="6" height="6" fill="none" style="stroke:#C82930;stroke-width:1;"/></g><text x="492.16" y="735.8251" fill="#000000" font-size="14" lengthAdjust="spacing" textLength="93.96" font-family="Arial">owner : Actor</text><g data-visibility-modifier="PRIVATE_FIELD"><rect x="480.16" y="745.7753" width="6" height="6" fill="none" style="stroke:#C82930;stroke-width:1;"/></g><text x="492.16" y="752.122" fill="#000000" font-size="14" lengthAdjust="spacing" textLength="169.6064" font-family="Arial">accessible : Set&lt;Actor></text><text x="478.16" y="788.7157" fill="#000000" font-size="14" lengthAdjust="spacing" textLength="185.6777" font-family="Arial">note "owner ∈ accessible"</text><line x1="473.16" y1="767.5722" x2="536.245" y2="767.5722" style="stroke:#333333;stroke-width:1;stroke-dasharray:1,2;"/><text x="536.245" y="771.9189" fill="#000000" font-size="14" lengthAdjust="spacing" textLength="69.5078" font-family="Arial">invariants</text><line x1="605.7528" y1="767.5722" x2="668.8377" y2="767.5722" style="stroke:#333333;stroke-width:1;stroke-dasharray:1,2;"/></g><!--class Credential--><g class="entity" data-qualified-name="Domain Model.Credential" id="ent0005" data-source-line="34"><rect x="704.7" y="684.83" width="300.5996" height="113.1875" fill="#FEFEFE" style="stroke:#333333;stroke-width:0.5;" rx="2.5" ry="2.5"/><ellipse cx="814.5672" cy="700.83" rx="11" ry="11" fill="#ADD1B2" style="stroke:#181818;stroke-width:1;"/><path d="M817.5359,706.4706 Q816.9578,706.7675 816.3172,706.9081 Q815.6766,707.0644 814.9734,707.0644 Q812.4734,707.0644 811.1453,705.4237 Q809.8328,703.7675 809.8328,700.6425 Q809.8328,697.5175 811.1453,695.8612 Q812.4734,694.205 814.9734,694.205 Q815.6766,694.205 816.3172,694.3612 Q816.9734,694.5175 817.5359,694.8144 L817.5359,697.5331 Q816.9109,696.955 816.3172,696.6894 Q815.7234,696.4081 815.0984,696.4081 Q813.7547,696.4081 813.0672,697.4862 Q812.3797,698.5487 812.3797,700.6425 Q812.3797,702.7362 813.0672,703.8144 Q813.7547,704.8769 815.0984,704.8769 Q815.7234,704.8769 816.3172,704.6112 Q816.9109,704.33 817.5359,703.7519 L817.5359,706.4706 Z " fill="#000000"/><text x="835.0672" y="705.6767" fill="#000000" font-size="14" lengthAdjust="spacing" textLength="72.3652" font-family="Arial">Credential</text><line x1="705.7" y1="716.83" x2="1004.2996" y2="716.83" style="stroke:#333333;stroke-width:0.5;"/><g data-visibility-modifier="PRIVATE_FIELD"><rect x="712.7" y="727.4784" width="6" height="6" fill="none" style="stroke:#C82930;stroke-width:1;"/></g><text x="724.7" y="733.8251" fill="#000000" font-size="14" lengthAdjust="spacing" textLength="86.7891" font-family="Arial">actor : Actor</text><g data-visibility-modifier="PRIVATE_FIELD"><rect x="712.7" y="743.7753" width="6" height="6" fill="none" style="stroke:#C82930;stroke-width:1;"/></g><text x="724.7" y="750.122" fill="#000000" font-size="14" lengthAdjust="spacing" textLength="56.4717" font-family="Arial">pin : Pin</text><line x1="705.7" y1="757.4237" x2="1004.2996" y2="757.4237" style="stroke:#333333;stroke-width:0.5;"/><g data-visibility-modifier="PUBLIC_METHOD"><ellipse cx="715.7" cy="771.0722" rx="3" ry="3" fill="#84BE84" style="stroke:#038048;stroke-width:1;"/></g><text x="724.7" y="774.4189" fill="#000000" font-size="14" lengthAdjust="spacing" textLength="274.5996" font-family="Arial">getCredential(actor: Actor) : Credential</text><g data-visibility-modifier="PUBLIC_METHOD"><ellipse cx="715.7" cy="787.3691" rx="3" ry="3" fill="#84BE84" style="stroke:#038048;stroke-width:1;"/></g><text x="724.7" y="790.7157" fill="#000000" font-size="14" lengthAdjust="spacing" textLength="142.3652" font-family="Arial">getCredential(actor)</text></g><!--class Pin--><g class="entity" data-qualified-name="Domain Model.Pin" id="ent0006" data-source-line="41"><rect x="758.54" y="877.02" width="192.9199" height="125.4844" fill="#FEFEFE" style="stroke:#333333;stroke-width:0.5;" rx="2.5" ry="2.5"/><ellipse cx="840.1474" cy="893.02" rx="11" ry="11" fill="#ADD1B2" style="stroke:#181818;stroke-width:1;"/><path d="M843.1162,898.6606 Q842.538,898.9575 841.8974,899.0981 Q841.2568,899.2544 840.5537,899.2544 Q838.0537,899.2544 836.7255,897.6138 Q835.413,895.9575 835.413,892.8325 Q835.413,889.7075 836.7255,888.0513 Q838.0537,886.395 840.5537,886.395 Q841.2568,886.395 841.8974,886.5513 Q842.5537,886.7075 843.1162,887.0044 L843.1162,889.7231 Q842.4912,889.145 841.8974,888.8794 Q841.3037,888.5981 840.6787,888.5981 Q839.3349,888.5981 838.6474,889.6763 Q837.9599,890.7388 837.9599,892.8325 Q837.9599,894.9263 838.6474,896.0044 Q839.3349,897.0669 840.6787,897.0669 Q841.3037,897.0669 841.8974,896.8013 Q842.4912,896.52 843.1162,895.9419 L843.1162,898.6606 Z " fill="#000000"/><text x="860.6474" y="897.8667" fill="#000000" font-size="14" lengthAdjust="spacing" textLength="21.2051" font-family="Arial">Pin</text><line x1="759.54" y1="909.02" x2="950.4599" y2="909.02" style="stroke:#333333;stroke-width:0.5;"/><g data-visibility-modifier="PRIVATE_FIELD"><rect x="766.54" y="919.6684" width="6" height="6" fill="none" style="stroke:#C82930;stroke-width:1;"/></g><text x="778.54" y="926.0151" fill="#000000" font-size="14" lengthAdjust="spacing" textLength="131.3389" font-family="Arial">digits : Set&lt;Digit></text><text x="778.54" y="962.6089" fill="#000000" font-size="14" lengthAdjust="spacing" textLength="166.9199" font-family="Arial">note "4 ≤ #digits ≤ 12"</text><g data-visibility-modifier="PUBLIC_METHOD"><ellipse cx="769.54" cy="975.5591" rx="3" ry="3" fill="#84BE84" style="stroke:#038048;stroke-width:1;"/></g><text x="778.54" y="978.9057" fill="#000000" font-size="14" lengthAdjust="spacing" textLength="89.9404" font-family="Arial">getPin() : Pin</text><g data-visibility-modifier="PUBLIC_METHOD"><ellipse cx="769.54" cy="991.8559" rx="3" ry="3" fill="#84BE84" style="stroke:#038048;stroke-width:1;"/></g><text x="778.54" y="995.2026" fill="#000000" font-size="14" lengthAdjust="spacing" textLength="55.1182" font-family="Arial">getPin()</text><line x1="759.54" y1="941.4653" x2="820.2461" y2="941.4653" style="stroke:#333333;stroke-width:1;stroke-dasharray:1,2;"/><text x="820.2461" y="945.812" fill="#000000" font-size="14" lengthAdjust="spacing" textLength="69.5078" font-family="Arial">invariants</text><line x1="889.7539" y1="941.4653" x2="950.4599" y2="941.4653" style="stroke:#333333;stroke-width:1;stroke-dasharray:1,2;"/></g><!--class Digit--><g class="entity" data-qualified-name="Domain Model.Digit" id="ent0007" data-source-line="49"><rect x="822.53" y="1079.5" width="64.9355" height="32" fill="#FEFEFE" style="stroke:#333333;stroke-width:0.5;" rx="2.5" ry="2.5"/><ellipse cx="837.53" cy="1095.5" rx="11" ry="11" fill="#ADD1B2" style="stroke:#181818;stroke-width:1;"/><path d="M840.4988,1101.1406 Q839.9206,1101.4375 839.28,1101.5781 Q838.6394,1101.7344 837.9363,1101.7344 Q835.4363,1101.7344 834.1081,1100.0938 Q832.7956,1098.4375 832.7956,1095.3125 Q832.7956,1092.1875 834.1081,1090.5313 Q835.4363,1088.875 837.9363,1088.875 Q838.6394,1088.875 839.28,1089.0313 Q839.9363,1089.1875 840.4988,1089.4844 L840.4988,1092.2031 Q839.8738,1091.625 839.28,1091.3594 Q838.6863,1091.0781 838.0613,1091.0781 Q836.7175,1091.0781 836.03,1092.1563 Q835.3425,1093.2188 835.3425,1095.3125 Q835.3425,1097.4063 836.03,1098.4844 Q836.7175,1099.5469 838.0613,1099.5469 Q838.6863,1099.5469 839.28,1099.2813 Q839.8738,1099 840.4988,1098.4219 L840.4988,1101.1406 Z " fill="#000000"/><text x="851.53" y="1100.3467" fill="#000000" font-size="14" lengthAdjust="spacing" textLength="32.9355" font-family="Arial">Digit</text></g><!--class State--><g class="entity" data-qualified-name="Domain Model.State" id="ent0008" data-source-line="52"><rect x="22.05" y="380.56" width="333.9043" height="227.2656" fill="#FEFEFE" style="stroke:#333333;stroke-width:0.5;" rx="2.5" ry="2.5"/><ellipse cx="166.2233" cy="396.56" rx="11" ry="11" fill="#EB937F" style="stroke:#181818;stroke-width:1;"/><path d="M170.3327,402.56 L162.614,402.56 L162.614,390.1694 L170.3327,390.1694 L170.3327,392.3256 L165.0671,392.3256 L165.0671,394.9975 L169.8327,394.9975 L169.8327,397.1537 L165.0671,397.1537 L165.0671,400.4037 L170.3327,400.4037 L170.3327,402.56 Z " fill="#000000"/><text x="186.7233" y="401.4067" fill="#000000" font-size="14" lengthAdjust="spacing" textLength="37.0576" font-family="Arial">State</text><line x1="23.05" y1="412.56" x2="354.9543" y2="412.56" style="stroke:#333333;stroke-width:0.5;"/><text x="28.05" y="429.5551" fill="#000000" font-size="14" lengthAdjust="spacing" textLength="31.7188" font-family="Arial">Pre1</text><text x="28.05" y="445.852" fill="#000000" font-size="14" lengthAdjust="spacing" textLength="31.7188" font-family="Arial">Pre2</text><text x="28.05" y="462.1489" fill="#000000" font-size="14" lengthAdjust="spacing" textLength="31.7188" font-family="Arial">Pre3</text><text x="28.05" y="478.4457" fill="#000000" font-size="14" lengthAdjust="spacing" textLength="38.6982" font-family="Arial">Post1</text><text x="28.05" y="494.7426" fill="#000000" font-size="14" lengthAdjust="spacing" textLength="38.6982" font-family="Arial">Post2</text><text x="28.05" y="511.0395" fill="#000000" font-size="14" lengthAdjust="spacing" textLength="38.6982" font-family="Arial">Post3</text><text x="28.05" y="527.3364" fill="#000000" font-size="14" lengthAdjust="spacing" textLength="49.6699" font-family="Arial">Locked</text><line x1="23.05" y1="534.6381" x2="354.9543" y2="534.6381" style="stroke:#333333;stroke-width:0.5;"/><g data-visibility-modifier="PUBLIC_METHOD"><ellipse cx="33.05" cy="548.2866" rx="3" ry="3" fill="#84BE84" style="stroke:#038048;stroke-width:1;"/></g><text x="42.05" y="551.6332" fill="#000000" font-size="14" lengthAdjust="spacing" textLength="296.9326" font-family="Arial">transition(from=Pre3, to=Post1) : boolean</text><g data-visibility-modifier="PUBLIC_METHOD"><ellipse cx="33.05" cy="564.5834" rx="3" ry="3" fill="#84BE84" style="stroke:#038048;stroke-width:1;"/></g><text x="42.05" y="567.9301" fill="#000000" font-size="14" lengthAdjust="spacing" textLength="303.9121" font-family="Arial">transition(from=Post1, to=Post2) : boolean</text><g data-visibility-modifier="PUBLIC_METHOD"><ellipse cx="33.05" cy="580.8803" rx="3" ry="3" fill="#84BE84" style="stroke:#038048;stroke-width:1;"/></g><text x="42.05" y="584.227" fill="#000000" font-size="14" lengthAdjust="spacing" textLength="303.9121" font-family="Arial">transition(from=Post2, to=Post3) : boolean</text><g data-visibility-modifier="PUBLIC_METHOD"><ellipse cx="33.05" cy="597.1772" rx="3" ry="3" fill="#84BE84" style="stroke:#038048;stroke-width:1;"/></g><text x="42.05" y="600.5239" fill="#000000" font-size="14" lengthAdjust="spacing" textLength="307.9043" font-family="Arial">transition(from=Pre3, to=Locked) : boolean</text></g><!--class IfaceKind--><g class="entity" data-qualified-name="Domain Model.IfaceKind" id="ent0009" data-source-line="66"><rect x="931.09" y="457.9" width="149.8262" height="72.5938" fill="#FEFEFE" style="stroke:#333333;stroke-width:0.5;" rx="2.5" ry="2.5"/><ellipse cx="969.962" cy="473.9" rx="11" ry="11" fill="#EB937F" style="stroke:#181818;stroke-width:1;"/><path d="M974.0713,479.9 L966.3526,479.9 L966.3526,467.5094 L974.0713,467.5094 L974.0713,469.6656 L968.8057,469.6656 L968.8057,472.3375 L973.5713,472.3375 L973.5713,474.4938 L968.8057,474.4938 L968.8057,477.7438 L974.0713,477.7438 L974.0713,479.9 Z " fill="#000000"/><text x="989.2669" y="478.7467" fill="#000000" font-size="14" lengthAdjust="spacing" textLength="64.7773" font-family="Arial">IfaceKind</text><line x1="932.09" y1="489.9" x2="1079.9162" y2="489.9" style="stroke:#333333;stroke-width:0.5;"/><text x="937.09" y="506.8951" fill="#000000" font-size="14" lengthAdjust="spacing" textLength="137.8262" font-family="Arial">Hardware_Interface</text><text x="937.09" y="523.192" fill="#000000" font-size="14" lengthAdjust="spacing" textLength="121.4199" font-family="Arial">Service_Interface</text></g><!--class Bool--><g class="entity" data-qualified-name="Domain Model.Bool" id="ent0010" data-source-line="71"><rect x="1115.69" y="457.9" width="62.625" height="72.5938" fill="#FEFEFE" style="stroke:#333333;stroke-width:0.5;" rx="2.5" ry="2.5"/><ellipse cx="1130.69" cy="473.9" rx="11" ry="11" fill="#EB937F" style="stroke:#181818;stroke-width:1;"/><path d="M1134.7994,479.9 L1127.0806,479.9 L1127.0806,467.5094 L1134.7994,467.5094 L1134.7994,469.6656 L1129.5338,469.6656 L1129.5338,472.3375 L1134.2994,472.3375 L1134.2994,474.4938 L1129.5338,474.4938 L1129.5338,477.7438 L1134.7994,477.7438 L1134.7994,479.9 Z " fill="#000000"/><text x="1144.69" y="478.7467" fill="#000000" font-size="14" lengthAdjust="spacing" textLength="30.625" font-family="Arial">Bool</text><line x1="1116.69" y1="489.9" x2="1177.315" y2="489.9" style="stroke:#333333;stroke-width:0.5;"/><text x="1121.69" y="506.8951" fill="#000000" font-size="14" lengthAdjust="spacing" textLength="31.7939" font-family="Arial">True</text><text x="1121.69" y="523.192" fill="#000000" font-size="14" lengthAdjust="spacing" textLength="36.4287" font-family="Arial">False</text></g><!--class Operation--><g class="entity" data-qualified-name="Application.Operation" id="ent0012" data-source-line="78"><rect x="551" y="41" width="309.999" height="239.5625" fill="#FEFEFE" style="stroke:#333333;stroke-width:0.5;" rx="2.5" ry="2.5"/><ellipse cx="651.5942" cy="57" rx="11" ry="11" fill="#ADD1B2" style="stroke:#181818;stroke-width:1;"/><path d="M654.563,62.6406 Q653.9849,62.9375 653.3442,63.0781 Q652.7036,63.2344 652.0005,63.2344 Q649.5005,63.2344 648.1724,61.5938 Q646.8599,59.9375 646.8599,56.8125 Q646.8599,53.6875 648.1724,52.0313 Q649.5005,50.375 652.0005,50.375 Q652.7036,50.375 653.3442,50.5313 Q654.0005,50.6875 654.563,50.9844 L654.563,53.7031 Q653.938,53.125 653.3442,52.8594 Q652.7505,52.5781 652.1255,52.5781 Q650.7817,52.5781 650.0942,53.6563 Q649.4067,54.7188 649.4067,56.8125 Q649.4067,58.9063 650.0942,59.9844 Q650.7817,61.0469 652.1255,61.0469 Q652.7505,61.0469 653.3442,60.7813 Q653.938,60.5 654.563,59.9219 L654.563,62.6406 Z " fill="#000000"/><text x="672.0942" y="61.8467" fill="#000000" font-size="14" lengthAdjust="spacing" textLength="100.3105" font-family="Arial">REQ_AUTH_01</text><line x1="552" y1="73" x2="859.999" y2="73" style="stroke:#333333;stroke-width:0.5;"/><g data-visibility-modifier="PRIVATE_FIELD"><rect x="559" y="83.6484" width="6" height="6" fill="none" style="stroke:#C82930;stroke-width:1;"/></g><text x="571" y="89.9951" fill="#000000" font-size="14" lengthAdjust="spacing" textLength="105.123" font-family="Arial">initiator : Actor</text><g data-visibility-modifier="PRIVATE_FIELD"><rect x="559" y="99.9453" width="6" height="6" fill="none" style="stroke:#C82930;stroke-width:1;"/></g><text x="571" y="106.292" fill="#000000" font-size="14" lengthAdjust="spacing" textLength="168.0205" font-family="Arial">target : Set&lt;Resource></text><g data-visibility-modifier="PRIVATE_FIELD"><rect x="559" y="116.2422" width="6" height="6" fill="none" style="stroke:#C82930;stroke-width:1;"/></g><text x="571" y="122.5889" fill="#000000" font-size="14" lengthAdjust="spacing" textLength="178.1445" font-family="Arial">channel : Set&lt;Interface></text><g data-visibility-modifier="PRIVATE_FIELD"><rect x="559" y="132.5391" width="6" height="6" fill="none" style="stroke:#C82930;stroke-width:1;"/></g><text x="571" y="138.8857" fill="#000000" font-size="14" lengthAdjust="spacing" textLength="127.4561" font-family="Arial">grant : Permission</text><g data-visibility-modifier="PRIVATE_FIELD"><rect x="559" y="148.8359" width="6" height="6" fill="none" style="stroke:#C82930;stroke-width:1;"/></g><text x="571" y="155.1826" fill="#000000" font-size="14" lengthAdjust="spacing" textLength="73.9307" font-family="Arial">pre : State</text><g data-visibility-modifier="PRIVATE_FIELD"><rect x="559" y="165.1328" width="6" height="6" fill="none" style="stroke:#C82930;stroke-width:1;"/></g><text x="571" y="171.4795" fill="#000000" font-size="14" lengthAdjust="spacing" textLength="80.9102" font-family="Arial">post : State</text><text x="557" y="208.0732" fill="#000000" font-size="14" lengthAdjust="spacing" textLength="246.1826" font-family="Arial">note "grant ∈ initiator.mayPerform</text><text x="557" y="224.3701" fill="#000000" font-size="14" lengthAdjust="spacing" textLength="195.2344" font-family="Arial">initiator ∈ target.accessible</text><text x="557" y="240.667" fill="#000000" font-size="14" lengthAdjust="spacing" textLength="74.1221" font-family="Arial">pre ≠ post</text><text x="557" y="256.9639" fill="#000000" font-size="14" lengthAdjust="spacing" textLength="245.1299" font-family="Arial">at least one authenticated channel</text><text x="557" y="273.2607" fill="#000000" font-size="14" lengthAdjust="spacing" textLength="297.999" font-family="Arial">uses both hardware and service interface"</text><line x1="552" y1="186.9297" x2="671.2456" y2="186.9297" style="stroke:#333333;stroke-width:1;stroke-dasharray:1,2;"/><text x="671.2456" y="191.2764" fill="#000000" font-size="14" lengthAdjust="spacing" textLength="69.5078" font-family="Arial">invariants</text><line x1="740.7534" y1="186.9297" x2="859.999" y2="186.9297" style="stroke:#333333;stroke-width:1;stroke-dasharray:1,2;"/></g><!--class Interface--><g class="entity" data-qualified-name="Infrastructure . Ports.Interface" id="ent0014" data-source-line="91"><rect x="1382.91" y="449.75" width="168.1875" height="88.8906" fill="#FEFEFE" style="stroke:#333333;stroke-width:0.5;" rx="2.5" ry="2.5"/><ellipse cx="1431.4144" cy="465.75" rx="11" ry="11" fill="#B4A7E5" style="stroke:#181818;stroke-width:1;"/><path d="M1427.3363,461.5156 L1427.3363,459.3594 L1434.7269,459.3594 L1434.7269,461.5156 L1432.2581,461.5156 L1432.2581,469.5938 L1434.7269,469.5938 L1434.7269,471.75 L1427.3363,471.75 L1427.3363,469.5938 L1429.805,469.5938 L1429.805,461.5156 L1427.3363,461.5156 Z " fill="#000000"/><text x="1451.9144" y="470.5967" fill="#000000" font-size="14" lengthAdjust="spacing" textLength="62.6787" font-style="italic" font-family="Arial">Interface</text><line x1="1383.91" y1="481.75" x2="1550.0975" y2="481.75" style="stroke:#333333;stroke-width:0.5;"/><g data-visibility-modifier="PRIVATE_FIELD"><rect x="1390.91" y="492.3984" width="6" height="6" fill="none" style="stroke:#C82930;stroke-width:1;"/></g><text x="1402.91" y="498.7451" fill="#000000" font-size="14" lengthAdjust="spacing" textLength="108.1514" font-family="Arial">kind : IfaceKind</text><g data-visibility-modifier="PRIVATE_FIELD"><rect x="1390.91" y="508.6953" width="6" height="6" fill="none" style="stroke:#C82930;stroke-width:1;"/></g><text x="1402.91" y="515.042" fill="#000000" font-size="14" lengthAdjust="spacing" textLength="115.3428" font-family="Arial">encrypted : Bool</text><g data-visibility-modifier="PRIVATE_FIELD"><rect x="1390.91" y="524.9922" width="6" height="6" fill="none" style="stroke:#C82930;stroke-width:1;"/></g><text x="1402.91" y="531.3389" fill="#000000" font-size="14" lengthAdjust="spacing" textLength="142.1875" font-family="Arial">authenticated : Bool</text></g><!--class CardReader--><g class="entity" data-qualified-name="Infrastructure . Ports.CardReader" id="ent0015" data-source-line="97"><rect x="1320.7" y="684.83" width="292.6084" height="113.1875" fill="#FEFEFE" style="stroke:#333333;stroke-width:0.5;" rx="2.5" ry="2.5"/><ellipse cx="1421.1678" cy="700.83" rx="11" ry="11" fill="#ADD1B2" style="stroke:#181818;stroke-width:1;"/><path d="M1424.1365,706.4706 Q1423.5584,706.7675 1422.9178,706.9081 Q1422.2771,707.0644 1421.574,707.0644 Q1419.074,707.0644 1417.7459,705.4237 Q1416.4334,703.7675 1416.4334,700.6425 Q1416.4334,697.5175 1417.7459,695.8612 Q1419.074,694.205 1421.574,694.205 Q1422.2771,694.205 1422.9178,694.3612 Q1423.574,694.5175 1424.1365,694.8144 L1424.1365,697.5331 Q1423.5115,696.955 1422.9178,696.6894 Q1422.324,696.4081 1421.699,696.4081 Q1420.3553,696.4081 1419.6678,697.4862 Q1418.9803,698.5487 1418.9803,700.6425 Q1418.9803,702.7362 1419.6678,703.8144 Q1420.3553,704.8769 1421.699,704.8769 Q1422.324,704.8769 1422.9178,704.6112 Q1423.5115,704.33 1424.1365,703.7519 L1424.1365,706.4706 Z " fill="#000000"/><text x="1441.6678" y="705.6767" fill="#000000" font-size="14" lengthAdjust="spacing" textLength="83.1729" font-family="Arial">CardReader</text><line x1="1321.7" y1="716.83" x2="1612.3084" y2="716.83" style="stroke:#333333;stroke-width:0.5;"/><g data-visibility-modifier="PRIVATE_FIELD"><rect x="1328.7" y="727.4784" width="6" height="6" fill="none" style="stroke:#C82930;stroke-width:1;"/></g><text x="1340.7" y="733.8251" fill="#000000" font-size="14" lengthAdjust="spacing" textLength="266.6084" font-family="Arial">kind : IfaceKind = Hardware_Interface</text><g data-visibility-modifier="PRIVATE_FIELD"><rect x="1328.7" y="743.7753" width="6" height="6" fill="none" style="stroke:#C82930;stroke-width:1;"/></g><text x="1340.7" y="750.122" fill="#000000" font-size="14" lengthAdjust="spacing" textLength="167.7676" font-family="Arial">encrypted : Bool = True</text><g data-visibility-modifier="PRIVATE_FIELD"><rect x="1328.7" y="760.0722" width="6" height="6" fill="none" style="stroke:#C82930;stroke-width:1;"/></g><text x="1340.7" y="766.4189" fill="#000000" font-size="14" lengthAdjust="spacing" textLength="194.6123" font-family="Arial">authenticated : Bool = True</text><line x1="1321.7" y1="773.7206" x2="1612.3084" y2="773.7206" style="stroke:#333333;stroke-width:0.5;"/><g data-visibility-modifier="PUBLIC_METHOD"><ellipse cx="1331.7" cy="787.3691" rx="3" ry="3" fill="#84BE84" style="stroke:#038048;stroke-width:1;"/></g><text x="1340.7" y="790.7157" fill="#000000" font-size="14" lengthAdjust="spacing" textLength="140.1025" font-family="Arial">readCard(cardData)</text></g><!--class PINVerificationService--><g class="entity" data-qualified-name="Infrastructure . Ports.PINVerificationService" id="ent0016" data-source-line="104"><rect x="1647.9" y="696.98" width="276.2021" height="88.8906" fill="#FEFEFE" style="stroke:#333333;stroke-width:0.5;" rx="2.5" ry="2.5"/><ellipse cx="1704.4845" cy="712.98" rx="11" ry="11" fill="#ADD1B2" style="stroke:#181818;stroke-width:1;"/><path d="M1707.4532,718.6206 Q1706.8751,718.9175 1706.2345,719.0581 Q1705.5938,719.2144 1704.8907,719.2144 Q1702.3907,719.2144 1701.0626,717.5738 Q1699.7501,715.9175 1699.7501,712.7925 Q1699.7501,709.6675 1701.0626,708.0113 Q1702.3907,706.355 1704.8907,706.355 Q1705.5938,706.355 1706.2345,706.5113 Q1706.8907,706.6675 1707.4532,706.9644 L1707.4532,709.6831 Q1706.8282,709.105 1706.2345,708.8394 Q1705.6407,708.5581 1705.0157,708.5581 Q1703.672,708.5581 1702.9845,709.6363 Q1702.297,710.6988 1702.297,712.7925 Q1702.297,714.8863 1702.9845,715.9644 Q1703.672,717.0269 1705.0157,717.0269 Q1705.6407,717.0269 1706.2345,716.7613 Q1706.8282,716.48 1707.4532,715.9019 L1707.4532,718.6206 Z " fill="#000000"/><text x="1724.9845" y="717.8267" fill="#000000" font-size="14" lengthAdjust="spacing" textLength="154.5332" font-family="Arial">PINVerificationService</text><line x1="1648.9" y1="728.98" x2="1923.1021" y2="728.98" style="stroke:#333333;stroke-width:0.5;"/><g data-visibility-modifier="PRIVATE_FIELD"><rect x="1655.9" y="739.6284" width="6" height="6" fill="none" style="stroke:#C82930;stroke-width:1;"/></g><text x="1667.9" y="745.9751" fill="#000000" font-size="14" lengthAdjust="spacing" textLength="250.2021" font-family="Arial">kind : IfaceKind = Service_Interface</text><g data-visibility-modifier="PRIVATE_FIELD"><rect x="1655.9" y="755.9253" width="6" height="6" fill="none" style="stroke:#C82930;stroke-width:1;"/></g><text x="1667.9" y="762.272" fill="#000000" font-size="14" lengthAdjust="spacing" textLength="172.4023" font-family="Arial">encrypted : Bool = False</text><g data-visibility-modifier="PRIVATE_FIELD"><rect x="1655.9" y="772.2222" width="6" height="6" fill="none" style="stroke:#C82930;stroke-width:1;"/></g><text x="1667.9" y="778.5689" fill="#000000" font-size="14" lengthAdjust="spacing" textLength="194.6123" font-family="Arial">authenticated : Bool = True</text></g><!--link Actor to Resource--><g class="link" data-entity-1="ent0002" data-entity-2="ent0004" id="lnk17" data-source-line="112" data-link-type="association"><path d="M516.41,590.01 C509.92,611.19 507.6,633.66 514,654.83 C517.31,665.76 522.53,676.58 528.49,686.66" style="stroke:#181818;stroke-width:1;" fill="none" id="Actor-Resource" codeLine="112"/><text x="515" y="650.8969" fill="#000000" font-size="13" lengthAdjust="spacing" textLength="67.2788" font-family="Arial">accessible</text><text x="504.0439" y="609.6689" fill="#000000" font-size="13" lengthAdjust="spacing" textLength="8.271" font-family="Arial">1</text><text x="498.5724" y="675.7579" fill="#000000" font-size="13" lengthAdjust="spacing" textLength="23.0356" font-family="Arial">0..*</text></g><!--link Actor to Resource--><g class="link" data-entity-1="ent0002" data-entity-2="ent0004" id="lnk18" data-source-line="113" data-link-type="association"><path d="M586.71,589.73 C588.42,611.14 588.95,633.76 587,654.83 C586.04,665.21 584.43,676.22 582.6,686.76" style="stroke:#181818;stroke-width:1;" fill="none" id="Actor-Resource-1" codeLine="113"/><text x="588" y="650.8969" fill="#000000" font-size="13" lengthAdjust="spacing" textLength="40.168" font-family="Arial">owner</text><text x="579.5404" y="609.6905" fill="#000000" font-size="13" lengthAdjust="spacing" textLength="8.271" font-family="Arial">1</text><text x="575.5913" y="675.8707" fill="#000000" font-size="13" lengthAdjust="spacing" textLength="8.271" font-family="Arial">1</text></g><!--link Actor to Credential--><g class="link" data-entity-1="ent0002" data-entity-2="ent0005" id="lnk19" data-source-line="114" data-link-type="association"><path d="M681.42,590.01 C718.28,621.95 758.21,656.55 790.47,684.5" style="stroke:#181818;stroke-width:1;" fill="none" id="Actor-Credential" codeLine="114"/><text x="756" y="650.8969" fill="#000000" font-size="13" lengthAdjust="spacing" textLength="33.5093" font-family="Arial">actor</text><text x="681.1718" y="609.6689" fill="#000000" font-size="13" lengthAdjust="spacing" textLength="8.271" font-family="Arial">1</text><text x="774.1344" y="673.7233" fill="#000000" font-size="13" lengthAdjust="spacing" textLength="8.271" font-family="Arial">1</text></g><!--reverse link Credential to Pin--><g class="link" data-entity-1="ent0005" data-entity-2="ent0006" id="lnk20" data-source-line="115" data-link-type="composition"><path d="M855,810.42 C855,834.9 855,851.71 855,876.83" style="stroke:#181818;stroke-width:1;" fill="none" id="Credential-backto-Pin" codeLine="115"/><polygon points="855,798.42,851,804.42,855,810.42,859,804.42,855,798.42" fill="#181818" style="stroke:#181818;stroke-width:1;stroke-linejoin:miter;stroke-miterlimit:10;"/><text x="856" y="843.0869" fill="#000000" font-size="13" lengthAdjust="spacing" textLength="20.103" font-family="Arial">pin</text><text x="846.5532" y="865.7609" fill="#000000" font-size="13" lengthAdjust="spacing" textLength="8.271" font-family="Arial">1</text></g><!--reverse link Pin to Digit--><g class="link" data-entity-1="ent0006" data-entity-2="ent0007" id="lnk21" data-source-line="116" data-link-type="composition"><path d="M855,1014.85 C855,1042.68 855,1061.2 855,1079.06" style="stroke:#181818;stroke-width:1;" fill="none" id="Pin-backto-Digit" codeLine="116"/><polygon points="855,1002.85,851,1008.85,855,1014.85,859,1008.85,855,1002.85" fill="#181818" style="stroke:#181818;stroke-width:1;stroke-linejoin:miter;stroke-miterlimit:10;"/><text x="856" y="1045.5669" fill="#000000" font-size="13" lengthAdjust="spacing" textLength="35.5977" font-family="Arial">digits</text><text x="816.7537" y="1068.5172" fill="#000000" font-size="13" lengthAdjust="spacing" textLength="33.0776" font-family="Arial">4..12</text></g><!--link Operation to Actor--><g class="link" data-entity-1="ent0012" data-entity-2="ent0002" id="lnk22" data-source-line="118" data-link-type="association"><path d="M657.81,280.96 C642.21,319.56 625.12,361.82 610.33,398.41" style="stroke:#181818;stroke-width:1;" fill="none" id="Operation-Actor" codeLine="118"/><text x="644" y="325.6269" fill="#000000" font-size="13" lengthAdjust="spacing" textLength="50.5337" font-family="Arial">initiator</text><text x="646.638" y="300.8114" fill="#000000" font-size="13" lengthAdjust="spacing" textLength="8.271" font-family="Arial">1</text><text x="604.8611" y="387.8967" fill="#000000" font-size="13" lengthAdjust="spacing" textLength="8.271" font-family="Arial">1</text></g><!--link Operation to Resource--><g class="link" data-entity-1="ent0012" data-entity-2="ent0004" id="lnk23" data-source-line="119" data-link-type="association"><path d="M861.41,172.03 C974.67,188.59 1120.91,230.85 1196,337.56 C1265.12,435.8 1274.33,516.76 1196,607.83 C1121.4,694.56 796.34,651.18 687,684.83 C681.45,686.54 675.83,688.47 670.21,690.57" style="stroke:#181818;stroke-width:1;" fill="none" id="Operation-Resource" codeLine="119"/><text x="1252" y="498.7669" fill="#000000" font-size="13" lengthAdjust="spacing" textLength="39.7554" font-family="Arial">target</text><text x="869.138" y="169.2817" fill="#000000" font-size="13" lengthAdjust="spacing" textLength="8.271" font-family="Arial">1</text><text x="673.5999" y="681.8814" fill="#000000" font-size="13" lengthAdjust="spacing" textLength="23.0356" font-family="Arial">1..*</text></g><!--link Operation to Interface--><g class="link" data-entity-1="ent0012" data-entity-2="ent0014" id="lnk24" data-source-line="120" data-link-type="association"><path d="M861.38,181.91 C980.12,202.16 1144.82,241 1274,312.56 C1337.43,347.7 1396.08,408.27 1431.69,449.5" style="stroke:#181818;stroke-width:1;" fill="none" id="Operation-Interface" codeLine="120"/><text x="1299" y="325.6269" fill="#000000" font-size="13" lengthAdjust="spacing" textLength="51.4414" font-family="Arial">channel</text><text x="869.1066" y="195.3668" fill="#000000" font-size="13" lengthAdjust="spacing" textLength="8.271" font-family="Arial">1</text><text x="1401.5244" y="438.5847" fill="#000000" font-size="13" lengthAdjust="spacing" textLength="23.0356" font-family="Arial">1..*</text></g><!--link Operation to Permission--><g class="link" data-entity-1="ent0012" data-entity-2="ent0003" id="lnk25" data-source-line="121" data-link-type="association"><path d="M754.91,280.96 C777.52,336.08 803.21,398.66 820.79,441.51" style="stroke:#181818;stroke-width:1;" fill="none" id="Operation-Permission" codeLine="121"/><text x="775" y="325.6269" fill="#000000" font-size="13" lengthAdjust="spacing" textLength="34.8994" font-family="Arial">grant</text><text x="749.655" y="300.8114" fill="#000000" font-size="13" lengthAdjust="spacing" textLength="8.271" font-family="Arial">1</text><text x="809.421" y="430.4986" fill="#000000" font-size="13" lengthAdjust="spacing" textLength="8.271" font-family="Arial">1</text></g><!--link Operation to State--><g class="link" data-entity-1="ent0012" data-entity-2="ent0008" id="lnk26" data-source-line="122" data-link-type="association"><path d="M550.65,234.18 C493.34,263.41 429,299.28 374,337.56 C355.14,350.69 335.88,365.32 317.27,380.21" style="stroke:#181818;stroke-width:1;" fill="none" id="Operation-State" codeLine="122"/><text x="408" y="325.6269" fill="#000000" font-size="13" lengthAdjust="spacing" textLength="21.5947" font-family="Arial">pre</text><text x="534.9381" y="234.4421" fill="#000000" font-size="13" lengthAdjust="spacing" textLength="8.271" font-family="Arial">1</text><text x="317.2396" y="369.4987" fill="#000000" font-size="13" lengthAdjust="spacing" textLength="8.271" font-family="Arial">1</text></g><!--link Operation to State--><g class="link" data-entity-1="ent0012" data-entity-2="ent0008" id="lnk27" data-source-line="123" data-link-type="association"><path d="M550.62,274.75 C515.07,296.05 476.4,315.9 438,329.56 C410.99,339.17 400.27,326.09 374,337.56 C349.29,348.36 325.33,363.54 303.3,380.22" style="stroke:#181818;stroke-width:1;" fill="none" id="Operation-State-1" codeLine="123"/><text x="478" y="325.6269" fill="#000000" font-size="13" lengthAdjust="spacing" textLength="28.0757" font-family="Arial">post</text><text x="534.9066" y="276.9772" fill="#000000" font-size="13" lengthAdjust="spacing" textLength="8.271" font-family="Arial">1</text><text x="302.3746" y="369.5093" fill="#000000" font-size="13" lengthAdjust="spacing" textLength="8.271" font-family="Arial">1</text></g><!--reverse link Interface to CardReader--><g class="link" data-entity-1="ent0014" data-entity-2="ent0015" id="lnk28" data-source-line="125" data-link-type="extension"><path d="M1467,557.04 C1467,597.68 1467,640.34 1467,684.46" style="stroke:#181818;stroke-width:1;" fill="none" id="Interface-backto-CardReader" codeLine="125"/><polygon points="1467,539.04,1461,557.04,1473,557.04,1467,539.04" fill="none" style="stroke:#181818;stroke-width:1;stroke-linejoin:miter;stroke-miterlimit:10;"/><text x="1468" y="650.8969" fill="#000000" font-size="13" lengthAdjust="spacing" textLength="76.9082" font-family="Arial">implements</text></g><!--reverse link Interface to PINVerificationService--><g class="link" data-entity-1="ent0014" data-entity-2="ent0016" id="lnk29" data-source-line="126" data-link-type="extension"><path d="M1538.3009,550.01 C1596.1909,594.51 1671.03,652.04 1728.93,696.55" style="stroke:#181818;stroke-width:1;" fill="none" id="Interface-backto-PINVerificationService" codeLine="126"/><polygon points="1524.03,539.04,1534.6442,554.767,1541.9576,545.2531,1524.03,539.04" fill="none" style="stroke:#181818;stroke-width:1;stroke-linejoin:miter;stroke-miterlimit:10;"/><text x="1674" y="650.8969" fill="#000000" font-size="13" lengthAdjust="spacing" textLength="76.9082" font-family="Arial">implements</text></g><?plantuml-src ZLRDRXit4BxlKn2RG-Ka5YmvXtOH6v1j2J6Ifgxjj1S10hqxaWZlaWkIwqHe0_IOtFi0FVJ9_2GT_YntrojPbG2Pv7oS-ORpPtNFU4abBKW6IrhbUYQu_aWB81F9Q1wf84zpgjGPJUzNKbGyEnUvaEJ5R6g-FPYG6KWFERQV5eHn3N99K-Xfc_uuE-fe0ruLVPkpsV7vHGl5XUxhGatuVOfg4_l9Vg8rou10KUeDAQ2u0wcYg4HjT0KalX05PPpyB3B8O_97H9o3P99gL67sX1oIWcwkq2KX2vAG6z1lSLSmfPZWfnOo7ABN3nIVb6k5Etje296uTHSLinKlWEjapcyWhIJJcyKj8Fd3KpB92iRnVACq50kxOqfBYaIKaV-EQ7Wz_OBtyAz7Jtcs-AJ08Qw1PZKWHWglo0gqzUHiSqvbDaZnvu9gYaveoVZg0DsnykV01rROk35OIVJon18m2kw4o17oDS8V4q_IF8v_GCFBBgmBTkLPshNLL6jmptyDIbGoXH01yPc3RB4rPpHD0StSvU2ZOeLx0-9KFNxxrb8GTysVIyWmIbWWWG2r2T4bK6Bc9EJAahVFrzmRMBo7crTgHBl01rqEg3OOpzYAeHlEomkpsUlb6_Bu_L_omjyqwz4uv0Jg7XnqgTkZBWDho79eOdkZgQwZSYLXL2_6zUBOBOJIex0QXvMJVX3fFMJMCkOtLqnZhWoMKXGdHiDheiM9rL2d5r2-7Mr00Jx-F_1nW1_lXTTS7Dykl7cIIzFgtZEU-MTvXtNpcKfONDPzq1xVW7nWQVUqKNA6YltzMrcv6pEQAuVwskfOaxBCMKeDpNR3Yg-dloucdsxVBOv6CNOQyai9qg925c4_mMphfx6c4XF0PrTTUQTUcAufvv1xQI1VYsqlC9aKQhwk3MchqgHBVO9ltZbw9dkTMbEZWVImwK1pthXYCCw1OLFESsxCFtx_nngTSwe9XWtD2mw4LdfjwWxV4BBQlpcl52YChrwJjGyWeHXJvSBM3BMu5v5BlfIeN5QfhepPl_x6N9TQkV24YoGyNeZ8lScQfCaWVmmybPlIi4jiOjGjg4CyYDfz2vcRPWjofmboiYj1-tOH6v9nk_a6yOf8DDmR7Es6TldnDv1iwPFNryDpHBULp0wUTQti9sfZzmDEcDpIK6jMgiYD-nWhv_2Gn4V3uSkucK59Qr0yGOuwC3jP-eZMD4dS78bQHoyzwieE4nmfaLdPqpV38JPjtuSJFmMYgAdibf69dq-XChR1dlhb2cSdiadOfAwJxSPR4pznBM4xpasFn3I7FG0isoXgxB_z4m6jx4O_Yp87yw-KUWhRaMVjA_y1?></g></svg>