<svg xmlns="http://www.w3.org/2000/svg" xmlns:xlink="http://www.w3.org/1999/xlink" version="1.1" data-diagram-type="CLASS" style="width:2074px;height:900px;background:#FFFFFF;" width="2074px" height="900px" viewBox="0 0 2074 900" zoomAndPan="magnify" preserveAspectRatio="none" contentStyleType="text/css"><?plantuml 1.2026.7beta3?><defs/><g><!--cluster Domain Model--><g class="cluster" data-qualified-name="Domain Model" id="ent0001" data-source-line="6"><rect x="7" y="7" width="1127" height="879.53" fill="none" style="stroke:#000000;stroke-width:1.5;" rx="2.5" ry="2.5"/><text x="539.876" y="20.1387" fill="#000000" font-size="12" lengthAdjust="spacing" textLength="61.248" font-style="italic" font-family="Helvetica">«Domain»</text><text x="522.166" y="34.1074" fill="#000000" font-size="12" lengthAdjust="spacing" textLength="96.668" font-weight="700" font-family="Helvetica">Domain Model</text></g><!--cluster Application--><g class="cluster" data-qualified-name="Application" id="ent0021" data-source-line="76"><rect x="1158" y="245.87" width="126" height="138" fill="none" style="stroke:#000000;stroke-width:1.5;" rx="2.5" ry="2.5"/><text x="1180.1338" y="259.0087" fill="#000000" font-size="12" lengthAdjust="spacing" textLength="81.7324" font-style="italic" font-family="Helvetica">«Application»</text><text x="1182.7295" y="272.9774" fill="#000000" font-size="12" lengthAdjust="spacing" textLength="76.541" font-weight="700" font-family="Helvetica">Application</text></g><!--cluster Infrastructure — Ports--><g class="cluster" data-qualified-name="Infrastructure . Ports" id="ent0023" data-source-line="81"><rect x="1893" y="34.94" width="167" height="138" fill="none" style="stroke:#000000;stroke-width:1.5;" rx="2.5" ry="2.5"/><text x="1927.9697" y="48.0787" fill="#000000" font-size="12" lengthAdjust="spacing" textLength="97.0605" font-style="italic" font-family="Helvetica">«Infrastructure»</text><text x="1900.8877" y="62.0474" fill="#000000" font-size="12" lengthAdjust="spacing" textLength="151.2246" font-weight="700" font-family="Helvetica">Infrastructure — Ports</text></g><!--cluster Exceptions--><g class="cluster" data-qualified-name="Exceptions" id="ent0025" data-source-line="86"><rect x="1308" y="30.97" width="561" height="356.87" fill="none" style="stroke:#000000;stroke-width:1.5;" rx="2.5" ry="2.5"/><text x="1548.3984" y="44.1087" fill="#000000" font-size="12" lengthAdjust="spacing" textLength="80.2031" font-style="italic" font-family="Helvetica">«Exceptions»</text><text x="1551.7207" y="58.0774" fill="#000000" font-size="12" lengthAdjust="spacing" textLength="73.5586" font-weight="700" font-family="Helvetica">Exceptions</text></g><!--class Actor--><g class="entity" data-qualified-name="Domain Model.Actor" id="ent0002" data-source-line="7"><rect x="877.11" y="110.94" width="61.7871" height="46" fill="#F1F1F1" style="stroke:#181818;stroke-width:0.5;" rx="2.5" ry="2.5"/><ellipse cx="891.11" cy="125.94" rx="10" ry="10" fill="#B4A7E5" style="stroke:#181818;stroke-width:1;"/><path d="M888.1256,123.2212 L888.1256,121.69 L893.3288,121.69 L893.3288,123.2212 L891.5944,123.2212 L891.5944,128.9087 L893.3288,128.9087 L893.3288,130.44 L888.1256,130.44 L888.1256,128.9087 L889.86,128.9087 L889.86,123.2212 L888.1256,123.2212 Z " fill="#000000"/><text x="904.11" y="130.0943" fill="#000000" font-size="12" lengthAdjust="spacing" textLength="31.7871" font-style="italic" font-family="Helvetica">Actor</text><line x1="878.11" y1="140.94" x2="937.8971" y2="140.94" style="stroke:#181818;stroke-width:0.5;"/><line x1="878.11" y1="148.94" x2="937.8971" y2="148.94" style="stroke:#181818;stroke-width:0.5;"/></g><!--class Permission--><g class="entity" data-qualified-name="Domain Model.Permission" id="ent0003" data-source-line="10"><rect x="106.32" y="83" width="95.3613" height="101.875" fill="#F1F1F1" style="stroke:#181818;stroke-width:0.5;" rx="2.5" ry="2.5"/><ellipse cx="120.32" cy="98" rx="10" ry="10" fill="#EB937F" style="stroke:#181818;stroke-width:1;"/><path d="M122.7575,102.5 L117.3044,102.5 L117.3044,93.75 L122.7575,93.75 L122.7575,95.2813 L119.0388,95.2813 L119.0388,97.1563 L122.3981,97.1563 L122.3981,98.6875 L119.0388,98.6875 L119.0388,100.9688 L122.7575,100.9688 L122.7575,102.5 Z " fill="#000000"/><text x="133.32" y="102.1543" fill="#000000" font-size="12" lengthAdjust="spacing" textLength="65.3613" font-family="Helvetica">Permission</text><line x1="107.32" y1="113" x2="200.6813" y2="113" style="stroke:#181818;stroke-width:0.5;"/><text x="112.32" y="128.1387" fill="#000000" font-size="12" lengthAdjust="spacing" textLength="33.3691" font-family="Helvetica">READ</text><text x="112.32" y="142.1074" fill="#000000" font-size="12" lengthAdjust="spacing" textLength="38.6543" font-family="Helvetica">WRITE</text><text x="112.32" y="156.0762" fill="#000000" font-size="12" lengthAdjust="spacing" textLength="55.459" font-family="Helvetica">EXECUTE</text><text x="112.32" y="170.0449" fill="#000000" font-size="12" lengthAdjust="spacing" textLength="40.3184" font-family="Helvetica">ADMIN</text><line x1="107.32" y1="176.875" x2="200.6813" y2="176.875" style="stroke:#181818;stroke-width:0.5;"/></g><!--class AccountStatus--><g class="entity" data-qualified-name="Domain Model.AccountStatus" id="ent0004" data-source-line="17"><rect x="236.55" y="96.97" width="116.9004" height="73.9375" fill="#F1F1F1" style="stroke:#181818;stroke-width:0.5;" rx="2.5" ry="2.5"/><ellipse cx="250.55" cy="111.97" rx="10" ry="10" fill="#EB937F" style="stroke:#181818;stroke-width:1;"/><path d="M252.9875,116.47 L247.5344,116.47 L247.5344,107.72 L252.9875,107.72 L252.9875,109.2513 L249.2688,109.2513 L249.2688,111.1263 L252.6281,111.1263 L252.6281,112.6575 L249.2688,112.6575 L249.2688,114.9388 L252.9875,114.9388 L252.9875,116.47 Z " fill="#000000"/><text x="263.55" y="116.1243" fill="#000000" font-size="12" lengthAdjust="spacing" textLength="86.9004" font-family="Helvetica">AccountStatus</text><line x1="237.55" y1="126.97" x2="352.4504" y2="126.97" style="stroke:#181818;stroke-width:0.5;"/><text x="242.55" y="142.1087" fill="#000000" font-size="12" lengthAdjust="spacing" textLength="49.2012" font-family="Helvetica">LOCKED</text><text x="242.55" y="156.0774" fill="#000000" font-size="12" lengthAdjust="spacing" textLength="66.9609" font-family="Helvetica">UNLOCKED</text><line x1="237.55" y1="162.9075" x2="352.4504" y2="162.9075" style="stroke:#181818;stroke-width:0.5;"/></g><!--class State--><g class="entity" data-qualified-name="Domain Model.State" id="ent0005" data-source-line="22"><rect x="388.52" y="83" width="78.9609" height="101.875" fill="#F1F1F1" style="stroke:#181818;stroke-width:0.5;" rx="2.5" ry="2.5"/><ellipse cx="410.2588" cy="98" rx="10" ry="10" fill="#EB937F" style="stroke:#181818;stroke-width:1;"/><path d="M412.6963,102.5 L407.2431,102.5 L407.2431,93.75 L412.6963,93.75 L412.6963,95.2813 L408.9775,95.2813 L408.9775,97.1563 L412.3369,97.1563 L412.3369,98.6875 L408.9775,98.6875 L408.9775,100.9688 L412.6963,100.9688 L412.6963,102.5 Z " fill="#000000"/><text x="424.9785" y="102.1543" fill="#000000" font-size="12" lengthAdjust="spacing" textLength="31.7637" font-family="Helvetica">State</text><line x1="389.52" y1="113" x2="466.4809" y2="113" style="stroke:#181818;stroke-width:0.5;"/><text x="394.52" y="128.1387" fill="#000000" font-size="12" lengthAdjust="spacing" textLength="49.2012" font-family="Helvetica">LOCKED</text><text x="394.52" y="142.1074" fill="#000000" font-size="12" lengthAdjust="spacing" textLength="66.9609" font-family="Helvetica">UNLOCKED</text><text x="394.52" y="156.0762" fill="#000000" font-size="12" lengthAdjust="spacing" textLength="43.248" font-family="Helvetica">ACTIVE</text><text x="394.52" y="170.0449" fill="#000000" font-size="12" lengthAdjust="spacing" textLength="57.2168" font-family="Helvetica">FLAGGED</text><line x1="389.52" y1="176.875" x2="466.4809" y2="176.875" style="stroke:#181818;stroke-width:0.5;"/></g><!--class Admin--><g class="entity" data-qualified-name="Domain Model.Admin" id="ent0006" data-source-line="29"><rect x="673.27" y="314.89" width="181.4688" height="59.9688" fill="#F1F1F1" style="stroke:#181818;stroke-width:0.5;" rx="2.5" ry="2.5"/><ellipse cx="740.7768" cy="329.89" rx="10" ry="10" fill="#ADD1B2" style="stroke:#181818;stroke-width:1;"/><path d="M742.605,334.14 Q742.1987,334.3431 741.7456,334.4525 Q741.2925,334.5619 740.8081,334.5619 Q739.0268,334.5619 738.0893,333.4056 Q737.1675,332.2338 737.1675,330.0306 Q737.1675,327.8119 738.0893,326.6556 Q739.0268,325.4838 740.8081,325.4838 Q741.2925,325.4838 741.7456,325.5931 Q742.2143,325.6869 742.605,325.9056 L742.605,327.8275 Q742.1675,327.4213 741.7456,327.2338 Q741.3237,327.0306 740.8862,327.0306 Q739.9331,327.0306 739.4487,327.7963 Q738.9643,328.5463 738.9643,330.0306 Q738.9643,331.4994 739.4487,332.2494 Q739.9331,332.9994 740.8862,332.9994 Q741.3237,332.9994 741.7456,332.8119 Q742.1675,332.6244 742.605,332.2181 L742.605,334.14 Z " fill="#000000"/><text x="759.7768" y="334.0443" fill="#000000" font-size="12" lengthAdjust="spacing" textLength="38.4551" font-family="Helvetica">Admin</text><line x1="674.27" y1="344.89" x2="853.7388" y2="344.89" style="stroke:#181818;stroke-width:0.5;"/><g data-visibility-modifier="PUBLIC_FIELD"><ellipse cx="684.27" cy="357.3744" rx="3" ry="3" fill="none" style="stroke:#038048;stroke-width:1;"/></g><text x="692.27" y="360.0287" fill="#000000" font-size="12" lengthAdjust="spacing" textLength="156.4688" font-family="Helvetica">mayPerform: Permission[]</text><line x1="674.27" y1="366.8588" x2="853.7388" y2="366.8588" style="stroke:#181818;stroke-width:0.5;"/></g><!--class User--><g class="entity" data-qualified-name="Domain Model.User" id="ent0008" data-source-line="33"><rect x="912.1" y="307.91" width="205.8027" height="73.9375" fill="#F1F1F1" style="stroke:#181818;stroke-width:0.5;" rx="2.5" ry="2.5"/><ellipse cx="997.3256" cy="322.91" rx="10" ry="10" fill="#ADD1B2" style="stroke:#181818;stroke-width:1;"/><path d="M999.1537,327.16 Q998.7475,327.3631 998.2943,327.4725 Q997.8412,327.5819 997.3568,327.5819 Q995.5756,327.5819 994.6381,326.4256 Q993.7162,325.2537 993.7162,323.0506 Q993.7162,320.8319 994.6381,319.6756 Q995.5756,318.5037 997.3568,318.5037 Q997.8412,318.5037 998.2943,318.6131 Q998.7631,318.7069 999.1537,318.9256 L999.1537,320.8475 Q998.7162,320.4412 998.2943,320.2537 Q997.8725,320.0506 997.435,320.0506 Q996.4818,320.0506 995.9975,320.8162 Q995.5131,321.5662 995.5131,323.0506 Q995.5131,324.5194 995.9975,325.2694 Q996.4818,326.0194 997.435,326.0194 Q997.8725,326.0194 998.2943,325.8319 Q998.7162,325.6444 999.1537,325.2381 L999.1537,327.16 Z " fill="#000000"/><text x="1016.3256" y="327.0643" fill="#000000" font-size="12" lengthAdjust="spacing" textLength="27.3516" font-family="Helvetica">User</text><line x1="913.1" y1="337.91" x2="1116.9027" y2="337.91" style="stroke:#181818;stroke-width:0.5;"/><g data-visibility-modifier="PUBLIC_FIELD"><ellipse cx="923.1" cy="350.3944" rx="3" ry="3" fill="none" style="stroke:#038048;stroke-width:1;"/></g><text x="931.1" y="353.0487" fill="#000000" font-size="12" lengthAdjust="spacing" textLength="180.8027" font-family="Helvetica">accountStatus: AccountStatus</text><g data-visibility-modifier="PUBLIC_FIELD"><ellipse cx="923.1" cy="364.3631" rx="3" ry="3" fill="none" style="stroke:#038048;stroke-width:1;"/></g><text x="931.1" y="367.0174" fill="#000000" font-size="12" lengthAdjust="spacing" textLength="83.3906" font-family="Helvetica">owner: Admin</text><line x1="913.1" y1="373.8475" x2="1116.9027" y2="373.8475" style="stroke:#181818;stroke-width:0.5;"/></g><!--class Account--><g class="entity" data-qualified-name="Domain Model.Account" id="ent0010" data-source-line="38"><rect x="882.56" y="470.81" width="190.8789" height="87.9063" fill="#F1F1F1" style="stroke:#181818;stroke-width:0.5;" rx="2.5" ry="2.5"/><ellipse cx="949.6684" cy="485.81" rx="10" ry="10" fill="#ADD1B2" style="stroke:#181818;stroke-width:1;"/><path d="M951.4965,490.06 Q951.0903,490.2631 950.6371,490.3725 Q950.184,490.4819 949.6996,490.4819 Q947.9184,490.4819 946.9809,489.3256 Q946.059,488.1537 946.059,485.9506 Q946.059,483.7319 946.9809,482.5756 Q947.9184,481.4037 949.6996,481.4037 Q950.184,481.4037 950.6371,481.5131 Q951.1059,481.6069 951.4965,481.8256 L951.4965,483.7475 Q951.059,483.3412 950.6371,483.1537 Q950.2153,482.9506 949.7778,482.9506 Q948.8246,482.9506 948.3403,483.7162 Q947.8559,484.4662 947.8559,485.9506 Q947.8559,487.4194 948.3403,488.1694 Q948.8246,488.9194 949.7778,488.9194 Q950.2153,488.9194 950.6371,488.7319 Q951.059,488.5444 951.4965,488.1381 L951.4965,490.06 Z " fill="#000000"/><text x="968.6684" y="489.9643" fill="#000000" font-size="12" lengthAdjust="spacing" textLength="48.6621" font-family="Helvetica">Account</text><line x1="883.56" y1="500.81" x2="1072.4389" y2="500.81" style="stroke:#181818;stroke-width:0.5;"/><g data-visibility-modifier="PUBLIC_FIELD"><ellipse cx="893.56" cy="513.2944" rx="3" ry="3" fill="none" style="stroke:#038048;stroke-width:1;"/></g><text x="901.56" y="515.9487" fill="#000000" font-size="12" lengthAdjust="spacing" textLength="76.7227" font-family="Helvetica">owner: Actor</text><g data-visibility-modifier="PUBLIC_FIELD"><ellipse cx="893.56" cy="527.2631" rx="3" ry="3" fill="none" style="stroke:#038048;stroke-width:1;"/></g><text x="901.56" y="529.9174" fill="#000000" font-size="12" lengthAdjust="spacing" textLength="111.1113" font-family="Helvetica">accessible: Actor[]</text><line x1="883.56" y1="536.7475" x2="1072.4389" y2="536.7475" style="stroke:#181818;stroke-width:0.5;"/><g data-visibility-modifier="PUBLIC_METHOD"><ellipse cx="893.56" cy="549.2319" rx="3" ry="3" fill="#84BE84" style="stroke:#038048;stroke-width:1;"/></g><text x="901.56" y="551.8862" fill="#000000" font-size="12" lengthAdjust="spacing" textLength="165.8789" font-family="Helvetica">getStatus() : AccountStatus</text></g><!--class Transaction--><g class="entity" data-qualified-name="Domain Model.Transaction" id="ent0011" data-source-line="44"><rect x="714.8" y="633.72" width="244.3926" height="129.8125" fill="#F1F1F1" style="stroke:#181818;stroke-width:0.5;" rx="2.5" ry="2.5"/><ellipse cx="797.7902" cy="648.72" rx="10" ry="10" fill="#ADD1B2" style="stroke:#181818;stroke-width:1;"/><path d="M799.6184,652.97 Q799.2121,653.1731 798.759,653.2825 Q798.3059,653.3919 797.8215,653.3919 Q796.0402,653.3919 795.1027,652.2356 Q794.1809,651.0638 794.1809,648.8606 Q794.1809,646.6419 795.1027,645.4856 Q796.0402,644.3138 797.8215,644.3138 Q798.3059,644.3138 798.759,644.4231 Q799.2277,644.5169 799.6184,644.7356 L799.6184,646.6575 Q799.1809,646.2513 798.759,646.0638 Q798.3371,645.8606 797.8996,645.8606 Q796.9465,645.8606 796.4621,646.6263 Q795.9777,647.3763 795.9777,648.8606 Q795.9777,650.3294 796.4621,651.0794 Q796.9465,651.8294 797.8996,651.8294 Q798.3371,651.8294 798.759,651.6419 Q799.1809,651.4544 799.6184,651.0481 L799.6184,652.97 Z " fill="#000000"/><text x="816.7902" y="652.8743" fill="#000000" font-size="12" lengthAdjust="spacing" textLength="70.4121" font-family="Helvetica">Transaction</text><line x1="715.8" y1="663.72" x2="958.1926" y2="663.72" style="stroke:#181818;stroke-width:0.5;"/><g data-visibility-modifier="PUBLIC_FIELD"><ellipse cx="725.8" cy="676.2044" rx="3" ry="3" fill="none" style="stroke:#038048;stroke-width:1;"/></g><text x="733.8" y="678.8587" fill="#000000" font-size="12" lengthAdjust="spacing" textLength="97.3242" font-family="Helvetica">amount: Integer</text><g data-visibility-modifier="PUBLIC_FIELD"><ellipse cx="725.8" cy="690.1731" rx="3" ry="3" fill="none" style="stroke:#038048;stroke-width:1;"/></g><text x="733.8" y="692.8274" fill="#000000" font-size="12" lengthAdjust="spacing" textLength="102.3223" font-family="Helvetica">timestamp: Time</text><g data-visibility-modifier="PUBLIC_FIELD"><ellipse cx="725.8" cy="704.1419" rx="3" ry="3" fill="none" style="stroke:#038048;stroke-width:1;"/></g><text x="733.8" y="706.7962" fill="#000000" font-size="12" lengthAdjust="spacing" textLength="101.5957" font-family="Helvetica">flagged: Boolean</text><g data-visibility-modifier="PUBLIC_FIELD"><ellipse cx="725.8" cy="718.1106" rx="3" ry="3" fill="none" style="stroke:#038048;stroke-width:1;"/></g><text x="733.8" y="720.7649" fill="#000000" font-size="12" lengthAdjust="spacing" textLength="74.1621" font-family="Helvetica">userID: User</text><line x1="715.8" y1="727.595" x2="958.1926" y2="727.595" style="stroke:#181818;stroke-width:0.5;"/><g data-visibility-modifier="PUBLIC_METHOD"><ellipse cx="725.8" cy="740.0794" rx="3" ry="3" fill="#84BE84" style="stroke:#038048;stroke-width:1;"/></g><text x="733.8" y="742.7337" fill="#000000" font-size="12" lengthAdjust="spacing" textLength="219.3926" font-family="Helvetica">createFlaggedList(transactions: List)</text><g data-visibility-modifier="PUBLIC_METHOD"><ellipse cx="725.8" cy="754.0481" rx="3" ry="3" fill="#84BE84" style="stroke:#038048;stroke-width:1;"/></g><text x="733.8" y="756.7024" fill="#000000" font-size="12" lengthAdjust="spacing" textLength="214.2598" font-family="Helvetica">createHistoryList(transactions: List)</text></g><!--class FlaggedTransaction--><g class="entity" data-qualified-name="Domain Model.FlaggedTransaction" id="ent0012" data-source-line="53"><rect x="762.88" y="824.53" width="148.2363" height="46" fill="#F1F1F1" style="stroke:#181818;stroke-width:0.5;" rx="2.5" ry="2.5"/><ellipse cx="776.88" cy="839.53" rx="10" ry="10" fill="#ADD1B2" style="stroke:#181818;stroke-width:1;"/><path d="M778.7081,843.78 Q778.3019,843.9831 777.8488,844.0925 Q777.3956,844.2019 776.9113,844.2019 Q775.13,844.2019 774.1925,843.0456 Q773.2706,841.8738 773.2706,839.6706 Q773.2706,837.4519 774.1925,836.2956 Q775.13,835.1238 776.9113,835.1238 Q777.3956,835.1238 777.8488,835.2331 Q778.3175,835.3269 778.7081,835.5456 L778.7081,837.4675 Q778.2706,837.0613 777.8488,836.8738 Q777.4269,836.6706 776.9894,836.6706 Q776.0363,836.6706 775.5519,837.4363 Q775.0675,838.1863 775.0675,839.6706 Q775.0675,841.1394 775.5519,841.8894 Q776.0363,842.6394 776.9894,842.6394 Q777.4269,842.6394 777.8488,842.4519 Q778.2706,842.2644 778.7081,841.8581 L778.7081,843.78 Z " fill="#000000"/><text x="789.88" y="843.6843" fill="#000000" font-size="12" lengthAdjust="spacing" textLength="118.2363" font-family="Helvetica">FlaggedTransaction</text><line x1="763.88" y1="854.53" x2="910.1163" y2="854.53" style="stroke:#181818;stroke-width:0.5;"/><line x1="763.88" y1="862.53" x2="910.1163" y2="862.53" style="stroke:#181818;stroke-width:0.5;"/></g><!--class AuthenticationAttempt--><g class="entity" data-qualified-name="Domain Model.AuthenticationAttempt" id="ent0014" data-source-line="56"><rect x="22.95" y="300.92" width="262.0938" height="87.9063" fill="#F1F1F1" style="stroke:#181818;stroke-width:0.5;" rx="2.5" ry="2.5"/><ellipse cx="81.4451" cy="315.92" rx="10" ry="10" fill="#ADD1B2" style="stroke:#181818;stroke-width:1;"/><path d="M83.2732,320.17 Q82.867,320.3731 82.4139,320.4825 Q81.9607,320.5919 81.4764,320.5919 Q79.6951,320.5919 78.7576,319.4356 Q77.8357,318.2637 77.8357,316.0606 Q77.8357,313.8419 78.7576,312.6856 Q79.6951,311.5137 81.4764,311.5137 Q81.9607,311.5137 82.4139,311.6231 Q82.8826,311.7169 83.2732,311.9356 L83.2732,313.8575 Q82.8357,313.4512 82.4139,313.2637 Q81.992,313.0606 81.5545,313.0606 Q80.6014,313.0606 80.117,313.8262 Q79.6326,314.5762 79.6326,316.0606 Q79.6326,317.5294 80.117,318.2794 Q80.6014,319.0294 81.5545,319.0294 Q81.992,319.0294 82.4139,318.8419 Q82.8357,318.6544 83.2732,318.2481 L83.2732,320.17 Z " fill="#000000"/><text x="100.4451" y="320.0743" fill="#000000" font-size="12" lengthAdjust="spacing" textLength="137.1035" font-family="Helvetica">AuthenticationAttempt</text><line x1="23.95" y1="330.92" x2="284.0438" y2="330.92" style="stroke:#181818;stroke-width:0.5;"/><g data-visibility-modifier="PUBLIC_FIELD"><ellipse cx="33.95" cy="343.4044" rx="3" ry="3" fill="none" style="stroke:#038048;stroke-width:1;"/></g><text x="41.95" y="346.0587" fill="#000000" font-size="12" lengthAdjust="spacing" textLength="103.3887" font-family="Helvetica">success: Boolean</text><g data-visibility-modifier="PUBLIC_FIELD"><ellipse cx="33.95" cy="357.3731" rx="3" ry="3" fill="none" style="stroke:#038048;stroke-width:1;"/></g><text x="41.95" y="360.0274" fill="#000000" font-size="12" lengthAdjust="spacing" textLength="102.3223" font-family="Helvetica">timestamp: Time</text><line x1="23.95" y1="366.8575" x2="284.0438" y2="366.8575" style="stroke:#181818;stroke-width:0.5;"/><g data-visibility-modifier="PUBLIC_METHOD"><ellipse cx="33.95" cy="379.3419" rx="3" ry="3" fill="#84BE84" style="stroke:#038048;stroke-width:1;"/></g><text x="41.95" y="381.9962" fill="#000000" font-size="12" lengthAdjust="spacing" textLength="237.0938" font-family="Helvetica">create(success: true, timestamp: Time)</text></g><!--class TransactionStateChange--><g class="entity" data-qualified-name="Domain Model.TransactionStateChange" id="ent0015" data-source-line="62"><rect x="319.58" y="293.94" width="318.8477" height="101.875" fill="#F1F1F1" style="stroke:#181818;stroke-width:0.5;" rx="2.5" ry="2.5"/><ellipse cx="400.9443" cy="308.94" rx="10" ry="10" fill="#ADD1B2" style="stroke:#181818;stroke-width:1;"/><path d="M402.7724,313.19 Q402.3661,313.3931 401.913,313.5025 Q401.4599,313.6119 400.9755,313.6119 Q399.1943,313.6119 398.2568,312.4556 Q397.3349,311.2837 397.3349,309.0806 Q397.3349,306.8619 398.2568,305.7056 Q399.1943,304.5337 400.9755,304.5337 Q401.4599,304.5337 401.913,304.6431 Q402.3818,304.7369 402.7724,304.9556 L402.7724,306.8775 Q402.3349,306.4712 401.913,306.2837 Q401.4911,306.0806 401.0536,306.0806 Q400.1005,306.0806 399.6161,306.8462 Q399.1318,307.5962 399.1318,309.0806 Q399.1318,310.5494 399.6161,311.2994 Q400.1005,312.0494 401.0536,312.0494 Q401.4911,312.0494 401.913,311.8619 Q402.3349,311.6744 402.7724,311.2681 L402.7724,313.19 Z " fill="#000000"/><text x="419.9443" y="313.0943" fill="#000000" font-size="12" lengthAdjust="spacing" textLength="148.1191" font-family="Helvetica">TransactionStateChange</text><line x1="320.58" y1="323.94" x2="637.4277" y2="323.94" style="stroke:#181818;stroke-width:0.5;"/><g data-visibility-modifier="PUBLIC_FIELD"><ellipse cx="330.58" cy="336.4244" rx="3" ry="3" fill="none" style="stroke:#038048;stroke-width:1;"/></g><text x="338.58" y="339.0787" fill="#000000" font-size="12" lengthAdjust="spacing" textLength="89.6777" font-family="Helvetica">oldState: State</text><g data-visibility-modifier="PUBLIC_FIELD"><ellipse cx="330.58" cy="350.3931" rx="3" ry="3" fill="none" style="stroke:#038048;stroke-width:1;"/></g><text x="338.58" y="353.0474" fill="#000000" font-size="12" lengthAdjust="spacing" textLength="96.1875" font-family="Helvetica">newState: State</text><line x1="320.58" y1="359.8775" x2="637.4277" y2="359.8775" style="stroke:#181818;stroke-width:0.5;"/><g data-visibility-modifier="PUBLIC_METHOD"><ellipse cx="330.58" cy="372.3619" rx="3" ry="3" fill="#84BE84" style="stroke:#038048;stroke-width:1;"/></g><text x="338.58" y="375.0162" fill="#000000" font-size="12" lengthAdjust="spacing" textLength="293.8477" font-family="Helvetica">create(oldState: UNLOCKED, newState: LOCKED)</text><g data-visibility-modifier="PUBLIC_METHOD"><ellipse cx="330.58" cy="386.3306" rx="3" ry="3" fill="#84BE84" style="stroke:#038048;stroke-width:1;"/></g><text x="338.58" y="388.9849" fill="#000000" font-size="12" lengthAdjust="spacing" textLength="293.8477" font-family="Helvetica">create(oldState: LOCKED, newState: UNLOCKED)</text></g><!--class AdminAPI--><g class="entity" data-qualified-name="Application.AdminAPI" id="ent0022" data-source-line="77"><rect x="1174.28" y="321.87" width="93.4395" height="46" fill="#F1F1F1" style="stroke:#181818;stroke-width:0.5;" rx="2.5" ry="2.5"/><ellipse cx="1188.28" cy="336.87" rx="10" ry="10" fill="#B4A7E5" style="stroke:#181818;stroke-width:1;"/><path d="M1185.2956,334.1513 L1185.2956,332.62 L1190.4988,332.62 L1190.4988,334.1513 L1188.7644,334.1513 L1188.7644,339.8388 L1190.4988,339.8388 L1190.4988,341.37 L1185.2956,341.37 L1185.2956,339.8388 L1187.03,339.8388 L1187.03,334.1513 L1185.2956,334.1513 Z " fill="#000000"/><text x="1201.28" y="341.0243" fill="#000000" font-size="12" lengthAdjust="spacing" textLength="63.4395" font-style="italic" font-family="Helvetica">Admin_API</text><line x1="1175.28" y1="351.87" x2="1266.7195" y2="351.87" style="stroke:#181818;stroke-width:0.5;"/><line x1="1175.28" y1="359.87" x2="1266.7195" y2="359.87" style="stroke:#181818;stroke-width:0.5;"/></g><!--class UserDatabase--><g class="entity" data-qualified-name="Infrastructure . Ports.UserDatabase" id="ent0024" data-source-line="82"><rect x="1915.7" y="110.94" width="120.6094" height="46" fill="#F1F1F1" style="stroke:#181818;stroke-width:0.5;" rx="2.5" ry="2.5"/><ellipse cx="1929.7" cy="125.94" rx="10" ry="10" fill="#B4A7E5" style="stroke:#181818;stroke-width:1;"/><path d="M1926.7156,123.2212 L1926.7156,121.69 L1931.9188,121.69 L1931.9188,123.2212 L1930.1844,123.2212 L1930.1844,128.9087 L1931.9188,128.9087 L1931.9188,130.44 L1926.7156,130.44 L1926.7156,128.9087 L1928.45,128.9087 L1928.45,123.2212 L1926.7156,123.2212 Z " fill="#000000"/><text x="1942.7" y="130.0943" fill="#000000" font-size="12" lengthAdjust="spacing" textLength="90.6094" font-style="italic" font-family="Helvetica">User_Database</text><line x1="1916.7" y1="140.94" x2="2035.3094" y2="140.94" style="stroke:#181818;stroke-width:0.5;"/><line x1="1916.7" y1="148.94" x2="2035.3094" y2="148.94" style="stroke:#181818;stroke-width:0.5;"/></g><!--class AuthenticationException--><g class="entity" data-qualified-name="Exceptions.AuthenticationException" id="ent0026" data-source-line="87"><rect x="1324.32" y="106.97" width="177.3574" height="53.9375" fill="#F1F1F1" style="stroke:#181818;stroke-width:0.5;" rx="2.5" ry="2.5"/><ellipse cx="1338.32" cy="125.9388" rx="10" ry="10" fill="#ADD1B2" style="stroke:#181818;stroke-width:1;"/><path d="M1340.1481,130.1888 Q1339.7419,130.3919 1339.2888,130.5013 Q1338.8356,130.6106 1338.3513,130.6106 Q1336.57,130.6106 1335.6325,129.4544 Q1334.7106,128.2825 1334.7106,126.0794 Q1334.7106,123.8606 1335.6325,122.7044 Q1336.57,121.5325 1338.3513,121.5325 Q1338.8356,121.5325 1339.2888,121.6419 Q1339.7575,121.7356 1340.1481,121.9544 L1340.1481,123.8763 Q1339.7106,123.47 1339.2888,123.2825 Q1338.8669,123.0794 1338.4294,123.0794 Q1337.4763,123.0794 1336.9919,123.845 Q1336.5075,124.595 1336.5075,126.0794 Q1336.5075,127.5481 1336.9919,128.2981 Q1337.4763,129.0481 1338.4294,129.0481 Q1338.8669,129.0481 1339.2888,128.8606 Q1339.7106,128.6731 1340.1481,128.2669 L1340.1481,130.1888 Z " fill="#000000"/><text x="1388.1227" y="123.1087" fill="#000000" font-size="12" lengthAdjust="spacing" textLength="73.752" font-style="italic" font-family="Helvetica">«exception»</text><text x="1351.32" y="137.0774" fill="#000000" font-size="12" lengthAdjust="spacing" textLength="147.3574" font-family="Helvetica">AuthenticationException</text><line x1="1325.32" y1="144.9075" x2="1500.6774" y2="144.9075" style="stroke:#181818;stroke-width:0.5;"/><line x1="1325.32" y1="152.9075" x2="1500.6774" y2="152.9075" style="stroke:#181818;stroke-width:0.5;"/></g><!--class NotFoundException--><g class="entity" data-qualified-name="Exceptions.NotFoundException" id="ent0027" data-source-line="90"><rect x="1536.32" y="106.97" width="147.3633" height="53.9375" fill="#F1F1F1" style="stroke:#181818;stroke-width:0.5;" rx="2.5" ry="2.5"/><ellipse cx="1550.32" cy="125.9388" rx="10" ry="10" fill="#ADD1B2" style="stroke:#181818;stroke-width:1;"/><path d="M1552.1481,130.1888 Q1551.7419,130.3919 1551.2888,130.5013 Q1550.8356,130.6106 1550.3513,130.6106 Q1548.57,130.6106 1547.6325,129.4544 Q1546.7106,128.2825 1546.7106,126.0794 Q1546.7106,123.8606 1547.6325,122.7044 Q1548.57,121.5325 1550.3513,121.5325 Q1550.8356,121.5325 1551.2888,121.6419 Q1551.7575,121.7356 1552.1481,121.9544 L1552.1481,123.8763 Q1551.7106,123.47 1551.2888,123.2825 Q1550.8669,123.0794 1550.4294,123.0794 Q1549.4763,123.0794 1548.9919,123.845 Q1548.5075,124.595 1548.5075,126.0794 Q1548.5075,127.5481 1548.9919,128.2981 Q1549.4763,129.0481 1550.4294,129.0481 Q1550.8669,129.0481 1551.2888,128.8606 Q1551.7106,128.6731 1552.1481,128.2669 L1552.1481,130.1888 Z " fill="#000000"/><text x="1585.1257" y="123.1087" fill="#000000" font-size="12" lengthAdjust="spacing" textLength="73.752" font-style="italic" font-family="Helvetica">«exception»</text><text x="1563.32" y="137.0774" fill="#000000" font-size="12" lengthAdjust="spacing" textLength="117.3633" font-family="Helvetica">NotFoundException</text><line x1="1537.32" y1="144.9075" x2="1682.6833" y2="144.9075" style="stroke:#181818;stroke-width:0.5;"/><line x1="1537.32" y1="152.9075" x2="1682.6833" y2="152.9075" style="stroke:#181818;stroke-width:0.5;"/></g><!--class ConflictException--><g class="entity" data-qualified-name="Exceptions.ConflictException" id="ent0028" data-source-line="93"><rect x="1718.61" y="106.97" width="134.7891" height="53.9375" fill="#F1F1F1" style="stroke:#181818;stroke-width:0.5;" rx="2.5" ry="2.5"/><ellipse cx="1732.61" cy="125.9388" rx="10" ry="10" fill="#ADD1B2" style="stroke:#181818;stroke-width:1;"/><path d="M1734.4381,130.1888 Q1734.0319,130.3919 1733.5788,130.5013 Q1733.1256,130.6106 1732.6413,130.6106 Q1730.86,130.6106 1729.9225,129.4544 Q1729.0006,128.2825 1729.0006,126.0794 Q1729.0006,123.8606 1729.9225,122.7044 Q1730.86,121.5325 1732.6413,121.5325 Q1733.1256,121.5325 1733.5788,121.6419 Q1734.0475,121.7356 1734.4381,121.9544 L1734.4381,123.8763 Q1734.0006,123.47 1733.5788,123.2825 Q1733.1569,123.0794 1732.7194,123.0794 Q1731.7663,123.0794 1731.2819,123.845 Q1730.7975,124.595 1730.7975,126.0794 Q1730.7975,127.5481 1731.2819,128.2981 Q1731.7663,129.0481 1732.7194,129.0481 Q1733.1569,129.0481 1733.5788,128.8606 Q1734.0006,128.6731 1734.4381,128.2669 L1734.4381,130.1888 Z " fill="#000000"/><text x="1761.1286" y="123.1087" fill="#000000" font-size="12" lengthAdjust="spacing" textLength="73.752" font-style="italic" font-family="Helvetica">«exception»</text><text x="1745.61" y="137.0774" fill="#000000" font-size="12" lengthAdjust="spacing" textLength="104.7891" font-family="Helvetica">ConflictException</text><line x1="1719.61" y1="144.9075" x2="1852.3991" y2="144.9075" style="stroke:#181818;stroke-width:0.5;"/><line x1="1719.61" y1="152.9075" x2="1852.3991" y2="152.9075" style="stroke:#181818;stroke-width:0.5;"/></g><!--class ServiceUnavailableException--><g class="entity" data-qualified-name="Exceptions.ServiceUnavailableException" id="ent0029" data-source-line="96"><rect x="1323.92" y="317.91" width="204.1699" height="53.9375" fill="#F1F1F1" style="stroke:#181818;stroke-width:0.5;" rx="2.5" ry="2.5"/><ellipse cx="1337.92" cy="336.8787" rx="10" ry="10" fill="#ADD1B2" style="stroke:#181818;stroke-width:1;"/><path d="M1339.7481,341.1287 Q1339.3419,341.3319 1338.8888,341.4412 Q1338.4356,341.5506 1337.9513,341.5506 Q1336.17,341.5506 1335.2325,340.3944 Q1334.3106,339.2225 1334.3106,337.0194 Q1334.3106,334.8006 1335.2325,333.6444 Q1336.17,332.4725 1337.9513,332.4725 Q1338.4356,332.4725 1338.8888,332.5819 Q1339.3575,332.6756 1339.7481,332.8944 L1339.7481,334.8162 Q1339.3106,334.41 1338.8888,334.2225 Q1338.4669,334.0194 1338.0294,334.0194 Q1337.0763,334.0194 1336.5919,334.785 Q1336.1075,335.535 1336.1075,337.0194 Q1336.1075,338.4881 1336.5919,339.2381 Q1337.0763,339.9881 1338.0294,339.9881 Q1338.4669,339.9881 1338.8888,339.8006 Q1339.3106,339.6131 1339.7481,339.2069 L1339.7481,341.1287 Z " fill="#000000"/><text x="1401.129" y="334.0487" fill="#000000" font-size="12" lengthAdjust="spacing" textLength="73.752" font-style="italic" font-family="Helvetica">«exception»</text><text x="1350.92" y="348.0174" fill="#000000" font-size="12" lengthAdjust="spacing" textLength="174.1699" font-family="Helvetica">ServiceUnavailableException</text><line x1="1324.92" y1="355.8475" x2="1527.0899" y2="355.8475" style="stroke:#181818;stroke-width:0.5;"/><line x1="1324.92" y1="363.8475" x2="1527.0899" y2="363.8475" style="stroke:#181818;stroke-width:0.5;"/></g><!--class InternalServerErrorException--><g class="entity" data-qualified-name="Exceptions.InternalServerErrorException" id="ent0030" data-source-line="99"><rect x="1562.6" y="317.91" width="204.8027" height="53.9375" fill="#F1F1F1" style="stroke:#181818;stroke-width:0.5;" rx="2.5" ry="2.5"/><ellipse cx="1576.6" cy="336.8787" rx="10" ry="10" fill="#ADD1B2" style="stroke:#181818;stroke-width:1;"/><path d="M1578.4281,341.1287 Q1578.0219,341.3319 1577.5688,341.4412 Q1577.1156,341.5506 1576.6313,341.5506 Q1574.85,341.5506 1573.9125,340.3944 Q1572.9906,339.2225 1572.9906,337.0194 Q1572.9906,334.8006 1573.9125,333.6444 Q1574.85,332.4725 1576.6313,332.4725 Q1577.1156,332.4725 1577.5688,332.5819 Q1578.0375,332.6756 1578.4281,332.8944 L1578.4281,334.8162 Q1577.9906,334.41 1577.5688,334.2225 Q1577.1469,334.0194 1576.7094,334.0194 Q1575.7563,334.0194 1575.2719,334.785 Q1574.7875,335.535 1574.7875,337.0194 Q1574.7875,338.4881 1575.2719,339.2381 Q1575.7563,339.9881 1576.7094,339.9881 Q1577.1469,339.9881 1577.5688,339.8006 Q1577.9906,339.6131 1578.4281,339.2069 L1578.4281,341.1287 Z " fill="#000000"/><text x="1640.1254" y="334.0487" fill="#000000" font-size="12" lengthAdjust="spacing" textLength="73.752" font-style="italic" font-family="Helvetica">«exception»</text><text x="1589.6" y="348.0174" fill="#000000" font-size="12" lengthAdjust="spacing" textLength="174.8027" font-family="Helvetica">InternalServerErrorException</text><line x1="1563.6" y1="355.8475" x2="1766.4027" y2="355.8475" style="stroke:#181818;stroke-width:0.5;"/><line x1="1563.6" y1="363.8475" x2="1766.4027" y2="363.8475" style="stroke:#181818;stroke-width:0.5;"/></g><!--reverse link Actor to Admin--><g class="link" data-entity-1="ent0002" data-entity-2="ent0006" id="lnk7" data-source-line="30" data-link-type="extension"><path d="M882.3753,172.1209 C856.1853,210.1209 813.21,272.47 784.12,314.68" style="stroke:#181818;stroke-width:1;stroke-dasharray:7,7;" fill="none" id="Actor-backto-Admin"/><polygon points="892.59,157.3,877.435,168.716,887.3156,175.5258,892.59,157.3" fill="none" style="stroke:#181818;stroke-width:1;stroke-linejoin:miter;stroke-miterlimit:10;"/></g><!--reverse link Actor to User--><g class="link" data-entity-1="ent0002" data-entity-2="ent0008" id="lnk9" data-source-line="34" data-link-type="extension"><path d="M953.5499,166.5432 C972.5099,180.8732 981.11,190.79 994,214.87 C1009.37,243.58 1014.11,280.64 1015.3,307.66" style="stroke:#181818;stroke-width:1;stroke-dasharray:7,7;" fill="none" id="Actor-backto-User"/><polygon points="939.19,155.69,949.9322,171.3299,957.1677,161.7566,939.19,155.69" fill="none" style="stroke:#181818;stroke-width:1;stroke-linejoin:miter;stroke-miterlimit:10;"/></g><!--reverse link Transaction to FlaggedTransaction--><g class="link" data-entity-1="ent0011" data-entity-2="ent0012" id="lnk13" data-link-type="extension"><path d="M823.9826,781.6265 C823.5526,803.2765 824.98,808.04 827.54,824.23" style="stroke:#181818;stroke-width:1;" fill="none" id="Transaction-backto-FlaggedTransaction"/><polygon points="824.34,763.63,817.9837,781.5073,829.9814,781.7456,824.34,763.63" fill="none" style="stroke:#181818;stroke-width:1;stroke-linejoin:miter;stroke-miterlimit:10;"/></g><!--link FlaggedTransaction to Transaction--><g class="link" data-entity-1="ent0012" data-entity-2="ent0011" id="lnk20" data-source-line="73" data-link-type="extension"><path d="M847.02,824.23 C849.73,808.04 851.2424,803.2759 850.7824,781.6259" style="stroke:#181818;stroke-width:1;" fill="none" id="FlaggedTransaction-to-Transaction" codeLine="73"/><polygon points="850.4,763.63,844.7837,781.7534,856.781,781.4985,850.4,763.63" fill="none" style="stroke:#181818;stroke-width:1;stroke-linejoin:miter;stroke-miterlimit:10;"/></g><!--link Admin to User--><g class="link" data-entity-1="ent0006" data-entity-2="ent0008" id="lnk16" data-source-line="69" data-link-type="dependency"><path d="M854.97,344.87 C873.49,344.87 888.1,344.87 907,344.87" style="stroke:#181818;stroke-width:1;" fill="none" id="Admin-to-User" codeLine="69"/><polygon points="912,344.87,903,340.87,907,344.87,903,348.87,912,344.87" fill="#181818" style="stroke:#181818;stroke-width:1;stroke-linejoin:miter;stroke-miterlimit:10;"/><text x="872.92" y="339.0087" fill="#000000" font-size="12" lengthAdjust="spacing" textLength="21.2637" font-family="Helvetica">1..*</text><text x="849.222" y="357.1467" fill="#000000" font-size="12" lengthAdjust="spacing" textLength="55.2539" font-family="Helvetica">manages</text></g><!--link Admin to Transaction--><g class="link" data-entity-1="ent0006" data-entity-2="ent0011" id="lnk17" data-source-line="70" data-link-type="dependency"><path d="M770.1,375.26 C781.82,431.73 806.7137,551.6944 822.6337,628.3844" style="stroke:#181818;stroke-width:1;" fill="none" id="Admin-to-Transaction" codeLine="70"/><polygon points="823.65,633.28,825.7372,623.6548,822.6337,628.3844,817.9042,625.2809,823.65,633.28" fill="#181818" style="stroke:#181818;stroke-width:1;stroke-linejoin:miter;stroke-miterlimit:10;"/><text x="808" y="519.3987" fill="#000000" font-size="12" lengthAdjust="spacing" textLength="21.2637" font-family="Helvetica">1..*</text><text x="787.0664" y="622.7214" fill="#000000" font-size="12" lengthAdjust="spacing" textLength="33.8848" font-family="Helvetica">views</text></g><!--reverse link User to Account--><g class="link" data-entity-1="ent0008" data-entity-2="ent0010" id="lnk18" data-source-line="71" data-link-type="composition"><path d="M1004.3869,394.0187 C998.6669,419.9687 993.55,443.22 987.52,470.57" style="stroke:#181818;stroke-width:1;" fill="none" id="User-backto-Account" codeLine="71"/><polygon points="1006.97,382.3,1001.7722,387.2983,1004.3869,394.0187,1009.5847,389.0204,1006.97,382.3" fill="#181818" style="stroke:#181818;stroke-width:1;stroke-linejoin:miter;stroke-miterlimit:10;"/><text x="997" y="437.9487" fill="#000000" font-size="12" lengthAdjust="spacing" textLength="7.6348" font-family="Helvetica">1</text></g><!--link Account to Transaction--><g class="link" data-entity-1="ent0010" data-entity-2="ent0011" id="lnk19" data-source-line="72" data-link-type="dependency"><path d="M944.58,558.86 C927.32,581.13 908.9741,604.7989 889.8041,629.5189" style="stroke:#181818;stroke-width:1;" fill="none" id="Account-to-Transaction" codeLine="72"/><polygon points="886.74,633.47,895.4162,628.8092,889.8041,629.5189,889.0944,623.9067,886.74,633.47" fill="#181818" style="stroke:#181818;stroke-width:1;stroke-linejoin:miter;stroke-miterlimit:10;"/><text x="921" y="600.8587" fill="#000000" font-size="12" lengthAdjust="spacing" textLength="21.2637" font-family="Helvetica">1..*</text><text x="839.8041" y="622.9346" fill="#000000" font-size="12" lengthAdjust="spacing" textLength="50.7949" font-family="Helvetica">contains</text></g><!--link Admin to AdminAPI--><g class="link" data-entity-1="ent0006" data-entity-2="ent0022" id="lnk31" data-source-line="103" data-link-type="dependency"><path d="M791.85,314.63 C816.33,290.46 854.31,258.41 895,244.63 C995.61,210.55 1037.36,200.54 1134,244.63 C1168.38,260.31 1191.8943,292.7248 1206.1643,317.1048" style="stroke:#181818;stroke-width:1;stroke-dasharray:7,7;" fill="none" id="Admin-to-AdminAPI" codeLine="103"/><polygon points="1208.69,321.42,1207.5958,311.6321,1206.1643,317.1048,1200.6915,315.6733,1208.69,321.42" fill="#181818" style="stroke:#181818;stroke-width:1;stroke-linejoin:miter;stroke-miterlimit:10;"/><text x="900.5" y="227.0087" fill="#000000" font-size="12" lengthAdjust="spacing" textLength="27.4922" font-family="Helvetica">uses</text></g><?plantuml-src ZLN9Rjim4BtxAmZt4YUHWVGe10PKBudGn0rYkorG504ZZHKX8YcGbBEq0VeH_S9-IOSKBT5BWlXWS8PltgmSgVkSbrHIHcvfSfz9KV5qA0eXoOU9_NLKWoWHGJEOwQS2Y8H4UtSfB6bLw8dWUfO_0pdvkFzoIXcGSoXMeFE4TZgEatH7Wj6SaqkHGj4bfwUrF1YGNnr2Sgv1Bca294eqncPqBnty0runSWMIvKhbWjiBGgx7qSWUlbt7yx4zZR-FXmjtZaQNyNI38KeIJ5pFDDMLSYGNNuQVnpNDOje8hOq1mvjOz3ISnrzhfvEBwEoifKWAgXI9KeOvvwmiW07NoakFa2F2w1FcjXIIXLwIFtvkaYmKoDSvg9zQk9cfWuW73ZAiWzcAhqOtP6kayT3o0uPrMu3Js_2EI0REoK6FxBhrVCmbvOeckcqVaZA33acCVSzWxKhd39Ich0p978zEkoneba4Qaaz2542vKrTObNWKskhOW189sB19ZRx8bJxGhMUiZ57rFEGvoa8-lO7qad2qVYxmg86dk_dvvQtq7ROC7uAvZRG6LhR5LfKjxNPYkrLOHtpGM6XPmV4silTgtUqe3-yepw1jTP5QTLWFkjDoUDZIDivRW_KJEFRWjQQtts0NlgPeOgvVIY3px4u70z9bbEFQKDrw-aDoqkyVxe6jSdX0aD-31cij3uEWcNAyCHHE2bASTiEHuDh2LVGQpPxM1y7lWG_kl7YBBYhBmdNSx3bFt5bsNPlEJNGLTmbrsm85DqO-QSoNaYfiUw8h2UJVdx_aIaYjZ8VDkrqdfWut8whfBLLW7HdDMh77sVWnWTA-1KFVIevwtsmt83I0zTdXlPcS2ln8u1VedV2Xu4iiddudV0PobIUmu7H5yuBYodgdeLb3ajF2480SIodasvPeMqzYtqvYVz3sBZIRIVq7?></g></svg>