<svg xmlns="http://www.w3.org/2000/svg" xmlns:xlink="http://www.w3.org/1999/xlink" version="1.1" data-diagram-type="CLASS" style="width:1818px;height:412px;background:#FFFFFF;" width="1818px" height="412px" viewBox="0 0 1818 412" zoomAndPan="magnify" preserveAspectRatio="none" contentStyleType="text/css"><?plantuml 1.2026.7beta3?><defs/><g><!--cluster Domain Model--><g class="cluster" data-qualified-name="Domain Model" id="ent0001" data-source-line="7"><path d="M8.5,6 L122.2793,6 A3.75,3.75 0 0 1 124.7793,8.5 L131.7793,28.2969 L1045.5,28.2969 A2.5,2.5 0 0 1 1048,30.7969 L1048,395.17 A2.5,2.5 0 0 1 1045.5,397.67 L8.5,397.67 A2.5,2.5 0 0 1 6,395.17 L6,8.5 A2.5,2.5 0 0 1 8.5,6" style="stroke:#000000;stroke-width:1.5;" fill="#F8F9FA"/><line x1="6" y1="28.2969" x2="131.7793" y2="28.2969" style="stroke:#000000;stroke-width:1.5;"/><text x="10" y="20.9951" fill="#000000" font-size="14" lengthAdjust="spacing" textLength="112.7793" font-weight="700" font-family="sans-serif">Domain Model</text></g><!--cluster Infrastructure — Ports--><g class="cluster" data-qualified-name="Infrastructure . Ports" id="ent0012" data-source-line="58"><path d="M1076.5,249.78 L1253.9287,249.78 A3.75,3.75 0 0 1 1256.4287,252.28 L1263.4287,272.0769 L1800.5,272.0769 A2.5,2.5 0 0 1 1803,274.5769 L1803,378.87 A2.5,2.5 0 0 1 1800.5,381.37 L1076.5,381.37 A2.5,2.5 0 0 1 1074,378.87 L1074,252.28 A2.5,2.5 0 0 1 1076.5,249.78" style="stroke:#000000;stroke-width:1.5;" fill="#F8F9FA"/><line x1="1074" y1="272.0769" x2="1263.4287" y2="272.0769" style="stroke:#000000;stroke-width:1.5;"/><text x="1078" y="264.7751" fill="#000000" font-size="14" lengthAdjust="spacing" textLength="176.4287" font-weight="700" font-family="sans-serif">Infrastructure — Ports</text></g><!--cluster Controllers--><g class="cluster" data-qualified-name="Controllers" id="ent0015" data-source-line="68"><path d="M1181.5,54.89 L1269.9043,54.89 A3.75,3.75 0 0 1 1272.4043,57.39 L1279.4043,77.1869 L1346.5,77.1869 A2.5,2.5 0 0 1 1349,79.6869 L1349,151.39 A2.5,2.5 0 0 1 1346.5,153.89 L1181.5,153.89 A2.5,2.5 0 0 1 1179,151.39 L1179,57.39 A2.5,2.5 0 0 1 1181.5,54.89" style="stroke:#000000;stroke-width:1.5;" fill="#F8F9FA"/><line x1="1179" y1="77.1869" x2="1279.4043" y2="77.1869" style="stroke:#000000;stroke-width:1.5;"/><text x="1183" y="69.8851" fill="#000000" font-size="14" lengthAdjust="spacing" textLength="87.4043" font-weight="700" font-family="sans-serif">Controllers</text></g><!--class User--><g class="entity" data-qualified-name="Domain Model.User" id="ent0002" data-source-line="8"><rect x="21.67" y="57.29" width="116.6514" height="113.1875" fill="#FEFEFE" style="stroke:#333333;stroke-width:0.5;" rx="2.5" ry="2.5"/><ellipse cx="60.4035" cy="73.29" rx="11" ry="11" fill="#ADD1B2" style="stroke:#181818;stroke-width:1;"/><path d="M63.3723,78.9306 Q62.7942,79.2275 62.1535,79.3681 Q61.5129,79.5244 60.8098,79.5244 Q58.3098,79.5244 56.9817,77.8838 Q55.6692,76.2275 55.6692,73.1025 Q55.6692,69.9775 56.9817,68.3213 Q58.3098,66.665 60.8098,66.665 Q61.5129,66.665 62.1535,66.8213 Q62.8098,66.9775 63.3723,67.2744 L63.3723,69.9931 Q62.7473,69.415 62.1535,69.1494 Q61.5598,68.8681 60.9348,68.8681 Q59.591,68.8681 58.9035,69.9463 Q58.216,71.0088 58.216,73.1025 Q58.216,75.1963 58.9035,76.2744 Q59.591,77.3369 60.9348,77.3369 Q61.5598,77.3369 62.1535,77.0713 Q62.7473,76.79 63.3723,76.2119 L63.3723,78.9306 Z " fill="#000000"/><text x="79.6777" y="78.1367" fill="#000000" font-size="14" lengthAdjust="spacing" textLength="31.9102" font-family="sans-serif">User</text><line x1="22.67" y1="89.29" x2="137.3214" y2="89.29" style="stroke:#333333;stroke-width:0.5;"/><g data-visibility-modifier="PRIVATE_FIELD"><rect x="29.67" y="99.9384" width="6" height="6" fill="none" style="stroke:#C82930;stroke-width:1;"/></g><text x="41.67" y="106.2851" fill="#000000" font-size="14" lengthAdjust="spacing" textLength="63.7246" font-family="sans-serif">id: String</text><g data-visibility-modifier="PRIVATE_FIELD"><rect x="29.67" y="116.2353" width="6" height="6" fill="none" style="stroke:#C82930;stroke-width:1;"/></g><text x="41.67" y="122.582" fill="#000000" font-size="14" lengthAdjust="spacing" textLength="90.6514" font-family="sans-serif">name: String</text><g data-visibility-modifier="PRIVATE_FIELD"><rect x="29.67" y="132.5322" width="6" height="6" fill="none" style="stroke:#C82930;stroke-width:1;"/></g><text x="41.67" y="138.8789" fill="#000000" font-size="14" lengthAdjust="spacing" textLength="89.5576" font-family="sans-serif">email: String</text><g data-visibility-modifier="PRIVATE_FIELD"><rect x="29.67" y="148.8291" width="6" height="6" fill="none" style="stroke:#C82930;stroke-width:1;"/></g><text x="41.67" y="155.1757" fill="#000000" font-size="14" lengthAdjust="spacing" textLength="66.7871" font-family="sans-serif">role: Role</text><line x1="22.67" y1="162.4775" x2="137.3214" y2="162.4775" style="stroke:#333333;stroke-width:0.5;"/></g><!--class Post--><g class="entity" data-qualified-name="Domain Model.Post" id="ent0003" data-source-line="15"><rect x="291.26" y="268.48" width="195.4766" height="113.1875" fill="#FEFEFE" style="stroke:#333333;stroke-width:0.5;" rx="2.5" ry="2.5"/><ellipse cx="369.8528" cy="284.48" rx="11" ry="11" fill="#ADD1B2" style="stroke:#181818;stroke-width:1;"/><path d="M372.8215,290.1206 Q372.2434,290.4175 371.6028,290.5581 Q370.9621,290.7144 370.259,290.7144 Q367.759,290.7144 366.4309,289.0738 Q365.1184,287.4175 365.1184,284.2925 Q365.1184,281.1675 366.4309,279.5113 Q367.759,277.855 370.259,277.855 Q370.9621,277.855 371.6028,278.0113 Q372.259,278.1675 372.8215,278.4644 L372.8215,281.1831 Q372.1965,280.605 371.6028,280.3394 Q371.009,280.0581 370.384,280.0581 Q369.0403,280.0581 368.3528,281.1363 Q367.6653,282.1988 367.6653,284.2925 Q367.6653,286.3863 368.3528,287.4644 Q369.0403,288.5269 370.384,288.5269 Q371.009,288.5269 371.6028,288.2613 Q372.1965,287.98 372.8215,287.4019 L372.8215,290.1206 Z " fill="#000000"/><text x="390.3528" y="289.3267" fill="#000000" font-size="14" lengthAdjust="spacing" textLength="29.791" font-family="sans-serif">Post</text><line x1="292.26" y1="300.48" x2="485.7366" y2="300.48" style="stroke:#333333;stroke-width:0.5;"/><g data-visibility-modifier="PRIVATE_FIELD"><rect x="299.26" y="311.1284" width="6" height="6" fill="none" style="stroke:#C82930;stroke-width:1;"/></g><text x="311.26" y="317.4751" fill="#000000" font-size="14" lengthAdjust="spacing" textLength="63.7246" font-family="sans-serif">id: String</text><g data-visibility-modifier="PRIVATE_FIELD"><rect x="299.26" y="327.4253" width="6" height="6" fill="none" style="stroke:#C82930;stroke-width:1;"/></g><text x="311.26" y="333.772" fill="#000000" font-size="14" lengthAdjust="spacing" textLength="104.5488" font-family="sans-serif">content: String</text><g data-visibility-modifier="PRIVATE_FIELD"><rect x="299.26" y="343.7222" width="6" height="6" fill="none" style="stroke:#C82930;stroke-width:1;"/></g><text x="311.26" y="350.0689" fill="#000000" font-size="14" lengthAdjust="spacing" textLength="169.4766" font-family="sans-serif">creationTime: DateTime</text><g data-visibility-modifier="PRIVATE_FIELD"><rect x="299.26" y="360.0191" width="6" height="6" fill="none" style="stroke:#C82930;stroke-width:1;"/></g><text x="311.26" y="366.3657" fill="#000000" font-size="14" lengthAdjust="spacing" textLength="110.0996" font-family="sans-serif">authorId: String</text><line x1="292.26" y1="373.6675" x2="485.7366" y2="373.6675" style="stroke:#333333;stroke-width:0.5;"/></g><!--class Friendship--><g class="entity" data-qualified-name="Domain Model.Friendship" id="ent0004" data-source-line="22"><rect x="36.79" y="276.63" width="190.418" height="96.8906" fill="#FEFEFE" style="stroke:#333333;stroke-width:0.5;" rx="2.5" ry="2.5"/><ellipse cx="91.2417" cy="292.63" rx="11" ry="11" fill="#ADD1B2" style="stroke:#181818;stroke-width:1;"/><path d="M94.2104,298.2706 Q93.6323,298.5675 92.9917,298.7081 Q92.351,298.8644 91.6479,298.8644 Q89.1479,298.8644 87.8198,297.2238 Q86.5073,295.5675 86.5073,292.4425 Q86.5073,289.3175 87.8198,287.6613 Q89.1479,286.005 91.6479,286.005 Q92.351,286.005 92.9917,286.1613 Q93.6479,286.3175 94.2104,286.6144 L94.2104,289.3331 Q93.5854,288.755 92.9917,288.4894 Q92.3979,288.2081 91.7729,288.2081 Q90.4292,288.2081 89.7417,289.2863 Q89.0542,290.3488 89.0542,292.4425 Q89.0542,294.5363 89.7417,295.6144 Q90.4292,296.6769 91.7729,296.6769 Q92.3979,296.6769 92.9917,296.4113 Q93.5854,296.13 94.2104,295.5519 L94.2104,298.2706 Z " fill="#000000"/><text x="111.7417" y="297.4767" fill="#000000" font-size="14" lengthAdjust="spacing" textLength="73.0146" font-family="sans-serif">Friendship</text><line x1="37.79" y1="308.63" x2="226.208" y2="308.63" style="stroke:#333333;stroke-width:0.5;"/><g data-visibility-modifier="PRIVATE_FIELD"><rect x="44.79" y="319.2784" width="6" height="6" fill="none" style="stroke:#C82930;stroke-width:1;"/></g><text x="56.79" y="325.6251" fill="#000000" font-size="14" lengthAdjust="spacing" textLength="103.4072" font-family="sans-serif">user1Id: String</text><g data-visibility-modifier="PRIVATE_FIELD"><rect x="44.79" y="335.5753" width="6" height="6" fill="none" style="stroke:#C82930;stroke-width:1;"/></g><text x="56.79" y="341.922" fill="#000000" font-size="14" lengthAdjust="spacing" textLength="103.4072" font-family="sans-serif">user2Id: String</text><g data-visibility-modifier="PRIVATE_FIELD"><rect x="44.79" y="351.8722" width="6" height="6" fill="none" style="stroke:#C82930;stroke-width:1;"/></g><text x="56.79" y="358.2189" fill="#000000" font-size="14" lengthAdjust="spacing" textLength="164.418" font-family="sans-serif">createdDate: DateTime</text><line x1="37.79" y1="365.5206" x2="226.208" y2="365.5206" style="stroke:#333333;stroke-width:0.5;"/></g><!--class NewsFeed--><g class="entity" data-qualified-name="Domain Model.NewsFeed" id="ent0005" data-source-line="28"><rect x="173.6" y="41" width="490.7959" height="145.7813" fill="#FEFEFE" style="stroke:#333333;stroke-width:0.5;" rx="2.5" ry="2.5"/><ellipse cx="378.7499" cy="57" rx="11" ry="11" fill="#ADD1B2" style="stroke:#181818;stroke-width:1;"/><path d="M381.7187,62.6406 Q381.1405,62.9375 380.4999,63.0781 Q379.8593,63.2344 379.1562,63.2344 Q376.6562,63.2344 375.328,61.5938 Q374.0155,59.9375 374.0155,56.8125 Q374.0155,53.6875 375.328,52.0313 Q376.6562,50.375 379.1562,50.375 Q379.8593,50.375 380.4999,50.5313 Q381.1562,50.6875 381.7187,50.9844 L381.7187,53.7031 Q381.0937,53.125 380.4999,52.8594 Q379.9062,52.5781 379.2812,52.5781 Q377.9374,52.5781 377.2499,53.6563 Q376.5624,54.7188 376.5624,56.8125 Q376.5624,58.9063 377.2499,59.9844 Q377.9374,61.0469 379.2812,61.0469 Q379.9062,61.0469 380.4999,60.7813 Q381.0937,60.5 381.7187,59.9219 L381.7187,62.6406 Z " fill="#000000"/><text x="399.2499" y="61.8467" fill="#000000" font-size="14" lengthAdjust="spacing" textLength="71.9961" font-family="sans-serif">NewsFeed</text><line x1="174.6" y1="73" x2="663.3959" y2="73" style="stroke:#333333;stroke-width:0.5;"/><g data-visibility-modifier="PRIVATE_FIELD"><rect x="181.6" y="83.6484" width="6" height="6" fill="none" style="stroke:#C82930;stroke-width:1;"/></g><text x="193.6" y="89.9951" fill="#000000" font-size="14" lengthAdjust="spacing" textLength="94.5" font-family="sans-serif">userId: String</text><g data-visibility-modifier="PRIVATE_FIELD"><rect x="181.6" y="99.9453" width="6" height="6" fill="none" style="stroke:#C82930;stroke-width:1;"/></g><text x="193.6" y="106.292" fill="#000000" font-size="14" lengthAdjust="spacing" textLength="124.4209" font-family="sans-serif">posts: List&lt;Post></text><line x1="174.6" y1="113.5938" x2="663.3959" y2="113.5938" style="stroke:#333333;stroke-width:0.5;"/><g data-visibility-modifier="PUBLIC_METHOD"><ellipse cx="184.6" cy="127.2422" rx="3" ry="3" fill="#84BE84" style="stroke:#038048;stroke-width:1;"/></g><text x="193.6" y="130.5889" fill="#000000" font-size="14" lengthAdjust="spacing" textLength="307.4395" font-family="sans-serif">createEmptyFeed(userId: Long) : NewsFeed</text><g data-visibility-modifier="PUBLIC_METHOD"><ellipse cx="184.6" cy="143.5391" rx="3" ry="3" fill="#84BE84" style="stroke:#038048;stroke-width:1;"/></g><text x="193.6" y="146.8857" fill="#000000" font-size="14" lengthAdjust="spacing" textLength="464.7959" font-family="sans-serif">createFeedWithPosts(userId: Long, posts: List&lt;Post>) : NewsFeed</text><g data-visibility-modifier="PUBLIC_METHOD"><ellipse cx="184.6" cy="159.8359" rx="3" ry="3" fill="#84BE84" style="stroke:#038048;stroke-width:1;"/></g><text x="193.6" y="163.1826" fill="#000000" font-size="14" lengthAdjust="spacing" textLength="344.3398" font-family="sans-serif">updateFeed(existingFeed, newPosts) : NewsFeed</text><g data-visibility-modifier="PUBLIC_METHOD"><ellipse cx="184.6" cy="176.1328" rx="3" ry="3" fill="#84BE84" style="stroke:#038048;stroke-width:1;"/></g><text x="193.6" y="179.4795" fill="#000000" font-size="14" lengthAdjust="spacing" textLength="292.3115" font-family="sans-serif">appendPosts(feed, newPosts) : NewsFeed</text></g><!--class Permission--><g class="entity" data-qualified-name="Domain Model.Permission" id="ent0006" data-source-line="37"><rect x="699.87" y="57.29" width="108.2549" height="113.1875" fill="#FEFEFE" style="stroke:#333333;stroke-width:0.5;" rx="2.5" ry="2.5"/><ellipse cx="714.87" cy="73.29" rx="11" ry="11" fill="#EB937F" style="stroke:#181818;stroke-width:1;"/><path d="M718.9794,79.29 L711.2606,79.29 L711.2606,66.8994 L718.9794,66.8994 L718.9794,69.0556 L713.7138,69.0556 L713.7138,71.7275 L718.4794,71.7275 L718.4794,73.8838 L713.7138,73.8838 L713.7138,77.1338 L718.9794,77.1338 L718.9794,79.29 Z " fill="#000000"/><text x="728.87" y="78.1367" fill="#000000" font-size="14" lengthAdjust="spacing" textLength="76.2549" font-family="sans-serif">Permission</text><line x1="700.87" y1="89.29" x2="807.1249" y2="89.29" style="stroke:#333333;stroke-width:0.5;"/><text x="705.87" y="106.2851" fill="#000000" font-size="14" lengthAdjust="spacing" textLength="38.9307" font-family="sans-serif">READ</text><text x="705.87" y="122.582" fill="#000000" font-size="14" lengthAdjust="spacing" textLength="45.0967" font-family="sans-serif">WRITE</text><text x="705.87" y="138.8789" fill="#000000" font-size="14" lengthAdjust="spacing" textLength="64.7021" font-family="sans-serif">EXECUTE</text><text x="705.87" y="155.1757" fill="#000000" font-size="14" lengthAdjust="spacing" textLength="93.1328" font-family="sans-serif">ADMIN_PERM</text><line x1="700.87" y1="162.4775" x2="807.1249" y2="162.4775" style="stroke:#333333;stroke-width:0.5;"/></g><!--class Role--><g class="entity" data-qualified-name="Domain Model.Role" id="ent0007" data-source-line="44"><rect x="843.55" y="49.15" width="188.8936" height="129.4844" fill="#FEFEFE" style="stroke:#333333;stroke-width:0.5;" rx="2.5" ry="2.5"/><ellipse cx="918.3488" cy="65.15" rx="11" ry="11" fill="#EB937F" style="stroke:#181818;stroke-width:1;"/><path d="M922.4582,71.15 L914.7395,71.15 L914.7395,58.7594 L922.4582,58.7594 L922.4582,60.9156 L917.1926,60.9156 L917.1926,63.5875 L921.9582,63.5875 L921.9582,65.7438 L917.1926,65.7438 L917.1926,68.9938 L922.4582,68.9938 L922.4582,71.15 Z " fill="#000000"/><text x="938.8488" y="69.9967" fill="#000000" font-size="14" lengthAdjust="spacing" textLength="30.7959" font-family="sans-serif">Role</text><line x1="844.55" y1="81.15" x2="1031.4436" y2="81.15" style="stroke:#333333;stroke-width:0.5;"/><text x="849.55" y="98.1451" fill="#000000" font-size="14" lengthAdjust="spacing" textLength="37.707" font-family="sans-serif">USER</text><text x="849.55" y="114.442" fill="#000000" font-size="14" lengthAdjust="spacing" textLength="47.0381" font-family="sans-serif">ADMIN</text><text x="849.55" y="130.7389" fill="#000000" font-size="14" lengthAdjust="spacing" textLength="176.8936" font-family="sans-serif">PRODUCT_MANAGEMENT</text><text x="849.55" y="147.0357" fill="#000000" font-size="14" lengthAdjust="spacing" textLength="151.3135" font-family="sans-serif">DEVELOPMENT_TEAM</text><text x="849.55" y="163.3326" fill="#000000" font-size="14" lengthAdjust="spacing" textLength="66.6504" font-family="sans-serif">QA_TEAM</text><line x1="844.55" y1="170.6344" x2="1031.4436" y2="170.6344" style="stroke:#333333;stroke-width:0.5;"/></g><!--class FriendshipAPI--><g class="entity" data-qualified-name="Infrastructure . Ports.FriendshipAPI" id="ent0013" data-source-line="59"><rect x="1090.42" y="301.08" width="127.1631" height="48" fill="#FEFEFE" style="stroke:#333333;stroke-width:0.5;" rx="2.5" ry="2.5"/><ellipse cx="1105.42" cy="317.08" rx="11" ry="11" fill="#B4A7E5" style="stroke:#181818;stroke-width:1;"/><path d="M1101.3419,312.8456 L1101.3419,310.6894 L1108.7325,310.6894 L1108.7325,312.8456 L1106.2638,312.8456 L1106.2638,320.9238 L1108.7325,320.9238 L1108.7325,323.08 L1101.3419,323.08 L1101.3419,320.9238 L1103.8106,320.9238 L1103.8106,312.8456 L1101.3419,312.8456 Z " fill="#000000"/><text x="1119.42" y="321.9267" fill="#000000" font-size="14" lengthAdjust="spacing" textLength="95.1631" font-style="italic" font-family="sans-serif">FriendshipAPI</text><line x1="1091.42" y1="333.08" x2="1216.5831" y2="333.08" style="stroke:#333333;stroke-width:0.5;"/><line x1="1091.42" y1="341.08" x2="1216.5831" y2="341.08" style="stroke:#333333;stroke-width:0.5;"/></g><!--class PostDatabase--><g class="entity" data-qualified-name="Infrastructure . Ports.PostDatabase" id="ent0014" data-source-line="62"><rect x="1252.99" y="284.78" width="534.0264" height="80.5938" fill="#FEFEFE" style="stroke:#333333;stroke-width:0.5;" rx="2.5" ry="2.5"/><ellipse cx="1467.4573" cy="300.78" rx="11" ry="11" fill="#B4A7E5" style="stroke:#181818;stroke-width:1;"/><path d="M1463.3792,296.5456 L1463.3792,294.3894 L1470.7698,294.3894 L1470.7698,296.5456 L1468.301,296.5456 L1468.301,304.6238 L1470.7698,304.6238 L1470.7698,306.78 L1463.3792,306.78 L1463.3792,304.6238 L1465.8479,304.6238 L1465.8479,296.5456 L1463.3792,296.5456 Z " fill="#000000"/><text x="1487.9573" y="305.6267" fill="#000000" font-size="14" lengthAdjust="spacing" textLength="96.5918" font-style="italic" font-family="sans-serif">PostDatabase</text><line x1="1253.99" y1="316.78" x2="1786.0164" y2="316.78" style="stroke:#333333;stroke-width:0.5;"/><line x1="1253.99" y1="324.78" x2="1786.0164" y2="324.78" style="stroke:#333333;stroke-width:0.5;"/><g data-visibility-modifier="PUBLIC_METHOD"><ellipse cx="1263.99" cy="338.4284" rx="3" ry="3" fill="#84BE84" style="stroke:#038048;stroke-width:1;"/></g><text x="1272.99" y="341.7751" fill="#000000" font-size="14" lengthAdjust="spacing" textLength="508.0264" font-family="sans-serif">findPostsByAuthorIds(friendIds, sort="creationTime DESC") : List&lt;Post></text><g data-visibility-modifier="PUBLIC_METHOD"><ellipse cx="1263.99" cy="354.7253" rx="3" ry="3" fill="#84BE84" style="stroke:#038048;stroke-width:1;"/></g><text x="1272.99" y="358.072" fill="#000000" font-size="14" lengthAdjust="spacing" textLength="468.1865" font-family="sans-serif">findPostsByAuthorIds(friendIds, since=lastFetchTime) : List&lt;Post></text></g><!--class NewsFeedPage--><g class="entity" data-qualified-name="Controllers.NewsFeedPage" id="ent0016" data-source-line="69"><rect x="1194.74" y="89.89" width="138.5176" height="48" fill="#FEFEFE" style="stroke:#333333;stroke-width:0.5;" rx="2.5" ry="2.5"/><ellipse cx="1209.74" cy="105.89" rx="11" ry="11" fill="#B4A7E5" style="stroke:#181818;stroke-width:1;"/><path d="M1205.6619,101.6556 L1205.6619,99.4994 L1213.0525,99.4994 L1213.0525,101.6556 L1210.5838,101.6556 L1210.5838,109.7338 L1213.0525,109.7338 L1213.0525,111.89 L1205.6619,111.89 L1205.6619,109.7338 L1208.1306,109.7338 L1208.1306,101.6556 L1205.6619,101.6556 Z " fill="#000000"/><text x="1223.74" y="110.7367" fill="#000000" font-size="14" lengthAdjust="spacing" textLength="106.5176" font-style="italic" font-family="sans-serif">NewsFeedPage</text><line x1="1195.74" y1="121.89" x2="1332.2576" y2="121.89" style="stroke:#333333;stroke-width:0.5;"/><line x1="1195.74" y1="129.89" x2="1332.2576" y2="129.89" style="stroke:#333333;stroke-width:0.5;"/></g><!--link User to Post--><g class="link" data-entity-1="ent0002" data-entity-2="ent0003" id="lnk8" data-source-line="52" data-link-type="dependency"><path d="M136.47,170.88 C142.89,176.46 149.47,181.87 156,186.78 C168.73,196.36 229.1535,231.8837 287.1735,265.4937" style="stroke:#181818;stroke-width:1;" fill="none" id="User-to-Post" codeLine="52"/><polygon points="291.5,268,285.7173,260.0275,287.1735,265.4937,281.7073,266.9499,291.5,268" fill="#181818" style="stroke:#181818;stroke-width:1;stroke-linejoin:miter;stroke-miterlimit:10;"/><text x="231" y="229.8469" fill="#000000" font-size="13" lengthAdjust="spacing" textLength="48.3247" font-family="sans-serif">creates</text><text x="134.553" y="190.412" fill="#000000" font-size="13" lengthAdjust="spacing" textLength="8.271" font-family="sans-serif">1</text><text x="276.8849" y="259.5233" fill="#000000" font-size="13" lengthAdjust="spacing" textLength="6.5" font-family="sans-serif">*</text></g><!--link User to Friendship--><g class="link" data-entity-1="ent0002" data-entity-2="ent0004" id="lnk9" data-source-line="53" data-link-type="dependency"><path d="M63.65,170.92 C60.29,191.11 59.48,213.82 66,233.78 C70.88,248.73 76.3738,259.1913 85.5738,272.0713" style="stroke:#181818;stroke-width:1;" fill="none" id="User-to-Friendship" codeLine="53"/><polygon points="88.48,276.14,86.5038,266.4914,85.5738,272.0713,79.9939,271.1414,88.48,276.14" fill="#181818" style="stroke:#181818;stroke-width:1;stroke-linejoin:miter;stroke-miterlimit:10;"/><text x="67" y="229.8469" fill="#000000" font-size="13" lengthAdjust="spacing" textLength="36.626" font-family="sans-serif">user1</text><text x="53.3132" y="190.4566" fill="#000000" font-size="13" lengthAdjust="spacing" textLength="8.271" font-family="sans-serif">1</text><text x="76.2626" y="265.6323" fill="#000000" font-size="13" lengthAdjust="spacing" textLength="6.5" font-family="sans-serif">*</text></g><!--link User to Friendship--><g class="link" data-entity-1="ent0002" data-entity-2="ent0004" id="lnk10" data-source-line="54" data-link-type="dependency"><path d="M95.89,170.82 C99.98,185.72 104.28,201.83 108,216.78 C112.82,236.14 116.6356,252.6868 120.7256,271.2768" style="stroke:#181818;stroke-width:1;" fill="none" id="User-to-Friendship-1" codeLine="54"/><polygon points="121.8,276.16,123.7727,266.5107,120.7256,271.2768,115.9596,268.2297,121.8,276.16" fill="#181818" style="stroke:#181818;stroke-width:1;stroke-linejoin:miter;stroke-miterlimit:10;"/><text x="113" y="229.8469" fill="#000000" font-size="13" lengthAdjust="spacing" textLength="36.626" font-family="sans-serif">user2</text><text x="89.2809" y="190.345" fill="#000000" font-size="13" lengthAdjust="spacing" textLength="8.271" font-family="sans-serif">1</text><text x="114.06" y="265.655" fill="#000000" font-size="13" lengthAdjust="spacing" textLength="6.5" font-family="sans-serif">*</text></g><!--reverse link NewsFeed to Post--><g class="link" data-entity-1="ent0005" data-entity-2="ent0003" id="lnk11" data-source-line="55" data-link-type="aggregation"><path d="M406.9267,199.0485 C403.1167,225.6185 400.57,243.4 397,268.3" style="stroke:#181818;stroke-width:1;" fill="none" id="NewsFeed-backto-Post" codeLine="55"/><polygon points="408.63,187.17,403.8188,192.5415,406.9267,199.0485,411.7378,193.677,408.63,187.17" fill="none" style="stroke:#181818;stroke-width:1;stroke-linejoin:miter;stroke-miterlimit:10;"/><text x="405" y="229.8469" fill="#000000" font-size="13" lengthAdjust="spacing" textLength="73.8994" font-family="sans-serif">aggregates</text><text x="399.2735" y="206.9425" fill="#000000" font-size="13" lengthAdjust="spacing" textLength="8.271" font-family="sans-serif">1</text><text x="391.6401" y="257.5416" fill="#000000" font-size="13" lengthAdjust="spacing" textLength="6.5" font-family="sans-serif">*</text></g><!--link NewsFeedPage to FriendshipAPI--><g class="link" data-entity-1="ent0016" data-entity-2="ent0013" id="lnk17" data-source-line="72" data-link-type="dependency"><path d="M1251.81,138.07 C1230.66,178.28 1189.7566,256.0743 1168.5766,296.3643" style="stroke:#181818;stroke-width:1;stroke-dasharray:7,7;" fill="none" id="NewsFeedPage-to-FriendshipAPI" codeLine="72"/><polygon points="1166.25,300.79,1173.9784,294.6849,1168.5766,296.3643,1166.8972,290.9624,1166.25,300.79" fill="#181818" style="stroke:#181818;stroke-width:1;stroke-linejoin:miter;stroke-miterlimit:10;"/><text x="1210" y="229.8469" fill="#000000" font-size="13" lengthAdjust="spacing" textLength="29.7832" font-family="sans-serif">uses</text></g><!--link NewsFeedPage to PostDatabase--><g class="link" data-entity-1="ent0016" data-entity-2="ent0014" id="lnk18" data-source-line="73" data-link-type="dependency"><path d="M1292.37,138.07 C1335.59,173.39 1414.5979,237.9566 1467.5379,281.2066" style="stroke:#181818;stroke-width:1;stroke-dasharray:7,7;" fill="none" id="NewsFeedPage-to-PostDatabase" codeLine="73"/><polygon points="1471.41,284.37,1466.9709,275.5783,1467.5379,281.2066,1461.9095,281.7736,1471.41,284.37" fill="#181818" style="stroke:#181818;stroke-width:1;stroke-linejoin:miter;stroke-miterlimit:10;"/><text x="1408" y="229.8469" fill="#000000" font-size="13" lengthAdjust="spacing" textLength="29.7832" font-family="sans-serif">uses</text></g><?plantuml-src ZLHTRvim57tFhx3OIxScrTg-TD4QYOAPa4hAIBBkBVB08LR1HhPHMqsHzYFs2_TBPXk7yj5z12cwlZu-XtjyB-A1q0fnL8AqG4BSeFGXvwoccSSAni6R0Efd8WOmnZFCBUJI_3eGGYNcEvJY4Hky2jxts32jox5c45nwVWTLAGJAntJ1LV0XS2SJkmySdvM8K12n31SE-3u1pUk2ZS3SB06O0PBDmKfoGdEReAZ4WnHMFCKWnrcXO8dwLud3f2MFcP1_9a-PSeFAOPPZ90cZQwAbVIInZkmcgkMUyR3Br94BEC4q4tjIjQArAkyy72hhxCKeQvHnfYLxmXs59NuK0SPPZtz4LAconHpS4Y4_QWiMAdzgwM5PoMTDSN8yUije_XRCM-uEM2_lYTnh4j4xC1sBZ3ZgAhCS9_X9mTGBwiKKKFne64SdK5Kf0nkrtT-WnXBTeI36l2H2g0kpdYJGzKrmduHhQ2Bu5NeR6xj-52wtCKoY7etk7KkmMS7a1MgYEBdpDzvw6xbBznECu79jqZxy0c_lOhtUhg4RcUHdznWRTjFVpha3PhC5SDuvJK_EhS7YDKIdZUPD0_qNwaAXslxGI3QRTHLHddES6z53Pp13kkD8I5wdikOO_FhnKntWKZH3sdumEdfk79ezKzyBGCkehaNVa6YiF0KxOc_pvjcrawCkrX2fQ0g44hfskXEdF5rvZhxjGVV-auhG55-h8P41bkbUSurO3ht2FJN-wiDHO3wgzMXZh85jgRtisTbYO8cv1V4QhkUCXHr-0m00?></g></svg>