<svg xmlns="http://www.w3.org/2000/svg" xmlns:xlink="http://www.w3.org/1999/xlink" contentStyleType="text/css" data-diagram-type="CLASS" height="347px" preserveAspectRatio="none" style="width:2521px;height:347px;background:#FEFEFE;" version="1.1" viewBox="0 0 2521 347" width="2521px" zoomAndPan="magnify"><?plantuml 1.2026.7beta1?><defs/><g><rect fill="#FEFEFE" height="347" style="stroke:none;stroke-width:1;" width="2521" x="0" y="0"/><!--cluster Domain Model--><g class="cluster" data-qualified-name="Domain Model" data-source-line="10" id="ent0001"><rect fill="none" height="326.75" rx="2.5" ry="2.5" style="stroke:#000000;stroke-width:1.5;" width="1840" x="7" y="7"/><text fill="#000000" font-family="Arial" font-size="12" font-weight="700" lengthAdjust="spacing" textLength="96.668" x="878.666" y="20.1387">Domain Model</text></g><!--cluster Infrastructure ? Ports--><g class="cluster" data-qualified-name="Infrastructure . Ports" data-source-line="65" id="ent0018"><rect fill="none" height="94" rx="2.5" ry="2.5" style="stroke:#000000;stroke-width:1.5;" width="636" x="1871" y="41.92"/><text fill="#000000" font-family="Arial" font-size="12" font-weight="700" lengthAdjust="spacing" textLength="151.2246" x="2113.3877" y="55.0587">Infrastructure &#8212; Ports</text></g><!--class FlightAssignment--><g class="entity" data-qualified-name="Domain Model.FlightAssignment" data-source-line="11" id="ent0002"><rect fill="#E8F0FE" height="115.8438" rx="2.5" ry="2.5" style="stroke:#181818;stroke-width:0.5;" width="171.168" x="23.42" y="39"/><ellipse cx="54.0779" cy="54" fill="#ADD1B2" rx="10" ry="10" style="stroke:#181818;stroke-width:1;"/><path d="M55.906,58.25 Q55.4998,58.4531 55.0467,58.5625 Q54.5935,58.6719 54.1092,58.6719 Q52.3279,58.6719 51.3904,57.5156 Q50.4685,56.3438 50.4685,54.1406 Q50.4685,51.9219 51.3904,50.7656 Q52.3279,49.5938 54.1092,49.5938 Q54.5935,49.5938 55.0467,49.7031 Q55.5154,49.7969 55.906,50.0156 L55.906,51.9375 Q55.4685,51.5313 55.0467,51.3438 Q54.6248,51.1406 54.1873,51.1406 Q53.2342,51.1406 52.7498,51.9063 Q52.2654,52.6563 52.2654,54.1406 Q52.2654,55.6094 52.7498,56.3594 Q53.2342,57.1094 54.1873,57.1094 Q54.6248,57.1094 55.0467,56.9219 Q55.4685,56.7344 55.906,56.3281 L55.906,58.25 Z " fill="#000000"/><text fill="#000000" font-family="Arial" font-size="12" lengthAdjust="spacing" textLength="104.1504" x="70.7797" y="58.1543">FlightAssignment</text><line style="stroke:#181818;stroke-width:0.5;" x1="24.42" x2="193.588" y1="69" y2="69"/><g data-visibility-modifier="PRIVATE_FIELD"><rect fill="none" height="6" style="stroke:#C82930;stroke-width:1;" width="6" x="31.42" y="78.4844"/></g><text fill="#000000" font-family="Arial" font-size="12" lengthAdjust="spacing" textLength="116.1211" x="42.42" y="84.1387">resource: Resource</text><g data-visibility-modifier="PRIVATE_FIELD"><rect fill="none" height="6" style="stroke:#C82930;stroke-width:1;" width="6" x="31.42" y="92.4531"/></g><text fill="#000000" font-family="Arial" font-size="12" lengthAdjust="spacing" textLength="84.5918" x="42.42" y="98.1074">finalized: Bool</text><g data-visibility-modifier="PRIVATE_FIELD"><rect fill="none" height="6" style="stroke:#C82930;stroke-width:1;" width="6" x="31.42" y="106.4219"/></g><text fill="#000000" font-family="Arial" font-size="12" lengthAdjust="spacing" textLength="83.6484" x="42.42" y="112.0762">sector: Sector</text><line style="stroke:#181818;stroke-width:0.5;" x1="24.42" x2="193.588" y1="118.9063" y2="118.9063"/><g data-visibility-modifier="PUBLIC_METHOD"><ellipse cx="34.42" cy="131.3906" fill="#84BE84" rx="3" ry="3" style="stroke:#038048;stroke-width:1;"/></g><text fill="#000000" font-family="Arial" font-size="12" lengthAdjust="spacing" textLength="146.168" x="42.42" y="134.0449">create(assignmentData)</text><g data-visibility-modifier="PUBLIC_METHOD"><ellipse cx="34.42" cy="145.3594" fill="#84BE84" rx="3" ry="3" style="stroke:#038048;stroke-width:1;"/></g><text fill="#000000" font-family="Arial" font-size="12" lengthAdjust="spacing" textLength="109.4121" x="42.42" y="148.0137">setFinalized(false)</text></g><path d="M229.94,58.98 L229.94,87.9175 L158.5411,79.9844 L229.94,95.9175 L229.94,124.855 A0,0 0 0 0 229.94,124.855 L748.067,124.855 A0,0 0 0 0 748.067,124.855 L748.067,68.98 L738.067,58.98 L229.94,58.98 A0,0 0 0 0 229.94,58.98" fill="#F8D7DA" style="stroke:#181818;stroke-width:0.5;"/><path d="M738.067,58.98 L738.067,68.98 L748.067,68.98 L738.067,58.98" fill="#F8D7DA" style="stroke:#181818;stroke-width:0.5;"/><text fill="#000000" font-family="Arial" font-size="12" font-weight="700" lengthAdjust="spacing" textLength="73.2773" x="235.94" y="75.1187">Invariants:</text><text fill="#000000" font-family="Arial" font-size="12" lengthAdjust="spacing" textLength="392.2852" x="235.94" y="89.0874">- Two non-finalized assignments cannot share the same resource</text><text fill="#000000" font-family="Arial" font-size="12" lengthAdjust="spacing" textLength="484.5586" x="235.94" y="103.0562">- Two non-finalized assignments in same sector cannot share the same resource</text><text fill="#000000" font-family="Arial" font-size="12" lengthAdjust="spacing" textLength="497.127" x="235.94" y="117.0249">- At any time, no two assignments occupy the same slot or runway simultaneously</text><!--class Resource--><g class="entity" data-qualified-name="Domain Model.Resource" data-source-line="25" id="ent0005"><rect fill="#E8F0FE" height="87.9063" rx="2.5" ry="2.5" style="stroke:#181818;stroke-width:0.5;" width="200.3184" x="1403.84" y="229.84"/><ellipse cx="1472.0822" cy="244.84" fill="#ADD1B2" rx="10" ry="10" style="stroke:#181818;stroke-width:1;"/><path d="M1473.9103,249.09 Q1473.5041,249.2931 1473.0509,249.4025 Q1472.5978,249.5119 1472.1134,249.5119 Q1470.3322,249.5119 1469.3947,248.3556 Q1468.4728,247.1838 1468.4728,244.9806 Q1468.4728,242.7619 1469.3947,241.6056 Q1470.3322,240.4338 1472.1134,240.4338 Q1472.5978,240.4338 1473.0509,240.5431 Q1473.5197,240.6369 1473.9103,240.8556 L1473.9103,242.7775 Q1473.4728,242.3713 1473.0509,242.1838 Q1472.6291,241.9806 1472.1916,241.9806 Q1471.2384,241.9806 1470.7541,242.7463 Q1470.2697,243.4963 1470.2697,244.9806 Q1470.2697,246.4494 1470.7541,247.1994 Q1471.2384,247.9494 1472.1916,247.9494 Q1472.6291,247.9494 1473.0509,247.7619 Q1473.4728,247.5744 1473.9103,247.1681 L1473.9103,249.09 Z " fill="#000000"/><text fill="#000000" font-family="Arial" font-size="12" lengthAdjust="spacing" textLength="55.834" x="1491.0822" y="248.9943">Resource</text><line style="stroke:#181818;stroke-width:0.5;" x1="1404.84" x2="1603.1584" y1="259.84" y2="259.84"/><g data-visibility-modifier="PRIVATE_FIELD"><rect fill="none" height="6" style="stroke:#C82930;stroke-width:1;" width="6" x="1411.84" y="269.3244"/></g><text fill="#000000" font-family="Arial" font-size="12" lengthAdjust="spacing" textLength="76.7227" x="1422.84" y="274.9787">owner: Actor</text><g data-visibility-modifier="PRIVATE_FIELD"><rect fill="none" height="6" style="stroke:#C82930;stroke-width:1;" width="6" x="1411.84" y="283.2931"/></g><text fill="#000000" font-family="Arial" font-size="12" lengthAdjust="spacing" textLength="141.5625" x="1422.84" y="288.9474">accessible: Set&lt;Actor&gt;</text><line style="stroke:#181818;stroke-width:0.5;" x1="1404.84" x2="1603.1584" y1="295.7775" y2="295.7775"/><g data-visibility-modifier="PUBLIC_METHOD"><ellipse cx="1414.84" cy="308.2619" fill="#84BE84" rx="3" ry="3" style="stroke:#038048;stroke-width:1;"/></g><text fill="#000000" font-family="Arial" font-size="12" lengthAdjust="spacing" textLength="175.3184" x="1422.84" y="310.9162">getAccessibleSet(resourceId)</text></g><path d="M1639.04,249.83 L1639.04,264.7988 L1499.5627,270.8244 L1639.04,272.7988 L1639.04,287.7675 A0,0 0 0 0 1639.04,287.7675 L1830.958,287.7675 A0,0 0 0 0 1830.958,287.7675 L1830.958,259.83 L1820.958,249.83 L1639.04,249.83 A0,0 0 0 0 1639.04,249.83" fill="#F8D7DA" style="stroke:#181818;stroke-width:0.5;"/><path d="M1820.958,249.83 L1820.958,259.83 L1830.958,259.83 L1820.958,249.83" fill="#F8D7DA" style="stroke:#181818;stroke-width:0.5;"/><text fill="#000000" font-family="Arial" font-size="12" font-weight="700" lengthAdjust="spacing" textLength="66.1348" x="1645.04" y="265.9687">Invariant:</text><text fill="#000000" font-family="Arial" font-size="12" lengthAdjust="spacing" textLength="170.918" x="1645.04" y="279.9374">- owner always in accessible</text><!--class Sector--><g class="entity" data-qualified-name="Domain Model.Sector" data-source-line="35" id="ent0008"><rect fill="#E8F0FE" height="46" rx="2.5" ry="2.5" style="stroke:#181818;stroke-width:0.5;" width="68.5781" x="74.71" y="250.8"/><ellipse cx="88.71" cy="265.8" fill="#ADD1B2" rx="10" ry="10" style="stroke:#181818;stroke-width:1;"/><path d="M90.5381,270.05 Q90.1319,270.2531 89.6788,270.3625 Q89.2256,270.4719 88.7413,270.4719 Q86.96,270.4719 86.0225,269.3156 Q85.1006,268.1438 85.1006,265.9406 Q85.1006,263.7219 86.0225,262.5656 Q86.96,261.3938 88.7413,261.3938 Q89.2256,261.3938 89.6788,261.5031 Q90.1475,261.5969 90.5381,261.8156 L90.5381,263.7375 Q90.1006,263.3313 89.6788,263.1438 Q89.2569,262.9406 88.8194,262.9406 Q87.8663,262.9406 87.3819,263.7063 Q86.8975,264.4563 86.8975,265.9406 Q86.8975,267.4094 87.3819,268.1594 Q87.8663,268.9094 88.8194,268.9094 Q89.2569,268.9094 89.6788,268.7219 Q90.1006,268.5344 90.5381,268.1281 L90.5381,270.05 Z " fill="#000000"/><text fill="#000000" font-family="Arial" font-size="12" lengthAdjust="spacing" textLength="38.5781" x="101.71" y="269.9543">Sector</text><line style="stroke:#181818;stroke-width:0.5;" x1="75.71" x2="142.2881" y1="280.8" y2="280.8"/><line style="stroke:#181818;stroke-width:0.5;" x1="75.71" x2="142.2881" y1="288.8" y2="288.8"/></g><!--class Actor--><g class="entity" data-qualified-name="Domain Model.Actor" data-source-line="38" id="ent0009"><rect fill="#E8F0FE" height="46" rx="2.5" ry="2.5" style="stroke:#181818;stroke-width:0.5;" width="61.7871" x="1769.11" y="73.92"/><ellipse cx="1783.11" cy="88.92" fill="#ADD1B2" rx="10" ry="10" style="stroke:#181818;stroke-width:1;"/><path d="M1784.9381,93.17 Q1784.5319,93.3731 1784.0788,93.4825 Q1783.6256,93.5919 1783.1413,93.5919 Q1781.36,93.5919 1780.4225,92.4356 Q1779.5006,91.2638 1779.5006,89.0606 Q1779.5006,86.8419 1780.4225,85.6856 Q1781.36,84.5138 1783.1413,84.5138 Q1783.6256,84.5138 1784.0788,84.6231 Q1784.5475,84.7169 1784.9381,84.9356 L1784.9381,86.8575 Q1784.5006,86.4513 1784.0788,86.2638 Q1783.6569,86.0606 1783.2194,86.0606 Q1782.2663,86.0606 1781.7819,86.8263 Q1781.2975,87.5763 1781.2975,89.0606 Q1781.2975,90.5294 1781.7819,91.2794 Q1782.2663,92.0294 1783.2194,92.0294 Q1783.6569,92.0294 1784.0788,91.8419 Q1784.5006,91.6544 1784.9381,91.2481 L1784.9381,93.17 Z " fill="#000000"/><text fill="#000000" font-family="Arial" font-size="12" lengthAdjust="spacing" textLength="31.7871" x="1796.11" y="93.0743">Actor</text><line style="stroke:#181818;stroke-width:0.5;" x1="1770.11" x2="1829.8971" y1="103.92" y2="103.92"/><line style="stroke:#181818;stroke-width:0.5;" x1="1770.11" x2="1829.8971" y1="111.92" y2="111.92"/></g><!--class Permission--><g class="entity" data-qualified-name="Domain Model.Permission" data-source-line="41" id="ent0010"><rect fill="#E8F0FE" height="101.875" rx="2.5" ry="2.5" style="stroke:#181818;stroke-width:0.5;" width="95.3613" x="783.32" y="45.98"/><ellipse cx="797.32" cy="60.98" fill="#EB937F" rx="10" ry="10" style="stroke:#181818;stroke-width:1;"/><path d="M799.7575,65.48 L794.3044,65.48 L794.3044,56.73 L799.7575,56.73 L799.7575,58.2613 L796.0388,58.2613 L796.0388,60.1363 L799.3981,60.1363 L799.3981,61.6675 L796.0388,61.6675 L796.0388,63.9488 L799.7575,63.9488 L799.7575,65.48 Z " fill="#000000"/><text fill="#000000" font-family="Arial" font-size="12" lengthAdjust="spacing" textLength="65.3613" x="810.32" y="65.1343">Permission</text><line style="stroke:#181818;stroke-width:0.5;" x1="784.32" x2="877.6813" y1="75.98" y2="75.98"/><text fill="#000000" font-family="Arial" font-size="12" lengthAdjust="spacing" textLength="33.3691" x="789.32" y="91.1187">READ</text><text fill="#000000" font-family="Arial" font-size="12" lengthAdjust="spacing" textLength="38.6543" x="789.32" y="105.0874">WRITE</text><text fill="#000000" font-family="Arial" font-size="12" lengthAdjust="spacing" textLength="55.459" x="789.32" y="119.0562">EXECUTE</text><text fill="#000000" font-family="Arial" font-size="12" lengthAdjust="spacing" textLength="40.3184" x="789.32" y="133.0249">ADMIN</text><line style="stroke:#181818;stroke-width:0.5;" x1="784.32" x2="877.6813" y1="139.855" y2="139.855"/></g><g class="entity" data-qualified-name="Domain Model.GMN11" data-source-line="48" id="ent0012"><path d="M913.62,77.95 L913.62,92.92 L879.15,96.92 L913.62,100.92 L913.62,115.8875 A0,0 0 0 0 913.62,115.8875 L1246.3798,115.8875 A0,0 0 0 0 1246.3798,115.8875 L1246.3798,87.95 L1236.3798,77.95 L913.62,77.95 A0,0 0 0 0 913.62,77.95" fill="#F8D7DA" style="stroke:#181818;stroke-width:0.5;"/><path d="M1236.3798,77.95 L1236.3798,87.95 L1246.3798,87.95 L1236.3798,77.95" fill="#F8D7DA" style="stroke:#181818;stroke-width:0.5;"/><text fill="#000000" font-family="Arial" font-size="12" font-weight="700" lengthAdjust="spacing" textLength="90.6563" x="919.62" y="94.0887">Partial order:</text><text fill="#000000" font-family="Arial" font-size="12" lengthAdjust="spacing" textLength="311.7598" x="919.62" y="108.0574">Read &lt;= Write, Read &lt;= Execute, Admin strongest</text></g><!--class State--><g class="entity" data-qualified-name="Domain Model.State" data-source-line="52" id="ent0014"><rect fill="#E8F0FE" height="115.8438" rx="2.5" ry="2.5" style="stroke:#181818;stroke-width:0.5;" width="139.375" x="1281.31" y="39"/><ellipse cx="1331.1157" cy="54" fill="#EB937F" rx="10" ry="10" style="stroke:#181818;stroke-width:1;"/><path d="M1333.5532,58.5 L1328.1,58.5 L1328.1,49.75 L1333.5532,49.75 L1333.5532,51.2813 L1329.8344,51.2813 L1329.8344,53.1563 L1333.1938,53.1563 L1333.1938,54.6875 L1329.8344,54.6875 L1329.8344,56.9688 L1333.5532,56.9688 L1333.5532,58.5 Z " fill="#000000"/><text fill="#000000" font-family="Arial" font-size="12" lengthAdjust="spacing" textLength="31.7637" x="1350.1157" y="58.1543">State</text><line style="stroke:#181818;stroke-width:0.5;" x1="1282.31" x2="1419.685" y1="69" y2="69"/><text fill="#000000" font-family="Arial" font-size="12" lengthAdjust="spacing" textLength="30.791" x="1287.31" y="84.1387">PRE1</text><text fill="#000000" font-family="Arial" font-size="12" lengthAdjust="spacing" textLength="39.2637" x="1287.31" y="98.1074">POST1</text><text fill="#000000" font-family="Arial" font-size="12" lengthAdjust="spacing" textLength="39.2637" x="1287.31" y="112.0762">POST2</text><line style="stroke:#181818;stroke-width:0.5;" x1="1282.31" x2="1419.685" y1="118.9063" y2="118.9063"/><g data-visibility-modifier="PUBLIC_METHOD"><ellipse cx="1292.31" cy="131.3906" fill="#84BE84" rx="3" ry="3" style="stroke:#038048;stroke-width:1;"/></g><text fill="#000000" font-family="Arial" font-size="12" lengthAdjust="spacing" textLength="114.375" x="1300.31" y="134.0449">transitionTo(Post1)</text><g data-visibility-modifier="PUBLIC_METHOD"><ellipse cx="1292.31" cy="145.3594" fill="#84BE84" rx="3" ry="3" style="stroke:#038048;stroke-width:1;"/></g><text fill="#000000" font-family="Arial" font-size="12" lengthAdjust="spacing" textLength="114.375" x="1300.31" y="148.0137">transitionTo(Post2)</text></g><g class="entity" data-qualified-name="Domain Model.GMN15" data-source-line="60" id="ent0016"><path d="M1455.75,77.95 L1455.75,92.92 L1421.05,96.92 L1455.75,100.92 L1455.75,115.8875 A0,0 0 0 0 1455.75,115.8875 L1734.2461,115.8875 A0,0 0 0 0 1734.2461,115.8875 L1734.2461,87.95 L1724.2461,77.95 L1455.75,77.95 A0,0 0 0 0 1455.75,77.95" fill="#F8D7DA" style="stroke:#181818;stroke-width:0.5;"/><path d="M1724.2461,77.95 L1724.2461,87.95 L1734.2461,87.95 L1724.2461,77.95" fill="#F8D7DA" style="stroke:#181818;stroke-width:0.5;"/><text fill="#000000" font-family="Arial" font-size="12" font-weight="700" lengthAdjust="spacing" textLength="150.3984" x="1461.75" y="94.0887">Behavioral constraint:</text><text fill="#000000" font-family="Arial" font-size="12" lengthAdjust="spacing" textLength="257.4961" x="1461.75" y="108.0574">Operation must change state (pre != post)</text></g><!--class Flight_Assignment_API--><g class="entity" data-qualified-name="Infrastructure . Ports.Flight_Assignment_API" data-source-line="66" id="ent0019"><rect fill="#E8F0FE" height="46" rx="2.5" ry="2.5" style="stroke:#181818;stroke-width:0.5;" width="165.1348" x="1887.43" y="73.92"/><ellipse cx="1901.43" cy="88.92" fill="#B4A7E5" rx="10" ry="10" style="stroke:#181818;stroke-width:1;"/><path d="M1898.4456,86.2013 L1898.4456,84.67 L1903.6488,84.67 L1903.6488,86.2013 L1901.9144,86.2013 L1901.9144,91.8888 L1903.6488,91.8888 L1903.6488,93.42 L1898.4456,93.42 L1898.4456,91.8888 L1900.18,91.8888 L1900.18,86.2013 L1898.4456,86.2013 Z " fill="#000000"/><text fill="#000000" font-family="Arial" font-size="12" font-style="italic" lengthAdjust="spacing" textLength="135.1348" x="1914.43" y="93.0743">Flight_Assignment_API</text><line style="stroke:#181818;stroke-width:0.5;" x1="1888.43" x2="2051.5648" y1="103.92" y2="103.92"/><line style="stroke:#181818;stroke-width:0.5;" x1="1888.43" x2="2051.5648" y1="111.92" y2="111.92"/></g><g class="entity" data-qualified-name="Infrastructure . Ports.GMN20" data-source-line="69" id="ent0021"><path d="M2087.55,84.94 L2087.55,92.92 L2052.81,96.92 L2087.55,100.92 L2087.55,108.9088 A0,0 0 0 0 2087.55,108.9088 L2252.4445,108.9088 A0,0 0 0 0 2252.4445,108.9088 L2252.4445,94.94 L2242.4445,84.94 L2087.55,84.94 A0,0 0 0 0 2087.55,84.94" fill="#F8D7DA" style="stroke:#181818;stroke-width:0.5;"/><path d="M2242.4445,84.94 L2242.4445,94.94 L2252.4445,94.94 L2242.4445,84.94" fill="#F8D7DA" style="stroke:#181818;stroke-width:0.5;"/><text fill="#000000" font-family="Arial" font-size="12" lengthAdjust="spacing" textLength="143.8945" x="2093.55" y="101.0787">Requires authentication</text></g><!--class Flight_Assignment_Database--><g class="entity" data-qualified-name="Infrastructure . Ports.Flight_Assignment_Database" data-source-line="72" id="ent0023"><rect fill="#E8F0FE" height="46" rx="2.5" ry="2.5" style="stroke:#181818;stroke-width:0.5;" width="203.4082" x="2287.3" y="73.92"/><ellipse cx="2301.3" cy="88.92" fill="#B4A7E5" rx="10" ry="10" style="stroke:#181818;stroke-width:1;"/><path d="M2298.3156,86.2013 L2298.3156,84.67 L2303.5188,84.67 L2303.5188,86.2013 L2301.7844,86.2013 L2301.7844,91.8888 L2303.5188,91.8888 L2303.5188,93.42 L2298.3156,93.42 L2298.3156,91.8888 L2300.05,91.8888 L2300.05,86.2013 L2298.3156,86.2013 Z " fill="#000000"/><text fill="#000000" font-family="Arial" font-size="12" font-style="italic" lengthAdjust="spacing" textLength="173.4082" x="2314.3" y="93.0743">Flight_Assignment_Database</text><line style="stroke:#181818;stroke-width:0.5;" x1="2288.3" x2="2489.7082" y1="103.92" y2="103.92"/><line style="stroke:#181818;stroke-width:0.5;" x1="2288.3" x2="2489.7082" y1="111.92" y2="111.92"/></g><!--link FlightAssignment to Resource--><g class="link" data-entity-1="ent0002" data-entity-2="ent0005" data-link-type="dependency" data-source-line="77" id="lnk24"><path codeLine="77" d="M194.97,148.72 C200.63,151.03 206.34,153.1 212,154.84 C434.58,223.2 1135.3443,257.8734 1398.6643,268.7634" fill="none" id="FlightAssignment-to-Resource" style="stroke:#181818;stroke-width:1;"/><polygon fill="#181818" points="1403.66,268.97,1394.833,264.6015,1398.6643,268.7634,1394.5024,272.5947,1403.66,268.97" style="stroke:#181818;stroke-width:1;stroke-linejoin:miter;stroke-miterlimit:10;"/><text fill="#000000" font-family="Arial" font-size="12" lengthAdjust="spacing" textLength="27.4922" x="453" y="196.9787">uses</text><text fill="#000000" font-family="Arial" font-size="12" lengthAdjust="spacing" textLength="7.6348" x="202.6858" y="150.7931">1</text><text fill="#000000" font-family="Arial" font-size="12" lengthAdjust="spacing" textLength="7.6348" x="1388.0871" y="266.2111">1</text></g><!--link FlightAssignment to Sector--><g class="link" data-entity-1="ent0002" data-entity-2="ent0008" data-link-type="dependency" data-source-line="78" id="lnk25"><path codeLine="78" d="M109,155.18 C109,187.66 109,221.46 109,245.37" fill="none" id="FlightAssignment-to-Sector" style="stroke:#181818;stroke-width:1;"/><polygon fill="#181818" points="109,250.37,113,241.37,109,245.37,105,241.37,109,250.37" style="stroke:#181818;stroke-width:1;stroke-linejoin:miter;stroke-miterlimit:10;"/><text fill="#000000" font-family="Arial" font-size="12" lengthAdjust="spacing" textLength="63.0117" x="110" y="196.9787">belongs to</text><text fill="#000000" font-family="Arial" font-size="12" lengthAdjust="spacing" textLength="7.6348" x="101.6315" y="173.8623">1</text><text fill="#000000" font-family="Arial" font-size="12" lengthAdjust="spacing" textLength="7.6348" x="101.0654" y="239.859">1</text></g><!--link Actor to Resource--><g class="link" data-entity-1="ent0009" data-entity-2="ent0005" data-link-type="dependency" data-source-line="79" id="lnk26"><path codeLine="79" d="M1786,120.18 C1777.49,132.03 1765.65,145.96 1752,154.84 C1712.03,180.85 1692.65,165.65 1649,184.84 C1621.11,197.11 1596.2898,211.1737 1571.5898,226.7437" fill="none" id="Actor-to-Resource" style="stroke:#181818;stroke-width:1;"/><polygon fill="#181818" points="1567.36,229.41,1577.1066,227.9945,1571.5898,226.7437,1572.8405,221.2269,1567.36,229.41" style="stroke:#181818;stroke-width:1;stroke-linejoin:miter;stroke-miterlimit:10;"/><text fill="#000000" font-family="Arial" font-size="12" lengthAdjust="spacing" textLength="31.0137" x="1650" y="196.9787">owns</text><text fill="#000000" font-family="Arial" font-size="12" lengthAdjust="spacing" textLength="7.6348" x="1783.3898" y="139.0688">1</text><text fill="#000000" font-family="Arial" font-size="12" lengthAdjust="spacing" textLength="6" x="1571.7345" y="218.8864">*</text></g><!--link Actor to Resource--><g class="link" data-entity-1="ent0009" data-entity-2="ent0005" data-link-type="dependency" data-source-line="80" id="lnk27"><path codeLine="80" d="M1783.5,120.25 C1774.78,131.29 1763.51,144.45 1752,154.84 C1725.65,178.63 1717.33,183.14 1686,199.84 C1660.32,213.54 1636.1314,224.3607 1609.1214,235.1807" fill="none" id="Actor-to-Resource-1" style="stroke:#181818;stroke-width:1;"/><polygon fill="#181818" points="1604.48,237.04,1614.322,237.4064,1609.1214,235.1807,1611.3471,229.9801,1604.48,237.04" style="stroke:#181818;stroke-width:1;stroke-linejoin:miter;stroke-miterlimit:10;"/><text fill="#000000" font-family="Arial" font-size="12" lengthAdjust="spacing" textLength="54.0703" x="1713" y="196.9787">accesses</text><text fill="#000000" font-family="Arial" font-size="12" lengthAdjust="spacing" textLength="6" x="1772.5022" y="139.1567">*</text><text fill="#000000" font-family="Arial" font-size="12" lengthAdjust="spacing" textLength="6" x="1612.0794" y="232.0378">*</text></g><?plantuml-src ZLJ1Jjj04BtdAwRqq40RjQ6LYYn0CjYHSW2YX8hUqCIU92lMk-dk6ffMIFs8Vc6_fEEDxJY9HIk4ijbzUJDltipO1w6MQ3239IOFEAU9Mqa2Gub3DPVKiJLWoe2vqRbABxNK1buFukAlWKWaMdkn2ujF1X-sO48vCZDCQ0yw60m-NaODAAaysqD5d-8e2XiefLqBrqdqUGkLqWnpwGPQkMlC248ZKBQ_JyGFWlvnfrCM1GuYdQ5GSALJaWVmimDhiJ2GOhvmeRLYhZ9IpZy1zBY2LkSceG36vQbyc0c5aldJ02wqbkMjvO9h4y34V_BbMqWCeQCkrjmHEZpqJvRSeABfpb1QAkwV-Rye1PWY9z2plUo2m3IJEPsU3zKZSXsKiy7f--bvcStjasOcrQjpXKqM5X9K70Ri0Ws1Mn3OefncM-RB55nA_wErxFzZ31sWMe4J6RrZQd0SeScfaoHVhZO_jv8fcTpawWbNO4N6xg8YdLkvOavIgIzNfpQpSgesKJyfObF2qfFY2fE4EEXKKc6ME_LlvzwLERcmVkMtRYLWcBRRKyKB0XzepvEc9Hu1A5cABzycZrOfwpxoGfutj-7sPJ5TC2AJ2MRIgfGzZiF87-x6mzlOd-AlyUMNyXn6LyFhLZaRfah928tZ8MCNKgvZhMPCcCBf6TmPuTZBwclydPAyk0ZJh6WGPxIQatKx0dtM4yUpKIOy6iVzzU5cShiv7NjJd45bXUEaRdLtfAth7xRV7xTxv0DLUYveWOz26vQKQCK9yavek7Ip98C59MIvTP0iU8Lo7_fKkqjkxLTdiEHGXqr5puqjCrGpWqoR9ovd-9zVls6aZRFhZLFlpNAkxpU3VH-EXgMlxJjW1rlQy2qNtAE0EG-DSYBnoU-K-wMenKQQegKoD4jvmwpIqzY5MDhEtduyw1z0htVkF-jv2o2tz0zmsT41J4boNrXmkhFkvnfrj4N94sChn54hOZr3PFy2?></g></svg>