<svg xmlns="http://www.w3.org/2000/svg" xmlns:xlink="http://www.w3.org/1999/xlink" contentStyleType="text/css" data-diagram-type="CLASS" height="701px" preserveAspectRatio="none" style="width:1596px;height:701px;background:#FEFEFE;" version="1.1" viewBox="0 0 1596 701" width="1596px" zoomAndPan="magnify"><?plantuml 1.2026.7beta1?><defs/><g><rect fill="#FEFEFE" height="701" style="stroke:none;stroke-width:1;" width="1596" x="0" y="0"/><!--cluster Domain Model--><g class="cluster" data-qualified-name="Domain Model" data-source-line="9" id="ent0001"><path d="M8.5,6 L106.168,6 A3.75,3.75 0 0 1 108.668,8.5 L115.668,25.9688 L1012.5,25.9688 A2.5,2.5 0 0 1 1015,28.4688 L1015,683.7 A2.5,2.5 0 0 1 1012.5,686.2 L8.5,686.2 A2.5,2.5 0 0 1 6,683.7 L6,8.5 A2.5,2.5 0 0 1 8.5,6" fill="#DDDDDD" style="stroke:#000000;stroke-width:1.5;"/><line style="stroke:#000000;stroke-width:1.5;" x1="6" x2="115.668" y1="25.9688" y2="25.9688"/><text fill="#000000" font-family="Arial" font-size="12" font-weight="700" lengthAdjust="spacing" textLength="96.668" x="10" y="19.1387">Domain Model</text></g><!--cluster Infrastructure ? Ports--><g class="cluster" data-qualified-name="Infrastructure . Ports" data-source-line="59" id="ent0008"><path d="M1041.5,539.34 L1193.7246,539.34 A3.75,3.75 0 0 1 1196.2246,541.84 L1203.2246,559.3088 L1578.5,559.3088 A2.5,2.5 0 0 1 1581,561.8088 L1581,680.68 A2.5,2.5 0 0 1 1578.5,683.18 L1041.5,683.18 A2.5,2.5 0 0 1 1039,680.68 L1039,541.84 A2.5,2.5 0 0 1 1041.5,539.34" fill="#EEEEEE" style="stroke:#000000;stroke-width:1.5;"/><line style="stroke:#000000;stroke-width:1.5;" x1="1039" x2="1203.2246" y1="559.3088" y2="559.3088"/><text fill="#000000" font-family="Arial" font-size="12" font-weight="700" lengthAdjust="spacing" textLength="151.2246" x="1043" y="552.4787">Infrastructure &#8212; Ports</text></g><!--class Slot--><g class="entity" data-qualified-name="Domain Model.Slot" data-source-line="10" id="ent0002"><rect fill="#F0F0F0" height="213.625" rx="2.5" ry="2.5" style="stroke:#181818;stroke-width:0.5;" width="350.125" x="433.94" y="38"/><ellipse cx="593.5035" cy="53" fill="#ADD1B2" rx="10" ry="10" style="stroke:#181818;stroke-width:1;"/><path d="M595.3316,57.25 Q594.9254,57.4531 594.4722,57.5625 Q594.0191,57.6719 593.5347,57.6719 Q591.7535,57.6719 590.816,56.5156 Q589.8941,55.3438 589.8941,53.1406 Q589.8941,50.9219 590.816,49.7656 Q591.7535,48.5938 593.5347,48.5938 Q594.0191,48.5938 594.4722,48.7031 Q594.941,48.7969 595.3316,49.0156 L595.3316,50.9375 Q594.8941,50.5313 594.4722,50.3438 Q594.0504,50.1406 593.6129,50.1406 Q592.6597,50.1406 592.1754,50.9063 Q591.691,51.6563 591.691,53.1406 Q591.691,54.6094 592.1754,55.3594 Q592.6597,56.1094 593.6129,56.1094 Q594.0504,56.1094 594.4722,55.9219 Q594.8941,55.7344 595.3316,55.3281 L595.3316,57.25 Z " fill="#000000"/><text fill="#000000" font-family="Arial" font-size="12" lengthAdjust="spacing" textLength="22.998" x="612.5035" y="57.1543">Slot</text><line style="stroke:#181818;stroke-width:0.5;" x1="434.94" x2="783.065" y1="68" y2="68"/><g data-visibility-modifier="PUBLIC_FIELD"><ellipse cx="444.94" cy="80.4844" fill="none" rx="3" ry="3" style="stroke:#038048;stroke-width:1;"/></g><text fill="#000000" font-family="Arial" font-size="12" lengthAdjust="spacing" textLength="123.9609" x="452.94" y="83.1387">startTime: DateTime</text><g data-visibility-modifier="PUBLIC_FIELD"><ellipse cx="444.94" cy="94.4531" fill="none" rx="3" ry="3" style="stroke:#038048;stroke-width:1;"/></g><text fill="#000000" font-family="Arial" font-size="12" lengthAdjust="spacing" textLength="118.6172" x="452.94" y="97.1074">endTime: DateTime</text><g data-visibility-modifier="PUBLIC_FIELD"><ellipse cx="444.94" cy="108.4219" fill="none" rx="3" ry="3" style="stroke:#038048;stroke-width:1;"/></g><text fill="#000000" font-family="Arial" font-size="12" lengthAdjust="spacing" textLength="188.1797" x="452.94" y="111.0762">duration: Duration = 5 minutes</text><g data-visibility-modifier="PUBLIC_FIELD"><ellipse cx="444.94" cy="122.3906" fill="none" rx="3" ry="3" style="stroke:#038048;stroke-width:1;"/></g><text fill="#000000" font-family="Arial" font-size="12" lengthAdjust="spacing" textLength="189.7266" x="452.94" y="125.0449">gapAfter: Duration = 3 minutes</text><text fill="#000000" font-family="Arial" font-size="12" lengthAdjust="spacing" textLength="265.5703" x="452.94" y="139.0137">constraint "Duration must be exactly 5 min"</text><text fill="#000000" font-family="Arial" font-size="12" lengthAdjust="spacing" textLength="325.125" x="452.94" y="152.9824">constraint "Gap between slots must be exactly 3 min"</text><text fill="#000000" font-family="Arial" font-size="12" lengthAdjust="spacing" textLength="248.3496" x="452.94" y="166.9512">constraint "No overlapping slots allowed"</text><line style="stroke:#181818;stroke-width:0.5;" x1="434.94" x2="783.065" y1="173.7813" y2="173.7813"/><g data-visibility-modifier="PUBLIC_METHOD"><ellipse cx="444.94" cy="186.2656" fill="#84BE84" rx="3" ry="3" style="stroke:#038048;stroke-width:1;"/></g><text fill="#000000" font-family="Arial" font-size="12" lengthAdjust="spacing" textLength="283.3242" x="452.94" y="188.9199">checkOverlap(newSlot, existingSlots) : boolean</text><g data-visibility-modifier="PUBLIC_METHOD"><ellipse cx="444.94" cy="200.2344" fill="#84BE84" rx="3" ry="3" style="stroke:#038048;stroke-width:1;"/></g><text fill="#000000" font-family="Arial" font-size="12" lengthAdjust="spacing" textLength="313.2305" x="452.94" y="202.8887">checkAdjacentGap(newSlot, existingSlots) : boolean</text><g data-visibility-modifier="PUBLIC_METHOD"><ellipse cx="444.94" cy="221.1875" fill="#84BE84" rx="3" ry="3" style="stroke:#038048;stroke-width:1;"/></g><text fill="#000000" font-family="Arial" font-size="12" lengthAdjust="spacing" textLength="164.5078" x="452.94" y="216.8574">create(startTime, endTime,</text><text fill="#000000" font-family="Arial" font-size="12" lengthAdjust="spacing" textLength="150.2285" x="452.94" y="230.8262">duration=5, gapAfter=3)</text><g data-visibility-modifier="PUBLIC_METHOD"><ellipse cx="444.94" cy="242.1406" fill="#84BE84" rx="3" ry="3" style="stroke:#038048;stroke-width:1;"/></g><text fill="#000000" font-family="Arial" font-size="12" lengthAdjust="spacing" textLength="211.7695" x="452.94" y="244.7949">verifyAllocations(allSlots) : boolean</text></g><!--class Actor--><g class="entity" data-qualified-name="Domain Model.Actor" data-source-line="24" id="ent0003"><rect fill="#F0F0F0" height="73.9375" rx="2.5" ry="2.5" style="stroke:#181818;stroke-width:0.5;" width="179.5762" x="819.21" y="107.84"/><ellipse cx="889.1045" cy="122.84" fill="#ADD1B2" rx="10" ry="10" style="stroke:#181818;stroke-width:1;"/><path d="M890.9327,127.09 Q890.5264,127.2931 890.0733,127.4025 Q889.6202,127.5119 889.1358,127.5119 Q887.3545,127.5119 886.417,126.3556 Q885.4952,125.1838 885.4952,122.9806 Q885.4952,120.7619 886.417,119.6056 Q887.3545,118.4338 889.1358,118.4338 Q889.6202,118.4338 890.0733,118.5431 Q890.542,118.6369 890.9327,118.8556 L890.9327,120.7775 Q890.4952,120.3713 890.0733,120.1838 Q889.6514,119.9806 889.2139,119.9806 Q888.2608,119.9806 887.7764,120.7463 Q887.292,121.4963 887.292,122.9806 Q887.292,124.4494 887.7764,125.1994 Q888.2608,125.9494 889.2139,125.9494 Q889.6514,125.9494 890.0733,125.7619 Q890.4952,125.5744 890.9327,125.1681 L890.9327,127.09 Z " fill="#000000"/><text fill="#000000" font-family="Arial" font-size="12" lengthAdjust="spacing" textLength="31.7871" x="908.1045" y="126.9943">Actor</text><line style="stroke:#181818;stroke-width:0.5;" x1="820.21" x2="997.7862" y1="137.84" y2="137.84"/><g data-visibility-modifier="PUBLIC_FIELD"><ellipse cx="830.21" cy="150.3244" fill="none" rx="3" ry="3" style="stroke:#038048;stroke-width:1;"/></g><text fill="#000000" font-family="Arial" font-size="12" lengthAdjust="spacing" textLength="77.7012" x="838.21" y="152.9787">name: String</text><g data-visibility-modifier="PUBLIC_FIELD"><ellipse cx="830.21" cy="164.2931" fill="none" rx="3" ry="3" style="stroke:#038048;stroke-width:1;"/></g><text fill="#000000" font-family="Arial" font-size="12" lengthAdjust="spacing" textLength="154.5762" x="838.21" y="166.9474">permissions: Permission[]</text><line style="stroke:#181818;stroke-width:0.5;" x1="820.21" x2="997.7862" y1="173.7775" y2="173.7775"/></g><!--class Resource--><g class="entity" data-qualified-name="Domain Model.Resource" data-source-line="29" id="ent0004"><rect fill="#F0F0F0" height="101.875" rx="2.5" ry="2.5" style="stroke:#181818;stroke-width:0.5;" width="295.1758" x="238.41" y="568.32"/><ellipse cx="354.0809" cy="583.32" fill="#ADD1B2" rx="10" ry="10" style="stroke:#181818;stroke-width:1;"/><path d="M355.909,587.57 Q355.5028,587.7731 355.0496,587.8825 Q354.5965,587.9919 354.1121,587.9919 Q352.3309,587.9919 351.3934,586.8356 Q350.4715,585.6638 350.4715,583.4606 Q350.4715,581.2419 351.3934,580.0856 Q352.3309,578.9138 354.1121,578.9138 Q354.5965,578.9138 355.0496,579.0231 Q355.5184,579.1169 355.909,579.3356 L355.909,581.2575 Q355.4715,580.8513 355.0496,580.6638 Q354.6278,580.4606 354.1903,580.4606 Q353.2371,580.4606 352.7528,581.2263 Q352.2684,581.9763 352.2684,583.4606 Q352.2684,584.9294 352.7528,585.6794 Q353.2371,586.4294 354.1903,586.4294 Q354.6278,586.4294 355.0496,586.2419 Q355.4715,586.0544 355.909,585.6481 L355.909,587.57 Z " fill="#000000"/><text fill="#000000" font-family="Arial" font-size="12" lengthAdjust="spacing" textLength="55.834" x="373.0809" y="587.4743">Resource</text><line style="stroke:#181818;stroke-width:0.5;" x1="239.41" x2="532.5858" y1="598.32" y2="598.32"/><g data-visibility-modifier="PUBLIC_FIELD"><ellipse cx="249.41" cy="610.8044" fill="none" rx="3" ry="3" style="stroke:#038048;stroke-width:1;"/></g><text fill="#000000" font-family="Arial" font-size="12" lengthAdjust="spacing" textLength="76.7227" x="257.41" y="613.4587">owner: Actor</text><g data-visibility-modifier="PUBLIC_FIELD"><ellipse cx="249.41" cy="624.7731" fill="none" rx="3" ry="3" style="stroke:#038048;stroke-width:1;"/></g><text fill="#000000" font-family="Arial" font-size="12" lengthAdjust="spacing" textLength="111.1113" x="257.41" y="627.4274">accessible: Actor[]</text><text fill="#000000" font-family="Arial" font-size="12" lengthAdjust="spacing" textLength="270.1758" x="257.41" y="641.3962">constraint "Owner must be in accessible set"</text><line style="stroke:#181818;stroke-width:0.5;" x1="239.41" x2="532.5858" y1="648.2263" y2="648.2263"/><g data-visibility-modifier="PUBLIC_METHOD"><ellipse cx="249.41" cy="660.7106" fill="#84BE84" rx="3" ry="3" style="stroke:#038048;stroke-width:1;"/></g><text fill="#000000" font-family="Arial" font-size="12" lengthAdjust="spacing" textLength="172.4883" x="257.41" y="663.3649">isAccessible(actor) : boolean</text></g><!--class Operation--><g class="entity" data-qualified-name="Domain Model.Operation" data-source-line="36" id="ent0005"><rect fill="#F0F0F0" height="73.9375" rx="2.5" ry="2.5" style="stroke:#181818;stroke-width:0.5;" width="193.9102" x="372.04" y="365.51"/><ellipse cx="435.1357" cy="380.51" fill="#ADD1B2" rx="10" ry="10" style="stroke:#181818;stroke-width:1;"/><path d="M436.9638,384.76 Q436.5576,384.9631 436.1045,385.0725 Q435.6513,385.1819 435.167,385.1819 Q433.3857,385.1819 432.4482,384.0256 Q431.5263,382.8538 431.5263,380.6506 Q431.5263,378.4319 432.4482,377.2756 Q433.3857,376.1038 435.167,376.1038 Q435.6513,376.1038 436.1045,376.2131 Q436.5732,376.3069 436.9638,376.5256 L436.9638,378.4475 Q436.5263,378.0413 436.1045,377.8538 Q435.6826,377.6506 435.2451,377.6506 Q434.292,377.6506 433.8076,378.4163 Q433.3232,379.1663 433.3232,380.6506 Q433.3232,382.1194 433.8076,382.8694 Q434.292,383.6194 435.2451,383.6194 Q435.6826,383.6194 436.1045,383.4319 Q436.5263,383.2444 436.9638,382.8381 L436.9638,384.76 Z " fill="#000000"/><text fill="#000000" font-family="Arial" font-size="12" lengthAdjust="spacing" textLength="59.7188" x="454.1357" y="384.6643">Operation</text><line style="stroke:#181818;stroke-width:0.5;" x1="373.04" x2="564.9502" y1="395.51" y2="395.51"/><text fill="#000000" font-family="Arial" font-size="12" lengthAdjust="spacing" textLength="181.9102" x="378.04" y="410.6487">// attributes and methods TBD</text><line style="stroke:#181818;stroke-width:0.5;" x1="373.04" x2="564.9502" y1="417.4788" y2="417.4788"/><g data-visibility-modifier="PUBLIC_METHOD"><ellipse cx="383.04" cy="429.9631" fill="#84BE84" rx="3" ry="3" style="stroke:#038048;stroke-width:1;"/></g><text fill="#000000" font-family="Arial" font-size="12" lengthAdjust="spacing" textLength="167.9707" x="391.04" y="432.6174">create(actor, resource, slot)</text></g><!--class Permission--><g class="entity" data-qualified-name="Domain Model.Permission" data-source-line="41" id="ent0006"><rect fill="#F0F0F0" height="151.7188" rx="2.5" ry="2.5" style="stroke:#181818;stroke-width:0.5;" width="398.7656" x="600.62" y="326.62"/><ellipse cx="763.3221" cy="345.5888" fill="#EB937F" rx="10" ry="10" style="stroke:#181818;stroke-width:1;"/><path d="M765.7596,350.0888 L760.3065,350.0888 L760.3065,341.3388 L765.7596,341.3388 L765.7596,342.87 L762.0409,342.87 L762.0409,344.745 L765.4003,344.745 L765.4003,346.2763 L762.0409,346.2763 L762.0409,348.5575 L765.7596,348.5575 L765.7596,350.0888 Z " fill="#000000"/><text fill="#000000" font-family="Arial" font-size="12" font-style="italic" lengthAdjust="spacing" textLength="48.9668" x="790.5194" y="342.7587">&#171;enum&#187;</text><text fill="#000000" font-family="Arial" font-size="12" lengthAdjust="spacing" textLength="65.3613" x="782.3221" y="356.7274">Permission</text><line style="stroke:#181818;stroke-width:0.5;" x1="601.62" x2="998.3856" y1="364.5575" y2="364.5575"/><text fill="#000000" font-family="Arial" font-size="12" lengthAdjust="spacing" textLength="30.6914" x="606.62" y="379.6962">Read</text><text fill="#000000" font-family="Arial" font-size="12" lengthAdjust="spacing" textLength="32.2207" x="606.62" y="393.6649">Write</text><text fill="#000000" font-family="Arial" font-size="12" lengthAdjust="spacing" textLength="48.3574" x="606.62" y="407.6337">Execute</text><text fill="#000000" font-family="Arial" font-size="12" lengthAdjust="spacing" textLength="38.4551" x="606.62" y="421.6024">Admin</text><text fill="#000000" font-family="Arial" font-size="12" lengthAdjust="spacing" textLength="386.7656" x="606.62" y="435.5712">note "Partial order: Write &#8839; Read, Execute &#8839; Read, Admin &#8839; all"</text><line style="stroke:#181818;stroke-width:0.5;" x1="601.62" x2="998.3856" y1="442.4013" y2="442.4013"/><g data-visibility-modifier="PUBLIC_METHOD"><ellipse cx="611.62" cy="461.87" fill="#84BE84" rx="3" ry="3" style="stroke:#038048;stroke-width:1;"/></g><text fill="#000000" font-family="Arial" font-size="12" lengthAdjust="spacing" textLength="139.9219" x="619.62" y="457.5399">checkPermission(actor,</text><text fill="#000000" font-family="Arial" font-size="12" lengthAdjust="spacing" textLength="169.998" x="619.62" y="471.5087">Permission::Write) : boolean</text></g><!--class State--><g class="entity" data-qualified-name="Domain Model.State" data-source-line="50" id="ent0007"><rect fill="#F0F0F0" height="123.7813" rx="2.5" ry="2.5" style="stroke:#181818;stroke-width:0.5;" width="173.7578" x="22.12" y="82.92"/><ellipse cx="82.5155" cy="101.8888" fill="#EB937F" rx="10" ry="10" style="stroke:#181818;stroke-width:1;"/><path d="M84.953,106.3888 L79.4999,106.3888 L79.4999,97.6388 L84.953,97.6388 L84.953,99.17 L81.2343,99.17 L81.2343,101.045 L84.5936,101.045 L84.5936,102.5763 L81.2343,102.5763 L81.2343,104.8575 L84.953,104.8575 L84.953,106.3888 Z " fill="#000000"/><text fill="#000000" font-family="Arial" font-size="12" font-style="italic" lengthAdjust="spacing" textLength="48.9668" x="99.5155" y="99.0587">&#171;enum&#187;</text><text fill="#000000" font-family="Arial" font-size="12" lengthAdjust="spacing" textLength="31.7637" x="108.1171" y="113.0274">State</text><line style="stroke:#181818;stroke-width:0.5;" x1="23.12" x2="194.8778" y1="120.8575" y2="120.8575"/><text fill="#000000" font-family="Arial" font-size="12" lengthAdjust="spacing" textLength="41.4258" x="28.12" y="135.9962">PreIdle</text><text fill="#000000" font-family="Arial" font-size="12" lengthAdjust="spacing" textLength="33.1699" x="28.12" y="149.9649">Post1</text><text fill="#000000" font-family="Arial" font-size="12" lengthAdjust="spacing" textLength="33.1699" x="28.12" y="163.9337">Post2</text><line style="stroke:#181818;stroke-width:0.5;" x1="23.12" x2="194.8778" y1="170.7638" y2="170.7638"/><g data-visibility-modifier="PUBLIC_METHOD"><ellipse cx="33.12" cy="183.2481" fill="#84BE84" rx="3" ry="3" style="stroke:#038048;stroke-width:1;"/></g><text fill="#000000" font-family="Arial" font-size="12" lengthAdjust="spacing" textLength="148.7578" x="41.12" y="185.9024">transition(PreIdle, Post1)</text><g data-visibility-modifier="PUBLIC_METHOD"><ellipse cx="33.12" cy="197.2169" fill="#84BE84" rx="3" ry="3" style="stroke:#038048;stroke-width:1;"/></g><text fill="#000000" font-family="Arial" font-size="12" lengthAdjust="spacing" textLength="140.502" x="41.12" y="199.8712">transition(Post1, Post2)</text></g><!--class SchedulingAPI--><g class="entity" data-qualified-name="Infrastructure . Ports.SchedulingAPI" data-source-line="60" id="ent0009"><rect fill="#F0F0F0" height="67.9063" rx="2.5" ry="2.5" style="stroke:#181818;stroke-width:0.5;" width="197.1563" x="1055.42" y="585.31"/><ellipse cx="1107.3477" cy="604.2788" fill="#B4A7E5" rx="10" ry="10" style="stroke:#181818;stroke-width:1;"/><path d="M1104.3634,601.56 L1104.3634,600.0288 L1109.5665,600.0288 L1109.5665,601.56 L1107.8321,601.56 L1107.8321,607.2475 L1109.5665,607.2475 L1109.5665,608.7788 L1104.3634,608.7788 L1104.3634,607.2475 L1106.0977,607.2475 L1106.0977,601.56 L1104.3634,601.56 Z " fill="#000000"/><text fill="#000000" font-family="Arial" font-size="12" font-style="italic" lengthAdjust="spacing" textLength="68.2031" x="1134.8966" y="601.4487">&#171;interface&#187;</text><text fill="#000000" font-family="Arial" font-size="12" font-style="italic" lengthAdjust="spacing" textLength="85.3008" x="1126.3477" y="615.4174">SchedulingAPI</text><line style="stroke:#181818;stroke-width:0.5;" x1="1056.42" x2="1251.5763" y1="623.2475" y2="623.2475"/><line style="stroke:#181818;stroke-width:0.5;" x1="1056.42" x2="1251.5763" y1="631.2475" y2="631.2475"/><text fill="#000000" font-family="Arial" font-size="12" lengthAdjust="spacing" textLength="185.1563" x="1061.42" y="646.3862">// createSlot, etc. (details TBD)</text></g><!--class SchedulingDatabase--><g class="entity" data-qualified-name="Infrastructure . Ports.SchedulingDatabase" data-source-line="64" id="ent0010"><rect fill="#F0F0F0" height="95.8438" rx="2.5" ry="2.5" style="stroke:#181818;stroke-width:0.5;" width="277.5332" x="1287.23" y="571.34"/><ellipse cx="1360.2095" cy="590.3088" fill="#B4A7E5" rx="10" ry="10" style="stroke:#181818;stroke-width:1;"/><path d="M1357.2251,587.59 L1357.2251,586.0588 L1362.4282,586.0588 L1362.4282,587.59 L1360.6939,587.59 L1360.6939,593.2775 L1362.4282,593.2775 L1362.4282,594.8088 L1357.2251,594.8088 L1357.2251,593.2775 L1358.9595,593.2775 L1358.9595,587.59 L1357.2251,587.59 Z " fill="#000000"/><text fill="#000000" font-family="Arial" font-size="12" font-style="italic" lengthAdjust="spacing" textLength="68.2031" x="1406.895" y="587.4787">&#171;interface&#187;</text><text fill="#000000" font-family="Arial" font-size="12" font-style="italic" lengthAdjust="spacing" textLength="123.5742" x="1379.2095" y="601.4474">SchedulingDatabase</text><line style="stroke:#181818;stroke-width:0.5;" x1="1288.23" x2="1563.7632" y1="609.2775" y2="609.2775"/><line style="stroke:#181818;stroke-width:0.5;" x1="1288.23" x2="1563.7632" y1="617.2775" y2="617.2775"/><text fill="#000000" font-family="Arial" font-size="12" lengthAdjust="spacing" textLength="252.5332" x="1306.23" y="632.4162">// insertSlot, querySlots, etc. (details TBD)</text><g data-visibility-modifier="PUBLIC_METHOD"><ellipse cx="1298.23" cy="643.7306" fill="#84BE84" rx="3" ry="3" style="stroke:#038048;stroke-width:1;"/></g><text fill="#000000" font-family="Arial" font-size="12" lengthAdjust="spacing" textLength="234.9434" x="1306.23" y="646.3849">querySlots(startTime, endTime) : Slot[]</text><g data-visibility-modifier="PUBLIC_METHOD"><ellipse cx="1298.23" cy="657.6994" fill="#84BE84" rx="3" ry="3" style="stroke:#038048;stroke-width:1;"/></g><text fill="#000000" font-family="Arial" font-size="12" lengthAdjust="spacing" textLength="131.3086" x="1306.23" y="660.3537">querySlots(all) : Slot[]</text></g><!--link Actor to Operation--><g class="link" data-entity-1="ent0003" data-entity-2="ent0005" data-link-type="association" data-source-line="73" id="lnk11"><path codeLine="73" d="M879.75,182.18 C859.89,204.84 831.87,233.11 802,251.62 C714.55,305.83 675.39,281.36 583,326.62 C560.89,337.45 537.93,351.84 518.46,365.1" fill="none" id="Actor-Operation" style="stroke:#181818;stroke-width:1;"/><text fill="#000000" font-family="Arial" font-size="12" lengthAdjust="spacing" textLength="48.0059" x="738" y="293.7587">initiates</text><text fill="#000000" font-family="Arial" font-size="12" lengthAdjust="spacing" textLength="7.6348" x="867.176" y="200.9423">1</text><text fill="#000000" font-family="Arial" font-size="12" lengthAdjust="spacing" textLength="21.2637" x="505.1572" y="354.6954">1..*</text></g><!--link Operation to Resource--><g class="link" data-entity-1="ent0005" data-entity-2="ent0004" data-link-type="association" data-source-line="76" id="lnk12"><path codeLine="76" d="M445.17,439.54 C433.12,459.18 419.14,484.33 410,508.34 C402.81,527.23 397.51,548.82 393.75,567.83" fill="none" id="Operation-Resource" style="stroke:#181818;stroke-width:1;"/><text fill="#000000" font-family="Arial" font-size="12" lengthAdjust="spacing" textLength="73.916" x="411" y="520.4787">operates_on</text><text fill="#000000" font-family="Arial" font-size="12" lengthAdjust="spacing" textLength="7.6348" x="433.3593" y="458.5243">1</text><text fill="#000000" font-family="Arial" font-size="12" lengthAdjust="spacing" textLength="21.2637" x="372.3658" y="557.5317">1..*</text></g><!--link Operation to SchedulingAPI--><g class="link" data-entity-1="ent0005" data-entity-2="ent0009" data-link-type="association" data-source-line="79" id="lnk13"><path codeLine="79" d="M513.81,439.81 C533.84,454.15 558.44,469.33 583,478.34 C605.7,486.67 992.21,523.27 1015,531.34 C1050.01,543.74 1085.45,566.09 1111.78,585.02" fill="none" id="Operation-SchedulingAPI" style="stroke:#181818;stroke-width:1;"/><text fill="#000000" font-family="Arial" font-size="12" lengthAdjust="spacing" textLength="27.4922" x="955" y="520.4787">uses</text><text fill="#000000" font-family="Arial" font-size="12" lengthAdjust="spacing" textLength="7.6348" x="513.9656" y="458.5654">1</text><text fill="#000000" font-family="Arial" font-size="12" lengthAdjust="spacing" textLength="21.2637" x="1079.2767" y="574.3521">1..*</text></g><!--link Operation to SchedulingDatabase--><g class="link" data-entity-1="ent0005" data-entity-2="ent0010" data-link-type="association" data-source-line="80" id="lnk14"><path codeLine="80" d="M512.8,439.8 C532.93,454.42 557.89,469.82 583,478.34 C728,527.56 1123.51,486.78 1270,531.34 C1299.81,540.41 1330.26,555.75 1356.25,571.05" fill="none" id="Operation-SchedulingDatabase" style="stroke:#181818;stroke-width:1;"/><text fill="#000000" font-family="Arial" font-size="12" lengthAdjust="spacing" textLength="27.4922" x="1231" y="520.4787">uses</text><text fill="#000000" font-family="Arial" font-size="12" lengthAdjust="spacing" textLength="7.6348" x="520.9851" y="458.5537">1</text><text fill="#000000" font-family="Arial" font-size="12" lengthAdjust="spacing" textLength="21.2637" x="1322.4817" y="560.5462">1..*</text></g><!--link Actor to Permission--><g class="link" data-entity-1="ent0003" data-entity-2="ent0006" data-link-type="association" data-source-line="83" id="lnk15"><path codeLine="83" d="M893.5,182.17 C877.57,219.53 852.31,278.78 832.06,326.29" fill="none" id="Actor-Permission" style="stroke:#181818;stroke-width:1;"/><text fill="#000000" font-family="Arial" font-size="12" lengthAdjust="spacing" textLength="92.9531" x="848" y="293.7587">has_permission</text><text fill="#000000" font-family="Arial" font-size="12" lengthAdjust="spacing" textLength="7.6348" x="891.4924" y="200.9306">1</text><text fill="#000000" font-family="Arial" font-size="12" lengthAdjust="spacing" textLength="6" x="829.0565" y="315.9513">*</text></g><!--link Actor to Resource--><g class="link" data-entity-1="ent0003" data-entity-2="ent0004" data-link-type="association" data-source-line="86" id="lnk16"><path codeLine="86" d="M882.27,182.17 C862.76,205.9 834.19,235.38 802,251.62 C609.24,348.91 462.4,162.58 322,326.62 C263.6,394.85 313.56,504.3 351.96,567.93" fill="none" id="Actor-Resource" style="stroke:#181818;stroke-width:1;"/><text fill="#000000" font-family="Arial" font-size="12" lengthAdjust="spacing" textLength="31.0137" x="323" y="407.1187">owns</text><text fill="#000000" font-family="Arial" font-size="12" lengthAdjust="spacing" textLength="7.6348" x="878.3322" y="200.9306">1</text><text fill="#000000" font-family="Arial" font-size="12" lengthAdjust="spacing" textLength="21.2637" x="324.4379" y="557.6464">1..*</text></g><!--link State to State--><g class="link" data-entity-1="ent0007" data-entity-2="ent0007" data-link-type="dependency" data-source-line="89" id="lnk17"><path codeLine="89" d="M196.37,118.38 C216.28,120.71 230.88,129.52 230.88,144.81 C230.88,160.1 221.2461,168.3288 201.3361,170.6588" fill="none" id="State-to-State" style="stroke:#181818;stroke-width:1;"/><polygon fill="#181818" points="196.37,171.24,205.7739,174.1668,201.3361,170.6588,204.8441,166.221,196.37,171.24" style="stroke:#181818;stroke-width:1;stroke-linejoin:miter;stroke-miterlimit:10;"/><text fill="#000000" font-family="Arial" font-size="12" lengthAdjust="spacing" textLength="63.4219" x="291.755" y="132.4487">transitions</text><path d="M235.88,146.2788 L235.88,169.2788 L410.88,169.2788 L410.88,156.2788 L400.88,146.2788 L235.88,146.2788" fill="#FFFFCC" style="stroke:#181818;stroke-width:0.5;"/><path d="M400.88,146.2788 L400.88,156.2788 L410.88,156.2788 L400.88,146.2788" fill="#FFFFCC" style="stroke:#181818;stroke-width:0.5;"/><text fill="#000000" font-family="Arial" font-size="12" lengthAdjust="spacing" textLength="154.1719" x="241.88" y="162.4174">"PreIdle &#8594; Post1 &#8594; Post2"</text><text fill="#000000" font-family="Arial" font-size="12" lengthAdjust="spacing" textLength="7.6348" x="203.9215" y="113.8317">1</text><text fill="#000000" font-family="Arial" font-size="12" lengthAdjust="spacing" textLength="21.2637" x="203.8733" y="170.9416">1..*</text></g><?plantuml-src ZLJDRXCn4BxlKup2WOIcXRQgX5PjfT0cg0Ter21n05GvtabZwhM3xQKKXCG996uWdh1FmjYxsVMI1DKvPEtvvfl_iTT2BPXXEMGuOuLq8wtSIvOZ38nWCh7hv1Fn6M5tBn9E6R--ChfGsOcMsi23qT3_8WINpDfdAx0d_XV1X79ePepZ2dJeeQC8Ygh8Lr5FHwFXqmYbj5lb6j4vEKcI1GdO5KBdLETCA7YXCvGTU70Q3dn9W4xm72PIk-h1dosmZXdtIkIOmYbpwByYAQfieomh37D2An9MNt041v0BLJYq4V2ABGOpoaSBkBy2v5fPPyX_Hu4iWNbX7KmHy1FZJjwM_9srEi_PWf3k1b61fJ3jYlB-PkMN6lH7D98j5a9TLVfCIds3cTVO0Zv7VdrUOheARtmc-qGjh2CDVxCzI66gjKIc6fL1zfxwGBddzrSpIDdkrfNfBylGXxTgcVMZWtwTsAFzNb0avyJiTa1Uyu2nNOfWZGc0hqdK4mFkg9lYfb3CrtpY3BaOFI_GvC9Qpvp2kBwyURVAUO5M5uPZYrRVADy5mLxqp3X78ffAh6GLuRyrElVgTL6fpnj5iEZACWaxg5-xpBFzD_PpYgdijCRHnu-1EOfzwjiJcCeWHpVNcOLNpqxZ2WNwFfWgrdvecrvin0ztb2auFFGlnyUHjGjaMNrvROHhPcpu2NaHtGSPzMzzyoi1EcDg4jfme4tcSni8uExdZy3RNr94Bu4atAavejPkl5p6zLOrRsaQc3VaCeGvSPIJTH6E3PvbiWbZhAtRRTtsWXjKPsM5BqQtKkcNsDwAsB-Mmhrblhz6U_1CpGoZlYcuAmm5_-qFOOspj1E7uLJUrMiQ9fI3h93KxuFn6GLHIrgHK6UKfQ-csF4Tw6Rec92XELgrNqTEQvHDcSN_MH3Aed6bXGy5cjimmHkiRKMGDHl3rylBmaIri5Jybh1AuKFOhWyrZ2pto5miR2GWLBapXA9wC3ybzHmbfQIpso45-jlPUTI9fYnjTBonHg335zfB-bukZwGHj_dgxPB6Uct2mf9RPyiaRwHg5puDQlS0ruMiDEgKp9cD1xvBYmcsmSvfzm69QETeBW9txvzK4N-ac7gcosRZDXQ8gTclQzCTfuV0NhKSpcQ4hFTCpkw-_J8uGuEAOoyfGO7hk0uvlAMnQX8s3_b8YRXEQGMLmmfttt-Nyrf_xNN-0W00?></g></svg>