<svg xmlns="http://www.w3.org/2000/svg" xmlns:xlink="http://www.w3.org/1999/xlink" contentStyleType="text/css" data-diagram-type="CLASS" height="735px" preserveAspectRatio="none" style="width:1432px;height:735px;background:#FFFFFF;" version="1.1" viewBox="0 0 1432 735" width="1432px" zoomAndPan="magnify"><?plantuml 1.2026.7beta1?><defs/><g><!--cluster Domain Model--><g class="cluster" data-qualified-name="Domain Model" data-source-line="15" id="ent0001"><path d="M8.5,6 L122.2793,6 A3.75,3.75 0 0 1 124.7793,8.5 L131.7793,28.2969 L1414.5,28.2969 A2.5,2.5 0 0 1 1417,30.7969 L1417,717.53 A2.5,2.5 0 0 1 1414.5,720.03 L8.5,720.03 A2.5,2.5 0 0 1 6,717.53 L6,8.5 A2.5,2.5 0 0 1 8.5,6" fill="#F0F0F0" style="stroke:#666666;stroke-width:1.5;"/><line style="stroke:#666666;stroke-width:1.5;" x1="6" x2="131.7793" y1="28.2969" y2="28.2969"/><text fill="#000000" font-family="sans-serif" font-size="14" font-weight="700" lengthAdjust="spacing" textLength="112.7793" x="10" y="20.9951">Domain Model</text></g><!--class Flight--><g class="entity" data-qualified-name="Domain Model.Flight" data-source-line="16" id="ent0002"><rect fill="#FEFEFE" height="113.1875" rx="2.5" ry="2.5" style="stroke:#333333;stroke-width:0.5;" width="257.9297" x="34.04" y="41"/><ellipse cx="142.0058" cy="57" fill="#ADD1B2" rx="11" ry="11" style="stroke:#181818;stroke-width:1;"/><path d="M144.9746,62.6406 Q144.3964,62.9375 143.7558,63.0781 Q143.1152,63.2344 142.4121,63.2344 Q139.9121,63.2344 138.5839,61.5938 Q137.2714,59.9375 137.2714,56.8125 Q137.2714,53.6875 138.5839,52.0313 Q139.9121,50.375 142.4121,50.375 Q143.1152,50.375 143.7558,50.5313 Q144.4121,50.6875 144.9746,50.9844 L144.9746,53.7031 Q144.3496,53.125 143.7558,52.8594 Q143.1621,52.5781 142.5371,52.5781 Q141.1933,52.5781 140.5058,53.6563 Q139.8183,54.7188 139.8183,56.8125 Q139.8183,58.9063 140.5058,59.9844 Q141.1933,61.0469 142.5371,61.0469 Q143.1621,61.0469 143.7558,60.7813 Q144.3496,60.5 144.9746,59.9219 L144.9746,62.6406 Z " fill="#000000"/><text fill="#000000" font-family="sans-serif" font-size="12" lengthAdjust="spacing" textLength="33.498" x="162.5058" y="61.1543">Flight</text><line style="stroke:#333333;stroke-width:0.5;" x1="35.04" x2="290.9697" y1="73" y2="73"/><g data-visibility-modifier="PRIVATE_FIELD"><rect fill="none" height="6" style="stroke:#C82930;stroke-width:1;" width="6" x="42.04" y="83.6484"/></g><text fill="#000000" font-family="sans-serif" font-size="14" lengthAdjust="spacing" textLength="147.5947" x="54.04" y="89.9951">flightNumber : String</text><g data-visibility-modifier="PRIVATE_FIELD"><rect fill="none" height="6" style="stroke:#C82930;stroke-width:1;" width="6" x="42.04" y="99.9453"/></g><text fill="#000000" font-family="sans-serif" font-size="14" lengthAdjust="spacing" textLength="95.2588" x="54.04" y="106.292">origin : String</text><g data-visibility-modifier="PRIVATE_FIELD"><rect fill="none" height="6" style="stroke:#C82930;stroke-width:1;" width="6" x="42.04" y="116.2422"/></g><text fill="#000000" font-family="sans-serif" font-size="14" lengthAdjust="spacing" textLength="133.8408" x="54.04" y="122.5889">destination : String</text><g data-visibility-modifier="PRIVATE_FIELD"><rect fill="none" height="6" style="stroke:#C82930;stroke-width:1;" width="6" x="42.04" y="132.5391"/></g><text fill="#000000" font-family="sans-serif" font-size="14" lengthAdjust="spacing" textLength="231.9297" x="54.04" y="138.8857">estimatedDepartureTime : String</text><line style="stroke:#333333;stroke-width:0.5;" x1="35.04" x2="290.9697" y1="146.1875" y2="146.1875"/></g><g class="entity" data-qualified-name="Domain Model.GMN3" data-source-line="23" id="ent0004"><path d="M327.35,62.33 L327.35,93.59 L292.34,97.59 L327.35,101.59 L327.35,132.8612 A0,0 0 0 0 327.35,132.8612 L768.641,132.8612 A0,0 0 0 0 768.641,132.8612 L768.641,72.33 L758.641,62.33 L327.35,62.33 A0,0 0 0 0 327.35,62.33" fill="#FFFFCC" style="stroke:#CCCC00;stroke-width:0.5;"/><path d="M758.641,62.33 L758.641,72.33 L768.641,72.33 L758.641,62.33" fill="#FFFFCC" style="stroke:#CCCC00;stroke-width:0.5;"/><text fill="#000000" font-family="sans-serif" font-size="13" lengthAdjust="spacing" textLength="69.145" x="333.35" y="79.3969">Invariants:</text><text fill="#000000" font-family="sans-serif" font-size="13" lengthAdjust="spacing" textLength="315.688" x="333.35" y="94.5297">- Flight number must be unique across all flights</text><text fill="#000000" font-family="sans-serif" font-size="13" lengthAdjust="spacing" textLength="336.1909" x="333.35" y="109.6625">- Origin and destination must be valid airport codes</text><text fill="#000000" font-family="sans-serif" font-size="13" lengthAdjust="spacing" textLength="420.291" x="333.35" y="124.7953">- Estimated departure time must be in standard format (HH:MM)</text></g><!--class Actor--><g class="entity" data-qualified-name="Domain Model.Actor" data-source-line="29" id="ent0006"><rect fill="#FEFEFE" height="64.2969" rx="2.5" ry="2.5" style="stroke:#333333;stroke-width:0.5;" width="248.5234" x="262.74" y="443.61"/><ellipse cx="366.8582" cy="459.61" fill="#ADD1B2" rx="11" ry="11" style="stroke:#181818;stroke-width:1;"/><path d="M369.8269,465.2506 Q369.2488,465.5475 368.6082,465.6881 Q367.9675,465.8444 367.2644,465.8444 Q364.7644,465.8444 363.4363,464.2037 Q362.1238,462.5475 362.1238,459.4225 Q362.1238,456.2975 363.4363,454.6412 Q364.7644,452.985 367.2644,452.985 Q367.9675,452.985 368.6082,453.1412 Q369.2644,453.2975 369.8269,453.5944 L369.8269,456.3131 Q369.2019,455.735 368.6082,455.4694 Q368.0144,455.1881 367.3894,455.1881 Q366.0457,455.1881 365.3582,456.2662 Q364.6707,457.3287 364.6707,459.4225 Q364.6707,461.5162 365.3582,462.5944 Q366.0457,463.6569 367.3894,463.6569 Q368.0144,463.6569 368.6082,463.3912 Q369.2019,463.11 369.8269,462.5319 L369.8269,465.2506 Z " fill="#000000"/><text fill="#000000" font-family="sans-serif" font-size="12" lengthAdjust="spacing" textLength="31.7871" x="387.3582" y="463.7643">Actor</text><line style="stroke:#333333;stroke-width:0.5;" x1="263.74" x2="510.2634" y1="475.61" y2="475.61"/><g data-visibility-modifier="PRIVATE_FIELD"><rect fill="none" height="6" style="stroke:#C82930;stroke-width:1;" width="6" x="270.74" y="486.2584"/></g><text fill="#000000" font-family="sans-serif" font-size="14" lengthAdjust="spacing" textLength="222.5234" x="282.74" y="492.6051">mayPerform : Set&lt;Permission&gt;</text><line style="stroke:#333333;stroke-width:0.5;" x1="263.74" x2="510.2634" y1="499.9069" y2="499.9069"/></g><!--class Resource--><g class="entity" data-qualified-name="Domain Model.Resource" data-source-line="33" id="ent0007"><rect fill="#FEFEFE" height="80.5938" rx="2.5" ry="2.5" style="stroke:#333333;stroke-width:0.5;" width="195.6064" x="180.2" y="258.6"/><ellipse cx="245.8362" cy="274.6" fill="#ADD1B2" rx="11" ry="11" style="stroke:#181818;stroke-width:1;"/><path d="M248.805,280.2406 Q248.2269,280.5375 247.5862,280.6781 Q246.9456,280.8344 246.2425,280.8344 Q243.7425,280.8344 242.4144,279.1937 Q241.1019,277.5375 241.1019,274.4125 Q241.1019,271.2875 242.4144,269.6312 Q243.7425,267.975 246.2425,267.975 Q246.9456,267.975 247.5862,268.1312 Q248.2425,268.2875 248.805,268.5844 L248.805,271.3031 Q248.18,270.725 247.5862,270.4594 Q246.9925,270.1781 246.3675,270.1781 Q245.0237,270.1781 244.3362,271.2562 Q243.6487,272.3187 243.6487,274.4125 Q243.6487,276.5062 244.3362,277.5844 Q245.0237,278.6469 246.3675,278.6469 Q246.9925,278.6469 247.5862,278.3812 Q248.18,278.1 248.805,277.5219 L248.805,280.2406 Z " fill="#000000"/><text fill="#000000" font-family="sans-serif" font-size="12" lengthAdjust="spacing" textLength="55.834" x="266.3362" y="278.7543">Resource</text><line style="stroke:#333333;stroke-width:0.5;" x1="181.2" x2="374.8064" y1="290.6" y2="290.6"/><g data-visibility-modifier="PRIVATE_FIELD"><rect fill="none" height="6" style="stroke:#C82930;stroke-width:1;" width="6" x="188.2" y="301.2484"/></g><text fill="#000000" font-family="sans-serif" font-size="14" lengthAdjust="spacing" textLength="93.96" x="200.2" y="307.5951">owner : Actor</text><g data-visibility-modifier="PRIVATE_FIELD"><rect fill="none" height="6" style="stroke:#C82930;stroke-width:1;" width="6" x="188.2" y="317.5453"/></g><text fill="#000000" font-family="sans-serif" font-size="14" lengthAdjust="spacing" textLength="169.6064" x="200.2" y="323.892">accessible : Set&lt;Actor&gt;</text><line style="stroke:#333333;stroke-width:0.5;" x1="181.2" x2="374.8064" y1="331.1937" y2="331.1937"/></g><g class="entity" data-qualified-name="Domain Model.GMN8" data-source-line="38" id="ent0009"><path d="M410.68,286.33 L410.68,294.9 L376.25,298.9 L410.68,302.9 L410.68,311.4628 A0,0 0 0 0 410.68,311.4628 L715.3187,311.4628 A0,0 0 0 0 715.3187,311.4628 L715.3187,296.33 L705.3187,286.33 L410.68,286.33 A0,0 0 0 0 410.68,286.33" fill="#FFFFCC" style="stroke:#CCCC00;stroke-width:0.5;"/><path d="M705.3187,286.33 L705.3187,296.33 L715.3187,296.33 L705.3187,286.33" fill="#FFFFCC" style="stroke:#CCCC00;stroke-width:0.5;"/><text fill="#000000" font-family="sans-serif" font-size="13" lengthAdjust="spacing" textLength="283.6387" x="416.68" y="303.3969">Invariant: Owner is always in accessible set</text></g><!--class Interface--><g class="entity" data-qualified-name="Domain Model.Interface" data-source-line="41" id="ent0011"><rect fill="#FEFEFE" height="96.8906" rx="2.5" ry="2.5" style="stroke:#333333;stroke-width:0.5;" width="168.1875" x="894.91" y="250.45"/><ellipse cx="947.8914" cy="266.45" fill="#ADD1B2" rx="11" ry="11" style="stroke:#181818;stroke-width:1;"/><path d="M950.8602,272.0906 Q950.2821,272.3875 949.6414,272.5281 Q949.0008,272.6844 948.2977,272.6844 Q945.7977,272.6844 944.4696,271.0438 Q943.1571,269.3875 943.1571,266.2625 Q943.1571,263.1375 944.4696,261.4813 Q945.7977,259.825 948.2977,259.825 Q949.0008,259.825 949.6414,259.9813 Q950.2977,260.1375 950.8602,260.4344 L950.8602,263.1531 Q950.2352,262.575 949.6414,262.3094 Q949.0477,262.0281 948.4227,262.0281 Q947.0789,262.0281 946.3914,263.1063 Q945.7039,264.1688 945.7039,266.2625 Q945.7039,268.3563 946.3914,269.4344 Q947.0789,270.4969 948.4227,270.4969 Q949.0477,270.4969 949.6414,270.2313 Q950.2352,269.95 950.8602,269.3719 L950.8602,272.0906 Z " fill="#000000"/><text fill="#000000" font-family="sans-serif" font-size="12" lengthAdjust="spacing" textLength="53.7246" x="968.3914" y="270.6043">Interface</text><line style="stroke:#333333;stroke-width:0.5;" x1="895.91" x2="1062.0975" y1="282.45" y2="282.45"/><g data-visibility-modifier="PRIVATE_FIELD"><rect fill="none" height="6" style="stroke:#C82930;stroke-width:1;" width="6" x="902.91" y="293.0984"/></g><text fill="#000000" font-family="sans-serif" font-size="14" lengthAdjust="spacing" textLength="108.1514" x="914.91" y="299.4451">kind : IfaceKind</text><g data-visibility-modifier="PRIVATE_FIELD"><rect fill="none" height="6" style="stroke:#C82930;stroke-width:1;" width="6" x="902.91" y="309.3953"/></g><text fill="#000000" font-family="sans-serif" font-size="14" lengthAdjust="spacing" textLength="115.3428" x="914.91" y="315.742">encrypted : Bool</text><g data-visibility-modifier="PRIVATE_FIELD"><rect fill="none" height="6" style="stroke:#C82930;stroke-width:1;" width="6" x="902.91" y="325.6922"/></g><text fill="#000000" font-family="sans-serif" font-size="14" lengthAdjust="spacing" textLength="142.1875" x="914.91" y="332.0389">authenticated : Bool</text><line style="stroke:#333333;stroke-width:0.5;" x1="895.91" x2="1062.0975" y1="339.3406" y2="339.3406"/></g><!--class Permission--><g class="entity" data-qualified-name="Domain Model.Permission" data-source-line="47" id="ent0012"><rect fill="#FEFEFE" height="119.125" rx="2.5" ry="2.5" style="stroke:#333333;stroke-width:0.5;" width="97.3613" x="809.32" y="584.9"/><ellipse cx="824.32" cy="603.8688" fill="#EB937F" rx="11" ry="11" style="stroke:#181818;stroke-width:1;"/><path d="M828.4294,609.8688 L820.7106,609.8688 L820.7106,597.4781 L828.4294,597.4781 L828.4294,599.6344 L823.1638,599.6344 L823.1638,602.3063 L827.9294,602.3063 L827.9294,604.4625 L823.1638,604.4625 L823.1638,607.7125 L828.4294,607.7125 L828.4294,609.8688 Z " fill="#000000"/><text fill="#000000" font-family="sans-serif" font-size="12" font-style="italic" lengthAdjust="spacing" textLength="48.9668" x="846.5173" y="601.0387">&#171;enum&#187;</text><text fill="#000000" font-family="sans-serif" font-size="12" lengthAdjust="spacing" textLength="65.3613" x="838.32" y="615.0074">Permission</text><line style="stroke:#333333;stroke-width:0.5;" x1="810.32" x2="905.6813" y1="622.8375" y2="622.8375"/><text fill="#000000" font-family="sans-serif" font-size="14" lengthAdjust="spacing" textLength="35.8066" x="815.32" y="639.8326">Read</text><text fill="#000000" font-family="sans-serif" font-size="14" lengthAdjust="spacing" textLength="37.5908" x="815.32" y="656.1295">Write</text><text fill="#000000" font-family="sans-serif" font-size="14" lengthAdjust="spacing" textLength="56.417" x="815.32" y="672.4264">Execute</text><text fill="#000000" font-family="sans-serif" font-size="14" lengthAdjust="spacing" textLength="44.8643" x="815.32" y="688.7232">Admin</text><line style="stroke:#333333;stroke-width:0.5;" x1="810.32" x2="905.6813" y1="696.025" y2="696.025"/></g><g class="entity" data-qualified-name="Domain Model.GMN13" data-source-line="54" id="ent0014"><path d="M941.38,609.2 L941.38,640.47 L906.9,644.47 L941.38,648.47 L941.38,679.7312 A0,0 0 0 0 941.38,679.7312 L1242.6227,679.7312 A0,0 0 0 0 1242.6227,679.7312 L1242.6227,619.2 L1232.6227,609.2 L941.38,609.2 A0,0 0 0 0 941.38,609.2" fill="#FFFFCC" style="stroke:#CCCC00;stroke-width:0.5;"/><path d="M1232.6227,609.2 L1232.6227,619.2 L1242.6227,619.2 L1232.6227,609.2" fill="#FFFFCC" style="stroke:#CCCC00;stroke-width:0.5;"/><text fill="#000000" font-family="sans-serif" font-size="13" lengthAdjust="spacing" textLength="280.2427" x="947.38" y="626.2669">Invariant: Permissions form a partial order:</text><text fill="#000000" font-family="sans-serif" font-size="13" lengthAdjust="spacing" textLength="146.2627" x="947.38" y="641.3997">Write subsumes Read,</text><text fill="#000000" font-family="sans-serif" font-size="13" lengthAdjust="spacing" textLength="163.7441" x="947.38" y="656.5325">Execute subsumes Read,</text><text fill="#000000" font-family="sans-serif" font-size="13" lengthAdjust="spacing" textLength="130.8252" x="947.38" y="671.6653">Admin subsumes all</text></g><!--class State--><g class="entity" data-qualified-name="Domain Model.State" data-source-line="60" id="ent0016"><rect fill="#FEFEFE" height="135.4219" rx="2.5" ry="2.5" style="stroke:#333333;stroke-width:0.5;" width="265.9551" x="1098.02" y="231.19"/><ellipse cx="1204.2641" cy="250.1588" fill="#EB937F" rx="11" ry="11" style="stroke:#181818;stroke-width:1;"/><path d="M1208.3735,256.1588 L1200.6548,256.1588 L1200.6548,243.7681 L1208.3735,243.7681 L1208.3735,245.9244 L1203.1079,245.9244 L1203.1079,248.5963 L1207.8735,248.5963 L1207.8735,250.7525 L1203.1079,250.7525 L1203.1079,254.0025 L1208.3735,254.0025 L1208.3735,256.1588 Z " fill="#000000"/><text fill="#000000" font-family="sans-serif" font-size="12" font-style="italic" lengthAdjust="spacing" textLength="48.9668" x="1222.7641" y="247.3287">&#171;enum&#187;</text><text fill="#000000" font-family="sans-serif" font-size="12" lengthAdjust="spacing" textLength="31.7637" x="1231.3657" y="261.2974">State</text><line style="stroke:#333333;stroke-width:0.5;" x1="1099.02" x2="1362.9751" y1="269.1275" y2="269.1275"/><text fill="#000000" font-family="sans-serif" font-size="14" lengthAdjust="spacing" textLength="31.7188" x="1104.02" y="286.1226">Pre1</text><text fill="#000000" font-family="sans-serif" font-size="14" lengthAdjust="spacing" textLength="38.6982" x="1104.02" y="302.4195">Post1</text><text fill="#000000" font-family="sans-serif" font-size="14" lengthAdjust="spacing" textLength="34.6787" x="1104.02" y="318.7164">Error</text><line style="stroke:#333333;stroke-width:0.5;" x1="1099.02" x2="1362.9751" y1="326.0181" y2="326.0181"/><g data-visibility-modifier="PUBLIC_METHOD"><ellipse cx="1109.02" cy="339.6666" fill="#84BE84" rx="3" ry="3" style="stroke:#038048;stroke-width:1;"/></g><text fill="#000000" font-family="sans-serif" font-size="14" lengthAdjust="spacing" textLength="239.9551" x="1118.02" y="343.0132">transition(State.Pre1, State.Post1)</text><g data-visibility-modifier="PUBLIC_METHOD"><ellipse cx="1109.02" cy="355.9634" fill="#84BE84" rx="3" ry="3" style="stroke:#038048;stroke-width:1;"/></g><text fill="#000000" font-family="sans-serif" font-size="14" lengthAdjust="spacing" textLength="235.9355" x="1118.02" y="359.3101">transition(State.Pre1, State.Error)</text></g><!--class IfaceKind--><g class="entity" data-qualified-name="Domain Model.IfaceKind" data-source-line="68" id="ent0017"><rect fill="#FEFEFE" height="86.5313" rx="2.5" ry="2.5" style="stroke:#333333;stroke-width:0.5;" width="87.5234" x="820.24" y="54.33"/><ellipse cx="835.24" cy="73.2987" fill="#EB937F" rx="11" ry="11" style="stroke:#181818;stroke-width:1;"/><path d="M839.3494,79.2987 L831.6306,79.2987 L831.6306,66.9081 L839.3494,66.9081 L839.3494,69.0644 L834.0838,69.0644 L834.0838,71.7362 L838.8494,71.7362 L838.8494,73.8925 L834.0838,73.8925 L834.0838,77.1425 L839.3494,77.1425 L839.3494,79.2987 Z " fill="#000000"/><text fill="#000000" font-family="sans-serif" font-size="12" font-style="italic" lengthAdjust="spacing" textLength="48.9668" x="852.5183" y="70.4687">&#171;enum&#187;</text><text fill="#000000" font-family="sans-serif" font-size="12" lengthAdjust="spacing" textLength="55.5234" x="849.24" y="84.4374">IfaceKind</text><line style="stroke:#333333;stroke-width:0.5;" x1="821.24" x2="906.7634" y1="92.2675" y2="92.2675"/><text fill="#000000" font-family="sans-serif" font-size="14" lengthAdjust="spacing" textLength="66.8008" x="826.24" y="109.2626">Database</text><text fill="#000000" font-family="sans-serif" font-size="14" lengthAdjust="spacing" textLength="14.376" x="826.24" y="125.5595">UI</text><line style="stroke:#333333;stroke-width:0.5;" x1="821.24" x2="906.7634" y1="132.8612" y2="132.8612"/></g><!--class Operation--><g class="entity" data-qualified-name="Domain Model.Operation" data-source-line="73" id="ent0018"><rect fill="#FEFEFE" height="48" rx="2.5" ry="2.5" style="stroke:#333333;stroke-width:0.5;" width="91.7188" x="1022.14" y="73.59"/><ellipse cx="1037.14" cy="89.59" fill="#ADD1B2" rx="11" ry="11" style="stroke:#181818;stroke-width:1;"/><path d="M1040.1088,95.2306 Q1039.5306,95.5275 1038.89,95.6681 Q1038.2494,95.8244 1037.5463,95.8244 Q1035.0463,95.8244 1033.7181,94.1837 Q1032.4056,92.5275 1032.4056,89.4025 Q1032.4056,86.2775 1033.7181,84.6212 Q1035.0463,82.965 1037.5463,82.965 Q1038.2494,82.965 1038.89,83.1212 Q1039.5463,83.2775 1040.1088,83.5744 L1040.1088,86.2931 Q1039.4838,85.715 1038.89,85.4494 Q1038.2963,85.1681 1037.6713,85.1681 Q1036.3275,85.1681 1035.64,86.2462 Q1034.9525,87.3087 1034.9525,89.4025 Q1034.9525,91.4962 1035.64,92.5744 Q1036.3275,93.6369 1037.6713,93.6369 Q1038.2963,93.6369 1038.89,93.3712 Q1039.4838,93.09 1040.1088,92.5119 L1040.1088,95.2306 Z " fill="#000000"/><text fill="#000000" font-family="sans-serif" font-size="12" lengthAdjust="spacing" textLength="59.7188" x="1051.14" y="93.7443">Operation</text><line style="stroke:#333333;stroke-width:0.5;" x1="1023.14" x2="1112.8588" y1="105.59" y2="105.59"/><line style="stroke:#333333;stroke-width:0.5;" x1="1023.14" x2="1112.8588" y1="113.59" y2="113.59"/></g><!--link Flight to Actor--><g class="link" data-entity-1="ent0002" data-entity-2="ent0006" data-link-type="dependency" data-source-line="78" id="lnk19"><path codeLine="78" d="M117.32,154.58 C76.31,212.09 29.07,302.07 75,366.61 C117.47,426.28 190.3294,452.4327 257.5994,464.5627" fill="none" id="Flight-to-Actor" style="stroke:#181818;stroke-width:1;"/><polygon fill="#181818" points="262.52,465.45,254.3727,459.9164,257.5994,464.5627,252.953,467.7894,262.52,465.45" style="stroke:#181818;stroke-width:1;stroke-linejoin:miter;stroke-miterlimit:10;"/><text fill="#000000" font-family="sans-serif" font-size="13" lengthAdjust="spacing" textLength="86.7471" x="76" y="303.4669">registered by</text><text fill="#000000" font-family="sans-serif" font-size="13" lengthAdjust="spacing" textLength="8.271" x="103.5909" y="174.1108">1</text><text fill="#000000" font-family="sans-serif" font-size="13" lengthAdjust="spacing" textLength="8.271" x="246.2978" y="461.3803">1</text></g><!--link Flight to Resource--><g class="link" data-entity-1="ent0002" data-entity-2="ent0007" data-link-type="dependency" data-source-line="79" id="lnk20"><path codeLine="79" d="M169.88,154.58 C173.29,170.28 178.39,186.94 186,201.19 C197.24,222.24 210.762,238.5072 227.172,254.6172" fill="none" id="Flight-to-Resource" style="stroke:#181818;stroke-width:1;"/><polygon fill="#181818" points="230.74,258.12,227.1198,248.9606,227.172,254.6172,221.5154,254.6694,230.74,258.12" style="stroke:#181818;stroke-width:1;stroke-linejoin:miter;stroke-miterlimit:10;"/><text fill="#000000" font-family="sans-serif" font-size="13" lengthAdjust="spacing" textLength="57.4019" x="187" y="197.2569">stored in</text><text fill="#000000" font-family="sans-serif" font-size="13" lengthAdjust="spacing" textLength="8.271" x="162.2281" y="174.1108">1</text><text fill="#000000" font-family="sans-serif" font-size="13" lengthAdjust="spacing" textLength="8.271" x="214.5915" y="247.5034">1</text></g><!--link Operation to Actor--><g class="link" data-entity-1="ent0018" data-entity-2="ent0006" data-link-type="dependency" data-source-line="81" id="lnk21"><path codeLine="81" d="M1021.7,117.49 C954.73,145.5 835.21,198.27 802,231.19 C754.03,278.74 784.61,323.03 733,366.61 C670.85,419.09 588.1677,445.1839 516.6677,459.1139" fill="none" id="Operation-to-Actor" style="stroke:#181818;stroke-width:1;"/><polygon fill="#181818" points="511.76,460.07,521.3588,462.2751,516.6677,459.1139,519.829,454.4228,511.76,460.07" style="stroke:#181818;stroke-width:1;stroke-linejoin:miter;stroke-miterlimit:10;"/><text fill="#000000" font-family="sans-serif" font-size="13" lengthAdjust="spacing" textLength="73.563" x="803" y="303.4669">initiated by</text><text fill="#000000" font-family="sans-serif" font-size="13" lengthAdjust="spacing" textLength="6.5" x="1007.5762" y="116.6216">*</text><text fill="#000000" font-family="sans-serif" font-size="13" lengthAdjust="spacing" textLength="8.271" x="519.2117" y="455.8002">1</text></g><!--link Operation to Resource--><g class="link" data-entity-1="ent0018" data-entity-2="ent0007" data-link-type="dependency" data-source-line="82" id="lnk22"><path codeLine="82" d="M1021.87,119.61 C994.28,131.4 958.23,145.44 925,154.19 C693.95,214.97 618.65,152.71 393,231.19 C373.71,237.9 358.3235,245.4115 340.8035,255.6815" fill="none" id="Operation-to-Resource" style="stroke:#181818;stroke-width:1;"/><polygon fill="#181818" points="336.49,258.21,346.2772,257.1095,340.8035,255.6815,342.2315,250.2078,336.49,258.21" style="stroke:#181818;stroke-width:1;stroke-linejoin:miter;stroke-miterlimit:10;"/><text fill="#000000" font-family="sans-serif" font-size="13" lengthAdjust="spacing" textLength="44.1353" x="722" y="197.2569">affects</text><text fill="#000000" font-family="sans-serif" font-size="13" lengthAdjust="spacing" textLength="8.271" x="1005.9022" y="136.3922">1</text><text fill="#000000" font-family="sans-serif" font-size="13" lengthAdjust="spacing" textLength="33.0776" x="310.1878" y="247.6077">1..10</text></g><!--link Operation to Interface--><g class="link" data-entity-1="ent0018" data-entity-2="ent0011" data-link-type="dependency" data-source-line="83" id="lnk23"><path codeLine="83" d="M1043.81,121.8 C1028.54,137.87 1009.73,160.55 999,184.19 C989.68,204.72 985.3095,224.1998 982.6495,245.1598" fill="none" id="Operation-to-Interface" style="stroke:#181818;stroke-width:1;"/><polygon fill="#181818" points="982.02,250.12,987.1213,241.6952,982.6495,245.1598,979.1849,240.688,982.02,250.12" style="stroke:#181818;stroke-width:1;stroke-linejoin:miter;stroke-miterlimit:10;"/><text fill="#000000" font-family="sans-serif" font-size="13" lengthAdjust="spacing" textLength="29.7832" x="1000" y="197.2569">uses</text><text fill="#000000" font-family="sans-serif" font-size="13" lengthAdjust="spacing" textLength="8.271" x="1028.9719" y="141.6124">1</text><text fill="#000000" font-family="sans-serif" font-size="13" lengthAdjust="spacing" textLength="24.8066" x="956.8134" y="239.2825">1..2</text></g><!--link Operation to Permission--><g class="link" data-entity-1="ent0018" data-entity-2="ent0012" data-link-type="dependency" data-source-line="84" id="lnk24"><path codeLine="84" d="M1114.12,102.68 C1185.57,111.77 1321.03,140.66 1381,231.19 C1414.24,281.36 1413.1,315.7 1381,366.61 C1260.94,557.01 1111.58,460.48 924,584.9 C918.26,588.72 916.4011,589.885 910.8011,594.345" fill="none" id="Operation-to-Permission" style="stroke:#181818;stroke-width:1;"/><polygon fill="#181818" points="906.89,597.46,916.422,594.982,910.8011,594.345,911.4381,588.7242,906.89,597.46" style="stroke:#181818;stroke-width:1;stroke-linejoin:miter;stroke-miterlimit:10;"/><text fill="#000000" font-family="sans-serif" font-size="13" lengthAdjust="spacing" textLength="53.5615" x="1359" y="409.6769">requires</text><text fill="#000000" font-family="sans-serif" font-size="13" lengthAdjust="spacing" textLength="6.5" x="1121.9884" y="99.3734">*</text><text fill="#000000" font-family="sans-serif" font-size="13" lengthAdjust="spacing" textLength="8.271" x="914.678" y="586.5316">1</text></g><!--link Operation to State--><g class="link" data-entity-1="ent0018" data-entity-2="ent0016" data-link-type="dependency" data-source-line="85" id="lnk25"><path codeLine="85" d="M1068.16,121.67 C1069.35,143.8 1073.98,177.28 1090,201.19 C1097.19,211.91 1102.3482,218.3854 1112.0282,227.3854" fill="none" id="Operation-to-State" style="stroke:#181818;stroke-width:1;"/><polygon fill="#181818" points="1115.69,230.79,1111.8224,221.7323,1112.0282,227.3854,1106.3751,227.5912,1115.69,230.79" style="stroke:#181818;stroke-width:1;stroke-linejoin:miter;stroke-miterlimit:10;"/><text fill="#000000" font-family="sans-serif" font-size="13" lengthAdjust="spacing" textLength="56.0054" x="1091" y="197.2569">preState</text><text fill="#000000" font-family="sans-serif" font-size="13" lengthAdjust="spacing" textLength="8.271" x="1059.2109" y="141.8463">1</text><text fill="#000000" font-family="sans-serif" font-size="13" lengthAdjust="spacing" textLength="8.271" x="1095.4004" y="220.0664">1</text></g><!--link Operation to State--><g class="link" data-entity-1="ent0018" data-entity-2="ent0016" data-link-type="dependency" data-source-line="86" id="lnk26"><path codeLine="86" d="M1093.03,121.92 C1110.36,138.58 1133.54,161.9 1152,184.19 C1164.11,198.81 1173.3994,211.1462 1184.4294,226.8762" fill="none" id="Operation-to-State-1" style="stroke:#181818;stroke-width:1;"/><polygon fill="#181818" points="1187.3,230.97,1185.4079,221.3046,1184.4294,226.8762,1178.8578,225.8976,1187.3,230.97" style="stroke:#181818;stroke-width:1;stroke-linejoin:miter;stroke-miterlimit:10;"/><text fill="#000000" font-family="sans-serif" font-size="13" lengthAdjust="spacing" textLength="62.4863" x="1164" y="197.2569">postState</text><text fill="#000000" font-family="sans-serif" font-size="13" lengthAdjust="spacing" textLength="8.271" x="1090.1892" y="141.7616">1</text><text fill="#000000" font-family="sans-serif" font-size="13" lengthAdjust="spacing" textLength="8.271" x="1174.3952" y="220.2649">1</text></g><!--link Resource to Actor--><g class="link" data-entity-1="ent0007" data-entity-2="ent0006" data-link-type="dependency" data-source-line="88" id="lnk27"><path codeLine="88" d="M308.81,339.36 C321.6,356.51 336.19,377.11 348,396.61 C357.04,411.52 363.6626,424.2994 370.6026,438.8094" fill="none" id="Resource-to-Actor" style="stroke:#181818;stroke-width:1;"/><polygon fill="#181818" points="372.76,443.32,372.4852,433.475,370.6026,438.8094,365.2682,436.9268,372.76,443.32" style="stroke:#181818;stroke-width:1;stroke-linejoin:miter;stroke-miterlimit:10;"/><text fill="#000000" font-family="sans-serif" font-size="13" lengthAdjust="spacing" textLength="40.168" x="358" y="409.6769">owner</text><text fill="#000000" font-family="sans-serif" font-size="13" lengthAdjust="spacing" textLength="8.271" x="305.2723" y="359.3818">1</text><text fill="#000000" font-family="sans-serif" font-size="13" lengthAdjust="spacing" textLength="8.271" x="361.1953" y="432.5371">1</text></g><!--link Resource to Actor--><g class="link" data-entity-1="ent0007" data-entity-2="ent0006" data-link-type="dependency" data-source-line="89" id="lnk28"><path codeLine="89" d="M264.87,339.69 C259.72,362.84 257.77,391.68 271,413.61 C278.23,425.6 284.5367,432.5512 296.2467,440.4612" fill="none" id="Resource-to-Actor-1" style="stroke:#181818;stroke-width:1;"/><polygon fill="#181818" points="300.39,443.26,295.1711,434.9076,296.2467,440.4612,290.6931,441.5369,300.39,443.26" style="stroke:#181818;stroke-width:1;stroke-linejoin:miter;stroke-miterlimit:10;"/><text fill="#000000" font-family="sans-serif" font-size="13" lengthAdjust="spacing" textLength="67.2788" x="272" y="409.6769">accessible</text><text fill="#000000" font-family="sans-serif" font-size="13" lengthAdjust="spacing" textLength="8.271" x="254.2672" y="359.1619">1</text><text fill="#000000" font-family="sans-serif" font-size="13" lengthAdjust="spacing" textLength="6.5" x="276.7969" y="432.4653">*</text></g><!--link Actor to Permission--><g class="link" data-entity-1="ent0006" data-entity-2="ent0012" data-link-type="dependency" data-source-line="90" id="lnk29"><path codeLine="90" d="M476.15,508.31 C574.82,543.24 725.5866,596.6016 804.2366,624.4416" fill="none" id="Actor-to-Permission" style="stroke:#181818;stroke-width:1;"/><polygon fill="#181818" points="808.95,626.11,801.8006,619.3361,804.2366,624.4416,799.1311,626.8776,808.95,626.11" style="stroke:#181818;stroke-width:1;stroke-linejoin:miter;stroke-miterlimit:10;"/><text fill="#000000" font-family="sans-serif" font-size="13" lengthAdjust="spacing" textLength="80.0439" x="595" y="550.9669">mayPerform</text><text fill="#000000" font-family="sans-serif" font-size="13" lengthAdjust="spacing" textLength="6.5" x="486.6197" y="528.0244">*</text><text fill="#000000" font-family="sans-serif" font-size="13" lengthAdjust="spacing" textLength="6.5" x="794.6943" y="619.0672">*</text></g><?plantuml-src XLJRRjim37tFLn3PGozhYtG3zc0K0ReqHOEX5xGRzipOJ2hKbb99RfSD_VTHj6mdheFQ22ABv17F8IdtfFGABHQGvkWS_1i0VCVqQMbDgRE9oOs5JvVJy0QBiHdPkFjL7jwzDDe_gBy4fry6RmFN8AuO1vUq0tCKtYxcDtcsKBJnko3ucKow41D-HYE66DJd3ozCWKh3jSae7mfMHVOoLyj7Bni0nx2Gpvkoc9E511wyLNePRSQg9KDqTZDoNcdqohmp1Kk1dh8BOXw-jFHJ5RJfzSO_8MSb2xE8-GZ0JB-WLQYzIo9WJ5PNwHMbyp0dABLwBWamjOO9OPv75Yv6tLPveywsagt3Np1N6Q2oAsCzf2nG7JYjy-UuI01yO527CghpZ8isWuMnx0lxLrV9zVK18n2V5xWD6gtFKy_LgQKkS7r7DeG5HSYVyLUXdEFSnY9D4tTFpfGsfIRKl6efZm36FKnJuk1vJX5EZEDUaMl0RPaJk1LS5KHynRKB_3PW7VbUMZFjcGTkvCUDct4Mix3vWzTrF-ZKhbT1puJxrUHrvgL_9ErLYbic4O2urj0A0sTdOMSyZaVT4rRWlwto5Ptf7qhBk3xF2gLx5MWXkngq5YSr1OHGUuKvo8WbxNdWohah2tAInz7cyNqcoQOrSADsv1Io3vvbwFAyitHQBOpprMfghTJ-CtYBsgdGq_iIV1AyZo2kGy31ntu2Tx0bUrE-RZONw76EhjBursoxMMzNPAi1gvptuCO0UfxuEUlYU9GMIdETrz9D4hZ78kKIunxLAanV7FJXwH2EZyVoNmrF0fQMod73CSHytU_Qp4l2usc29tS1kxQf3G_V0olDsaWB2kw6SmDzSd8wseB7nO9IkMZwtRyCDwOZWTAHsvd7HfS7bi-bihGBUHZR986L9Lb-xCYDK7aEeANGfx3SBhrEXwrJUo-mPxNPa3dia6blki7RVm00?></g></svg>