<svg xmlns="http://www.w3.org/2000/svg" xmlns:xlink="http://www.w3.org/1999/xlink" contentStyleType="text/css" data-diagram-type="CLASS" height="746px" preserveAspectRatio="none" style="width:3053px;height:746px;background:#FEFEFE;" version="1.1" viewBox="0 0 3053 746" width="3053px" zoomAndPan="magnify"><?plantuml 1.2026.7beta1?><defs/><g><rect fill="#FEFEFE" height="746" style="stroke:none;stroke-width:1;" width="3053" x="0" y="0"/><!--cluster Domain Model--><g class="cluster" data-qualified-name="Domain Model" data-source-line="10" id="ent0001"><rect fill="none" height="577.16" rx="2.5" ry="2.5" style="stroke:#000000;stroke-width:1.5;" width="3032" x="7" y="155"/><text fill="#000000" font-family="Arial" font-size="14" font-weight="700" lengthAdjust="spacing" textLength="112.7793" x="1466.6104" y="169.9951">Domain Model</text></g><!--cluster Application--><g class="cluster" data-qualified-name="Application" data-source-line="91" id="ent0030"><rect fill="none" height="99" rx="2.5" ry="2.5" style="stroke:#000000;stroke-width:1.5;" width="663" x="116" y="7"/><text fill="#000000" font-family="Arial" font-size="14" font-weight="700" lengthAdjust="spacing" textLength="89.2979" x="402.8511" y="21.9951">Application</text></g><!--class Queue--><g class="entity" data-qualified-name="Domain Model.Queue" data-source-line="11" id="ent0002"><rect fill="#E0F0FF" height="162.0781" rx="2.5" ry="2.5" style="stroke:#181818;stroke-width:0.5;" width="439.5674" x="23.22" y="190"/><ellipse cx="215.7576" cy="206" fill="#ADD1B2" rx="11" ry="11" style="stroke:#181818;stroke-width:1;"/><path d="M218.7263,211.6406 Q218.1482,211.9375 217.5076,212.0781 Q216.867,212.2344 216.1638,212.2344 Q213.6638,212.2344 212.3357,210.5938 Q211.0232,208.9375 211.0232,205.8125 Q211.0232,202.6875 212.3357,201.0313 Q213.6638,199.375 216.1638,199.375 Q216.867,199.375 217.5076,199.5313 Q218.1638,199.6875 218.7263,199.9844 L218.7263,202.7031 Q218.1013,202.125 217.5076,201.8594 Q216.9138,201.5781 216.2888,201.5781 Q214.9451,201.5781 214.2576,202.6563 Q213.5701,203.7188 213.5701,205.8125 Q213.5701,207.9063 214.2576,208.9844 Q214.9451,210.0469 216.2888,210.0469 Q216.9138,210.0469 217.5076,209.7813 Q218.1013,209.5 218.7263,208.9219 L218.7263,211.6406 Z " fill="#000000"/><text fill="#000000" font-family="Arial" font-size="14" lengthAdjust="spacing" textLength="45.9922" x="236.2576" y="210.8467">Queue</text><line style="stroke:#181818;stroke-width:0.5;" x1="24.22" x2="461.7874" y1="222" y2="222"/><text fill="#000000" font-family="Arial" font-size="14" lengthAdjust="spacing" textLength="190.0664" x="29.22" y="238.9951">+items : List&lt;QueueItem&gt;</text><text fill="#000000" font-family="Arial" font-size="14" lengthAdjust="spacing" textLength="104.7061" x="29.22" y="255.292">+order : String</text><text fill="#000000" font-family="Arial" font-size="14" lengthAdjust="spacing" textLength="97.8701" x="29.22" y="271.5889">+state : State</text><line style="stroke:#181818;stroke-width:0.5;" x1="24.22" x2="461.7874" y1="278.8906" y2="278.8906"/><text fill="#000000" font-family="Arial" font-size="14" lengthAdjust="spacing" textLength="242.7783" x="29.22" y="295.8857">+addItem(item: QueueItem) : void</text><text fill="#000000" font-family="Arial" font-size="14" lengthAdjust="spacing" textLength="117.8447" x="29.22" y="312.1826">+reorder() : void</text><text fill="#000000" font-family="Arial" font-size="14" lengthAdjust="spacing" textLength="246.832" x="29.22" y="328.4795">+removeItem(itemId: String) : void</text><text fill="#000000" font-family="Arial" font-size="14" lengthAdjust="spacing" textLength="427.5674" x="29.22" y="344.7764">+modifyItem(itemId: String, updatedItem: QueueItem) : void</text></g><g class="entity" data-qualified-name="Domain Model.GMN3" data-source-line="21" id="ent0004"><path d="M497.41,250.91 L497.41,267.04 L462.95,271.04 L497.41,275.04 L497.41,291.1756 A0,0 0 0 0 497.41,291.1756 L846.5902,291.1756 A0,0 0 0 0 846.5902,291.1756 L846.5902,260.91 L836.5902,250.91 L497.41,250.91 A0,0 0 0 0 497.41,250.91" fill="#FEFFDD" style="stroke:#181818;stroke-width:0.5;"/><path d="M836.5902,250.91 L836.5902,260.91 L846.5902,260.91 L836.5902,250.91" fill="#FEFFDD" style="stroke:#181818;stroke-width:0.5;"/><text fill="#000000" font-family="Arial" font-size="13" lengthAdjust="spacing" textLength="280.814" x="503.41" y="267.9769">invariant: must be automatically reordered</text><text fill="#000000" font-family="Arial" font-size="13" lengthAdjust="spacing" textLength="328.1802" x="503.41" y="283.1097">upon addition, removal, or modification of an item</text></g><!--class QueueItem--><g class="entity" data-qualified-name="Domain Model.QueueItem" data-source-line="25" id="ent0006"><rect fill="#E0F0FF" height="96.8906" rx="2.5" ry="2.5" style="stroke:#181818;stroke-width:0.5;" width="143.1611" x="505.42" y="429.08"/><ellipse cx="535.4049" cy="445.08" fill="#ADD1B2" rx="11" ry="11" style="stroke:#181818;stroke-width:1;"/><path d="M538.3737,450.7206 Q537.7955,451.0175 537.1549,451.1581 Q536.5143,451.3144 535.8112,451.3144 Q533.3112,451.3144 531.983,449.6738 Q530.6705,448.0175 530.6705,444.8925 Q530.6705,441.7675 531.983,440.1113 Q533.3112,438.455 535.8112,438.455 Q536.5143,438.455 537.1549,438.6113 Q537.8112,438.7675 538.3737,439.0644 L538.3737,441.7831 Q537.7487,441.205 537.1549,440.9394 Q536.5612,440.6581 535.9362,440.6581 Q534.5924,440.6581 533.9049,441.7363 Q533.2174,442.7988 533.2174,444.8925 Q533.2174,446.9863 533.9049,448.0644 Q534.5924,449.1269 535.9362,449.1269 Q536.5612,449.1269 537.1549,448.8613 Q537.7487,448.58 538.3737,448.0019 L538.3737,450.7206 Z " fill="#000000"/><text fill="#000000" font-family="Arial" font-size="14" lengthAdjust="spacing" textLength="77.8613" x="552.7349" y="449.9267">QueueItem</text><line style="stroke:#181818;stroke-width:0.5;" x1="506.42" x2="647.5811" y1="461.08" y2="461.08"/><text fill="#000000" font-family="Arial" font-size="14" lengthAdjust="spacing" textLength="79.9053" x="511.42" y="478.0751">+id : String</text><text fill="#000000" font-family="Arial" font-size="14" lengthAdjust="spacing" textLength="131.1611" x="511.42" y="494.372">+position : Integer</text><text fill="#000000" font-family="Arial" font-size="14" lengthAdjust="spacing" textLength="124.1133" x="511.42" y="510.6689">+urgency : String</text><line style="stroke:#181818;stroke-width:0.5;" x1="506.42" x2="647.5811" y1="517.9706" y2="517.9706"/></g><g class="entity" data-qualified-name="Domain Model.GMN7" data-source-line="31" id="ent0008"><path d="M683.24,464.96 L683.24,473.53 L649.03,477.53 L683.24,481.53 L683.24,490.0928 A0,0 0 0 0 683.24,490.0928 L1044.7664,490.0928 A0,0 0 0 0 1044.7664,490.0928 L1044.7664,474.96 L1034.7664,464.96 L683.24,464.96 A0,0 0 0 0 683.24,464.96" fill="#FEFFDD" style="stroke:#181818;stroke-width:0.5;"/><path d="M1034.7664,464.96 L1034.7664,474.96 L1044.7664,474.96 L1034.7664,464.96" fill="#FEFFDD" style="stroke:#181818;stroke-width:0.5;"/><text fill="#000000" font-family="Arial" font-size="13" lengthAdjust="spacing" textLength="340.5264" x="689.24" y="482.0269">invariant: position is determined by reordering rules</text></g><!--class ChangeEvent--><g class="entity" data-qualified-name="Domain Model.ChangeEvent" data-source-line="34" id="ent0010"><rect fill="#E0F0FF" height="129.4844" rx="2.5" ry="2.5" style="stroke:#181818;stroke-width:0.5;" width="479.6396" x="881.18" y="206.3"/><ellipse cx="1069.8963" cy="222.3" fill="#ADD1B2" rx="11" ry="11" style="stroke:#181818;stroke-width:1;"/><path d="M1072.8651,227.9406 Q1072.2869,228.2375 1071.6463,228.3781 Q1071.0057,228.5344 1070.3026,228.5344 Q1067.8026,228.5344 1066.4744,226.8937 Q1065.1619,225.2375 1065.1619,222.1125 Q1065.1619,218.9875 1066.4744,217.3312 Q1067.8026,215.675 1070.3026,215.675 Q1071.0057,215.675 1071.6463,215.8312 Q1072.3026,215.9875 1072.8651,216.2844 L1072.8651,219.0031 Q1072.2401,218.425 1071.6463,218.1594 Q1071.0526,217.8781 1070.4276,217.8781 Q1069.0838,217.8781 1068.3963,218.9562 Q1067.7088,220.0187 1067.7088,222.1125 Q1067.7088,224.2062 1068.3963,225.2844 Q1069.0838,226.3469 1070.4276,226.3469 Q1071.0526,226.3469 1071.6463,226.0812 Q1072.2401,225.8 1072.8651,225.2219 L1072.8651,227.9406 Z " fill="#000000"/><text fill="#000000" font-family="Arial" font-size="14" lengthAdjust="spacing" textLength="93.707" x="1090.3963" y="227.1467">ChangeEvent</text><line style="stroke:#181818;stroke-width:0.5;" x1="882.18" x2="1359.8196" y1="238.3" y2="238.3"/><text fill="#000000" font-family="Arial" font-size="14" lengthAdjust="spacing" textLength="144.5596" x="887.18" y="255.2951">+type : ChangeType</text><text fill="#000000" font-family="Arial" font-size="14" lengthAdjust="spacing" textLength="134.8389" x="887.18" y="271.592">+item : QueueItem</text><line style="stroke:#181818;stroke-width:0.5;" x1="882.18" x2="1359.8196" y1="278.8937" y2="278.8937"/><text fill="#000000" font-family="Arial" font-size="14" lengthAdjust="spacing" textLength="467.6396" x="887.18" y="295.8889">+recordChange(changeType: ChangeType.ADD, item: QueueItem)</text><text fill="#000000" font-family="Arial" font-size="14" lengthAdjust="spacing" textLength="314.542" x="887.18" y="312.1857">+recordChange(ChangeType.REMOVE, item)</text><text fill="#000000" font-family="Arial" font-size="14" lengthAdjust="spacing" textLength="367.5137" x="887.18" y="328.4826">+recordChange(ChangeType.MODIFY, updatedItem)</text></g><g class="entity" data-qualified-name="Domain Model.GMN11" data-source-line="42" id="ent0012"><path d="M1395.46,258.48 L1395.46,267.04 L1361.16,271.04 L1395.46,275.04 L1395.46,283.6128 A0,0 0 0 0 1395.46,283.6128 L1694.5445,283.6128 A0,0 0 0 0 1694.5445,283.6128 L1694.5445,268.48 L1684.5445,258.48 L1395.46,258.48 A0,0 0 0 0 1395.46,258.48" fill="#FEFFDD" style="stroke:#181818;stroke-width:0.5;"/><path d="M1684.5445,258.48 L1684.5445,268.48 L1694.5445,268.48 L1684.5445,258.48" fill="#FEFFDD" style="stroke:#181818;stroke-width:0.5;"/><text fill="#000000" font-family="Arial" font-size="13" lengthAdjust="spacing" textLength="278.0845" x="1401.46" y="275.5469">invariant: must be detected by the system</text></g><!--class ChangeType--><g class="entity" data-qualified-name="Domain Model.ChangeType" data-source-line="45" id="ent0014"><rect fill="#E0F0FF" height="96.8906" rx="2.5" ry="2.5" style="stroke:#181818;stroke-width:0.5;" width="119.9375" x="2903.03" y="222.6"/><ellipse cx="2918.03" cy="238.6" fill="#EB937F" rx="11" ry="11" style="stroke:#181818;stroke-width:1;"/><path d="M2922.1394,244.6 L2914.4206,244.6 L2914.4206,232.2094 L2922.1394,232.2094 L2922.1394,234.3656 L2916.8738,234.3656 L2916.8738,237.0375 L2921.6394,237.0375 L2921.6394,239.1938 L2916.8738,239.1938 L2916.8738,242.4438 L2922.1394,242.4438 L2922.1394,244.6 Z " fill="#000000"/><text fill="#000000" font-family="Arial" font-size="14" lengthAdjust="spacing" textLength="87.9375" x="2932.03" y="243.4467">ChangeType</text><line style="stroke:#181818;stroke-width:0.5;" x1="2904.03" x2="3021.9675" y1="254.6" y2="254.6"/><text fill="#000000" font-family="Arial" font-size="14" lengthAdjust="spacing" textLength="31.1377" x="2909.03" y="271.5951">ADD</text><text fill="#000000" font-family="Arial" font-size="14" lengthAdjust="spacing" textLength="60.0947" x="2909.03" y="287.892">REMOVE</text><text fill="#000000" font-family="Arial" font-size="14" lengthAdjust="spacing" textLength="54.6123" x="2909.03" y="304.1889">MODIFY</text><line style="stroke:#181818;stroke-width:0.5;" x1="2904.03" x2="3021.9675" y1="311.4906" y2="311.4906"/></g><!--class Resource--><g class="entity" data-qualified-name="Domain Model.Resource" data-source-line="51" id="ent0015"><rect fill="#E0F0FF" height="80.5938" rx="2.5" ry="2.5" style="stroke:#181818;stroke-width:0.5;" width="193.3369" x="1729.33" y="230.75"/><ellipse cx="1789.1786" cy="246.75" fill="#ADD1B2" rx="11" ry="11" style="stroke:#181818;stroke-width:1;"/><path d="M1792.1474,252.3906 Q1791.5693,252.6875 1790.9286,252.8281 Q1790.288,252.9844 1789.5849,252.9844 Q1787.0849,252.9844 1785.7568,251.3438 Q1784.4443,249.6875 1784.4443,246.5625 Q1784.4443,243.4375 1785.7568,241.7813 Q1787.0849,240.125 1789.5849,240.125 Q1790.288,240.125 1790.9286,240.2813 Q1791.5849,240.4375 1792.1474,240.7344 L1792.1474,243.4531 Q1791.5224,242.875 1790.9286,242.6094 Q1790.3349,242.3281 1789.7099,242.3281 Q1788.3661,242.3281 1787.6786,243.4063 Q1786.9911,244.4688 1786.9911,246.5625 Q1786.9911,248.6563 1787.6786,249.7344 Q1788.3661,250.7969 1789.7099,250.7969 Q1790.3349,250.7969 1790.9286,250.5313 Q1791.5224,250.25 1792.1474,249.6719 L1792.1474,252.3906 Z " fill="#000000"/><text fill="#000000" font-family="Arial" font-size="14" lengthAdjust="spacing" textLength="65.1396" x="1809.6786" y="251.5967">Resource</text><line style="stroke:#181818;stroke-width:0.5;" x1="1730.33" x2="1921.6669" y1="262.75" y2="262.75"/><text fill="#000000" font-family="Arial" font-size="14" lengthAdjust="spacing" textLength="105.6904" x="1735.33" y="279.7451">+owner : Actor</text><text fill="#000000" font-family="Arial" font-size="14" lengthAdjust="spacing" textLength="181.3369" x="1735.33" y="296.042">+accessible : Set&lt;Actor&gt;</text><line style="stroke:#181818;stroke-width:0.5;" x1="1730.33" x2="1921.6669" y1="303.3438" y2="303.3438"/></g><g class="entity" data-qualified-name="Domain Model.GMN16" data-source-line="56" id="ent0017"><path d="M1957.68,250.91 L1957.68,267.04 L1923,271.04 L1957.68,275.04 L1957.68,291.1756 A0,0 0 0 0 1957.68,291.1756 L2260.3128,291.1756 A0,0 0 0 0 2260.3128,291.1756 L2260.3128,260.91 L2250.3128,250.91 L1957.68,250.91 A0,0 0 0 0 1957.68,250.91" fill="#FEFFDD" style="stroke:#181818;stroke-width:0.5;"/><path d="M2250.3128,250.91 L2250.3128,260.91 L2260.3128,260.91 L2250.3128,250.91" fill="#FEFFDD" style="stroke:#181818;stroke-width:0.5;"/><text fill="#000000" font-family="Arial" font-size="13" lengthAdjust="spacing" textLength="230.2739" x="1963.68" y="267.9769">invariant: owner always has access</text><text fill="#000000" font-family="Arial" font-size="13" lengthAdjust="spacing" textLength="281.6328" x="1963.68" y="283.1097">invariant: access controlled by permissions</text></g><!--class Actor--><g class="entity" data-qualified-name="Domain Model.Actor" data-source-line="60" id="ent0019"><rect fill="#E0F0FF" height="64.2969" rx="2.5" ry="2.5" style="stroke:#181818;stroke-width:0.5;" width="246.2539" x="1702.87" y="445.38"/><ellipse cx="1803.2045" cy="461.38" fill="#ADD1B2" rx="11" ry="11" style="stroke:#181818;stroke-width:1;"/><path d="M1806.1732,467.0206 Q1805.5951,467.3175 1804.9545,467.4581 Q1804.3138,467.6144 1803.6107,467.6144 Q1801.1107,467.6144 1799.7826,465.9738 Q1798.4701,464.3175 1798.4701,461.1925 Q1798.4701,458.0675 1799.7826,456.4113 Q1801.1107,454.755 1803.6107,454.755 Q1804.3138,454.755 1804.9545,454.9113 Q1805.6107,455.0675 1806.1732,455.3644 L1806.1732,458.0831 Q1805.5482,457.505 1804.9545,457.2394 Q1804.3607,456.9581 1803.7357,456.9581 Q1802.392,456.9581 1801.7045,458.0363 Q1801.017,459.0988 1801.017,461.1925 Q1801.017,463.2863 1801.7045,464.3644 Q1802.392,465.4269 1803.7357,465.4269 Q1804.3607,465.4269 1804.9545,465.1613 Q1805.5482,464.88 1806.1732,464.3019 L1806.1732,467.0206 Z " fill="#000000"/><text fill="#000000" font-family="Arial" font-size="14" lengthAdjust="spacing" textLength="37.085" x="1823.7045" y="466.2267">Actor</text><line style="stroke:#181818;stroke-width:0.5;" x1="1703.87" x2="1948.1239" y1="477.38" y2="477.38"/><text fill="#000000" font-family="Arial" font-size="14" lengthAdjust="spacing" textLength="234.2539" x="1708.87" y="494.3751">+mayPerform : Set&lt;Permission&gt;</text><line style="stroke:#181818;stroke-width:0.5;" x1="1703.87" x2="1948.1239" y1="501.6769" y2="501.6769"/></g><!--class Permission--><g class="entity" data-qualified-name="Domain Model.Permission" data-source-line="64" id="ent0020"><rect fill="#E0F0FF" height="113.1875" rx="2.5" ry="2.5" style="stroke:#181818;stroke-width:0.5;" width="108.2549" x="1771.87" y="602.97"/><ellipse cx="1786.87" cy="618.97" fill="#EB937F" rx="11" ry="11" style="stroke:#181818;stroke-width:1;"/><path d="M1790.9794,624.97 L1783.2606,624.97 L1783.2606,612.5794 L1790.9794,612.5794 L1790.9794,614.7356 L1785.7138,614.7356 L1785.7138,617.4075 L1790.4794,617.4075 L1790.4794,619.5637 L1785.7138,619.5637 L1785.7138,622.8137 L1790.9794,622.8137 L1790.9794,624.97 Z " fill="#000000"/><text fill="#000000" font-family="Arial" font-size="14" lengthAdjust="spacing" textLength="76.2549" x="1800.87" y="623.8167">Permission</text><line style="stroke:#181818;stroke-width:0.5;" x1="1772.87" x2="1879.1249" y1="634.97" y2="634.97"/><text fill="#000000" font-family="Arial" font-size="14" lengthAdjust="spacing" textLength="35.8066" x="1777.87" y="651.9651">Read</text><text fill="#000000" font-family="Arial" font-size="14" lengthAdjust="spacing" textLength="37.5908" x="1777.87" y="668.262">Write</text><text fill="#000000" font-family="Arial" font-size="14" lengthAdjust="spacing" textLength="56.417" x="1777.87" y="684.5589">Execute</text><text fill="#000000" font-family="Arial" font-size="14" lengthAdjust="spacing" textLength="44.8643" x="1777.87" y="700.8557">Admin</text><line style="stroke:#181818;stroke-width:0.5;" x1="1772.87" x2="1879.1249" y1="708.1575" y2="708.1575"/></g><!--class State--><g class="entity" data-qualified-name="Domain Model.State" data-source-line="71" id="ent0021"><rect fill="#E0F0FF" height="96.8906" rx="2.5" ry="2.5" style="stroke:#181818;stroke-width:0.5;" width="285.0137" x="2295.49" y="222.6"/><ellipse cx="2415.218" cy="238.6" fill="#EB937F" rx="11" ry="11" style="stroke:#181818;stroke-width:1;"/><path d="M2419.3274,244.6 L2411.6087,244.6 L2411.6087,232.2094 L2419.3274,232.2094 L2419.3274,234.3656 L2414.0618,234.3656 L2414.0618,237.0375 L2418.8274,237.0375 L2418.8274,239.1938 L2414.0618,239.1938 L2414.0618,242.4438 L2419.3274,242.4438 L2419.3274,244.6 Z " fill="#000000"/><text fill="#000000" font-family="Arial" font-size="14" lengthAdjust="spacing" textLength="37.0576" x="2435.718" y="243.4467">State</text><line style="stroke:#181818;stroke-width:0.5;" x1="2296.49" x2="2579.5037" y1="254.6" y2="254.6"/><text fill="#000000" font-family="Arial" font-size="14" lengthAdjust="spacing" textLength="48.3301" x="2301.49" y="271.5951">PreIdle</text><text fill="#000000" font-family="Arial" font-size="14" lengthAdjust="spacing" textLength="38.6982" x="2301.49" y="287.892">Post1</text><line style="stroke:#181818;stroke-width:0.5;" x1="2296.49" x2="2579.5037" y1="295.1938" y2="295.1938"/><text fill="#000000" font-family="Arial" font-size="14" lengthAdjust="spacing" textLength="273.0137" x="2301.49" y="312.1889">+transition(State.PreIdle) : State.Post1</text></g><g class="entity" data-qualified-name="Domain Model.GMN22" data-source-line="77" id="ent0023"><path d="M2615.66,250.91 L2615.66,267.04 L2580.8,271.04 L2615.66,275.04 L2615.66,291.1756 A0,0 0 0 0 2615.66,291.1756 L2868.3304,291.1756 A0,0 0 0 0 2868.3304,291.1756 L2868.3304,260.91 L2858.3304,250.91 L2615.66,250.91 A0,0 0 0 0 2615.66,250.91" fill="#FEFFDD" style="stroke:#181818;stroke-width:0.5;"/><path d="M2858.3304,250.91 L2858.3304,260.91 L2868.3304,260.91 L2858.3304,250.91" fill="#FEFFDD" style="stroke:#181818;stroke-width:0.5;"/><text fill="#000000" font-family="Arial" font-size="13" lengthAdjust="spacing" textLength="231.6704" x="2621.66" y="267.9769">invariant: operation must transition</text><text fill="#000000" font-family="Arial" font-size="13" lengthAdjust="spacing" textLength="136.7983" x="2621.66" y="283.1097">from PreIdle to Post1</text></g><!--class QueueManagementSystem--><g class="entity" data-qualified-name="Application.QueueManagementSystem" data-source-line="92" id="ent0031"><rect fill="#E0F0FF" height="48" rx="2.5" ry="2.5" style="stroke:#181818;stroke-width:0.5;" width="222.4219" x="131.79" y="42"/><ellipse cx="146.79" cy="58" fill="#B4A7E5" rx="11" ry="11" style="stroke:#181818;stroke-width:1;"/><path d="M142.7119,53.7656 L142.7119,51.6094 L150.1025,51.6094 L150.1025,53.7656 L147.6338,53.7656 L147.6338,61.8438 L150.1025,61.8438 L150.1025,64 L142.7119,64 L142.7119,61.8438 L145.1806,61.8438 L145.1806,53.7656 L142.7119,53.7656 Z " fill="#000000"/><text fill="#000000" font-family="Arial" font-size="14" font-style="italic" lengthAdjust="spacing" textLength="190.4219" x="160.79" y="62.8467">QueueManagementSystem</text><line style="stroke:#181818;stroke-width:0.5;" x1="132.79" x2="353.2119" y1="74" y2="74"/><line style="stroke:#181818;stroke-width:0.5;" x1="132.79" x2="353.2119" y1="82" y2="82"/></g><g class="entity" data-qualified-name="Application.GMN32" data-source-line="95" id="ent0033"><path d="M389.47,45.87 L389.47,62 L354.54,66 L389.47,70 L389.47,86.1356 A0,0 0 0 0 389.47,86.1356 L762.5237,86.1356 A0,0 0 0 0 762.5237,86.1356 L762.5237,55.87 L752.5237,45.87 L389.47,45.87 A0,0 0 0 0 389.47,45.87" fill="#FEFFDD" style="stroke:#181818;stroke-width:0.5;"/><path d="M752.5237,45.87 L752.5237,55.87 L762.5237,55.87 L752.5237,45.87" fill="#FEFFDD" style="stroke:#181818;stroke-width:0.5;"/><text fill="#000000" font-family="Arial" font-size="13" lengthAdjust="spacing" textLength="231.9624" x="395.47" y="62.9369">interface for managing queue data;</text><text fill="#000000" font-family="Arial" font-size="13" lengthAdjust="spacing" textLength="352.0537" x="395.47" y="78.0697">requires encrypted and authenticated communication</text></g><!--reverse link Queue to QueueItem--><g class="link" data-entity-1="ent0002" data-entity-2="ent0006" data-link-type="composition" data-source-line="82" id="lnk25"><path codeLine="82" d="M384.7642,358.8359 C429.3042,386.1059 467.14,409.27 505.26,432.61" fill="none" id="Queue-backto-QueueItem" style="stroke:#181818;stroke-width:1;"/><polygon fill="#181818" points="374.53,352.57,377.5584,359.1144,384.7642,358.8359,381.7357,352.2916,374.53,352.57" style="stroke:#181818;stroke-width:1;stroke-linejoin:miter;stroke-miterlimit:10;"/></g><!--link ChangeEvent to QueueItem--><g class="link" data-entity-1="ent0010" data-entity-2="ent0006" data-link-type="dependency" data-source-line="85" id="lnk26"><path codeLine="85" d="M912.82,336.23 C834.4,362.39 745.09,394.61 666,429.08 C660.38,431.53 659.1431,432.0269 653.4031,434.7969" fill="none" id="ChangeEvent-to-QueueItem" style="stroke:#181818;stroke-width:1;"/><polygon fill="#181818" points="648.9,436.97,658.744,436.6609,653.4031,434.7969,655.2671,429.456,648.9,436.97" style="stroke:#181818;stroke-width:1;stroke-linejoin:miter;stroke-miterlimit:10;"/><text fill="#000000" font-family="Arial" font-size="13" lengthAdjust="spacing" textLength="29.3706" x="777" y="395.1469">item</text></g><!--link Actor to Permission--><g class="link" data-entity-1="ent0019" data-entity-2="ent0020" data-link-type="dependency" data-source-line="86" id="lnk27"><path codeLine="86" d="M1826,509.89 C1826,535.38 1826,566.98 1826,597.49" fill="none" id="Actor-to-Permission" style="stroke:#181818;stroke-width:1;"/><polygon fill="#181818" points="1826,602.49,1830,593.49,1826,597.49,1822,593.49,1826,602.49" style="stroke:#181818;stroke-width:1;stroke-linejoin:miter;stroke-miterlimit:10;"/><text fill="#000000" font-family="Arial" font-size="13" lengthAdjust="spacing" textLength="100.6992" x="1827" y="569.0369">has_permission</text></g><!--link Resource to Actor--><g class="link" data-entity-1="ent0015" data-entity-2="ent0019" data-link-type="dependency" data-source-line="87" id="lnk28"><path codeLine="87" d="M1799.49,311.62 C1786.07,336.45 1774.13,369.29 1782,399.08 C1786.27,415.23 1792.1114,427.2991 1800.5114,440.7491" fill="none" id="Resource-to-Actor" style="stroke:#181818;stroke-width:1;"/><polygon fill="#181818" points="1803.16,444.99,1801.7853,435.2376,1800.5114,440.7491,1794.9999,439.4753,1803.16,444.99" style="stroke:#181818;stroke-width:1;stroke-linejoin:miter;stroke-miterlimit:10;"/><text fill="#000000" font-family="Arial" font-size="13" lengthAdjust="spacing" textLength="40.168" x="1783" y="395.1469">owner</text></g><!--link Resource to Actor--><g class="link" data-entity-1="ent0015" data-entity-2="ent0019" data-link-type="dependency" data-source-line="88" id="lnk29"><path codeLine="88" d="M1827.21,311.81 C1827.83,336.85 1828.38,369.86 1828,399.08 C1827.81,414.14 1827.5425,425.852 1827.1425,439.882" fill="none" id="Resource-to-Actor-1" style="stroke:#181818;stroke-width:1;"/><polygon fill="#181818" points="1827,444.88,1831.2549,435.9977,1827.1425,439.882,1823.2581,435.7697,1827,444.88" style="stroke:#181818;stroke-width:1;stroke-linejoin:miter;stroke-miterlimit:10;"/><text fill="#000000" font-family="Arial" font-size="13" lengthAdjust="spacing" textLength="104.5903" x="1829" y="395.1469">accessible (0..*)</text></g><!--link QueueManagementSystem to Queue--><g class="link" data-entity-1="ent0031" data-entity-2="ent0002" data-link-type="dependency" data-source-line="101" id="lnk35"><path codeLine="101" d="M243,90.29 C243,114.57 243,148.97 243,184.71" fill="none" id="QueueManagementSystem-to-Queue" style="stroke:#181818;stroke-width:1;"/><polygon fill="#181818" points="243,189.71,247,180.71,243,184.71,239,180.71,243,189.71" style="stroke:#181818;stroke-width:1;stroke-linejoin:miter;stroke-miterlimit:10;"/><text fill="#000000" font-family="Arial" font-size="13" lengthAdjust="spacing" textLength="59.8584" x="244" y="135.0669">manages</text></g><?plantuml-src VLNRRXCn47tFLupWWHJQQ7aDg5BQ958a2gL589wGuvqa5bvxiRs51V7A1_29V0bZUo_UNBgHagpdpCoPg-rNeKfcM05SCcjdpXcnhXokk5RtuYT2Dh8T9CSDgwHRQkNUiW9XPWIJYNpD-DUjqPNAhxNK1fuk5_wJ84f2i2tUkreY6EIEgQt4111OU0UDXImy-u2hVKUBR9ajbmbCA8TcmpWUGEVP8fkd5b5LnG5gkLnaLzber1269tDTCA7WHkSedy2l4T0JkC3x2YjiJlppGZWiB4pXZR3kTP2kwEIo1sYJeo70FILRRVjpwvZ3S4w_TFm2M9vxtR4tEONErXc17hJ80yPWi3VUEopq0tQwgxprDa0LEXUR-WZg7Aeo9nB1-t770B_3jzB4sOZjpe7UH6GNaL0FZ7f4kIaKbNMmHc2LeqmwmPcKTSiTyqwbAhNoOGidj3gFSJ1v3bIKm9OKlSJxOWeyww2AAWzCHlk5yQm7nScF9BxKDlWZqOeQPukcbrLcYuhNGwsJeQzQGdlXTnw4fJ6YtYo4mXpMNGh8CfXAeZqPplMEXWKN3wXS6f2hIzypKVg1NeQD2DC1CTyPd1n6-9XtMgc5oMm-FuVzdZlKJZJk5ZVlFYwYqkF8ctVprVBpeC7EJkOqYVcnfl8PvIxcq-qGR6sFDuQVzIJG98yKSlS_1jEzHiODnwGWTsXrPVXWzlLt5KPxnfrEceXnZjQAjGpZZUvra5-UZBirVIpew8B9xwosi6CMel5Zq2W1skNEQ2bZWahVV4H6gzEz5kYbSHMilgM5gatH173RMRbCCnCItCiI4tV8-Yd_P8JhWrlyG5ubxxESfkF0QjYAYS5RWwjSzbgtshgNeVMSOIgEspWeJHheMRjR9otsUFRR_NkOUifTN3-Xyte_7NXZTD4o0wUXTpHCypEuraMx59efWtz__kvjaNZ-_E8YEM_qPzPgBWARMCTqFrnSN2RhRzhloLXOBqwADFLjzANlYr6iLzFT7XpLcjuxBKxQV9nD9i_FHh-JAtHMbh9Pt-qDsbtJaUqDKuGiA8BxCC4DwkIstSSdDMljRlp5uM5-mNuBwQIzmrvrK8FVAc7GKe6ugKk_HHYLYkwf7TdrVEc4wwAeL4D-M4wAS52CwObG0WbiRgNHSKnNDifbW_yF?></g></svg>