<svg xmlns="http://www.w3.org/2000/svg" xmlns:xlink="http://www.w3.org/1999/xlink" contentStyleType="text/css" data-diagram-type="CLASS" height="582px" preserveAspectRatio="none" style="width:2207px;height:582px;background:#FFFFFF;" version="1.1" viewBox="0 0 2207 582" width="2207px" zoomAndPan="magnify"><?plantuml 1.2026.7beta1?><defs/><g><!--cluster DOM--><g class="cluster" data-qualified-name="DOM" data-source-line="26" id="ent0001"><path d="M8.5,6 L106.168,6 A3.75,3.75 0 0 1 108.668,8.5 L115.668,25.9688 L1203.5,25.9688 A2.5,2.5 0 0 1 1206,28.4688 L1206,400.09 A2.5,2.5 0 0 1 1203.5,402.59 L8.5,402.59 A2.5,2.5 0 0 1 6,400.09 L6,8.5 A2.5,2.5 0 0 1 8.5,6" fill="#F0F0F0" style="stroke:#666666;stroke-width:1.5;"/><line style="stroke:#666666;stroke-width:1.5;" x1="6" x2="115.668" y1="25.9688" y2="25.9688"/><text fill="#222222" font-family="sans-serif" font-size="12" font-weight="700" lengthAdjust="spacing" textLength="96.668" x="10" y="19.1387">Domain Model</text></g><!--cluster INFRA--><g class="cluster" data-qualified-name="INFRA" data-source-line="89" id="ent0013"><path d="M1232.5,245.73 L1384.7246,245.73 A3.75,3.75 0 0 1 1387.2246,248.23 L1394.2246,265.6988 L1638.5,265.6988 A2.5,2.5 0 0 1 1641,268.1988 L1641,565 A2.5,2.5 0 0 1 1638.5,567.5 L1232.5,567.5 A2.5,2.5 0 0 1 1230,565 L1230,248.23 A2.5,2.5 0 0 1 1232.5,245.73" fill="#F0F0F0" style="stroke:#666666;stroke-width:1.5;"/><line style="stroke:#666666;stroke-width:1.5;" x1="1230" x2="1394.2246" y1="265.6988" y2="265.6988"/><text fill="#222222" font-family="sans-serif" font-size="12" font-weight="700" lengthAdjust="spacing" textLength="151.2246" x="1234" y="258.8687">Infrastructure &#8212; Ports</text></g><!--cluster EXC--><g class="cluster" data-qualified-name="EXC" data-source-line="107" id="ent0017"><path d="M1749.5,43.94 L1824.0586,43.94 A3.75,3.75 0 0 1 1826.5586,46.44 L1833.5586,63.9088 L2189.5,63.9088 A2.5,2.5 0 0 1 2192,66.4088 L2192,355.17 A2.5,2.5 0 0 1 2189.5,357.67 L1749.5,357.67 A2.5,2.5 0 0 1 1747,355.17 L1747,46.44 A2.5,2.5 0 0 1 1749.5,43.94" fill="#F0F0F0" style="stroke:#666666;stroke-width:1.5;"/><line style="stroke:#666666;stroke-width:1.5;" x1="1747" x2="1833.5586" y1="63.9088" y2="63.9088"/><text fill="#222222" font-family="sans-serif" font-size="12" font-weight="700" lengthAdjust="spacing" textLength="73.5586" x="1751" y="57.0787">Exceptions</text></g><!--class Permission--><g class="entity" data-qualified-name="DOM.Permission" data-source-line="27" id="ent0002"><rect fill="#F8F8F8" height="101.875" rx="2.5" ry="2.5" style="stroke:#333333;stroke-width:0.5;" width="95.3613" x="1094.32" y="51.97"/><ellipse cx="1108.32" cy="66.97" fill="#EB937F" rx="10" ry="10" style="stroke:#181818;stroke-width:1;"/><path d="M1110.7575,71.47 L1105.3044,71.47 L1105.3044,62.72 L1110.7575,62.72 L1110.7575,64.2513 L1107.0388,64.2513 L1107.0388,66.1263 L1110.3981,66.1263 L1110.3981,67.6575 L1107.0388,67.6575 L1107.0388,69.9388 L1110.7575,69.9388 L1110.7575,71.47 Z " fill="#000000"/><text fill="#000000" font-family="sans-serif" font-size="12" lengthAdjust="spacing" textLength="65.3613" x="1121.32" y="71.1243">Permission</text><line style="stroke:#333333;stroke-width:0.5;" x1="1095.32" x2="1188.6813" y1="81.97" y2="81.97"/><text fill="#000000" font-family="sans-serif" font-size="12" lengthAdjust="spacing" textLength="30.6914" x="1100.32" y="97.1087">Read</text><text fill="#000000" font-family="sans-serif" font-size="12" lengthAdjust="spacing" textLength="32.2207" x="1100.32" y="111.0774">Write</text><text fill="#000000" font-family="sans-serif" font-size="12" lengthAdjust="spacing" textLength="48.3574" x="1100.32" y="125.0462">Execute</text><text fill="#000000" font-family="sans-serif" font-size="12" lengthAdjust="spacing" textLength="38.4551" x="1100.32" y="139.0149">Admin</text><line style="stroke:#333333;stroke-width:0.5;" x1="1095.32" x2="1188.6813" y1="145.845" y2="145.845"/></g><!--class ABOType--><g class="entity" data-qualified-name="DOM.ABOType" data-source-line="34" id="ent0003"><rect fill="#F8F8F8" height="101.875" rx="2.5" ry="2.5" style="stroke:#333333;stroke-width:0.5;" width="85.3184" x="22.34" y="51.97"/><ellipse cx="36.34" cy="66.97" fill="#EB937F" rx="10" ry="10" style="stroke:#181818;stroke-width:1;"/><path d="M38.7775,71.47 L33.3244,71.47 L33.3244,62.72 L38.7775,62.72 L38.7775,64.2513 L35.0588,64.2513 L35.0588,66.1263 L38.4181,66.1263 L38.4181,67.6575 L35.0588,67.6575 L35.0588,69.9388 L38.7775,69.9388 L38.7775,71.47 Z " fill="#000000"/><text fill="#000000" font-family="sans-serif" font-size="12" lengthAdjust="spacing" textLength="55.3184" x="49.34" y="71.1243">ABOType</text><line style="stroke:#333333;stroke-width:0.5;" x1="23.34" x2="106.6584" y1="81.97" y2="81.97"/><text fill="#000000" font-family="sans-serif" font-size="12" lengthAdjust="spacing" textLength="8.209" x="28.34" y="97.1087">A</text><text fill="#000000" font-family="sans-serif" font-size="12" lengthAdjust="spacing" textLength="8.2324" x="28.34" y="111.0774">B</text><text fill="#000000" font-family="sans-serif" font-size="12" lengthAdjust="spacing" textLength="16.4414" x="28.34" y="125.0462">AB</text><text fill="#000000" font-family="sans-serif" font-size="12" lengthAdjust="spacing" textLength="9.4453" x="28.34" y="139.0149">O</text><line style="stroke:#333333;stroke-width:0.5;" x1="23.34" x2="106.6584" y1="145.845" y2="145.845"/></g><!--class RhFactor--><g class="entity" data-qualified-name="DOM.RhFactor" data-source-line="41" id="ent0004"><rect fill="#F8F8F8" height="73.9375" rx="2.5" ry="2.5" style="stroke:#333333;stroke-width:0.5;" width="83.7773" x="143.11" y="65.94"/><ellipse cx="157.11" cy="80.94" fill="#EB937F" rx="10" ry="10" style="stroke:#181818;stroke-width:1;"/><path d="M159.5475,85.44 L154.0944,85.44 L154.0944,76.69 L159.5475,76.69 L159.5475,78.2213 L155.8288,78.2213 L155.8288,80.0963 L159.1881,80.0963 L159.1881,81.6275 L155.8288,81.6275 L155.8288,83.9088 L159.5475,83.9088 L159.5475,85.44 Z " fill="#000000"/><text fill="#000000" font-family="sans-serif" font-size="12" lengthAdjust="spacing" textLength="53.7773" x="170.11" y="85.0943">RhFactor</text><line style="stroke:#333333;stroke-width:0.5;" x1="144.11" x2="225.8873" y1="95.94" y2="95.94"/><text fill="#000000" font-family="sans-serif" font-size="12" lengthAdjust="spacing" textLength="46.6875" x="149.11" y="111.0787">Positive</text><text fill="#000000" font-family="sans-serif" font-size="12" lengthAdjust="spacing" textLength="53.8535" x="149.11" y="125.0474">Negative</text><line style="stroke:#333333;stroke-width:0.5;" x1="144.11" x2="225.8873" y1="131.8775" y2="131.8775"/></g><!--class BloodUnitStatus--><g class="entity" data-qualified-name="DOM.BloodUnitStatus" data-source-line="46" id="ent0005"><rect fill="#F8F8F8" height="87.9063" rx="2.5" ry="2.5" style="stroke:#333333;stroke-width:0.5;" width="126.5332" x="261.73" y="58.95"/><ellipse cx="275.73" cy="73.95" fill="#EB937F" rx="10" ry="10" style="stroke:#181818;stroke-width:1;"/><path d="M278.1675,78.45 L272.7144,78.45 L272.7144,69.7 L278.1675,69.7 L278.1675,71.2313 L274.4488,71.2313 L274.4488,73.1063 L277.8081,73.1063 L277.8081,74.6375 L274.4488,74.6375 L274.4488,76.9188 L278.1675,76.9188 L278.1675,78.45 Z " fill="#000000"/><text fill="#000000" font-family="sans-serif" font-size="12" lengthAdjust="spacing" textLength="96.5332" x="288.73" y="78.1043">BloodUnitStatus</text><line style="stroke:#333333;stroke-width:0.5;" x1="262.73" x2="387.2632" y1="88.95" y2="88.95"/><text fill="#000000" font-family="sans-serif" font-size="12" lengthAdjust="spacing" textLength="54.1641" x="267.73" y="104.0887">available</text><text fill="#000000" font-family="sans-serif" font-size="12" lengthAdjust="spacing" textLength="38.4434" x="267.73" y="118.0574">issued</text><text fill="#000000" font-family="sans-serif" font-size="12" lengthAdjust="spacing" textLength="45.3691" x="267.73" y="132.0262">expired</text><line style="stroke:#333333;stroke-width:0.5;" x1="262.73" x2="387.2632" y1="138.8563" y2="138.8563"/></g><!--class State--><g class="entity" data-qualified-name="DOM.State" data-source-line="52" id="ent0006"><rect fill="#F8F8F8" height="143.7813" rx="2.5" ry="2.5" style="stroke:#333333;stroke-width:0.5;" width="61.7637" x="34.12" y="242.81"/><ellipse cx="48.12" cy="257.81" fill="#EB937F" rx="10" ry="10" style="stroke:#181818;stroke-width:1;"/><path d="M50.5575,262.31 L45.1044,262.31 L45.1044,253.56 L50.5575,253.56 L50.5575,255.0913 L46.8388,255.0913 L46.8388,256.9663 L50.1981,256.9663 L50.1981,258.4975 L46.8388,258.4975 L46.8388,260.7788 L50.5575,260.7788 L50.5575,262.31 Z " fill="#000000"/><text fill="#000000" font-family="sans-serif" font-size="12" lengthAdjust="spacing" textLength="31.7637" x="61.12" y="261.9643">State</text><line style="stroke:#333333;stroke-width:0.5;" x1="35.12" x2="94.8837" y1="272.81" y2="272.81"/><text fill="#000000" font-family="sans-serif" font-size="12" lengthAdjust="spacing" textLength="27.1875" x="40.12" y="287.9487">Pre1</text><text fill="#000000" font-family="sans-serif" font-size="12" lengthAdjust="spacing" textLength="27.1875" x="40.12" y="301.9174">Pre2</text><text fill="#000000" font-family="sans-serif" font-size="12" lengthAdjust="spacing" textLength="33.1699" x="40.12" y="315.8862">Post1</text><text fill="#000000" font-family="sans-serif" font-size="12" lengthAdjust="spacing" textLength="33.1699" x="40.12" y="329.8549">Post2</text><text fill="#000000" font-family="sans-serif" font-size="12" lengthAdjust="spacing" textLength="33.1699" x="40.12" y="343.8237">Post3</text><text fill="#000000" font-family="sans-serif" font-size="12" lengthAdjust="spacing" textLength="33.1699" x="40.12" y="357.7924">Post4</text><text fill="#000000" font-family="sans-serif" font-size="12" lengthAdjust="spacing" textLength="33.1699" x="40.12" y="371.7612">Post5</text><line style="stroke:#333333;stroke-width:0.5;" x1="35.12" x2="94.8837" y1="378.5913" y2="378.5913"/></g><!--class Actor--><g class="entity" data-qualified-name="DOM.Actor" data-source-line="62" id="ent0007"><rect fill="#F8F8F8" height="73.9375" rx="2.5" ry="2.5" style="stroke:#333333;stroke-width:0.5;" width="181.4688" x="131.27" y="277.73"/><ellipse cx="202.1108" cy="292.73" fill="#ADD1B2" rx="10" ry="10" style="stroke:#181818;stroke-width:1;"/><path d="M203.9389,296.98 Q203.5327,297.1831 203.0796,297.2925 Q202.6264,297.4019 202.1421,297.4019 Q200.3608,297.4019 199.4233,296.2456 Q198.5014,295.0738 198.5014,292.8706 Q198.5014,290.6519 199.4233,289.4956 Q200.3608,288.3238 202.1421,288.3238 Q202.6264,288.3238 203.0796,288.4331 Q203.5483,288.5269 203.9389,288.7456 L203.9389,290.6675 Q203.5014,290.2613 203.0796,290.0738 Q202.6577,289.8706 202.2202,289.8706 Q201.2671,289.8706 200.7827,290.6363 Q200.2983,291.3863 200.2983,292.8706 Q200.2983,294.3394 200.7827,295.0894 Q201.2671,295.8394 202.2202,295.8394 Q202.6577,295.8394 203.0796,295.6519 Q203.5014,295.4644 203.9389,295.0581 L203.9389,296.98 Z " fill="#000000"/><text fill="#000000" font-family="sans-serif" font-size="12" lengthAdjust="spacing" textLength="31.7871" x="221.1108" y="296.8843">Actor</text><line style="stroke:#333333;stroke-width:0.5;" x1="132.27" x2="311.7388" y1="307.73" y2="307.73"/><g data-visibility-modifier="PUBLIC_FIELD"><ellipse cx="142.27" cy="320.2144" fill="none" rx="3" ry="3" style="stroke:#038048;stroke-width:1;"/></g><text fill="#000000" font-family="sans-serif" font-size="12" lengthAdjust="spacing" textLength="77.7012" x="150.27" y="322.8687">name: String</text><g data-visibility-modifier="PUBLIC_FIELD"><ellipse cx="142.27" cy="334.1831" fill="none" rx="3" ry="3" style="stroke:#038048;stroke-width:1;"/></g><text fill="#000000" font-family="sans-serif" font-size="12" lengthAdjust="spacing" textLength="156.4688" x="150.27" y="336.8374">mayPerform: Permission[]</text><line style="stroke:#333333;stroke-width:0.5;" x1="132.27" x2="311.7388" y1="343.6675" y2="343.6675"/></g><!--class BloodUnit--><g class="entity" data-qualified-name="DOM.BloodUnit" data-source-line="67" id="ent0008"><rect fill="#F8F8F8" height="129.8125" rx="2.5" ry="2.5" style="stroke:#333333;stroke-width:0.5;" width="166.2637" x="422.87" y="38"/><ellipse cx="472.8544" cy="53" fill="#ADD1B2" rx="10" ry="10" style="stroke:#181818;stroke-width:1;"/><path d="M474.6825,57.25 Q474.2763,57.4531 473.8231,57.5625 Q473.37,57.6719 472.8856,57.6719 Q471.1044,57.6719 470.1669,56.5156 Q469.245,55.3438 469.245,53.1406 Q469.245,50.9219 470.1669,49.7656 Q471.1044,48.5938 472.8856,48.5938 Q473.37,48.5938 473.8231,48.7031 Q474.2919,48.7969 474.6825,49.0156 L474.6825,50.9375 Q474.245,50.5313 473.8231,50.3438 Q473.4013,50.1406 472.9638,50.1406 Q472.0106,50.1406 471.5263,50.9063 Q471.0419,51.6563 471.0419,53.1406 Q471.0419,54.6094 471.5263,55.3594 Q472.0106,56.1094 472.9638,56.1094 Q473.4013,56.1094 473.8231,55.9219 Q474.245,55.7344 474.6825,55.3281 L474.6825,57.25 Z " fill="#000000"/><text fill="#000000" font-family="sans-serif" font-size="12" lengthAdjust="spacing" textLength="58.2949" x="491.8544" y="57.1543">BloodUnit</text><line style="stroke:#333333;stroke-width:0.5;" x1="423.87" x2="588.1337" y1="68" y2="68"/><g data-visibility-modifier="PUBLIC_FIELD"><ellipse cx="433.87" cy="80.4844" fill="none" rx="3" ry="3" style="stroke:#038048;stroke-width:1;"/></g><text fill="#000000" font-family="sans-serif" font-size="12" lengthAdjust="spacing" textLength="97.5996" x="441.87" y="83.1387">uniqueID: String</text><g data-visibility-modifier="PUBLIC_FIELD"><ellipse cx="433.87" cy="94.4531" fill="none" rx="3" ry="3" style="stroke:#038048;stroke-width:1;"/></g><text fill="#000000" font-family="sans-serif" font-size="12" lengthAdjust="spacing" textLength="114.9199" x="441.87" y="97.1074">aboType: ABOType</text><g data-visibility-modifier="PUBLIC_FIELD"><ellipse cx="433.87" cy="108.4219" fill="none" rx="3" ry="3" style="stroke:#038048;stroke-width:1;"/></g><text fill="#000000" font-family="sans-serif" font-size="12" lengthAdjust="spacing" textLength="112.0078" x="441.87" y="111.0762">rhFactor: RhFactor</text><g data-visibility-modifier="PUBLIC_FIELD"><ellipse cx="433.87" cy="122.3906" fill="none" rx="3" ry="3" style="stroke:#038048;stroke-width:1;"/></g><text fill="#000000" font-family="sans-serif" font-size="12" lengthAdjust="spacing" textLength="122.7949" x="441.87" y="125.0449">collectionDate: Date</text><g data-visibility-modifier="PUBLIC_FIELD"><ellipse cx="433.87" cy="136.3594" fill="none" rx="3" ry="3" style="stroke:#038048;stroke-width:1;"/></g><text fill="#000000" font-family="sans-serif" font-size="12" lengthAdjust="spacing" textLength="102.6914" x="441.87" y="139.0137">expiryDate: Date</text><g data-visibility-modifier="PUBLIC_FIELD"><ellipse cx="433.87" cy="150.3281" fill="none" rx="3" ry="3" style="stroke:#038048;stroke-width:1;"/></g><text fill="#000000" font-family="sans-serif" font-size="12" lengthAdjust="spacing" textLength="141.2637" x="441.87" y="152.9824">status: BloodUnitStatus</text><line style="stroke:#333333;stroke-width:0.5;" x1="423.87" x2="588.1337" y1="159.8125" y2="159.8125"/></g><!--class Resource--><g class="entity" data-qualified-name="DOM.Resource" data-source-line="76" id="ent0009"><rect fill="#F8F8F8" height="73.9375" rx="2.5" ry="2.5" style="stroke:#333333;stroke-width:0.5;" width="136.1113" x="922.94" y="65.94"/><ellipse cx="959.5648" cy="80.94" fill="#ADD1B2" rx="10" ry="10" style="stroke:#181818;stroke-width:1;"/><path d="M961.3929,85.19 Q960.9867,85.3931 960.5336,85.5025 Q960.0804,85.6119 959.5961,85.6119 Q957.8148,85.6119 956.8773,84.4556 Q955.9554,83.2838 955.9554,81.0806 Q955.9554,78.8619 956.8773,77.7056 Q957.8148,76.5338 959.5961,76.5338 Q960.0804,76.5338 960.5336,76.6431 Q961.0023,76.7369 961.3929,76.9556 L961.3929,78.8775 Q960.9554,78.4713 960.5336,78.2838 Q960.1117,78.0806 959.6742,78.0806 Q958.7211,78.0806 958.2367,78.8463 Q957.7523,79.5963 957.7523,81.0806 Q957.7523,82.5494 958.2367,83.2994 Q958.7211,84.0494 959.6742,84.0494 Q960.1117,84.0494 960.5336,83.8619 Q960.9554,83.6744 961.3929,83.2681 L961.3929,85.19 Z " fill="#000000"/><text fill="#000000" font-family="sans-serif" font-size="12" lengthAdjust="spacing" textLength="55.834" x="977.5925" y="85.0943">Resource</text><line style="stroke:#333333;stroke-width:0.5;" x1="923.94" x2="1058.0513" y1="95.94" y2="95.94"/><g data-visibility-modifier="PUBLIC_FIELD"><ellipse cx="933.94" cy="108.4244" fill="none" rx="3" ry="3" style="stroke:#038048;stroke-width:1;"/></g><text fill="#000000" font-family="sans-serif" font-size="12" lengthAdjust="spacing" textLength="76.7227" x="941.94" y="111.0787">owner: Actor</text><g data-visibility-modifier="PUBLIC_FIELD"><ellipse cx="933.94" cy="122.3931" fill="none" rx="3" ry="3" style="stroke:#038048;stroke-width:1;"/></g><text fill="#000000" font-family="sans-serif" font-size="12" lengthAdjust="spacing" textLength="111.1113" x="941.94" y="125.0474">accessible: Actor[]</text><line style="stroke:#333333;stroke-width:0.5;" x1="923.94" x2="1058.0513" y1="131.8775" y2="131.8775"/></g><g class="entity" data-qualified-name="DOM.GMN10" data-source-line="82" id="ent0011"><path d="M623.84,69.97 L623.84,98.91 L589.5,102.91 L623.84,106.91 L623.84,135.845 A0,0 0 0 0 623.84,135.845 L888.1681,135.845 A0,0 0 0 0 888.1681,135.845 L888.1681,79.97 L878.1681,69.97 L623.84,69.97 A0,0 0 0 0 623.84,69.97" fill="#FEFFDD" style="stroke:#181818;stroke-width:0.5;"/><path d="M878.1681,69.97 L878.1681,79.97 L888.1681,79.97 L878.1681,69.97" fill="#FEFFDD" style="stroke:#181818;stroke-width:0.5;"/><text fill="#000000" font-family="sans-serif" font-size="12" font-weight="700" lengthAdjust="spacing" textLength="73.2773" x="629.84" y="86.1087">Invariants:</text><text fill="#000000" font-family="sans-serif" font-size="12" lengthAdjust="spacing" textLength="243.3281" x="629.84" y="100.0774">- expiryDate = collectionDate + 42 days</text><text fill="#000000" font-family="sans-serif" font-size="12" lengthAdjust="spacing" textLength="231.6035" x="629.84" y="114.0462">- status &#8712; {available, issued, expired}</text><text fill="#000000" font-family="sans-serif" font-size="12" lengthAdjust="spacing" textLength="171.2871" x="629.84" y="128.0149">- uniqueID is globally unique</text></g><!--class Interface--><g class="entity" data-qualified-name="INFRA.Interface" data-source-line="90" id="ent0014"><rect fill="#F8F8F8" height="87.9063" rx="2.5" ry="2.5" style="stroke:#333333;stroke-width:0.5;" width="165.4023" x="1332.3" y="463.59"/><ellipse cx="1384.1389" cy="478.59" fill="#B4A7E5" rx="10" ry="10" style="stroke:#181818;stroke-width:1;"/><path d="M1381.1545,475.8713 L1381.1545,474.34 L1386.3576,474.34 L1386.3576,475.8713 L1384.6232,475.8713 L1384.6232,481.5588 L1386.3576,481.5588 L1386.3576,483.09 L1381.1545,483.09 L1381.1545,481.5588 L1382.8889,481.5588 L1382.8889,475.8713 L1381.1545,475.8713 Z " fill="#000000"/><text fill="#000000" font-family="sans-serif" font-size="12" font-style="italic" lengthAdjust="spacing" textLength="53.7246" x="1403.1389" y="482.7443">Interface</text><line style="stroke:#333333;stroke-width:0.5;" x1="1333.3" x2="1496.7023" y1="493.59" y2="493.59"/><g data-visibility-modifier="PUBLIC_FIELD"><ellipse cx="1343.3" cy="506.0744" fill="none" rx="3" ry="3" style="stroke:#038048;stroke-width:1;"/></g><text fill="#000000" font-family="sans-serif" font-size="12" lengthAdjust="spacing" textLength="69.1758" x="1351.3" y="508.7287">kind: String</text><g data-visibility-modifier="PUBLIC_FIELD"><ellipse cx="1343.3" cy="520.0431" fill="none" rx="3" ry="3" style="stroke:#038048;stroke-width:1;"/></g><text fill="#000000" font-family="sans-serif" font-size="12" lengthAdjust="spacing" textLength="117.3926" x="1351.3" y="522.6974">encrypted: Boolean</text><g data-visibility-modifier="PUBLIC_FIELD"><ellipse cx="1343.3" cy="534.0119" fill="none" rx="3" ry="3" style="stroke:#038048;stroke-width:1;"/></g><text fill="#000000" font-family="sans-serif" font-size="12" lengthAdjust="spacing" textLength="140.4023" x="1351.3" y="536.6662">authenticated: Boolean</text><line style="stroke:#333333;stroke-width:0.5;" x1="1333.3" x2="1496.7023" y1="543.4963" y2="543.4963"/></g><!--class BloodUnitDatabase--><g class="entity" data-qualified-name="INFRA.BloodUnitDatabase" data-source-line="96" id="ent0015"><rect fill="#F8F8F8" height="73.9375" rx="2.5" ry="2.5" style="stroke:#333333;stroke-width:0.5;" width="165.4023" x="1459.3" y="277.73"/><ellipse cx="1482.2323" cy="292.73" fill="#B4A7E5" rx="10" ry="10" style="stroke:#181818;stroke-width:1;"/><path d="M1479.2479,290.0113 L1479.2479,288.48 L1484.4511,288.48 L1484.4511,290.0113 L1482.7167,290.0113 L1482.7167,295.6988 L1484.4511,295.6988 L1484.4511,297.23 L1479.2479,297.23 L1479.2479,295.6988 L1480.9823,295.6988 L1480.9823,290.0113 L1479.2479,290.0113 Z " fill="#000000"/><text fill="#000000" font-family="sans-serif" font-size="12" font-style="italic" lengthAdjust="spacing" textLength="115.5527" x="1497.2173" y="296.8843">BloodUnitDatabase</text><line style="stroke:#333333;stroke-width:0.5;" x1="1460.3" x2="1623.7023" y1="307.73" y2="307.73"/><g data-visibility-modifier="PUBLIC_FIELD"><ellipse cx="1470.3" cy="320.2144" fill="none" rx="3" ry="3" style="stroke:#038048;stroke-width:1;"/></g><text fill="#000000" font-family="sans-serif" font-size="12" lengthAdjust="spacing" textLength="117.3926" x="1478.3" y="322.8687">encrypted: Boolean</text><g data-visibility-modifier="PUBLIC_FIELD"><ellipse cx="1470.3" cy="334.1831" fill="none" rx="3" ry="3" style="stroke:#038048;stroke-width:1;"/></g><text fill="#000000" font-family="sans-serif" font-size="12" lengthAdjust="spacing" textLength="140.4023" x="1478.3" y="336.8374">authenticated: Boolean</text><line style="stroke:#333333;stroke-width:0.5;" x1="1460.3" x2="1623.7023" y1="343.6675" y2="343.6675"/></g><!--class InventoryManagementUI--><g class="entity" data-qualified-name="INFRA.InventoryManagementUI" data-source-line="101" id="ent0016"><rect fill="#F8F8F8" height="73.9375" rx="2.5" ry="2.5" style="stroke:#333333;stroke-width:0.5;" width="178.6875" x="1245.66" y="277.73"/><ellipse cx="1259.66" cy="292.73" fill="#B4A7E5" rx="10" ry="10" style="stroke:#181818;stroke-width:1;"/><path d="M1256.6756,290.0113 L1256.6756,288.48 L1261.8788,288.48 L1261.8788,290.0113 L1260.1444,290.0113 L1260.1444,295.6988 L1261.8788,295.6988 L1261.8788,297.23 L1256.6756,297.23 L1256.6756,295.6988 L1258.41,295.6988 L1258.41,290.0113 L1256.6756,290.0113 Z " fill="#000000"/><text fill="#000000" font-family="sans-serif" font-size="12" font-style="italic" lengthAdjust="spacing" textLength="148.6875" x="1272.66" y="296.8843">InventoryManagementUI</text><line style="stroke:#333333;stroke-width:0.5;" x1="1246.66" x2="1423.3475" y1="307.73" y2="307.73"/><g data-visibility-modifier="PUBLIC_FIELD"><ellipse cx="1256.66" cy="320.2144" fill="none" rx="3" ry="3" style="stroke:#038048;stroke-width:1;"/></g><text fill="#000000" font-family="sans-serif" font-size="12" lengthAdjust="spacing" textLength="117.3926" x="1264.66" y="322.8687">encrypted: Boolean</text><g data-visibility-modifier="PUBLIC_FIELD"><ellipse cx="1256.66" cy="334.1831" fill="none" rx="3" ry="3" style="stroke:#038048;stroke-width:1;"/></g><text fill="#000000" font-family="sans-serif" font-size="12" lengthAdjust="spacing" textLength="140.4023" x="1264.66" y="336.8374">authenticated: Boolean</text><line style="stroke:#333333;stroke-width:0.5;" x1="1246.66" x2="1423.3475" y1="343.6675" y2="343.6675"/></g><!--class MissingCollectionDateException--><g class="entity" data-qualified-name="EXC.MissingCollectionDateException" data-source-line="108" id="ent0018"><rect fill="#F8F8F8" height="53.9375" rx="2.5" ry="2.5" style="stroke:#333333;stroke-width:0.5;" width="222.0527" x="1762.97" y="75.94"/><ellipse cx="1776.97" cy="94.9088" fill="#ADD1B2" rx="10" ry="10" style="stroke:#181818;stroke-width:1;"/><path d="M1778.7981,99.1588 Q1778.3919,99.3619 1777.9388,99.4713 Q1777.4856,99.5806 1777.0013,99.5806 Q1775.22,99.5806 1774.2825,98.4244 Q1773.3606,97.2525 1773.3606,95.0494 Q1773.3606,92.8306 1774.2825,91.6744 Q1775.22,90.5025 1777.0013,90.5025 Q1777.4856,90.5025 1777.9388,90.6119 Q1778.4075,90.7056 1778.7981,90.9244 L1778.7981,92.8463 Q1778.3606,92.44 1777.9388,92.2525 Q1777.5169,92.0494 1777.0794,92.0494 Q1776.1263,92.0494 1775.6419,92.815 Q1775.1575,93.565 1775.1575,95.0494 Q1775.1575,96.5181 1775.6419,97.2681 Q1776.1263,98.0181 1777.0794,98.0181 Q1777.5169,98.0181 1777.9388,97.8306 Q1778.3606,97.6431 1778.7981,97.2369 L1778.7981,99.1588 Z " fill="#000000"/><text fill="#000000" font-family="sans-serif" font-size="12" font-style="italic" lengthAdjust="spacing" textLength="73.752" x="1849.1204" y="92.0787">&#171;exception&#187;</text><text fill="#000000" font-family="sans-serif" font-size="12" lengthAdjust="spacing" textLength="192.0527" x="1789.97" y="106.0474">MissingCollectionDateException</text><line style="stroke:#333333;stroke-width:0.5;" x1="1763.97" x2="1984.0227" y1="113.8775" y2="113.8775"/><line style="stroke:#333333;stroke-width:0.5;" x1="1763.97" x2="1984.0227" y1="121.8775" y2="121.8775"/></g><!--class InvalidABOException--><g class="entity" data-qualified-name="EXC.InvalidABOException" data-source-line="109" id="ent0019"><rect fill="#F8F8F8" height="53.9375" rx="2.5" ry="2.5" style="stroke:#333333;stroke-width:0.5;" width="155.0391" x="2020.48" y="75.94"/><ellipse cx="2034.48" cy="94.9088" fill="#ADD1B2" rx="10" ry="10" style="stroke:#181818;stroke-width:1;"/><path d="M2036.3081,99.1588 Q2035.9019,99.3619 2035.4488,99.4713 Q2034.9956,99.5806 2034.5113,99.5806 Q2032.73,99.5806 2031.7925,98.4244 Q2030.8706,97.2525 2030.8706,95.0494 Q2030.8706,92.8306 2031.7925,91.6744 Q2032.73,90.5025 2034.5113,90.5025 Q2034.9956,90.5025 2035.4488,90.6119 Q2035.9175,90.7056 2036.3081,90.9244 L2036.3081,92.8463 Q2035.8706,92.44 2035.4488,92.2525 Q2035.0269,92.0494 2034.5894,92.0494 Q2033.6363,92.0494 2033.1519,92.815 Q2032.6675,93.565 2032.6675,95.0494 Q2032.6675,96.5181 2033.1519,97.2681 Q2033.6363,98.0181 2034.5894,98.0181 Q2035.0269,98.0181 2035.4488,97.8306 Q2035.8706,97.6431 2036.3081,97.2369 L2036.3081,99.1588 Z " fill="#000000"/><text fill="#000000" font-family="sans-serif" font-size="12" font-style="italic" lengthAdjust="spacing" textLength="73.752" x="2073.1236" y="92.0787">&#171;exception&#187;</text><text fill="#000000" font-family="sans-serif" font-size="12" lengthAdjust="spacing" textLength="125.0391" x="2047.48" y="106.0474">InvalidABOException</text><line style="stroke:#333333;stroke-width:0.5;" x1="2021.48" x2="2174.5191" y1="113.8775" y2="113.8775"/><line style="stroke:#333333;stroke-width:0.5;" x1="2021.48" x2="2174.5191" y1="121.8775" y2="121.8775"/></g><!--class DuplicateUniqueIDException--><g class="entity" data-qualified-name="EXC.DuplicateUniqueIDException" data-source-line="110" id="ent0020"><rect fill="#F8F8F8" height="53.9375" rx="2.5" ry="2.5" style="stroke:#333333;stroke-width:0.5;" width="201.5449" x="1773.23" y="287.73"/><ellipse cx="1787.23" cy="306.6988" fill="#ADD1B2" rx="10" ry="10" style="stroke:#181818;stroke-width:1;"/><path d="M1789.0581,310.9488 Q1788.6519,311.1519 1788.1988,311.2613 Q1787.7456,311.3706 1787.2613,311.3706 Q1785.48,311.3706 1784.5425,310.2144 Q1783.6206,309.0425 1783.6206,306.8394 Q1783.6206,304.6206 1784.5425,303.4644 Q1785.48,302.2925 1787.2613,302.2925 Q1787.7456,302.2925 1788.1988,302.4019 Q1788.6675,302.4956 1789.0581,302.7144 L1789.0581,304.6363 Q1788.6206,304.23 1788.1988,304.0425 Q1787.7769,303.8394 1787.3394,303.8394 Q1786.3863,303.8394 1785.9019,304.605 Q1785.4175,305.355 1785.4175,306.8394 Q1785.4175,308.3081 1785.9019,309.0581 Q1786.3863,309.8081 1787.3394,309.8081 Q1787.7769,309.8081 1788.1988,309.6206 Q1788.6206,309.4331 1789.0581,309.0269 L1789.0581,310.9488 Z " fill="#000000"/><text fill="#000000" font-family="sans-serif" font-size="12" font-style="italic" lengthAdjust="spacing" textLength="73.752" x="1849.1265" y="303.8687">&#171;exception&#187;</text><text fill="#000000" font-family="sans-serif" font-size="12" lengthAdjust="spacing" textLength="171.5449" x="1800.23" y="317.8374">DuplicateUniqueIDException</text><line style="stroke:#333333;stroke-width:0.5;" x1="1774.23" x2="1973.7749" y1="325.6675" y2="325.6675"/><line style="stroke:#333333;stroke-width:0.5;" x1="1774.23" x2="1973.7749" y1="333.6675" y2="333.6675"/></g><!--class BloodBankManager--><g class="entity" data-qualified-name="BloodBankManager" data-source-line="114" id="ent0021"><rect fill="#F8F8F8" height="46" rx="2.5" ry="2.5" style="stroke:#333333;stroke-width:0.5;" width="146.6074" x="1793.7" y="484.55"/><ellipse cx="1807.7" cy="499.55" fill="#ADD1B2" rx="10" ry="10" style="stroke:#181818;stroke-width:1;"/><path d="M1809.5281,503.8 Q1809.1219,504.0031 1808.6688,504.1125 Q1808.2156,504.2219 1807.7313,504.2219 Q1805.95,504.2219 1805.0125,503.0656 Q1804.0906,501.8938 1804.0906,499.6906 Q1804.0906,497.4719 1805.0125,496.3156 Q1805.95,495.1438 1807.7313,495.1438 Q1808.2156,495.1438 1808.6688,495.2531 Q1809.1375,495.3469 1809.5281,495.5656 L1809.5281,497.4875 Q1809.0906,497.0813 1808.6688,496.8938 Q1808.2469,496.6906 1807.8094,496.6906 Q1806.8563,496.6906 1806.3719,497.4563 Q1805.8875,498.2063 1805.8875,499.6906 Q1805.8875,501.1594 1806.3719,501.9094 Q1806.8563,502.6594 1807.8094,502.6594 Q1808.2469,502.6594 1808.6688,502.4719 Q1809.0906,502.2844 1809.5281,501.8781 L1809.5281,503.8 Z " fill="#000000"/><text fill="#000000" font-family="sans-serif" font-size="12" lengthAdjust="spacing" textLength="116.6074" x="1820.7" y="503.7043">BloodBankManager</text><line style="stroke:#333333;stroke-width:0.5;" x1="1794.7" x2="1939.3074" y1="514.55" y2="514.55"/><line style="stroke:#333333;stroke-width:0.5;" x1="1794.7" x2="1939.3074" y1="522.55" y2="522.55"/></g><!--class Actor--><g class="entity" data-qualified-name="Actor" id="ent0022"><rect fill="#F8F8F8" height="46" rx="2.5" ry="2.5" style="stroke:#333333;stroke-width:0.5;" width="61.7871" x="1669.11" y="291.7"/><ellipse cx="1683.11" cy="306.7" fill="#ADD1B2" rx="10" ry="10" style="stroke:#181818;stroke-width:1;"/><path d="M1684.9381,310.95 Q1684.5319,311.1531 1684.0788,311.2625 Q1683.6256,311.3719 1683.1413,311.3719 Q1681.36,311.3719 1680.4225,310.2156 Q1679.5006,309.0438 1679.5006,306.8406 Q1679.5006,304.6219 1680.4225,303.4656 Q1681.36,302.2938 1683.1413,302.2938 Q1683.6256,302.2938 1684.0788,302.4031 Q1684.5475,302.4969 1684.9381,302.7156 L1684.9381,304.6375 Q1684.5006,304.2313 1684.0788,304.0438 Q1683.6569,303.8406 1683.2194,303.8406 Q1682.2663,303.8406 1681.7819,304.6063 Q1681.2975,305.3563 1681.2975,306.8406 Q1681.2975,308.3094 1681.7819,309.0594 Q1682.2663,309.8094 1683.2194,309.8094 Q1683.6569,309.8094 1684.0788,309.6219 Q1684.5006,309.4344 1684.9381,309.0281 L1684.9381,310.95 Z " fill="#000000"/><text fill="#000000" font-family="sans-serif" font-size="12" lengthAdjust="spacing" textLength="31.7871" x="1696.11" y="310.8543">Actor</text><line style="stroke:#333333;stroke-width:0.5;" x1="1670.11" x2="1729.8971" y1="321.7" y2="321.7"/><line style="stroke:#333333;stroke-width:0.5;" x1="1670.11" x2="1729.8971" y1="329.7" y2="329.7"/></g><!--class InventoryManagementTeam--><g class="entity" data-qualified-name="InventoryManagementTeam" data-source-line="118" id="ent0024"><rect fill="#F8F8F8" height="46" rx="2.5" ry="2.5" style="stroke:#333333;stroke-width:0.5;" width="200.1211" x="1974.94" y="484.55"/><ellipse cx="1988.94" cy="499.55" fill="#ADD1B2" rx="10" ry="10" style="stroke:#181818;stroke-width:1;"/><path d="M1990.7681,503.8 Q1990.3619,504.0031 1989.9088,504.1125 Q1989.4556,504.2219 1988.9713,504.2219 Q1987.19,504.2219 1986.2525,503.0656 Q1985.3306,501.8938 1985.3306,499.6906 Q1985.3306,497.4719 1986.2525,496.3156 Q1987.19,495.1438 1988.9713,495.1438 Q1989.4556,495.1438 1989.9088,495.2531 Q1990.3775,495.3469 1990.7681,495.5656 L1990.7681,497.4875 Q1990.3306,497.0813 1989.9088,496.8938 Q1989.4869,496.6906 1989.0494,496.6906 Q1988.0963,496.6906 1987.6119,497.4563 Q1987.1275,498.2063 1987.1275,499.6906 Q1987.1275,501.1594 1987.6119,501.9094 Q1988.0963,502.6594 1989.0494,502.6594 Q1989.4869,502.6594 1989.9088,502.4719 Q1990.3306,502.2844 1990.7681,501.8781 L1990.7681,503.8 Z " fill="#000000"/><text fill="#000000" font-family="sans-serif" font-size="12" lengthAdjust="spacing" textLength="170.1211" x="2001.94" y="503.7043">InventoryManagementTeam</text><line style="stroke:#333333;stroke-width:0.5;" x1="1975.94" x2="2174.0611" y1="514.55" y2="514.55"/><line style="stroke:#333333;stroke-width:0.5;" x1="1975.94" x2="2174.0611" y1="522.55" y2="522.55"/></g><!--class ClinicalStaff--><g class="entity" data-qualified-name="ClinicalStaff" data-source-line="122" id="ent0026"><rect fill="#F8F8F8" height="46" rx="2.5" ry="2.5" style="stroke:#333333;stroke-width:0.5;" width="101.3965" x="1657.3" y="484.55"/><ellipse cx="1671.3" cy="499.55" fill="#ADD1B2" rx="10" ry="10" style="stroke:#181818;stroke-width:1;"/><path d="M1673.1281,503.8 Q1672.7219,504.0031 1672.2688,504.1125 Q1671.8156,504.2219 1671.3313,504.2219 Q1669.55,504.2219 1668.6125,503.0656 Q1667.6906,501.8938 1667.6906,499.6906 Q1667.6906,497.4719 1668.6125,496.3156 Q1669.55,495.1438 1671.3313,495.1438 Q1671.8156,495.1438 1672.2688,495.2531 Q1672.7375,495.3469 1673.1281,495.5656 L1673.1281,497.4875 Q1672.6906,497.0813 1672.2688,496.8938 Q1671.8469,496.6906 1671.4094,496.6906 Q1670.4563,496.6906 1669.9719,497.4563 Q1669.4875,498.2063 1669.4875,499.6906 Q1669.4875,501.1594 1669.9719,501.9094 Q1670.4563,502.6594 1671.4094,502.6594 Q1671.8469,502.6594 1672.2688,502.4719 Q1672.6906,502.2844 1673.1281,501.8781 L1673.1281,503.8 Z " fill="#000000"/><text fill="#000000" font-family="sans-serif" font-size="12" lengthAdjust="spacing" textLength="71.3965" x="1684.3" y="503.7043">ClinicalStaff</text><line style="stroke:#333333;stroke-width:0.5;" x1="1658.3" x2="1757.6965" y1="514.55" y2="514.55"/><line style="stroke:#333333;stroke-width:0.5;" x1="1658.3" x2="1757.6965" y1="522.55" y2="522.55"/></g><!--reverse link Actor to BloodBankManager--><g class="link" data-entity-1="ent0022" data-entity-2="ent0021" data-link-type="extension" id="lnk23"><path d="M1714.3149,354.7913 C1722.1549,375.0913 1729.12,388.4 1747,410.59 C1770.84,440.2 1805.33,466.57 1831.21,484.14" fill="none" id="Actor-backto-BloodBankManager" style="stroke:#181818;stroke-width:1;"/><polygon fill="none" points="1707.83,338,1708.7178,356.9529,1719.912,352.6296,1707.83,338" style="stroke:#181818;stroke-width:1;stroke-linejoin:miter;stroke-miterlimit:10;"/></g><!--reverse link Actor to InventoryManagementTeam--><g class="link" data-entity-1="ent0022" data-entity-2="ent0024" data-link-type="extension" id="lnk25"><path d="M1709.8898,355.4843 C1716.0198,377.3943 1723.7,392.64 1747,410.59 C1761.01,421.4 1768.77,414.58 1786,418.59 C1862.95,436.54 1882.6,439.95 1958,463.59 C1977.51,469.71 1998.56,477.17 2017.35,484.14" fill="none" id="Actor-backto-InventoryManagementTeam" style="stroke:#181818;stroke-width:1;"/><polygon fill="none" points="1705.04,338.15,1704.1117,357.1009,1715.6679,353.8677,1705.04,338.15" style="stroke:#181818;stroke-width:1;stroke-linejoin:miter;stroke-miterlimit:10;"/></g><!--reverse link Actor to ClinicalStaff--><g class="link" data-entity-1="ent0022" data-entity-2="ent0026" data-link-type="extension" id="lnk27"><path d="M1701.6853,355.9541 C1703.2253,392.6241 1705.52,447.35 1707.06,484.13" fill="none" id="Actor-backto-ClinicalStaff" style="stroke:#181818;stroke-width:1;"/><polygon fill="none" points="1700.93,337.97,1695.6905,356.2059,1707.68,355.7024,1700.93,337.97" style="stroke:#181818;stroke-width:1;stroke-linejoin:miter;stroke-miterlimit:10;"/></g><!--link Actor to Permission--><g class="link" data-entity-1="ent0022" data-entity-2="ent0002" data-link-type="association" data-source-line="129" id="lnk28"><path codeLine="129" d="M1687.24,291.47 C1676.68,274.76 1660.32,252.33 1641,237.73 C1501.61,132.46 1285.52,109.91 1190.09,105.14" fill="none" id="Actor-Permission" style="stroke:#181818;stroke-width:1;"/><polygon fill="#000000" points="1594.2544,204.3906,1600.2051,209.1317,1601.8554,204.7285,1594.2544,204.3906" style="stroke:#000000;stroke-width:1;stroke-linejoin:miter;stroke-miterlimit:10;"/><text fill="#000000" font-family="sans-serif" font-size="12" lengthAdjust="spacing" textLength="73.8867" x="1607" y="209.9487">mayPerform</text><text fill="#000000" font-family="sans-serif" font-size="12" lengthAdjust="spacing" textLength="7.6348" x="1675.5558" y="281.0178">1</text><text fill="#000000" font-family="sans-serif" font-size="12" lengthAdjust="spacing" textLength="21.2637" x="1197.6137" y="102.794">0..*</text></g><!--link BloodUnit to BloodUnitDatabase--><g class="link" data-entity-1="ent0008" data-entity-2="ent0015" data-link-type="association" data-source-line="132" id="lnk29"><path codeLine="132" d="M589.4,161.08 C594.89,163.62 600.45,165.9 606,167.81 C805.23,236.47 867.97,195.61 1078,212.81 C1158.81,219.43 1366.09,209.25 1442,237.73 C1465.27,246.47 1487.65,262.49 1505.31,277.57" fill="none" id="BloodUnit-BloodUnitDatabase" style="stroke:#181818;stroke-width:1;"/><polygon fill="#000000" points="1085.968,206.299,1079.0864,203.0537,1078.4932,207.7184,1085.968,206.299" style="stroke:#000000;stroke-width:1;stroke-linejoin:miter;stroke-miterlimit:10;"/><text fill="#000000" font-family="sans-serif" font-size="12" lengthAdjust="spacing" textLength="52.9863" x="1091" y="209.9487">stored in</text><text fill="#000000" font-family="sans-serif" font-size="12" lengthAdjust="spacing" textLength="21.2637" x="597.1869" y="163.538">0..*</text><text fill="#000000" font-family="sans-serif" font-size="12" lengthAdjust="spacing" textLength="7.6348" x="1490.086" y="266.8101">1</text></g><!--link BloodUnitDatabase to Resource--><g class="link" data-entity-1="ent0015" data-entity-2="ent0009" data-link-type="extension" data-source-line="135" id="lnk30"><path codeLine="135" d="M1504.19,277.26 C1486.64,262.5 1464.67,246.82 1442,237.73 C1350.66,201.12 1318.31,233.02 1222,212.81 C1155.96,198.95 1137.16,198.37 1077,167.81 C1062.07,160.23 1061.393,160.9026 1048.143,150.9326" fill="none" id="BloodUnitDatabase-to-Resource" style="stroke:#181818;stroke-width:1;stroke-dasharray:7,7;"/><polygon fill="none" points="1033.76,140.11,1044.5355,155.7269,1051.7506,146.1382,1033.76,140.11" style="stroke:#181818;stroke-width:1;stroke-linejoin:miter;stroke-miterlimit:10;"/><text fill="#000000" font-family="sans-serif" font-size="12" lengthAdjust="spacing" textLength="20.7539" x="1223" y="209.9487">is a</text></g><!--link BloodUnitDatabase to Interface--><g class="link" data-entity-1="ent0015" data-entity-2="ent0014" data-link-type="extension" data-source-line="136" id="lnk31"><path codeLine="136" d="M1517.81,352.05 C1496.73,383.74 1476.0691,414.7628 1453.7391,448.3328" fill="none" id="BloodUnitDatabase-to-Interface" style="stroke:#181818;stroke-width:1;stroke-dasharray:7,7;"/><polygon fill="none" points="1443.77,463.32,1458.7349,451.6558,1448.7434,445.0098,1443.77,463.32" style="stroke:#181818;stroke-width:1;stroke-linejoin:miter;stroke-miterlimit:10;"/><text fill="#000000" font-family="sans-serif" font-size="12" lengthAdjust="spacing" textLength="70.9922" x="1471" y="430.7287">implements</text></g><!--link InventoryManagementUI to Interface--><g class="link" data-entity-1="ent0016" data-entity-2="ent0014" data-link-type="extension" data-source-line="139" id="lnk32"><path codeLine="139" d="M1350.24,352.05 C1363.52,383.74 1375.8522,413.1491 1389.9222,446.7191" fill="none" id="InventoryManagementUI-to-Interface" style="stroke:#181818;stroke-width:1;stroke-dasharray:7,7;"/><polygon fill="none" points="1396.88,463.32,1395.4558,444.3999,1384.3886,449.0384,1396.88,463.32" style="stroke:#181818;stroke-width:1;stroke-linejoin:miter;stroke-miterlimit:10;"/><text fill="#000000" font-family="sans-serif" font-size="12" lengthAdjust="spacing" textLength="70.9922" x="1383" y="430.7287">implements</text></g><!--link Resource to Actor--><g class="link" data-entity-1="ent0009" data-entity-2="ent0022" data-link-type="dependency" data-source-line="142" id="lnk33"><path codeLine="142" d="M1031.31,140.28 C1044.95,150.75 1060.84,161.14 1077,167.81 C1109.28,181.13 1353.34,208.6 1388,212.81 C1444.08,219.63 1591.54,210.44 1641,237.73 C1662.78,249.76 1676.7636,269.1537 1686.6736,286.9137" fill="none" id="Resource-to-Actor" style="stroke:#181818;stroke-width:1;"/><polygon fill="#181818" points="1689.11,291.28,1688.2176,281.4717,1686.6736,286.9137,1681.2316,285.3698,1689.11,291.28" style="stroke:#181818;stroke-width:1;stroke-linejoin:miter;stroke-miterlimit:10;"/><text fill="#000000" font-family="sans-serif" font-size="12" lengthAdjust="spacing" textLength="37.0781" x="1389" y="209.9487">owner</text><text fill="#000000" font-family="sans-serif" font-size="12" lengthAdjust="spacing" textLength="7.6348" x="1030.692" y="159.0423">1</text><text fill="#000000" font-family="sans-serif" font-size="12" lengthAdjust="spacing" textLength="7.6348" x="1687.0314" y="280.772">1</text></g><!--link Resource to Actor--><g class="link" data-entity-1="ent0009" data-entity-2="ent0022" data-link-type="dependency" data-source-line="143" id="lnk34"><path codeLine="143" d="M1030.22,140.18 C1044.03,150.92 1060.3,161.49 1077,167.81 C1224.67,223.7 1274.57,176.37 1431,197.81 C1431,197.81 1641,237.73 1641,237.73 C1662.08,250.64 1676.0032,269.6838 1686.1032,287.1138" fill="none" id="Resource-to-Actor-1" style="stroke:#181818;stroke-width:1;"/><polygon fill="#181818" points="1688.61,291.44,1687.5586,281.6474,1686.1032,287.1138,1680.6367,285.6584,1688.61,291.44" style="stroke:#181818;stroke-width:1;stroke-linejoin:miter;stroke-miterlimit:10;"/><text fill="#000000" font-family="sans-serif" font-size="12" lengthAdjust="spacing" textLength="62.1035" x="1505" y="209.9487">accessible</text><text fill="#000000" font-family="sans-serif" font-size="12" lengthAdjust="spacing" textLength="7.6348" x="1037.6178" y="158.9251">1</text><text fill="#000000" font-family="sans-serif" font-size="12" lengthAdjust="spacing" textLength="6" x="1678.3819" y="280.979">*</text></g><?plantuml-src fLNRZjis47tNLn3kmxRU2xnsOhH2Qi0t0NxO2xnPj43HXx54UucbI9UaDkkc0VgO3-WNvaiw92LHygKf40kmgU7CcPap5-jd9hQW82SPNKF1JIA5kOMS4Wr2Nsggs3hInvGUs9-KNFSRboj8dpTA5YARIYuL-Iv9aiProa5hyZ4YP7AW-ADzx8rK6LMbT30OH9yQ04mOgjQGqkCWys7IHuS783-rGAWeyXD19CbWtjktdm_VJdkzDiHhIhU6IN4APzuxn1dlWMpH33OdKabwzjc760w7ABBSbu9-lu-OKGNLcSaSc20tCgEyGq2JsTsDS-2IlgSgPrfNSHEof92vmo-A6UfEyrUQ5kLvdELCu0azb0ZZoTtxtPQMvcFtFV5d_tFNKby-9P0Q3DJhtqlD37lnuBTq0-LBC9XmARD7mSo30LFeqWvUW75OSM-86HJKXqrVjqovSu2mbbM0zufULuT-5OAvhaz1DgXFR-hJsmhNz-suaScvm069qPTYOkCbEUoGtxLKUTmW-hVVso1rWXLG8TWV1LtCsc2mafRdk2BSIrL9PrmJw-Mfv9ocjXzdc7jCxBU_SGJjzgNQaHllizsET4crB5HQKNakFmYAdiV1BQGfnIInBgKu92iara2npPCXSXtyEBjkTo5UG34GHiVThfDTaX0f-Pcq4oBdv4sVPB3JfQwFdtpv_9byh7lZecoCYwehFfNQ5SDuJpPShe3pNIbqFPEvQ5jZj11h1Tge8ZM5ekJBt_zWGoYZtKWjRfFbsB4Irj6YjPYG6vpoh5rIAbArsngAuecKd88eMIpC4nM6fR1tvuWCBceIaH9OWQvTVIimLWFLfDhTWC3iStnvN7m3U9F8URKeFNNpNwSEs7VOZHqHiPcsYbrRa7VlwZKx6jL6jdSuot0klgOvAxRSnVTODi0f0mpuZ5pYXpmKAsTBjMrRF_3s8ceCxmJ4isTAOQSPx9_cQZXhp3vEcDkh5twHakzPRYF2sNzXGCA--C56K6UtNultrFtXVCMHtUGNvHglqQQS2MI0utYlr_yps0ORIyh1rUw9RRNd8JhprXWysVhe6nYHl-nSTr2RT7fNLzrEyqydRYHDHWWMjg56GvfXLnxsUHIqIaWBZZuE9o9kuBJmQmriGgXNMtHuVtNrroYiljZk33Yb5eOUzR2qhbmQtHwVgA0IBAFZglyDNuVdLhAjJbIBFFSZz-kh4Nkr8ohTe19M-Ry0?></g></svg>