<svg xmlns="http://www.w3.org/2000/svg" xmlns:xlink="http://www.w3.org/1999/xlink" version="1.1" data-diagram-type="CLASS" style="width:1341px;height:611px;background:#FFFFFF;" width="1341px" height="611px" viewBox="0 0 1341 611" zoomAndPan="magnify" preserveAspectRatio="none" contentStyleType="text/css"><?plantuml 1.2026.7beta3?><defs/><g><!--cluster Domain Model--><g class="cluster" data-qualified-name="Domain Model" id="ent0001" data-source-line="5"><rect x="7" y="7" width="819" height="463.38" fill="none" style="stroke:#000000;stroke-width:1.5;" rx="2.5" ry="2.5"/><text x="360.1104" y="21.9951" fill="#000000" font-size="14" lengthAdjust="spacing" textLength="112.7793" font-weight="700" font-family="Arial">Domain Model</text></g><!--cluster Infrastructure — Ports--><g class="cluster" data-qualified-name="Infrastructure . Ports" id="ent0011" data-source-line="36"><rect x="850" y="330.64" width="477" height="266.74" fill="none" style="stroke:#000000;stroke-width:1.5;" rx="2.5" ry="2.5"/><text x="1000.2856" y="345.6351" fill="#000000" font-size="14" lengthAdjust="spacing" textLength="176.4287" font-weight="700" font-family="Arial">Infrastructure — Ports</text></g><!--class Actor--><g class="entity" data-qualified-name="Domain Model.Actor" id="ent0002" data-source-line="6"><rect x="588.4" y="42" width="221.2002" height="64.2969" fill="#F1F1F1" style="stroke:#181818;stroke-width:0.5;" rx="2.5" ry="2.5"/><ellipse cx="676.2076" cy="58" rx="11" ry="11" fill="#A9DCDF" style="stroke:#181818;stroke-width:1;"/><path d="M676.317,53.3438 L675.1607,58.4219 L677.4889,58.4219 L676.317,53.3438 Z M674.8326,51.1094 L677.817,51.1094 L681.1764,63.5 L678.7232,63.5 L677.9576,60.4375 L674.6764,60.4375 L673.9264,63.5 L671.4889,63.5 L674.8326,51.1094 Z " fill="#000000"/><text x="696.7076" y="62.8467" fill="#000000" font-size="14" lengthAdjust="spacing" textLength="37.085" font-style="italic" font-family="Arial">Actor</text><line x1="589.4" y1="74" x2="808.6002" y2="74" style="stroke:#181818;stroke-width:0.5;"/><text x="594.4" y="90.9951" fill="#000000" font-size="14" lengthAdjust="spacing" textLength="209.2002" font-family="Arial">+mayPerform: set Permission</text><line x1="589.4" y1="98.2969" x2="808.6002" y2="98.2969" style="stroke:#181818;stroke-width:0.5;"/></g><!--class Instructor--><g class="entity" data-qualified-name="Domain Model.Instructor" id="ent0003" data-source-line="9"><rect x="677.04" y="183.6" width="99.9219" height="48" fill="#F1F1F1" style="stroke:#181818;stroke-width:0.5;" rx="2.5" ry="2.5"/><ellipse cx="692.04" cy="199.6" rx="11" ry="11" fill="#ADD1B2" style="stroke:#181818;stroke-width:1;"/><path d="M695.0088,205.2406 Q694.4306,205.5375 693.79,205.6781 Q693.1494,205.8344 692.4463,205.8344 Q689.9463,205.8344 688.6181,204.1938 Q687.3056,202.5375 687.3056,199.4125 Q687.3056,196.2875 688.6181,194.6313 Q689.9463,192.975 692.4463,192.975 Q693.1494,192.975 693.79,193.1313 Q694.4463,193.2875 695.0088,193.5844 L695.0088,196.3031 Q694.3838,195.725 693.79,195.4594 Q693.1963,195.1781 692.5713,195.1781 Q691.2275,195.1781 690.54,196.2563 Q689.8525,197.3188 689.8525,199.4125 Q689.8525,201.5063 690.54,202.5844 Q691.2275,203.6469 692.5713,203.6469 Q693.1963,203.6469 693.79,203.3813 Q694.3838,203.1 695.0088,202.5219 L695.0088,205.2406 Z " fill="#000000"/><text x="706.04" y="204.4467" fill="#000000" font-size="14" lengthAdjust="spacing" textLength="67.9219" font-family="Arial">Instructor</text><line x1="678.04" y1="215.6" x2="775.9619" y2="215.6" style="stroke:#181818;stroke-width:0.5;"/><line x1="678.04" y1="223.6" x2="775.9619" y2="223.6" style="stroke:#181818;stroke-width:0.5;"/></g><!--class InstructorAccount--><g class="entity" data-qualified-name="Domain Model.InstructorAccount" id="ent0005" data-source-line="11"><rect x="22.59" y="324.9" width="412.8115" height="129.4844" fill="#F1F1F1" style="stroke:#181818;stroke-width:0.5;" rx="2.5" ry="2.5"/><ellipse cx="162.3986" cy="340.9" rx="11" ry="11" fill="#ADD1B2" style="stroke:#181818;stroke-width:1;"/><path d="M165.3673,346.5406 Q164.7892,346.8375 164.1486,346.9781 Q163.508,347.1344 162.8048,347.1344 Q160.3048,347.1344 158.9767,345.4938 Q157.6642,343.8375 157.6642,340.7125 Q157.6642,337.5875 158.9767,335.9313 Q160.3048,334.275 162.8048,334.275 Q163.508,334.275 164.1486,334.4313 Q164.8048,334.5875 165.3673,334.8844 L165.3673,337.6031 Q164.7423,337.025 164.1486,336.7594 Q163.5548,336.4781 162.9298,336.4781 Q161.5861,336.4781 160.8986,337.5563 Q160.2111,338.6188 160.2111,340.7125 Q160.2111,342.8063 160.8986,343.8844 Q161.5861,344.9469 162.9298,344.9469 Q163.5548,344.9469 164.1486,344.6813 Q164.7423,344.4 165.3673,343.8219 L165.3673,346.5406 Z " fill="#000000"/><text x="182.8986" y="345.7467" fill="#000000" font-size="14" lengthAdjust="spacing" textLength="124.6943" font-family="Arial">InstructorAccount</text><line x1="23.59" y1="356.9" x2="434.4015" y2="356.9" style="stroke:#181818;stroke-width:0.5;"/><text x="28.59" y="373.8951" fill="#000000" font-size="14" lengthAdjust="spacing" textLength="101.2402" font-family="Arial">+owner: Actor</text><text x="28.59" y="390.192" fill="#000000" font-size="14" lengthAdjust="spacing" textLength="156.2832" font-family="Arial">+accessible: set Actor</text><text x="28.59" y="406.4889" fill="#000000" font-size="14" lengthAdjust="spacing" textLength="327.2227" font-family="Arial">note right: invariant: owner_always_accessible</text><line x1="23.59" y1="413.7906" x2="434.4015" y2="413.7906" style="stroke:#181818;stroke-width:0.5;"/><text x="28.59" y="430.7857" fill="#000000" font-size="14" lengthAdjust="spacing" textLength="400.8115" font-family="Arial">+create(owner: Instructor, permission: Permission.Write)</text><text x="28.59" y="447.0826" fill="#000000" font-size="14" lengthAdjust="spacing" textLength="182.2051" font-family="Arial">+generateSessionToken()</text></g><!--class DashboardContent--><g class="entity" data-qualified-name="Domain Model.DashboardContent" id="ent0006" data-source-line="18"><rect x="470.39" y="333.04" width="339.2227" height="113.1875" fill="#F1F1F1" style="stroke:#181818;stroke-width:0.5;" rx="2.5" ry="2.5"/><ellipse cx="569.8119" cy="349.04" rx="11" ry="11" fill="#ADD1B2" style="stroke:#181818;stroke-width:1;"/><path d="M572.7806,354.6806 Q572.2025,354.9775 571.5619,355.1181 Q570.9213,355.2744 570.2181,355.2744 Q567.7181,355.2744 566.39,353.6338 Q565.0775,351.9775 565.0775,348.8525 Q565.0775,345.7275 566.39,344.0713 Q567.7181,342.415 570.2181,342.415 Q570.9213,342.415 571.5619,342.5713 Q572.2181,342.7275 572.7806,343.0244 L572.7806,345.7431 Q572.1556,345.165 571.5619,344.8994 Q570.9681,344.6181 570.3431,344.6181 Q568.9994,344.6181 568.3119,345.6963 Q567.6244,346.7588 567.6244,348.8525 Q567.6244,350.9463 568.3119,352.0244 Q568.9994,353.0869 570.3431,353.0869 Q570.9681,353.0869 571.5619,352.8213 Q572.1556,352.54 572.7806,351.9619 L572.7806,354.6806 Z " fill="#000000"/><text x="590.3119" y="353.8867" fill="#000000" font-size="14" lengthAdjust="spacing" textLength="131.8789" font-family="Arial">DashboardContent</text><line x1="471.39" y1="365.04" x2="808.6127" y2="365.04" style="stroke:#181818;stroke-width:0.5;"/><text x="476.39" y="382.0351" fill="#000000" font-size="14" lengthAdjust="spacing" textLength="101.2402" font-family="Arial">+owner: Actor</text><text x="476.39" y="398.332" fill="#000000" font-size="14" lengthAdjust="spacing" textLength="156.2832" font-family="Arial">+accessible: set Actor</text><text x="476.39" y="414.6289" fill="#000000" font-size="14" lengthAdjust="spacing" textLength="327.2227" font-family="Arial">note right: invariant: owner_always_accessible</text><line x1="471.39" y1="421.9306" x2="808.6127" y2="421.9306" style="stroke:#181818;stroke-width:0.5;"/><text x="476.39" y="438.9257" fill="#000000" font-size="14" lengthAdjust="spacing" textLength="246.251" font-family="Arial">+create(owner: Instructor, data: ..)</text></g><!--class Exam--><g class="entity" data-qualified-name="Domain Model.Exam" id="ent0007" data-source-line="24"><rect x="192.33" y="50.15" width="71.3477" height="48" fill="#F1F1F1" style="stroke:#181818;stroke-width:0.5;" rx="2.5" ry="2.5"/><ellipse cx="207.33" cy="66.15" rx="11" ry="11" fill="#ADD1B2" style="stroke:#181818;stroke-width:1;"/><path d="M210.2988,71.7906 Q209.7206,72.0875 209.08,72.2281 Q208.4394,72.3844 207.7363,72.3844 Q205.2363,72.3844 203.9081,70.7437 Q202.5956,69.0875 202.5956,65.9625 Q202.5956,62.8375 203.9081,61.1812 Q205.2363,59.525 207.7363,59.525 Q208.4394,59.525 209.08,59.6812 Q209.7363,59.8375 210.2988,60.1344 L210.2988,62.8531 Q209.6738,62.275 209.08,62.0094 Q208.4863,61.7281 207.8613,61.7281 Q206.5175,61.7281 205.83,62.8062 Q205.1425,63.8687 205.1425,65.9625 Q205.1425,68.0562 205.83,69.1344 Q206.5175,70.1969 207.8613,70.1969 Q208.4863,70.1969 209.08,69.9312 Q209.6738,69.65 210.2988,69.0719 L210.2988,71.7906 Z " fill="#000000"/><text x="221.33" y="70.9967" fill="#000000" font-size="14" lengthAdjust="spacing" textLength="39.3477" font-family="Arial">Exam</text><line x1="193.33" y1="82.15" x2="262.6777" y2="82.15" style="stroke:#181818;stroke-width:0.5;"/><line x1="193.33" y1="90.15" x2="262.6777" y2="90.15" style="stroke:#181818;stroke-width:0.5;"/></g><!--class Enrollment--><g class="entity" data-qualified-name="Domain Model.Enrollment" id="ent0008" data-source-line="26"><rect x="298.78" y="50.15" width="108.4326" height="48" fill="#F1F1F1" style="stroke:#181818;stroke-width:0.5;" rx="2.5" ry="2.5"/><ellipse cx="313.78" cy="66.15" rx="11" ry="11" fill="#ADD1B2" style="stroke:#181818;stroke-width:1;"/><path d="M316.7488,71.7906 Q316.1706,72.0875 315.53,72.2281 Q314.8894,72.3844 314.1863,72.3844 Q311.6863,72.3844 310.3581,70.7437 Q309.0456,69.0875 309.0456,65.9625 Q309.0456,62.8375 310.3581,61.1812 Q311.6863,59.525 314.1863,59.525 Q314.8894,59.525 315.53,59.6812 Q316.1863,59.8375 316.7488,60.1344 L316.7488,62.8531 Q316.1238,62.275 315.53,62.0094 Q314.9363,61.7281 314.3113,61.7281 Q312.9675,61.7281 312.28,62.8062 Q311.5925,63.8687 311.5925,65.9625 Q311.5925,68.0562 312.28,69.1344 Q312.9675,70.1969 314.3113,70.1969 Q314.9363,70.1969 315.53,69.9312 Q316.1238,69.65 316.7488,69.0719 L316.7488,71.7906 Z " fill="#000000"/><text x="327.78" y="70.9967" fill="#000000" font-size="14" lengthAdjust="spacing" textLength="76.4326" font-family="Arial">Enrollment</text><line x1="299.78" y1="82.15" x2="406.2126" y2="82.15" style="stroke:#181818;stroke-width:0.5;"/><line x1="299.78" y1="90.15" x2="406.2126" y2="90.15" style="stroke:#181818;stroke-width:0.5;"/></g><!--class Competency--><g class="entity" data-qualified-name="Domain Model.Competency" id="ent0009" data-source-line="28"><rect x="167.78" y="183.6" width="120.4365" height="48" fill="#F1F1F1" style="stroke:#181818;stroke-width:0.5;" rx="2.5" ry="2.5"/><ellipse cx="182.78" cy="199.6" rx="11" ry="11" fill="#ADD1B2" style="stroke:#181818;stroke-width:1;"/><path d="M185.7488,205.2406 Q185.1706,205.5375 184.53,205.6781 Q183.8894,205.8344 183.1863,205.8344 Q180.6863,205.8344 179.3581,204.1938 Q178.0456,202.5375 178.0456,199.4125 Q178.0456,196.2875 179.3581,194.6313 Q180.6863,192.975 183.1863,192.975 Q183.8894,192.975 184.53,193.1313 Q185.1863,193.2875 185.7488,193.5844 L185.7488,196.3031 Q185.1238,195.725 184.53,195.4594 Q183.9363,195.1781 183.3113,195.1781 Q181.9675,195.1781 181.28,196.2563 Q180.5925,197.3188 180.5925,199.4125 Q180.5925,201.5063 181.28,202.5844 Q181.9675,203.6469 183.3113,203.6469 Q183.9363,203.6469 184.53,203.3813 Q185.1238,203.1 185.7488,202.5219 L185.7488,205.2406 Z " fill="#000000"/><text x="196.78" y="204.4467" fill="#000000" font-size="14" lengthAdjust="spacing" textLength="88.4365" font-family="Arial">Competency</text><line x1="168.78" y1="215.6" x2="287.2165" y2="215.6" style="stroke:#181818;stroke-width:0.5;"/><line x1="168.78" y1="223.6" x2="287.2165" y2="223.6" style="stroke:#181818;stroke-width:0.5;"/></g><!--class Permission--><g class="entity" data-qualified-name="Domain Model.Permission" id="ent0010" data-source-line="30"><rect x="322.87" y="167.3" width="108.2549" height="80.5938" fill="#F1F1F1" style="stroke:#181818;stroke-width:0.5;" rx="2.5" ry="2.5"/><ellipse cx="337.87" cy="183.3" rx="11" ry="11" fill="#EB937F" style="stroke:#181818;stroke-width:1;"/><path d="M341.9794,189.3 L334.2606,189.3 L334.2606,176.9094 L341.9794,176.9094 L341.9794,179.0656 L336.7138,179.0656 L336.7138,181.7375 L341.4794,181.7375 L341.4794,183.8938 L336.7138,183.8938 L336.7138,187.1438 L341.9794,187.1438 L341.9794,189.3 Z " fill="#000000"/><text x="351.87" y="188.1467" fill="#000000" font-size="14" lengthAdjust="spacing" textLength="76.2549" font-family="Arial">Permission</text><line x1="323.87" y1="199.3" x2="430.1249" y2="199.3" style="stroke:#181818;stroke-width:0.5;"/><text x="328.87" y="216.2951" fill="#000000" font-size="14" lengthAdjust="spacing" textLength="35.8066" font-family="Arial">Read</text><text x="328.87" y="232.592" fill="#000000" font-size="14" lengthAdjust="spacing" textLength="37.5908" font-family="Arial">Write</text><line x1="323.87" y1="239.8938" x2="430.1249" y2="239.8938" style="stroke:#181818;stroke-width:0.5;"/></g><!--class Registration_API--><g class="entity" data-qualified-name="Infrastructure . Ports.Registration_API" id="ent0012" data-source-line="37"><rect x="865.9" y="365.64" width="146.2012" height="48" fill="#F1F1F1" style="stroke:#181818;stroke-width:0.5;" rx="2.5" ry="2.5"/><ellipse cx="880.9" cy="381.64" rx="11" ry="11" fill="#B4A7E5" style="stroke:#181818;stroke-width:1;"/><path d="M876.8219,377.4056 L876.8219,375.2494 L884.2125,375.2494 L884.2125,377.4056 L881.7438,377.4056 L881.7438,385.4838 L884.2125,385.4838 L884.2125,387.64 L876.8219,387.64 L876.8219,385.4838 L879.2906,385.4838 L879.2906,377.4056 L876.8219,377.4056 Z " fill="#000000"/><text x="894.9" y="386.4867" fill="#000000" font-size="14" lengthAdjust="spacing" textLength="114.2012" font-style="italic" font-family="Arial">Registration_API</text><line x1="866.9" y1="397.64" x2="1011.1012" y2="397.64" style="stroke:#181818;stroke-width:0.5;"/><line x1="866.9" y1="405.64" x2="1011.1012" y2="405.64" style="stroke:#181818;stroke-width:0.5;"/></g><!--class Login_API--><g class="entity" data-qualified-name="Infrastructure . Ports.Login_API" id="ent0013" data-source-line="39"><rect x="1047.42" y="365.64" width="99.1631" height="48" fill="#F1F1F1" style="stroke:#181818;stroke-width:0.5;" rx="2.5" ry="2.5"/><ellipse cx="1062.42" cy="381.64" rx="11" ry="11" fill="#B4A7E5" style="stroke:#181818;stroke-width:1;"/><path d="M1058.3419,377.4056 L1058.3419,375.2494 L1065.7325,375.2494 L1065.7325,377.4056 L1063.2638,377.4056 L1063.2638,385.4838 L1065.7325,385.4838 L1065.7325,387.64 L1058.3419,387.64 L1058.3419,385.4838 L1060.8106,385.4838 L1060.8106,377.4056 L1058.3419,377.4056 Z " fill="#000000"/><text x="1076.42" y="386.4867" fill="#000000" font-size="14" lengthAdjust="spacing" textLength="67.1631" font-style="italic" font-family="Arial">Login_API</text><line x1="1048.42" y1="397.64" x2="1145.5831" y2="397.64" style="stroke:#181818;stroke-width:0.5;"/><line x1="1048.42" y1="405.64" x2="1145.5831" y2="405.64" style="stroke:#181818;stroke-width:0.5;"/></g><!--class User_Database--><g class="entity" data-qualified-name="Infrastructure . Ports.User_Database" id="ent0014" data-source-line="41"><rect x="1028.14" y="533.38" width="137.7109" height="48" fill="#F1F1F1" style="stroke:#181818;stroke-width:0.5;" rx="2.5" ry="2.5"/><ellipse cx="1043.14" cy="549.38" rx="11" ry="11" fill="#B4A7E5" style="stroke:#181818;stroke-width:1;"/><path d="M1039.0619,545.1456 L1039.0619,542.9894 L1046.4525,542.9894 L1046.4525,545.1456 L1043.9838,545.1456 L1043.9838,553.2238 L1046.4525,553.2238 L1046.4525,555.38 L1039.0619,555.38 L1039.0619,553.2238 L1041.5306,553.2238 L1041.5306,545.1456 L1039.0619,545.1456 Z " fill="#000000"/><text x="1057.14" y="554.2267" fill="#000000" font-size="14" lengthAdjust="spacing" textLength="105.7109" font-style="italic" font-family="Arial">User_Database</text><line x1="1029.14" y1="565.38" x2="1164.8509" y2="565.38" style="stroke:#181818;stroke-width:0.5;"/><line x1="1029.14" y1="573.38" x2="1164.8509" y2="573.38" style="stroke:#181818;stroke-width:0.5;"/></g><!--class Dashboard_UI--><g class="entity" data-qualified-name="Infrastructure . Ports.Dashboard_UI" id="ent0015" data-source-line="43"><rect x="1181.21" y="365.64" width="129.5762" height="48" fill="#F1F1F1" style="stroke:#181818;stroke-width:0.5;" rx="2.5" ry="2.5"/><ellipse cx="1196.21" cy="381.64" rx="11" ry="11" fill="#B4A7E5" style="stroke:#181818;stroke-width:1;"/><path d="M1192.1319,377.4056 L1192.1319,375.2494 L1199.5225,375.2494 L1199.5225,377.4056 L1197.0538,377.4056 L1197.0538,385.4838 L1199.5225,385.4838 L1199.5225,387.64 L1192.1319,387.64 L1192.1319,385.4838 L1194.6006,385.4838 L1194.6006,377.4056 L1192.1319,377.4056 Z " fill="#000000"/><text x="1210.21" y="386.4867" fill="#000000" font-size="14" lengthAdjust="spacing" textLength="97.5762" font-style="italic" font-family="Arial">Dashboard_UI</text><line x1="1182.21" y1="397.64" x2="1309.7862" y2="397.64" style="stroke:#181818;stroke-width:0.5;"/><line x1="1182.21" y1="405.64" x2="1309.7862" y2="405.64" style="stroke:#181818;stroke-width:0.5;"/></g><!--reverse link Actor to Instructor--><g class="link" data-entity-1="ent0002" data-entity-2="ent0003" id="lnk4" data-link-type="extension"><path d="M709.457,124.2457 C714.467,147.7857 717.47,161.86 722.01,183.19" style="stroke:#181818;stroke-width:1;" fill="none" id="Actor-backto-Instructor"/><polygon points="705.71,106.64,703.5884,125.4947,715.3256,122.9967,705.71,106.64" fill="none" style="stroke:#181818;stroke-width:1;stroke-linejoin:miter;stroke-miterlimit:10;"/></g><!--link Instructor to InstructorAccount--><g class="link" data-entity-1="ent0003" data-entity-2="ent0005" id="lnk16" data-source-line="48" data-link-type="association"><path d="M676.97,226.69 C614.01,249.45 502.49,289.76 406.47,324.48" style="stroke:#181818;stroke-width:1;" fill="none" id="Instructor-InstructorAccount" codeLine="48"/><text x="523" y="290.9669" fill="#000000" font-size="13" lengthAdjust="spacing" textLength="40.168" font-family="Arial">owner</text><text x="660.7173" y="225.5418" fill="#000000" font-size="13" lengthAdjust="spacing" textLength="8.271" font-family="Arial">1</text><text x="416.3735" y="314.0605" fill="#000000" font-size="13" lengthAdjust="spacing" textLength="8.271" font-family="Arial">1</text></g><!--link Instructor to DashboardContent--><g class="link" data-entity-1="ent0003" data-entity-2="ent0006" id="lnk17" data-source-line="49" data-link-type="association"><path d="M692.15,231.94 C677.23,243.85 661.17,259.69 652,277.9 C643.61,294.56 639.84,314.4 638.4,332.65" style="stroke:#181818;stroke-width:1;" fill="none" id="Instructor-DashboardContent" codeLine="49"/><text x="653" y="290.9669" fill="#000000" font-size="13" lengthAdjust="spacing" textLength="58.5762" font-family="Arial">accesses</text><text x="674.7131" y="251.7841" fill="#000000" font-size="13" lengthAdjust="spacing" textLength="8.271" font-family="Arial">1</text><text x="631.8697" y="321.866" fill="#000000" font-size="13" lengthAdjust="spacing" textLength="6.5" font-family="Arial">*</text></g><!--link Instructor to Registration_API--><g class="link" data-entity-1="ent0003" data-entity-2="ent0012" id="lnk18" data-source-line="50" data-link-type="dependency"><path d="M754.28,231.77 C794.88,266.24 866.9489,327.4434 907.6789,362.0334" style="stroke:#181818;stroke-width:1;stroke-dasharray:7,7;" fill="none" id="Instructor-to-Registration_API" codeLine="50"/><polygon points="911.49,365.27,907.2193,356.3953,907.6789,362.0334,902.0407,362.493,911.49,365.27" fill="#181818" style="stroke:#181818;stroke-width:1;stroke-linejoin:miter;stroke-miterlimit:10;"/><text x="827" y="290.9669" fill="#000000" font-size="13" lengthAdjust="spacing" textLength="29.7832" font-family="Arial">uses</text></g><!--link Instructor to Login_API--><g class="link" data-entity-1="ent0003" data-entity-2="ent0013" id="lnk19" data-source-line="51" data-link-type="dependency"><path d="M777.43,220.63 C840.09,237.08 948.67,270.63 1030,322.64 C1048.16,334.25 1062.0681,347.702 1074.5181,361.632" style="stroke:#181818;stroke-width:1;stroke-dasharray:7,7;" fill="none" id="Instructor-to-Login_API" codeLine="51"/><polygon points="1077.85,365.36,1074.8349,355.984,1074.5181,361.632,1068.8701,361.3151,1077.85,365.36" fill="#181818" style="stroke:#181818;stroke-width:1;stroke-linejoin:miter;stroke-miterlimit:10;"/><text x="977" y="290.9669" fill="#000000" font-size="13" lengthAdjust="spacing" textLength="29.7832" font-family="Arial">uses</text></g><!--link Instructor to Dashboard_UI--><g class="link" data-entity-1="ent0003" data-entity-2="ent0015" id="lnk20" data-source-line="52" data-link-type="dependency"><path d="M777.19,214.14 C861.35,225.04 1034.44,254.41 1164,322.64 C1185.51,333.96 1203.1001,347.9669 1218.5901,362.0469" style="stroke:#181818;stroke-width:1;stroke-dasharray:7,7;" fill="none" id="Instructor-to-Dashboard_UI" codeLine="52"/><polygon points="1222.29,365.41,1218.3207,356.3964,1218.5901,362.0469,1212.9396,362.3163,1222.29,365.41" fill="#181818" style="stroke:#181818;stroke-width:1;stroke-linejoin:miter;stroke-miterlimit:10;"/><text x="1098" y="290.9669" fill="#000000" font-size="13" lengthAdjust="spacing" textLength="29.7832" font-family="Arial">uses</text></g><!--link Registration_API to User_Database--><g class="link" data-entity-1="ent0012" data-entity-2="ent0014" id="lnk21" data-source-line="53" data-link-type="dependency"><path d="M961.3,414.03 C991.42,445.62 1041.3099,497.9611 1071.3599,529.4811" style="stroke:#181818;stroke-width:1;stroke-dasharray:7,7;" fill="none" id="Registration_API-to-User_Database" codeLine="53"/><polygon points="1074.81,533.1,1071.4949,523.8258,1071.3599,529.4811,1065.7046,529.3461,1074.81,533.1" fill="#181818" style="stroke:#181818;stroke-width:1;stroke-linejoin:miter;stroke-miterlimit:10;"/><text x="1046" y="499.4469" fill="#000000" font-size="13" lengthAdjust="spacing" textLength="29.7832" font-family="Arial">uses</text></g><!--link Login_API to User_Database--><g class="link" data-entity-1="ent0013" data-entity-2="ent0014" id="lnk22" data-source-line="54" data-link-type="dependency"><path d="M1097,414.03 C1097,445.62 1097,496.58 1097,528.1" style="stroke:#181818;stroke-width:1;stroke-dasharray:7,7;" fill="none" id="Login_API-to-User_Database" codeLine="54"/><polygon points="1097,533.1,1101,524.1,1097,528.1,1093,524.1,1097,533.1" fill="#181818" style="stroke:#181818;stroke-width:1;stroke-linejoin:miter;stroke-miterlimit:10;"/><text x="1098" y="499.4469" fill="#000000" font-size="13" lengthAdjust="spacing" textLength="29.7832" font-family="Arial">uses</text></g><!--link Dashboard_UI to User_Database--><g class="link" data-entity-1="ent0015" data-entity-2="ent0014" id="lnk23" data-source-line="55" data-link-type="dependency"><path d="M1224.97,414.03 C1196.57,445.62 1149.613,497.8619 1121.273,529.3819" style="stroke:#181818;stroke-width:1;stroke-dasharray:7,7;" fill="none" id="Dashboard_UI-to-User_Database" codeLine="55"/><polygon points="1117.93,533.1,1126.9219,529.0818,1121.273,529.3819,1120.9729,523.733,1117.93,533.1" fill="#181818" style="stroke:#181818;stroke-width:1;stroke-linejoin:miter;stroke-miterlimit:10;"/><text x="1159" y="499.4469" fill="#000000" font-size="13" lengthAdjust="spacing" textLength="29.7832" font-family="Arial">uses</text></g><?plantuml-src pLBBRjj03BphAmXTchIDq5vrA2342M0WBOowGOy6jQBbXLUxmYxLn2q2z2FwXVsIqfAY1spVUp0iQMOu799XhssD7YjG1aF8cBtE6wQbSdQjVn9yYC90AMYBZU5xP_aBLWIPrsWcU8rgZoMj-M08F2b6MngAeluxn0jNeRRmsHLaOlWL0M0UsAFYpXuonSwt0C0xgF2m8hzrlaeX48EyL3e4xQmGNkJNYPPMQZIjafwPR36jSuwMAUKQouEFUxBaqqxKVqAbI9noGvtrY5d74awNEqv1snyeCx3osDROe7d2GzYCwkXOJ7b2fglUPkpZFTH3edIIBldkDTDrgor9HA9UKmjzStkoLzUpO0iCkzoXBsvbCVHVv2gGCOKacJTwzon7Cb_AdVNEcEgrwn6uTLLDaaOT1e1iKqscrCVyIbYq3-tGMkhBvEIMTkknQwpn17z__u6LynowyzCoCBz5HLAcrCTJPAcyoLRBmNMaFBXINy8UWqnf8Qbp37G67tQqUNoLIvTlnDQqbc6dwn1DBZd-6CFDJVjtUhZzMixntyQdzv3sQwUPGv9yEasTGdE6DYO_Zy_IzPIJqaVYV4mzSwn-aJ8pkCJw1m00?></g></svg>